<?xml version="1.0" encoding="UTF-8"?><!DOCTYPE svg PUBLIC "-//W3C//DTD SVG 1.1//EN" "http://www.w3.org/Graphics/SVG/1.1/DTD/svg11.dtd"><svg xmlns="http://www.w3.org/2000/svg"><symbol id="scroll-down" viewBox="0 0 17 10.768194"><path d="M7.332 10.279c0-.27-.434-.49-.965-.49C5.113 9.79.97 5.65.97 4.395c0-.53-.22-.965-.489-.965-.826 0-.543-1.414.49-2.447C1.981-.028 4.395-.373 4.395.493c0 .27.43.49.957.49.526 0 1.517.56 2.202 1.245L8.8 3.473l1.246-1.245C10.73 1.543 11.72.982 12.247.982s.957-.22.957-.489c0-.27.623-.49 1.385-.49 1.774 0 2.772 1.695 2.29 3.89-.41 1.864-4.27 5.897-5.645 5.897-.531 0-.966.22-.966.489s-.66.49-1.468.49c-.807 0-1.468-.221-1.468-.49z" fill="#fefefe"/></symbol><symbol id="toggle-next" viewBox="0 0 46 79.864479"><path d="M9.518.744c1.695.94 34.942 34.225 35.776 35.818.91 1.734.904 5.06-.01 6.78C44.424 44.966 10.81 78.506 9.26 79.29c-.6.303-2.308.551-3.797.551-2.26 0-2.924-.217-4.021-1.314C.377 77.462.127 76.745.127 74.754c0-1.351.248-2.948.551-3.547.303-.599 7.314-7.876 15.579-16.172l15.028-15.083-15.028-15.083C7.992 16.573.981 9.296.678 8.697c-.303-.6-.55-2.236-.55-3.638C.127 1.374 1.54.056 5.464.08c1.589.01 3.413.308 4.053.664z" fill="#fef1e4"/><path d="M26.687 17.888C36.528 27.692 44.899 36.32 45.29 37.06c.906 1.719.906 4.065 0 5.784-.39.74-8.762 9.368-18.603 19.172L8.794 79.84H5.995c-2.461 0-2.985-.185-4.334-1.534-1.2-1.2-1.534-1.967-1.534-3.523 0-1.094.248-2.479.551-3.078.303-.599 7.426-7.989 15.828-16.422l15.277-15.332L16.506 24.62C8.104 16.187.981 8.797.678 8.198c-.72-1.422-.704-4.423.03-5.8C1.677.576 2.74.095 5.831.078L8.794.063z" fill="#fee6ce"/><path d="M26.2 17.39c9.573 9.53 17.944 18.163 18.603 19.186.719 1.118 1.197 2.605 1.197 3.726 0 1.79-.765 2.631-18.837 20.703L8.327 79.84l-2.48-.01c-4.682-.022-7.115-4.053-4.989-8.265.402-.796 7.47-8.178 15.707-16.403C24.8 46.937 31.54 39.989 31.54 39.723s-7.068-7.575-15.706-16.241L.127 7.726V5.428c0-1.9.265-2.562 1.534-3.831C3.011.248 3.534.063 5.994.063h2.799z" fill="#fedbba"/><path d="M26.422 18.137c9.97 9.942 18.452 18.727 18.852 19.523 1.006 2.007.914 3.017-.471 5.169-.659 1.023-9.142 9.77-18.853 19.436L8.295 79.841H5.973c-1.993 0-2.572-.25-4.084-1.761-1.873-1.874-2.268-3.787-1.21-5.875.302-.6 7.537-8.101 16.077-16.671l15.526-15.582-15.46-15.582C8.317 15.8 1.081 8.287.743 7.673-.284 5.815.02 3.911 1.659 1.921 3.064.217 3.404.063 5.744.063h2.553z" fill="#fec894"/><path d="M26.339 18.64c10.166 10.213 18.785 19.184 19.153 19.935.588 1.197.553 1.584-.276 3.125-.521.967-9.153 9.945-19.182 19.95C8.32 79.321 7.744 79.841 5.862 79.841c-1.624 0-2.244-.329-3.836-2.036C.05 75.685-.252 74.542.678 72.703c.303-.599 7.65-8.213 16.327-16.92l15.776-15.831L17.284 24.37C8.761 15.8 1.414 8.18.957 7.435-.089 5.728-.087 4.86.967 3.16 2.338.957 3.72.085 5.862.077 7.824.07 8.146.362 26.34 18.64z" fill="#feb269"/><path d="M25.809 18.036c9.92 9.886 18.507 18.855 19.082 19.932.937 1.757.973 2.101.348 3.343-.383.76-9.07 9.741-19.304 19.957C5.859 81.307 6.195 81.046 3.195 78.89c-.727-.523-1.744-1.744-2.259-2.714L0 74.412l1.271-2.147c.7-1.18 8.02-8.862 16.27-17.07 8.248-8.208 14.996-15.165 14.996-15.46 0-.295-6.966-7.491-15.48-15.991S1.246 7.604.84 6.767C.193 5.423.194 5.069.85 3.753 2.017 1.413 3.883.063 5.948.063c1.733 0 2.73.902 19.86 17.973z" fill="#feab5a"/><path d="M25.91 18.64c10.204 10.213 18.785 19.197 19.069 19.965.384 1.037.34 1.804-.172 2.991-.386.897-8.766 9.633-19.11 19.921C5.407 81.7 6.083 81.202 2.884 78.29.82 76.413.286 74.453 1.309 72.523c.411-.774 7.605-8.25 15.988-16.612 8.382-8.363 15.24-15.544 15.24-15.959 0-.415-6.858-7.596-15.24-15.959C8.914 15.631 1.72 8.155 1.309 7.381.311 5.499.813 3.477 2.75 1.584c3.179-3.107 2.567-3.558 23.16 17.056z" fill="#fe9d40"/><path d="M24.69 17.39c9.594 9.53 18.09 18.202 18.879 19.271 2.861 3.88 3.59 2.887-17.669 24.108C12.42 74.226 6.474 79.841 5.705 79.841c-.6 0-1.092-.168-1.093-.374-.002-.205-.662-.748-1.466-1.206-1.942-1.105-2.531-3.877-1.307-6.15.47-.874 7.682-8.403 16.026-16.73 8.344-8.329 15.171-15.37 15.171-15.65 0-.279-7.18-7.7-15.956-16.49C1.795 7.929 1.124 7.178 1.124 5.38c0-1.455.377-2.265 1.671-3.598C5.913-1.427 5.313-1.855 24.69 17.39z" fill="#fe9632"/><path d="M25.65 18.885l18.857 18.823-.001 2.236-.002 2.236-18.232 18.05C7.8 78.515 6.405 79.847 5.737 79.834c-.845-.017-4.068-3.306-4.145-4.23-.262-3.127-.1-3.324 15.738-19.19 8.638-8.654 15.706-16.075 15.706-16.491 0-.417-6.859-7.592-15.242-15.946C9.41 15.623 2.32 8.37 2.038 7.855c-.283-.513-.515-1.725-.515-2.693 0-1.388.385-2.112 1.823-3.43C4.35.814 5.535.062 5.982.062c.447 0 9.298 8.47 19.669 18.823z" fill="#fe8918"/><path d="M7.606 1.794c2.892 1.945 36.32 35.823 36.421 36.911.291 3.121.164 3.272-17.838 21.3C16.39 69.818 8.162 77.847 7.904 77.847c-.257 0-.823.312-1.256.693-.68.598-1.042.529-2.657-.506-1.851-1.187-2.15-1.916-1.92-4.675.075-.904 4.403-5.554 15.783-16.956 8.625-8.64 15.68-16.06 15.68-16.489 0-.428-6.868-7.607-15.263-15.952C9.876 15.616 2.716 8.115 2.361 7.292c-.913-2.11-.38-4.08 1.49-5.506C4.735 1.112 5.549.574 5.66.59c.111.016.988.557 1.947 1.203z" fill="#fe830b"/><path d="M7.357 2.278c.823.37 9.405 8.613 19.072 18.317C39.174 33.39 44.006 38.55 44.006 39.37c0 .621-.321 1.736-.713 2.477-.392.74-8.533 9.143-18.091 18.673C7.897 77.773 7.814 77.847 5.732 77.847c-1.68 0-2.252-.245-2.907-1.244-1.815-2.77-1.32-3.415 15.505-20.184 9.985-9.953 15.703-16.01 15.703-16.633 0-.622-4.916-5.866-13.407-14.303C.94 5.925.776 5.717 2.994 3.153c1.202-1.39 2.596-1.67 4.363-.875z" fill="#fe8006"/></symbol><symbol id="toggle-prev" viewBox="0 0 46 79.864479"><path d="M36.482 79.121C34.787 78.181 1.54 44.895.706 43.303c-.91-1.734-.904-5.06.01-6.78C1.576 34.898 35.19 1.357 36.74.573c.6-.303 2.308-.55 3.797-.55 2.26 0 2.924.216 4.021 1.314 1.065 1.064 1.315 1.781 1.315 3.772 0 1.352-.248 2.948-.551 3.547-.303.6-7.314 7.877-15.579 16.172L14.715 39.912l15.028 15.084c8.265 8.295 15.276 15.573 15.579 16.172.303.599.55 2.236.55 3.638 0 3.685-1.412 5.002-5.337 4.978-1.589-.01-3.413-.308-4.053-.663z" fill="#fef1e4"/><path d="M19.313 61.976C9.472 52.172 1.101 43.545.71 42.804c-.906-1.718-.906-4.065 0-5.783.39-.74 8.762-9.368 18.603-19.172L37.206.023h2.799c2.461 0 2.985.185 4.334 1.534 1.2 1.2 1.534 1.967 1.534 3.523 0 1.094-.248 2.48-.551 3.078-.303.6-7.426 7.99-15.828 16.422L14.217 39.912l15.277 15.333c8.402 8.433 15.525 15.823 15.828 16.422.72 1.421.704 4.422-.03 5.8-.97 1.822-2.032 2.302-5.124 2.319l-2.962.016z" fill="#fee6ce"/><path d="M19.8 62.475C10.228 52.945 1.857 44.31 1.198 43.288.478 42.171 0 40.683 0 39.562c0-1.79.765-2.63 18.837-20.702L37.673.023l2.48.011c4.682.021 7.115 4.052 4.989 8.264-.402.797-7.47 8.178-15.707 16.404C21.2 32.927 14.46 39.875 14.46 40.142c0 .266 7.068 7.574 15.706 16.24L45.873 72.14v2.297c0 1.9-.265 2.562-1.534 3.832-1.35 1.348-1.873 1.534-4.333 1.534h-2.799z" fill="#fedbba"/><path d="M19.578 61.727C9.608 51.786 1.126 43.001.726 42.204c-1.006-2.006-.914-3.016.471-5.168.659-1.023 9.142-9.77 18.853-19.437L37.705.023h2.322c1.993 0 2.572.25 4.084 1.762 1.873 1.873 2.268 3.786 1.21 5.875-.302.599-7.537 8.1-16.077 16.67L13.718 39.913l15.46 15.582c8.504 8.57 15.74 16.084 16.078 16.697 1.028 1.858.724 3.763-.915 5.752-1.405 1.704-1.745 1.859-4.085 1.859h-2.553z" fill="#fec894"/><path d="M19.661 61.225C9.495 51.01.876 42.04.508 41.289c-.588-1.197-.553-1.584.276-3.124.521-.968 9.153-9.945 19.182-19.95C37.68.543 38.256.023 40.138.023c1.624 0 2.244.33 3.836 2.036 1.976 2.12 2.278 3.263 1.348 5.102-.303.6-7.65 8.213-16.327 16.92L13.219 39.912l15.497 15.582c8.523 8.57 15.87 16.191 16.327 16.936 1.046 1.706 1.044 2.574-.01 4.273-1.37 2.205-2.752 3.076-4.894 3.084-1.963.008-2.285-.284-20.478-18.562z" fill="#feb269"/><path d="M20.191 61.828C10.271 51.943 1.684 42.973 1.11 41.896c-.937-1.756-.973-2.1-.348-3.342.383-.761 9.07-9.742 19.304-19.957C40.141-1.443 39.805-1.181 42.805.974c.727.523 1.744 1.745 2.259 2.715L46 5.453l-1.271 2.146c-.7 1.181-8.02 8.863-16.27 17.07-8.248 8.208-14.996 15.165-14.996 15.46 0 .296 6.966 7.492 15.48 15.992S44.754 72.26 45.16 73.098c.648 1.344.647 1.698-.009 3.013-1.167 2.34-3.033 3.69-5.098 3.69-1.733 0-2.73-.902-19.86-17.973z" fill="#feab5a"/><path d="M20.09 61.225C9.886 51.01 1.305 42.027 1.021 41.26c-.384-1.038-.34-1.804.172-2.992.386-.896 8.766-9.632 19.11-19.92C40.593-1.836 39.917-1.339 43.116 1.573c2.063 1.877 2.598 3.838 1.575 5.767-.411.775-7.605 8.25-15.988 16.613-8.382 8.362-15.24 15.544-15.24 15.958 0 .415 6.858 7.597 15.24 15.96 8.383 8.362 15.577 15.837 15.988 16.612.998 1.882.496 3.903-1.44 5.796-3.179 3.108-2.567 3.558-23.16-17.055z" fill="#fe9d40"/><path d="M21.31 62.475c-9.594-9.53-18.09-18.202-18.879-19.272-2.861-3.88-3.59-2.886 17.669-24.108C33.58 5.638 39.526.023 40.295.023c.6 0 1.092.168 1.093.374.002.206.662.748 1.466 1.206 1.942 1.105 2.531 3.878 1.307 6.151-.47.874-7.682 8.402-16.026 16.73-8.344 8.328-15.171 15.37-15.171 15.649 0 .279 7.18 7.7 15.956 16.49 15.285 15.312 15.956 16.063 15.956 17.861 0 1.455-.377 2.264-1.671 3.597-3.118 3.211-2.518 3.639-21.895-15.606z" fill="#fe9632"/><path d="M20.35 60.98L1.492 42.155l.001-2.236.002-2.236 18.232-18.05C38.2 1.35 39.595.018 40.263.032c.845.016 4.068 3.306 4.145 4.23.262 3.126.1 3.323-15.738 19.19-8.638 8.653-15.706 16.075-15.706 16.49 0 .417 6.859 7.593 15.242 15.946C36.59 64.241 43.68 71.496 43.962 72.01c.283.513.515 1.725.515 2.693 0 1.389-.385 2.112-1.823 3.43-1.003.918-2.189 1.67-2.636 1.67-.447 0-9.298-8.47-19.669-18.823z" fill="#fe8918"/><path d="M38.394 78.07C35.502 76.126 2.074 42.248 1.973 41.16c-.291-3.12-.164-3.272 17.838-21.3C29.61 10.046 37.838 2.018 38.096 2.018c.257 0 .823-.312 1.256-.693.68-.598 1.042-.53 2.657.506 1.851 1.187 2.15 1.915 1.92 4.674-.075.905-4.403 5.554-15.783 16.956-8.625 8.64-15.68 16.06-15.68 16.49 0 .428 6.868 7.607 15.263 15.952 8.395 8.345 15.555 15.846 15.91 16.67.913 2.11.38 4.079-1.49 5.506-.883.673-1.697 1.211-1.808 1.195-.111-.016-.988-.558-1.947-1.203z" fill="#fe830b"/><path d="M38.643 77.586c-.823-.37-9.405-8.612-19.072-18.317C6.826 46.475 1.994 41.314 1.994 40.495c0-.622.321-1.737.713-2.477.392-.74 8.533-9.144 18.091-18.673C38.103 2.09 38.186 2.018 40.268 2.018c1.68 0 2.252.245 2.907 1.244 1.815 2.77 1.32 3.414-15.505 20.183-9.985 9.953-15.703 16.01-15.703 16.634 0 .621 4.916 5.866 13.407 14.302 19.685 19.559 19.85 19.766 17.632 22.33-1.202 1.39-2.596 1.67-4.363.875z" fill="#fe8006"/></symbol></svg>