<?xml version="1.0" encoding="UTF-8"?><!DOCTYPE svg PUBLIC "-//W3C//DTD SVG 1.1//EN" "http://www.w3.org/Graphics/SVG/1.1/DTD/svg11.dtd"><svg xmlns="http://www.w3.org/2000/svg"><symbol id="menu-burger-element" viewBox="0 0 32 5.9867125"><path d="M.618 5.572C.185 5.297.017 4.33.12 2.71L.275.264 2.653.11c1.645-.105 2.616.086 3.15.62.69.689.929.692 2.213.028C9.16.168 11.618.014 19.92.014c5.755 0 10.818.136 11.252.303.5.192.79.909.79 1.955 0 3.382.557 3.231-11.934 3.231-8.916 0-11.532-.149-12.283-.698-.834-.61-1.106-.578-2.158.25-1.244.978-3.818 1.246-4.968.517z" fill="#fef4ea"/><path d="M.835 5.36c-.661-.483-.839-1.192-.72-2.87L.276.265 2.446.108C4.897-.068 6.517.97 6.504 2.71c-.01 1.326-.461 1.996-1.83 2.717-1.426.75-2.752.727-3.839-.068zm7.174-.855c-1.286-1.286-1.261-2.21.094-3.474C9.133.073 9.816.014 19.979.014c7.722 0 10.954.17 11.383.599.773.773.773 3.518 0 4.291-.43.43-3.682.599-11.477.599-10.213 0-10.94-.061-11.876-.998z" fill="#feecd9"/><path d="M.898 5.307C-.114 4.54-.29 1.527.624.613c1.004-1.004 3.915-.725 4.956.475 1.258 1.45 1.174 2.242-.388 3.69-1.46 1.354-2.964 1.539-4.294.53zm7.72-.58C7.139 3.688 7.197 1.831 8.74.82 9.772.144 11.596.017 20.092.03c7.625.012 10.337.18 10.995.679 1.21.918 1.152 3.612-.092 4.277-.574.308-5.073.517-11.116.517-8.38 0-10.345-.136-11.26-.777z" fill="#fee5cc"/><path d="M.85 5.09C-.111 4.025-.24 1.477.625.612c.909-.91 3.626-.722 4.563.314 1.138 1.257 1.034 2.847-.266 4.058-1.355 1.262-2.985 1.304-4.07.104zM8 3.986C7.262 2.611 7.766 1.283 9.289.59c1.728-.787 19.672-.784 21.4.004.981.447 1.272.948 1.272 2.192 0 1.01-.295 1.726-.79 1.916-.434.167-5.703.303-11.709.303C8.986 5.004 8.521 4.963 8 3.987z" fill="#fed9b3"/><path d="M1.148 5.166C-.152 4.26-.375 1.84.738.726c1.056-1.055 3.274-.87 4.343.362 1.258 1.45 1.174 2.242-.388 3.69-1.524 1.412-2.003 1.465-3.545.388zm7.46-.76c-.917-.918-.713-2.799.366-3.376 1.288-.69 20.734-.69 22.021 0 1.08.577 1.283 2.458.367 3.375-.849.848-21.906.848-22.754 0z" fill="#feca95"/><path d="M1.148 5.032C-1.007 3.235.056.014 2.804.014c2.577 0 3.595 3.128 1.618 4.97-1.334 1.244-1.833 1.25-3.274.048zm7.631-.699C7.341 3.281 8.094 1.22 10.061.826c2.676-.535 18.649-.35 20.328.235 1.843.642 2.186 2.581.606 3.426-1.528.818-21.072.683-22.216-.154z" fill="#fec58b"/><path d="M1.398 5.083C-.228 4.102-.446 2.092.938.84c1.27-1.15 2.88-1.03 3.8.283 1.072 1.531.973 2.524-.379 3.794-1.332 1.251-1.177 1.242-2.96.166zm7.333-1.106c-.712-.787-.805-1.225-.398-1.871.467-.741 1.805-.862 10.957-.986 5.734-.077 10.93-.017 11.548.135.725.177 1.123.65 1.123 1.333 0 2.163-1.104 2.383-12.024 2.4-9.75.015-10.324-.037-11.206-1.011z" fill="#feb569"/><path d="M1.148 4.667c-1.39-.969-1.436-2.344-.125-3.655C2.421-.386 3.657-.231 4.66 1.466c.945 1.6.717 2.81-.669 3.552-1.176.63-1.495.59-2.843-.35zm7.693-.495c-.636-.635-.329-2.556.456-2.857 1.377-.528 20.667-.338 21.698.214 1.165.623 1.272 2.253.176 2.673-1.078.414-21.915.386-22.33-.03z" fill="#feac56"/><path d="M.898 4.31c-1.15-.874-1.105-2.068.125-3.298S3.447-.263 4.32.887C6.331 3.537 3.547 6.32.898 4.31zm8.209-.404c-.875-.874-.734-1.789.366-2.377C10.71.866 28.95.84 30.681 1.499c1.612.613 1.709 2.276.157 2.691-2.225.597-21.098.35-21.731-.284z" fill="#fea141"/><path d="M1.148 4.395C-.102 3.792-.44 1.511.72 1.511c.382 0 .825-.337.982-.748.432-1.126 1.601-.902 2.507.481 1.005 1.533 1.008 1.99.022 2.976-.9.9-1.509.934-3.083.175zm8.123-.566c-.567-.414-.803-.995-.61-1.497.278-.727 1.546-.821 11.018-.821 5.887 0 11.058.136 11.492.303 1.207.463.94 1.66-.49 2.204-2.072.788-20.294.627-21.41-.19z" fill="#fe9b35"/><path d="M1.397 4.326c-1.711-.64-1.742-1.61-.099-3.132 1.575-1.46 1.75-1.452 2.887.11 1.556 2.136-.164 4-2.788 3.022zm8.608-.185c-1.121-.426-1.506-1.27-.908-1.99.4-.482 3.002-.638 10.575-.633 5.524.004 10.548.142 11.166.308 1.608.43 1.384 1.492-.449 2.131-1.613.563-18.978.72-20.384.184z" fill="#fe9629"/><path d="M.898 3.966C-.162 3.349-.259 2.01.756 2.01c.402 0 .971-.45 1.265-.998.294-.549.724-.998.955-.998.642 0 1.692 2.876 1.363 3.734-.33.86-2.14.975-3.44.218zm8.27-.759c-.169-.44.007-.997.39-1.24.79-.5 18.454-.622 20.843-.144 1.814.363 2.064 1.433.437 1.868-.618.166-5.677.304-11.243.308-8.823.006-10.16-.095-10.427-.792z" fill="#fe8d16"/><path d="M.898 3.672C-.313 3.342-.2 2.01 1.038 2.01c.558 0 1.145-.341 1.305-.759.242-.628.455-.57 1.244.34.524.603.874 1.338.777 1.632-.19.583-2.08.828-3.466.45zm8.641-.374c-.532-.642-.516-.827.095-1.061 1.08-.415 21.68-.045 22.12.397.905.908-1.015 1.132-10.972 1.282-9.116.137-10.688.05-11.243-.618z" fill="#fe8609"/><path d="M1.785 3.529c-.162-.263-.625-.35-1.027-.196-.403.154-.733.081-.733-.162 0-.672 2.803-1.588 3.514-1.148.343.212.485.745.317 1.184-.337.878-1.605 1.075-2.071.322zm7.842-.635c.267-.8 20.263-.933 20.462-.135.08.317-3.657.548-10.274.634-8.234.106-10.355.003-10.188-.5zm21.336.114a.5.5 0 0 1 .499-.499.5.5 0 0 1 .499.499.5.5 0 0 1-.5.499.5.5 0 0 1-.498-.499z" fill="#fe8201"/></symbol><symbol id="search-icon" viewBox="0 0 19 19.040586"><path d="M14.895 18.15c-.753-.397-1.369-.908-1.369-1.137 0-.228-1.847-.313-4.105-.187-3.532.196-4.332.085-5.727-.797C1.03 14.345.094 12.294.093 8.128.089 1.845 1.87.065 8.153.068c2.721.002 4.03.245 5.222.972 3.027 1.845 4.331 5.234 3.575 9.283-.319 1.705-.268 2.57.183 3.139C18.344 14.991 19 16.489 19 17.725c0 1.045-.225 1.242-1.368 1.198-.753-.03-1.985-.377-2.737-.774zm-3.857-7.136c1.402-1.402 1.352-4.605-.094-5.952-1.406-1.31-3.883-1.303-5.561.017-1.698 1.335-1.807 4.099-.23 5.778 1.41 1.5 4.461 1.581 5.885.157z" fill="#fef3e8"/><path d="M14.68 17.413c-1.536-1.537-1.603-1.553-3.933-.967-3.023.762-5.808.289-7.706-1.308C.836 13.282.091 11.459.093 7.928.096 2.305 2.47.067 8.436.067c3.198 0 3.552.115 5.487 1.771 2.679 2.293 3.44 4.82 2.594 8.604-.593 2.646-.585 2.68.943 4.256.95.98 1.54 2.105 1.54 2.934 0 1.97-2.245 1.856-4.32-.218zm-3.37-6.128c1.354-1.354 1.66-4.386.583-5.788-1.782-2.322-4.818-2.54-6.864-.493-2.047 2.047-1.83 5.082.492 6.865 1.402 1.076 4.434.77 5.789-.584z" fill="#fee7d0"/><path d="M14.652 17.23c-1.781-1.524-2.205-1.681-3.356-1.243-3.583 1.362-7.408.16-9.904-3.112C.29 11.428.091 10.663.091 7.844c0-3.275.034-3.36 2.226-5.551C4.509.1 4.594.066 7.868.066c2.82 0 3.585.198 5.032 1.302 3.287 2.507 4.543 6.56 3.049 9.84-.5 1.098-.362 1.472 1.244 3.347 3.464 4.047 1.49 6.126-2.54 2.676zm-4.346-4.82c1.485-.677 2.723-2.753 2.723-4.568 0-1.641-2.143-4.11-3.851-4.437-1.566-.299-4.03.588-5.05 1.818-1.015 1.224-.872 4.614.249 5.86 1.68 1.868 3.732 2.328 5.929 1.327z" fill="#fed7b0"/><path d="M15.02 17.182c-1.606-1.604-1.899-1.712-3.733-1.371-4.914.913-7.92-.086-9.955-3.309C-3.333 5.112 5.18-3.33 12.584 1.344c2.58 1.628 4.2 4.98 3.686 7.624-.192.989-.45 2.357-.572 3.041-.165.926.229 1.713 1.54 3.077 3.4 3.536 1.251 5.565-2.219 2.096zm-3.581-5.416c1.76-1.48 2.232-3.423 1.348-5.539-1.242-2.974-4.231-3.975-7.233-2.423-1.807.934-2.478 2.146-2.478 4.479 0 4.125 5.083 6.242 8.363 3.483z" fill="#fec78f"/><path d="M15.149 16.88c-2.025-2.024-2.151-2.074-3.76-1.492-2.087.755-5.056.775-6.48.044-1.597-.821-3.823-3.013-3.823-3.765 0-.36-.224-.653-.498-.653-.273 0-.497-1.124-.497-2.498 0-4.533 3.706-8.45 7.997-8.45 2.052 0 3.392.56 5.361 2.24 2.477 2.112 3.227 5.563 1.967 9.048-.577 1.596-.523 1.733 1.493 3.787C18.059 16.313 19 17.655 19 18.124c0 1.476-1.672.936-3.851-1.243zm-4.06-4.514c3.441-2.313 2.98-7.519-.806-9.101-1.015-.424-2.31-.593-3.105-.406-1.754.413-3.933 2.44-4.332 4.03-.485 1.932.639 4.582 2.397 5.654 2.066 1.26 3.784 1.208 5.846-.177z" fill="#feb76d"/><path d="M15.167 16.899l-2.078-2.078-2.695.647c-3.99.957-6.261.068-8.955-3.506C-.045 9.993-.407 6.626.713 5.21c.802-1.015 3.506-3.719 4.52-4.52.934-.739 5.308-.842 5.308-.125 0 .274.293.498.652.498 1.085 0 3.732 2.933 4.358 4.83.46 1.396.448 2.365-.056 4.467l-.644 2.685 2.074 2.114C18.066 16.32 19 17.655 19 18.124c0 1.472-1.67.938-3.833-1.225zm-4.21-4.101c1.275-.66 2.088-1.813 2.768-3.927.419-1.303-.85-3.982-2.502-5.286-2.067-1.631-5.353-1.215-7.26.919-2.056 2.301-1.94 5.059.308 7.306 1.897 1.897 4.254 2.245 6.685.988z" fill="#fea951"/><path d="M15.183 16.568c-2.04-2.26-2.104-2.289-3.767-1.687-3.945 1.426-7.492.27-9.837-3.204C.076 9.45-.34 7.007.594 5.892c.276-.33.976-1.231 1.555-2.002C3.522 2.06 6.712.066 8.266.066c1.651 0 5.597 2.724 6.513 4.495.898 1.737.95 4.553.125 6.833-.602 1.665-.572 1.733 1.742 3.92 2.546 2.405 2.775 2.896 1.567 3.36-.95.364-.553.64-3.03-2.106zm-3.035-4.444c3.129-3.129 1.882-8.03-2.425-9.53-1.857-.648-2.192-.624-3.964.28A6.61 6.61 0 0 0 2.87 5.78c-.864 1.742-.887 2.102-.248 3.933 1.496 4.294 6.402 5.536 9.525 2.412z" fill="#fe972c"/><path d="M16.296 17.083c-2.486-2.874-3.194-3.158-5.865-2.354-3.751 1.129-7.489-.435-8.84-3.698C1.247 10.2.768 9.52.528 9.52S.091 8.85.091 8.028c0-.82.202-1.493.449-1.493.246 0 .869-.81 1.382-1.8C2.714 3.21 4.702 1.6 7.448.26c.849-.415 4.928 1.738 6.123 3.231 1.611 2.015 2.054 4.604 1.2 7.023-.41 1.165-.747 2.202-.747 2.304 0 .563 3.708 4.168 4.287 4.168.855 0 .876.386.067 1.177-.493.482-.926.257-2.082-1.079zm-4.76-4.012c3.431-2.53 3.742-6.376.757-9.361-1.341-1.341-2.043-1.653-3.718-1.653-2.977 0-4.923 1.19-6.028 3.688-.734 1.658-.836 2.484-.469 3.765 1.249 4.354 5.97 6.132 9.458 3.561z" fill="#fe8b14"/><path d="M17.872 17.919c.338-.34.74-.493.892-.34.154.153-.123.431-.613.618-.71.27-.767.213-.279-.278zm-2.154-2.053l-.948-1.12 1.12.948c1.052.89 1.346 1.291.948 1.291-.095 0-.598-.504-1.12-1.12zM3.278 12.88l-.948-1.12 1.12.948C4.502 13.6 4.796 14 4.398 14c-.095 0-.599-.504-1.12-1.12zm9.253-.124c.643-.685 1.242-1.244 1.33-1.244.09 0 .163.56.163 1.244 0 1.016-.243 1.244-1.33 1.244h-1.332zM.713 9.192c-.845-.341-.784-1.405.124-2.159.637-.528.747-.39.747.934 0 .855-.056 1.536-.125 1.515a21.157 21.157 0 0 1-.746-.29zm12.12-5.567l-.943-1.32 1.164 1.106c.64.609 1.064 1.203.942 1.32-.121.118-.645-.38-1.163-1.106zM7.383.792c.326-.85 1.244-.745 1.55.176.11.329-.256.591-.823.591-.716 0-.933-.23-.727-.767z" fill="#fe870a"/></symbol></svg>