<?xml version="1.0" encoding="UTF-8" standalone="no"?>
<!-- Created with Inkscape (http://www.inkscape.org/) -->

<svg
   xmlns:dc="http://purl.org/dc/elements/1.1/"
   xmlns:cc="http://creativecommons.org/ns#"
   xmlns:rdf="http://www.w3.org/1999/02/22-rdf-syntax-ns#"
   xmlns:svg="http://www.w3.org/2000/svg"
   xmlns="http://www.w3.org/2000/svg"
   xmlns:sodipodi="http://sodipodi.sourceforge.net/DTD/sodipodi-0.dtd"
   xmlns:inkscape="http://www.inkscape.org/namespaces/inkscape"
   version="1.1"
   id="svg477"
   width="31"
   height="6"
   viewBox="0 0 31 6"
   sodipodi:docname="separator.svg"
   inkscape:version="0.92.1 r15371">
  <metadata
     id="metadata483">
    <rdf:RDF>
      <cc:Work
         rdf:about="">
        <dc:format>image/svg+xml</dc:format>
        <dc:type
           rdf:resource="http://purl.org/dc/dcmitype/StillImage" />
        <dc:title></dc:title>
      </cc:Work>
    </rdf:RDF>
  </metadata>
  <defs
     id="defs481" />
  <sodipodi:namedview
     pagecolor="#ffffff"
     bordercolor="#666666"
     borderopacity="1"
     objecttolerance="10"
     gridtolerance="10"
     guidetolerance="10"
     inkscape:pageopacity="0"
     inkscape:pageshadow="2"
     inkscape:window-width="1366"
     inkscape:window-height="746"
     id="namedview479"
     showgrid="false"
     inkscape:zoom="6.1290323"
     inkscape:cx="31"
     inkscape:cy="6"
     inkscape:window-x="-8"
     inkscape:window-y="-8"
     inkscape:window-maximized="1"
     inkscape:current-layer="svg477" />
  <g
     id="g487"
     transform="matrix(1,0,0,0.96407316,0,-5.702726)">
    <path
       style="fill:#fee6d0;stroke-width:0.5"
       d="M 2.104104,9.8560738 C 0.9468468,8.6769145 0,7.3269146 0,6.8560737 0,5.5015521 1.8736233,5.8307144 3.6521169,7.4976858 4.5309526,8.3214132 5.3625,8.9953721 5.5,8.9953721 c 0.1375,0 0.9690475,-0.6739589 1.847883,-1.4976863 C 8.414444,6.4980045 9.462574,5.9999995 10.5,5.9999995 c 1.037426,0 2.085556,0.498005 3.152117,1.4976863 0.878836,0.8237274 1.710383,1.4976863 1.847883,1.4976863 0.1375,0 0.969047,-0.6739589 1.847883,-1.4976863 C 18.414444,6.4980045 19.462574,5.9999995 20.5,5.9999995 c 1.037426,0 2.085556,0.498005 3.152117,1.4976863 0.878836,0.8237274 1.710383,1.4976863 1.847883,1.4976863 0.1375,0 0.969047,-0.6739589 1.847883,-1.4976863 C 29.032699,5.9185179 31,5.5021237 31,6.7246874 31,7.1232658 30.032802,8.4732659 28.850672,9.7246875 26.260244,12.466956 24.810927,12.651145 22.75,10.5 20.950007,8.6212119 20.158641,8.6216101 18.152117,10.502313 16.123946,12.403306 14.572847,12.402642 12.75,10.5 11.9596,9.6749995 10.9471,8.9999995 10.5,8.9999995 c -0.4471,0 -1.4596,0.675 -2.25,1.5000005 -2.0438885,2.13336 -3.5779385,1.972632 -6.145896,-0.6439262 z"
       id="path501"
       inkscape:connector-curvature="0" />
    <path
       style="fill:#fed2a9;stroke-width:0.5"
       d="M 2.3562041,9.6078249 C 1.0602918,8.2921289 0,6.9421289 0,6.6078249 0,5.4266961 1.7312721,6.0228829 3.5998204,7.8474715 l 1.8919831,1.847472 1.6243025,-1.472472 c 0.8933665,-0.8098596 1.701461,-1.641222 1.795765,-1.847472 0.2232895,-0.4883501 2.952968,-0.4883501 3.176258,0 0.0943,0.20625 0.902398,1.0376124 1.795765,1.847472 l 1.624302,1.472472 1.891983,-1.847472 c 2.424396,-2.3673589 3.776139,-2.3664869 6.203739,0.004 L 25.5,9.7029473 27.396081,7.8514734 C 29.290635,6.0014907 31,5.4286804 31,6.6437954 31,7.540335 26.383897,12 25.455909,12 25.03805,12 23.932891,11.2125 23,10.25 22.067108,9.2874995 20.942108,8.4999995 20.5,8.4999995 c -0.442109,0 -1.567109,0.7875 -2.5,1.7500005 C 17.067108,11.2125 15.942109,12 15.5,12 15.057892,12 13.932892,11.2125 13,10.25 12.067109,9.2874995 10.942109,8.4999995 10.5,8.4999995 10.057892,8.4999995 8.9328915,9.2874995 8,10.25 7.0671085,11.2125 5.9457625,12 5.5081205,12 5.070479,12 3.6521163,10.923521 2.3562041,9.6078249 Z"
       id="path499"
       inkscape:connector-curvature="0" />
    <path
       style="fill:#fec690;stroke-width:0.5"
       d="M 2.375,9.3655606 C 1.06875,7.9942555 0,6.6760158 0,6.436139 0,5.4815125 1.3923018,6.0912759 3,7.7499995 c 0.9328918,0.9625 2.0578915,1.75 2.5,1.75 0.4421085,0 1.5671085,-0.7875 2.5,-1.75 0.9328915,-0.9625 2.057892,-1.75 2.5,-1.75 0.442109,0 1.567109,0.7875 2.5,1.75 0.932892,0.9625 2.057892,1.75 2.5,1.75 0.442109,0 1.567108,-0.7875 2.5,-1.75 0.932891,-0.9625 2.057891,-1.75 2.5,-1.75 0.442108,0 1.567108,0.7875 2.5,1.75 0.932891,0.9625 2.078721,1.75 2.546287,1.75 0.467566,0 1.541555,-0.7875 2.386641,-1.75 1.374396,-1.5653501 3.41041,-2.4523037 2.983738,-1.299813 C 30.616909,7.2598689 25.972274,12 25.478662,12 c -0.264695,0 -1.294361,-0.900001 -2.288145,-2.0000005 -0.993784,-1.1 -2.204517,-2 -2.690517,-2 -0.486001,0 -1.696734,0.9 -2.690517,2 C 16.815698,11.099999 15.803487,12 15.560125,12 c -0.243363,0 -1.342478,-0.900001 -2.442478,-2.0000005 -1.1,-1.1 -2.277941,-2 -2.617647,-2 -0.339706,0 -1.517647,0.9 -2.617647,2 -1.1,1.0999995 -2.2547795,1.9682395 -2.5661765,1.9294215 C 5.0047795,11.890603 3.68125,10.736866 2.375,9.3655606 Z"
       id="path497"
       inkscape:connector-curvature="0" />
    <path
       style="fill:#febe81;stroke-width:0.5"
       d="M 2.375,9.2755049 C 1.06875,7.8363613 0,6.510632 0,6.3294398 0,5.4529173 1.4195824,6.2035805 3.3560742,8.1041035 L 5.5,10.208207 7.643926,8.1041035 C 8.823085,6.9468463 10.108318,5.9999995 10.5,5.9999995 c 0.391682,0 1.676915,0.9468468 2.856074,2.104104 L 15.5,10.208207 17.643926,8.1041035 C 18.823085,6.9468463 20.108318,5.9999995 20.5,5.9999995 c 0.391681,0 1.676915,0.9468468 2.856074,2.104104 L 25.5,10.208207 27.643926,8.1041035 C 29.587205,6.1969191 31.33799,5.3121397 30.916667,6.4501865 30.616909,7.2598689 25.972274,12 25.478662,12 c -0.264695,0 -1.294361,-0.900001 -2.288145,-2.0000005 -0.993784,-1.1 -2.204517,-2 -2.690517,-2 -0.486001,0 -1.696734,0.9 -2.690517,2 C 16.815698,11.099999 15.776431,12 15.5,12 c -0.276431,0 -1.315698,-0.900001 -2.309482,-2.0000005 -0.993784,-1.1 -2.204518,-2 -2.690518,-2 -0.486,0 -1.6967335,0.9 -2.6905175,2 C 6.8156985,11.099999 5.720767,11.975729 5.3763015,11.946065 5.0318355,11.916401 3.68125,10.714649 2.375,9.2755049 Z"
       id="path495"
       inkscape:connector-curvature="0" />
    <path
       style="fill:#feb36c;stroke-width:0.5"
       d="M 2.625,9.1079233 C 1.18125,7.5447893 0,6.2060425 0,6.1329305 c 0,-0.6553328 1.3279042,0.227139 2.8094825,1.867069 0.9937839,1.1 2.204517,2 2.6905175,2 0.4860005,0 1.6967335,-0.9 2.6905175,-2 0.993784,-1.1 2.0330515,-2 2.3094825,-2 0.276431,0 1.315699,0.9 2.309483,2 0.993783,1.1 2.204517,2 2.690517,2 0.486,0 1.696733,-0.9 2.690517,-2 0.993784,-1.1 2.033051,-2 2.309483,-2 0.276431,0 1.315698,0.9 2.309483,2 0.993783,1.1 2.204516,2 2.690517,2 0.486,0 1.696733,-0.9 2.690517,-2 C 29.738312,6.2867761 31,5.4809603 31,6.2056374 31,6.3187382 29.752407,7.6891379 28.22757,9.2509702 L 25.455141,12.090665 23.317627,9.7953324 C 22.141994,8.5328993 20.874062,7.4999995 20.5,7.4999995 c -0.374062,0 -1.652088,1.0437382 -2.840057,2.3194183 L 15.5,12.138836 13.340056,9.8194178 C 12.152088,8.5437377 10.874062,7.4999995 10.5,7.4999995 c -0.374062,0 -1.622997,1.0125 -2.775411,2.25 C 6.572175,10.9875 5.54395,11.988747 5.4396455,11.974993 5.3353405,11.961239 4.06875,10.671057 2.625,9.1079233 Z"
       id="path493"
       inkscape:connector-curvature="0" />
    <path
       style="fill:#fea856;stroke-width:0.5"
       d="M 4.8333333,11.666666 C 4.1233725,10.956705 4.5555348,10.246838 5.739268,10.178583 c 1.067379,-0.06155 1.168557,0.05939 0.732055,0.875 -0.525868,0.982594 -1.066228,1.184845 -1.6379897,0.613083 z m 9.6413457,-0.713981 c -0.492168,-0.919624 -0.442931,-1.0099969 0.403844,-0.741241 0.608085,0.192999 1.498712,-0.112777 2.410782,-0.8276859 l 1.446434,-1.1337586 -1.49287,1.8749855 c -1.725764,2.167492 -2.006269,2.251365 -2.76819,0.8277 z M 24.5,11 c -0.474229,-0.886106 -0.380245,-1.0000005 0.825182,-1.0000005 0.748202,0 1.922478,-0.50625 2.609504,-1.125 C 28.746674,8.1437047 28.582972,8.4905107 27.466911,9.8659866 25.508541,12.279557 25.239777,12.382284 24.5,11 Z M 9.5,6.7499995 c 0,-0.4166667 0.4444445,-0.75 1,-0.75 0.555556,0 1,0.3333333 1,0.75 0,0.4166666 -0.444444,0.75 -1,0.75 -0.5555555,0 -1,-0.3333334 -1,-0.75 z m 10,0 c 0,-0.4166667 0.444444,-0.75 1,-0.75 0.555555,0 1,0.3333333 1,0.75 0,0.4166666 -0.444445,0.75 -1,0.75 -0.555556,0 -1,-0.3333334 -1,-0.75 z m -19,-0.25 C 0.04935404,6.2087697 -0.01231629,6.0122563 0.34549151,6.0076559 0.67301185,6.0034449 1.0800406,6.2249995 1.25,6.4999995 c 0.3836524,0.6207626 0.2105616,0.6207626 -0.75,0 z M 29.866666,6.4379557 C 30.205833,6.0962464 30.609287,5.94262 30.763231,6.0965635 30.917175,6.2505071 30.639675,6.5300874 30.146564,6.7178531 29.433965,6.9891953 29.376533,6.9317636 29.866666,6.4379557 Z"
       id="path491"
       inkscape:connector-curvature="0" />
    <path
       style="fill:#fe952e;stroke-width:0.5"
       d="M 5,11.5 C 5,11.224999 5.225,11 5.5,11 5.775,11 6,11.224999 6,11.5 6,11.775 5.775,12 5.5,12 5.225,12 5,11.775 5,11.5 Z m 10,0 C 15,11.224999 15.225,11 15.5,11 15.775,11 16,11.224999 16,11.5 16,11.775 15.775,12 15.5,12 15.225,12 15,11.775 15,11.5 Z m 10,0 C 25,11.224999 25.225,11 25.5,11 25.775,11 26,11.224999 26,11.5 26,11.775 25.775,12 25.5,12 25.225,12 25,11.775 25,11.5 Z M 10,6.4999995 c 0,-0.275 0.225,-0.5 0.5,-0.5 0.275,0 0.5,0.225 0.5,0.5 0,0.275 -0.225,0.5 -0.5,0.5 -0.275,0 -0.5,-0.225 -0.5,-0.5 z m 10,0 c 0,-0.275 0.225,-0.5 0.5,-0.5 0.275,0 0.5,0.225 0.5,0.5 0,0.275 -0.225,0.5 -0.5,0.5 -0.275,0 -0.5,-0.225 -0.5,-0.5 z"
       id="path489"
       inkscape:connector-curvature="0" />
  </g>
</svg>
