<?xml version="1.0" encoding="UTF-8" standalone="no"?>
<!-- Created with Inkscape (http://www.inkscape.org/) -->

<svg
   xmlns:dc="http://purl.org/dc/elements/1.1/"
   xmlns:cc="http://creativecommons.org/ns#"
   xmlns:rdf="http://www.w3.org/1999/02/22-rdf-syntax-ns#"
   xmlns:svg="http://www.w3.org/2000/svg"
   xmlns="http://www.w3.org/2000/svg"
   xmlns:sodipodi="http://sodipodi.sourceforge.net/DTD/sodipodi-0.dtd"
   xmlns:inkscape="http://www.inkscape.org/namespaces/inkscape"
   version="1.1"
   id="svg80"
   width="32"
   height="5.9867125"
   viewBox="0 0 32 5.9867125"
   sodipodi:docname="menu-burger-element.svg"
   inkscape:version="0.92.1 r15371">
  <metadata
     id="metadata86">
    <rdf:RDF>
      <cc:Work
         rdf:about="">
        <dc:format>image/svg+xml</dc:format>
        <dc:type
           rdf:resource="http://purl.org/dc/dcmitype/StillImage" />
        <dc:title></dc:title>
      </cc:Work>
    </rdf:RDF>
  </metadata>
  <defs
     id="defs84" />
  <sodipodi:namedview
     pagecolor="#ffffff"
     bordercolor="#666666"
     borderopacity="1"
     objecttolerance="10"
     gridtolerance="10"
     guidetolerance="10"
     inkscape:pageopacity="0"
     inkscape:pageshadow="2"
     inkscape:window-width="1366"
     inkscape:window-height="746"
     id="namedview82"
     showgrid="false"
     inkscape:zoom="5.9375"
     inkscape:cx="32"
     inkscape:cy="5.9999999"
     inkscape:window-x="-8"
     inkscape:window-y="-8"
     inkscape:window-maximized="1"
     inkscape:current-layer="svg80" />
  <g
     id="g90"
     transform="matrix(0.4989924,0,0,0.4989924,0.02504966,0.01405649)">
    <path
       style="fill:#fef4ea"
       d="M 1.1889499,11.137939 C 0.32114589,10.5876 -0.01693893,8.6487888 0.18894987,5.4032519 L 0.5,0.5 5.2659846,0.19455599 C 8.5623373,-0.01670177 10.509315,0.36645833 11.579993,1.437136 12.960476,2.8176193 13.440401,2.8236199 16.014349,1.49258 18.304366,0.30836606 23.232629,0 39.868553,0 51.400882,0 61.548229,0.27314496 62.418213,0.6069888 63.419918,0.99137911 64,2.428289 64,4.5252013 64,11.302172 65.116128,11 40.084141,11 22.215737,11 16.975068,10.702254 15.469762,9.6015478 13.798039,8.3791538 13.253418,8.4421014 11.143774,10.101548 8.6522751,12.061361 3.49216,12.598578 1.1889499,11.137939 Z"
       id="path118"
       inkscape:connector-curvature="0" />
    <path
       style="fill:#feecd9"
       d="M 1.6231881,10.713736 C 0.29859924,9.7451727 -0.05735299,8.3249498 0.18205847,4.9637358 L 0.5,0.5 4.8522065,0.18750809 C 9.763881,-0.16515407 13.010178,1.917542 12.984687,5.4049876 12.965264,8.0623257 12.060056,9.4058017 9.3157415,10.850296 6.4597795,12.353557 3.8012341,12.306362 1.6231881,10.713736 Z M 16,9 C 13.422293,6.4222934 13.472486,4.5693646 16.188561,2.0389551 18.251082,0.1174248 19.62174,0 39.988561,0 55.464125,0 61.940702,0.34070153 62.8,1.2 c 1.550085,1.5500851 1.550085,7.0499149 0,8.6 C 61.940061,10.659939 55.422222,11 39.8,11 19.333333,11 17.877676,10.877676 16,9 Z"
       id="path116"
       inkscape:connector-curvature="0" />
    <path
       style="fill:#fee5cc"
       d="M 1.75,10.607954 C -0.27948449,9.0673559 -0.63230087,3.0323009 1.2,1.2 3.2121278,-0.81212785 9.0465615,-0.25233351 11.132705,2.1530097 13.652914,5.0588352 13.485854,6.6452237 10.353977,9.5477489 7.4276381,12.259788 4.4150415,12.631009 1.75,10.607954 Z M 17.222506,9.443296 C 14.255315,7.3649946 14.37054,3.6424581 17.464817,1.6150099 19.53365,0.25945818 23.188534,0.00510935 40.214817,0.03180337 55.49662,0.05576238 60.931641,0.39126885 62.25,1.392046 64.673554,3.2317857 64.557501,8.6312672 62.065741,9.9648162 60.914236,10.581083 51.899009,11 39.788248,11 22.994498,11 19.05723,10.728386 17.222506,9.443296 Z"
       id="path114"
       inkscape:connector-curvature="0" />
    <path
       style="fill:#fed9b3"
       d="M 1.6549876,10.171259 C -0.27406986,8.0396749 -0.53305772,2.9330577 1.2,1.2 3.0215296,-0.62152964 8.4663232,-0.24718754 10.345012,1.8287407 12.625402,4.3485422 12.416387,7.5341657 9.8114386,9.9610449 7.096312,12.49057 3.8301158,12.574749 1.6549876,10.171259 Z M 15.979785,7.9622273 C 14.503376,5.2035334 15.514,2.5424663 18.566275,1.1517569 22.027937,-0.42548175 57.988181,-0.41813815 61.452947,1.160515 63.417706,2.0557191 64,3.0600265 64,5.5535262 64,7.5786493 63.409185,9.0127394 62.418213,9.3930112 61.548229,9.726855 50.989062,10 38.953396,10 17.958614,10 17.0261,9.9172855 15.979785,7.9622273 Z"
       id="path112"
       inkscape:connector-curvature="0" />
    <path
       style="fill:#feca95"
       d="M 2.25,10.325576 C -0.35461795,8.508687 -0.80232865,3.6594715 1.4285714,1.4285714 3.5441207,-0.68697788 7.9905596,-0.31690422 10.132705,2.1530097 12.652914,5.0588352 12.485854,6.6452237 9.3539773,9.5477489 6.3010977,12.377062 5.3415416,12.482126 2.25,10.325576 Z M 17.2,8.8 c -1.83712,-1.83712 -1.42786,-5.6076856 0.734259,-6.7648162 2.580298,-1.38093407 41.551184,-1.38093407 44.131482,0 C 64.22786,3.1923144 64.63712,6.96288 62.8,8.8 c -1.700001,1.700001 -43.899999,1.700001 -45.6,0 z"
       id="path110"
       inkscape:connector-curvature="0" />
    <path
       style="fill:#fec58b"
       d="M 2.25,10.056438 C -2.0674723,6.4546621 0.06237637,0 5.5683288,0 10.733583,0 12.77458,6.2688174 8.8114386,9.9610449 6.1376749,12.452035 5.139021,12.466554 2.25,10.056438 Z M 17.543671,8.6555912 C 14.660588,6.5474294 16.170436,2.4159128 20.112028,1.6275944 25.475109,0.55497822 57.484841,0.92445346 60.850777,2.0978251 c 3.69248,1.2872055 4.380006,5.1731121 1.214964,6.8669911 -3.063005,1.6392708 -42.229363,1.3672438 -44.52207,-0.309225 z"
       id="path108"
       inkscape:connector-curvature="0" />
    <path
       style="fill:#feb569"
       d="M 2.7517871,10.158574 C -0.50625562,8.1923126 -0.94353538,4.1638629 1.8287407,1.6549876 4.3752746,-0.64959397 7.599937,-0.40925739 9.443296,2.2225062 11.592899,5.2914939 11.39466,7.2806084 8.6855488,9.825686 6.016622,12.333013 6.3260136,12.315655 2.7517871,10.158574 Z M 17.447026,7.9414642 c -1.427545,-1.577419 -1.613791,-2.4538614 -0.796884,-3.75 C 17.586094,2.7064445 20.26608,2.4654621 38.608104,2.2170201 50.098647,2.0613812 60.5125,2.1824546 61.75,2.4860721 63.202484,2.8424356 64,3.7897911 64,5.1588094 64,9.4928136 61.787629,9.9344049 39.904988,9.9681966 20.36339,9.9983733 19.214687,9.8947079 17.447026,7.9414642 Z"
       id="path106"
       inkscape:connector-curvature="0" />
    <path
       style="fill:#feac56"
       d="M 2.25,9.325576 C -0.53392619,7.3836079 -0.62796794,4.6279679 2,2 4.8008465,-0.80084655 7.2784185,-0.49155119 9.2876307,2.9097739 11.182365,6.117304 10.726259,8.5409504 7.9480924,10.02778 5.590824,11.289352 4.9524024,11.210676 2.25,9.325576 Z M 17.666667,8.3333333 c -1.273042,-1.2730419 -0.657825,-5.1227487 0.91512,-5.7263445 2.758614,-1.0585795 41.417195,-0.6779009 43.483954,0.428195 2.333504,1.2488531 2.548383,4.5151771 0.352472,5.3578274 -2.160729,0.8291495 -43.918404,0.7734641 -44.751546,-0.059678 z"
       id="path104"
       inkscape:connector-curvature="0" />
    <path
       style="fill:#fea141"
       d="M 1.75,8.607954 C -0.55529003,6.8579896 -0.46474598,4.464746 2,2 4.464746,-0.46474598 6.8579896,-0.55529003 8.607954,1.75 12.637672,7.0584895 7.0584895,12.637672 1.75,8.607954 Z M 18.2,7.8 C 16.447745,6.047745 16.730209,4.2147554 18.934259,3.0351838 21.41383,1.7081575 57.966618,1.6566106 61.4349,2.9752492 64.665369,4.203471 64.860042,7.5362549 61.75,8.369714 57.291665,9.5645014 19.469721,9.0697209 18.2,7.8 Z"
       id="path102"
       inkscape:connector-curvature="0" />
    <path
       style="fill:#fe9b35"
       d="M 2.25,8.7795054 C -0.2545095,7.571626 -0.93239316,3 1.3930112,3 2.1591674,3 3.0450442,2.325 3.3616264,1.5 4.2273821,-0.75612307 6.569267,-0.3063269 8.3849901,2.4648167 10.397879,5.5368742 10.404571,6.4525718 8.4285714,8.4285714 6.6249299,10.232213 5.4057397,10.301461 2.25,8.7795054 Z M 18.52865,7.6446076 c -1.134866,-0.8298341 -1.6089,-1.993095 -1.222515,-3 C 17.86463,3.1891944 20.404775,3 39.386828,3 51.184106,3 61.548229,3.273145 62.418213,3.6069888 64.836467,4.5349602 64.302364,6.9345429 61.4349,8.0247508 57.282917,9.6033321 20.764892,9.2797876 18.52865,7.6446076 Z"
       id="path100"
       inkscape:connector-curvature="0" />
    <path
       style="fill:#fe9629"
       d="M 2.75,8.6403948 C -0.68002307,7.3600879 -0.74149061,5.4165317 2.5515219,2.3646707 5.7066364,-0.5593907 6.0564513,-0.54610327 8.3366549,2.5844142 11.45536,6.8661205 8.0080459,10.603038 2.75,8.6403948 Z M 20,8.2711085 C 17.7537,7.4160221 16.982306,5.726246 18.179647,4.2835385 18.982843,3.3157461 24.1962,3.003359 39.372445,3.0136547 50.4426,3.0211648 60.5125,3.2986489 61.75,3.630286 64.972442,4.4938671 64.524584,6.6214786 60.850777,7.9021749 57.617073,9.02945 22.817764,9.3437314 20,8.2711085 Z"
       id="path98"
       inkscape:connector-curvature="0" />
    <path
       style="fill:#fe8d16"
       d="M 1.75,7.9199012 C -0.37317391,6.6832659 -0.56838899,4 1.4648162,4 2.2704652,4 3.4112979,3.1 4,2 4.5887021,0.9 5.4499407,0 5.9138634,0 7.201378,0 9.3050781,5.7625959 8.6452657,7.4820395 7.9831841,9.2073964 4.3559569,9.4377318 1.75,7.9199012 Z M 18.322898,6.3990752 C 17.985015,5.5185666 18.336638,4.4004573 19.104283,3.914388 20.686437,2.9125744 56.086608,2.6673216 60.875,3.625 64.509299,4.3518597 65.010301,6.495987 61.75,7.369714 60.5125,7.7013511 50.373377,7.9788352 39.218615,7.9863453 21.536851,7.9982498 18.858487,7.7947972 18.322898,6.3990752 Z"
       id="path96"
       inkscape:connector-curvature="0" />
    <path
       style="fill:#fe8609"
       d="M 1.75,7.3315634 C -0.67821667,6.6680196 -0.45287497,4 2.0313848,4 3.1486464,4 4.325341,3.3157499 4.6462616,2.4794443 5.1294875,1.2201778 5.5577023,1.3370168 7.138231,3.1593817 8.1878936,4.3696528 8.8889955,5.8414029 8.6962353,6.4299373 8.313453,7.5986463 4.5262891,8.0902228 1.75,7.3315634 Z M 19.067287,6.5810754 C 17.999532,5.29451 18.032644,4.9247036 19.257688,4.4546101 21.422564,3.6238695 62.70268,4.3645731 63.585522,5.25 65.399963,7.0697519 61.552768,7.5193087 41.598585,7.8192423 23.329659,8.0938446 20.179085,7.9207105 19.067287,6.5810754 Z"
       id="path94"
       inkscape:connector-curvature="0" />
    <path
       style="fill:#fe8201"
       d="M 3.526992,7.0436739 C 3.2019189,6.5176946 2.2753612,6.3408396 1.467975,6.6506628 0.66058874,6.9604859 0,6.8144896 0,6.3262264 0,4.9800523 5.6163041,3.1448289 7.0411269,4.0254178 7.7287961,4.4504208 8.0149849,5.5185666 7.6771021,6.3990752 7.0018869,8.1586578 4.4600864,8.5534525 3.526992,7.0436739 Z M 19.243146,5.7705629 C 19.777849,4.1664536 59.850514,3.9020545 60.25,5.5 c 0.15907,0.6362818 -7.329955,1.0984086 -20.590188,1.2705629 -16.50071,0.2142245 -20.751999,0.006 -20.416666,-1 z M 62,6 c 0,-0.55 0.45,-1 1,-1 0.55,0 1,0.45 1,1 0,0.55 -0.45,1 -1,1 -0.55,0 -1,-0.45 -1,-1 z"
       id="path92"
       inkscape:connector-curvature="0" />
  </g>
</svg>
