<?xml version="1.0" encoding="UTF-8" standalone="no"?>
<!-- Created with Inkscape (http://www.inkscape.org/) -->

<svg
   xmlns:dc="http://purl.org/dc/elements/1.1/"
   xmlns:cc="http://creativecommons.org/ns#"
   xmlns:rdf="http://www.w3.org/1999/02/22-rdf-syntax-ns#"
   xmlns:svg="http://www.w3.org/2000/svg"
   xmlns="http://www.w3.org/2000/svg"
   xmlns:sodipodi="http://sodipodi.sourceforge.net/DTD/sodipodi-0.dtd"
   xmlns:inkscape="http://www.inkscape.org/namespaces/inkscape"
   version="1.1"
   id="svg50"
   width="19"
   height="19.040586"
   viewBox="0 0 19 19.040586"
   sodipodi:docname="search-icon.svg"
   inkscape:version="0.92.1 r15371">
  <metadata
     id="metadata56">
    <rdf:RDF>
      <cc:Work
         rdf:about="">
        <dc:format>image/svg+xml</dc:format>
        <dc:type
           rdf:resource="http://purl.org/dc/dcmitype/StillImage" />
        <dc:title></dc:title>
      </cc:Work>
    </rdf:RDF>
  </metadata>
  <defs
     id="defs54" />
  <sodipodi:namedview
     pagecolor="#ffffff"
     bordercolor="#666666"
     borderopacity="1"
     objecttolerance="10"
     gridtolerance="10"
     guidetolerance="10"
     inkscape:pageopacity="0"
     inkscape:pageshadow="2"
     inkscape:window-width="1366"
     inkscape:window-height="746"
     id="namedview52"
     showgrid="false"
     inkscape:zoom="6.2105263"
     inkscape:cx="19"
     inkscape:cy="19"
     inkscape:window-x="-8"
     inkscape:window-y="-8"
     inkscape:window-maximized="1"
     inkscape:current-layer="svg50" />
  <g
     id="g60"
     transform="matrix(0.49761262,0,0,0.49761262,0.0907205,0.0664264)">
    <path
       style="fill:#fef3e8"
       d="M 29.75,36.339355 C 28.2375,35.542687 27,34.51522 27,34.056095 27,33.59697 23.2875,33.427393 18.75,33.679258 11.651351,34.073285 10.045162,33.84978 7.24086,32.077737 1.8866116,28.694377 0.00802558,24.57298 0.00373806,16.20034 -0.00272713,3.575159 3.575159,-0.00272713 16.20034,0.00373806 c 5.470485,0.00280136 8.100441,0.49200532 10.495326,1.95225904 6.082401,3.7086747 8.704809,10.5182319 7.184524,18.6559179 -0.639975,3.425619 -0.538554,5.162492 0.368325,6.307704 C 36.681733,29.992299 38,33.002665 38,35.486431 c 0,2.101125 -0.45124,2.496163 -2.75,2.40749 -1.5125,-0.05834 -3.9875,-0.757898 -5.5,-1.554566 z M 22,22 C 24.81779,19.18221 24.716314,12.745258 21.811439,10.038955 18.984594,7.4053492 14.006654,7.4203255 10.634859,10.07258 7.2233089,12.756106 7.0030576,18.309901 10.174314,21.685549 13.005323,24.69902 19.137911,24.862089 22,22 Z"
       id="path78"
       inkscape:connector-curvature="0" />
    <path
       style="fill:#fee7d0"
       d="M 29.320284,34.858745 C 26.232696,31.771158 26.097633,31.737986 21.414828,32.91713 15.339838,34.44683 9.7433048,33.49633 5.9293797,30.287123 1.4980955,26.558443 -4.7191757e-4,22.894631 0.00373806,15.79966 0.01044452,4.497432 4.7831205,0 16.770341,0 c 6.426996,0 7.137541,0.22929458 11.026839,3.5583888 5.3836,4.6081616 6.914108,9.6853742 5.212158,17.2904912 -1.190094,5.317899 -1.175293,5.384684 1.895601,8.553042 C 36.813715,31.371279 38,33.630996 38,35.297607 c 0,3.957395 -4.511573,3.729282 -8.679716,-0.438862 z m -6.774829,-12.31329 c 2.72186,-2.721861 3.336106,-8.814407 1.172742,-11.632112 C 20.136129,6.2478294 14.0362,5.8099534 9.9230769,9.9230769 5.8099534,14.0362 6.2478294,20.136129 10.913343,23.718197 c 2.817705,2.163364 8.910251,1.549118 11.632112,-1.172742 z"
       id="path76"
       inkscape:connector-curvature="0" />
    <path
       style="fill:#fed7b0"
       d="m 29.263057,34.493172 c -3.5798,-3.064176 -4.431205,-3.379741 -6.745098,-2.5 C 15.318236,34.730502 7.6305145,32.315338 2.6158297,25.740748 0.39787889,22.832864 0,21.294869 0,15.629293 0,9.0491313 0.0681323,8.8792361 4.4736842,4.4736842 8.8792361,0.0681323 9.0491313,0 15.629293,0 c 5.665576,0 7.203571,0.39787889 10.111455,2.6158297 6.606079,5.038702 9.130081,13.1840423 6.127428,19.7741463 -1.005464,2.206753 -0.726357,2.957779 2.5,6.727052 6.961504,8.132951 2.995256,12.309763 -5.105119,5.376144 z M 20.527942,24.805315 C 23.512751,23.445345 26,19.273188 26,15.626385 26,12.327269 21.694013,7.3658234 18.261218,6.709603 15.11569,6.1082971 10.162887,7.890884 8.1136364,10.361867 c -2.0409541,2.46098 -1.7517378,9.273031 0.5,11.776742 3.3766796,3.754534 7.5008336,4.677618 11.9143056,2.666706 z"
       id="path74"
       inkscape:connector-curvature="0" />
    <path
       style="fill:#fec78f"
       d="M 30,34.395005 C 26.775047,31.171077 26.185661,30.954545 22.5,31.639613 12.625545,33.475016 6.582248,31.466699 2.4945564,24.991377 -6.8802175,10.140774 10.227185,-6.8256689 25.105586,2.5666538 30.290802,5.8399369 33.547672,12.575714 32.514221,17.889008 32.127929,19.875054 31.610722,22.625 31.364872,24 c -0.332678,1.860615 0.458641,3.442005 3.094064,6.183246 C 41.290194,37.288795 36.973453,41.366241 30,34.395005 Z M 22.804602,23.510963 C 26.340717,20.535518 27.291094,16.632449 25.514703,12.380948 23.017603,6.4045456 17.01084,4.3916739 10.979984,7.5103504 7.3473239,9.3888722 6,11.824027 6,16.511182 c 0,8.290582 10.21423,12.545213 16.804602,6.999781 z"
       id="path72"
       inkscape:connector-curvature="0" />
    <path
       style="fill:#feb76d"
       d="m 30.260563,33.789974 c -4.068794,-4.068794 -4.322282,-4.169433 -7.556292,-3 -4.193896,1.516532 -10.160805,1.556788 -13.0200125,0.08784 C 6.4729126,29.22795 2,24.824512 2,23.312909 2,22.590809 1.55,22 1,22 0.45,22 0,19.741058 0,16.980128 0,7.8706426 7.4491172,0 16.070729,0 c 4.123752,0 6.816835,1.1247962 10.774285,4.5 4.977713,4.2453589 6.484899,11.180195 3.952127,18.184452 -1.159142,3.205551 -1.05011,3.482088 3,7.60885 C 36.108713,32.648622 38,35.34617 38,36.287852 38,39.25403 34.64028,38.169691 30.260563,33.789974 Z M 22.102117,24.716367 C 29.018006,20.068368 28.09095,9.6072548 20.481396,6.42778 18.443063,5.5761101 15.839027,5.2356123 14.241579,5.6118759 10.718433,6.4417194 6.338086,10.516822 5.5365828,13.710265 c -0.9743499,3.88212 1.2835689,9.209131 4.8165112,11.363391 4.153292,2.532525 7.605386,2.427546 11.749023,-0.357289 z"
       id="path70"
       inkscape:connector-curvature="0" />
    <path
       style="fill:#fea951"
       d="M 30.29625,33.825662 26.121912,29.651324 20.70512,30.950792 C 12.687316,32.874234 8.122471,31.087142 2.7093117,23.905609 -0.27315781,19.948825 -1.0008324,13.181624 1.25,10.334358 2.8617537,8.295515 8.295515,2.8617537 10.334358,1.25 12.211557,-0.23397071 21,-0.43996963 21,1 c 0,0.55 0.589573,1 1.310162,1 2.181282,0 7.500178,5.8952937 8.758288,9.707406 0.92543,2.804081 0.901012,4.751424 -0.11256,8.976463 l -1.29437,5.395542 4.16924,4.248146 C 36.123842,32.664037 38,35.34617 38,36.287852 c 0,2.958507 -3.355503,1.886057 -7.70375,-2.46219 z m -8.461228,-8.240348 c 2.564891,-1.326357 4.19804,-3.642439 5.564365,-7.891211 C 28.241347,15.075916 25.692745,9.6911644 22.37118,7.0703766 18.217794,3.7932639 11.613828,4.6293941 7.7824405,8.9174614 3.6506103,13.541782 3.8837082,19.083708 8.4,23.6 c 3.812028,3.812028 8.548933,4.512008 13.435022,1.985314 z"
       id="path68"
       inkscape:connector-curvature="0" />
    <path
       style="fill:#fe972c"
       d="M 30.329676,33.162374 C 26.231424,28.620474 26.100582,28.561852 22.758678,29.7703 14.832222,32.636544 7.7038935,30.31474 2.991098,23.331702 -0.02871857,18.857183 -0.86487397,13.948931 1.0108832,11.707794 1.566869,11.043507 2.9729246,9.2327588 4.1354511,7.6839083 6.8950733,4.0072249 13.306785,0 16.429996,0 19.74698,0 27.675875,5.4725313 29.51683,9.0325455 31.321503,12.522397 31.425249,18.182 29.768533,22.763565 c -1.209944,3.346041 -1.148773,3.483692 3.5,7.875996 5.117451,4.835125 5.577603,5.821769 3.14968,6.75345 -1.907804,0.732093 -1.110945,1.285793 -6.088537,-4.230637 z M 24.230769,24.230769 C 30.518148,17.943391 28.012297,8.095211 19.357679,5.0791638 15.624405,3.7781553 14.952465,3.8256393 11.390278,5.642196 8.8990395,6.9126168 6.8124538,9.0118217 5.5881554,11.479409 c -1.736711,3.500361 -1.7825133,4.224436 -0.5,7.904368 3.00707,8.628226 12.8652476,11.124359 19.1426136,4.846992 z"
       id="path66"
       inkscape:connector-curvature="0" />
    <path
       style="fill:#fe8b14"
       d="M 32.566781,34.196387 C 27.570548,28.421458 26.147532,27.850379 20.779431,29.46594 13.241661,31.734476 5.730608,28.592271 3.0140392,22.033894 2.3228653,20.365252 1.3619535,19 0.87867966,19 0.39540585,19 0,17.65 0,16 0,14.35 0.40588273,13 0.90196162,13 1.3980405,13 2.648461,11.372615 3.6806739,9.3835882 5.2721037,6.3169764 9.2682053,3.0791548 14.784972,0.38638543 16.491394,-0.44653003 24.689,3.8802347 27.088988,6.8805473 30.328015,10.929775 31.217707,16.131499 29.50266,20.992462 28.676197,23.334907 28,25.41858 28,25.622846 28,26.75524 35.451632,34 36.616362,34 c 1.71659,0 1.760362,0.774585 0.133638,2.364813 -0.990002,0.96779 -1.860106,0.51676 -4.183219,-2.168426 z M 23,26.133922 C 29.895939,21.050282 30.520907,13.320907 24.521131,7.3211309 21.82674,4.6267405 20.416905,4 17.05034,4 11.067323,4 7.1561475,6.3927663 4.9363065,11.411085 3.4620472,14.743893 3.2553086,16.403413 3.9936556,18.977878 6.5032254,27.728237 15.991403,31.300613 23,26.133922 Z"
       id="path64"
       inkscape:connector-curvature="0" />
    <path
       style="fill:#fe870a"
       d="m 35.733333,35.875912 c 0.678334,-0.683418 1.485241,-0.990671 1.793128,-0.682784 0.307888,0.307887 -0.247112,0.867048 -1.233333,1.242579 -1.425198,0.542685 -1.540062,0.427821 -0.559795,-0.559795 z M 31.404988,31.75 29.5,29.5 31.75,31.404988 C 33.864445,33.195206 34.455241,34 33.654988,34 c -0.189757,0 -1.202257,-1.0125 -2.25,-2.25 z M 6.4049876,25.75 4.5,23.5 6.75,25.404988 C 8.8644448,27.195206 9.4552408,28 8.6549876,28 c -0.1897569,0 -1.2022569,-1.0125 -2.25,-2.25 z M 25,25.5 C 26.291745,24.125 27.495187,23 27.674314,23 27.853441,23 28,24.125 28,25.5 28,27.543454 27.511621,28 25.325686,28 H 22.651372 Z M 1.25,18.337719 C -0.44806677,17.652534 -0.32484247,15.514485 1.5,14 2.7788652,12.938636 3,13.215431 3,15.877555 3,17.5949 2.8875,18.964474 2.75,18.921053 2.6125,18.877632 1.9375,18.615132 1.25,18.337719 Z M 25.605952,7.1520594 23.711904,4.5 26.050396,6.7222222 c 1.286171,1.2222222 2.138493,2.415649 1.894048,2.6520594 C 27.7,9.610692 26.647678,8.610692 25.605952,7.1520594 Z M 14.654592,1.4577357 C 15.309545,-0.24904542 17.153631,-0.03910802 17.770833,1.8125 17.990653,2.4719586 17.254234,3 16.114718,3 14.676615,3 14.239815,2.5386281 14.654592,1.4577357 Z"
       id="path62"
       inkscape:connector-curvature="0" />
  </g>
</svg>
