<?xml version="1.0" encoding="UTF-8" standalone="no"?>
<!-- Created with Inkscape (http://www.inkscape.org/) -->

<svg
   xmlns:dc="http://purl.org/dc/elements/1.1/"
   xmlns:cc="http://creativecommons.org/ns#"
   xmlns:rdf="http://www.w3.org/1999/02/22-rdf-syntax-ns#"
   xmlns:svg="http://www.w3.org/2000/svg"
   xmlns="http://www.w3.org/2000/svg"
   xmlns:sodipodi="http://sodipodi.sourceforge.net/DTD/sodipodi-0.dtd"
   xmlns:inkscape="http://www.inkscape.org/namespaces/inkscape"
   version="1.1"
   id="svg2"
   width="28"
   height="39.791985"
   viewBox="0 0 28 39.791985"
   sodipodi:docname="arrow-top.svg"
   inkscape:version="0.92.1 r15371">
  <metadata
     id="metadata8">
    <rdf:RDF>
      <cc:Work
         rdf:about="">
        <dc:format>image/svg+xml</dc:format>
        <dc:type
           rdf:resource="http://purl.org/dc/dcmitype/StillImage" />
        <dc:title></dc:title>
      </cc:Work>
    </rdf:RDF>
  </metadata>
  <defs
     id="defs6" />
  <sodipodi:namedview
     pagecolor="#ffffff"
     bordercolor="#666666"
     borderopacity="1"
     objecttolerance="10"
     gridtolerance="10"
     guidetolerance="10"
     inkscape:pageopacity="0"
     inkscape:pageshadow="2"
     inkscape:window-width="1366"
     inkscape:window-height="746"
     id="namedview4"
     showgrid="false"
     inkscape:zoom="2.95"
     inkscape:cx="27.688958"
     inkscape:cy="27.932251"
     inkscape:window-x="-8"
     inkscape:window-y="-8"
     inkscape:window-maximized="1"
     inkscape:current-layer="svg2" />
  <g
     id="g12"
     transform="matrix(0.49353254,0,0,0.49353254,0.18108889,0.24243704)">
    <path
       style="fill:#fef6ee"
       d="M 23.75,78.919901 C 22.147104,77.9863 22,75.467069 22,48.95031 22,33.027639 21.69657,20 21.32571,20 20.954851,20 17.402812,23.15 13.43229,27 6.4697414,33.751206 2,35.90157 2,32.5 2,31.675 1.55,31 1,31 0.45,31 0,29.2 0,27 0,24.8 0.45,23 1,23 1.55,23 2,22.428612 2,21.73025 2,20.10041 20.135766,2 21.768789,2 22.445955,2 23,1.55 23,1 c 0,-1.55502855 8.262098,-1.11438948 10.5,0.5599921 3.27166,2.4478324 17.588055,16.6888979 20.137971,20.0320109 2.661037,3.488799 3.068455,7.844428 0.933458,9.979426 -2.798956,2.798955 -5.653843,1.555348 -13.178009,-5.740428 L 34,18.662001 v 29.308757 c 0,26.740363 -0.153357,29.425171 -1.75,30.637196 -2.084421,1.582301 -6.067936,1.728495 -8.5,0.311947 z"
       id="path48"
       inkscape:connector-curvature="0" />
    <path
       style="fill:#fef0e3"
       d="M 23.654988,78.171259 C 22.194149,76.557051 22,72.900049 22,46.997845 V 17.653172 l -7.885163,7.673414 C 9.7779972,29.546964 5.4708544,33 4.5434084,33 1.9051785,33 0,30.445522 0,26.908163 0,24.110755 1.6001631,22.073306 11.836735,11.836735 23.161531,0.51193811 23.85353,0 27.836735,0 30.126531,0 32,0.45 32,1 32,1.55 32.570943,2 33.268762,2 34.727125,2 52.893439,20.374419 54.75901,23.736431 57.195241,28.126849 55.457986,33 51.456592,33 50.529146,33 46.302192,29.625 42.063362,25.5 37.824532,21.375 34.051209,18 33.678199,18 33.30519,18 33,31.41 33,47.8 c 0,21.844444 -0.320358,30.120358 -1.2,31 -1.79324,1.79324 -6.265583,1.448005 -8.145012,-0.628741 z"
       id="path46"
       inkscape:connector-curvature="0" />
    <path
       style="fill:#feebda"
       d="M 24.2,78.8 C 23.320358,77.920358 23,69.644444 23,47.8 23,31.41 22.712505,18 22.361122,18 22.009739,18 18.189671,21.375 13.872082,25.5 9.5544929,29.625 5.4117325,33 4.6659476,33 2.5643191,33 0,29.613941 0,26.838843 0,24.955425 3.0744089,21.320784 12.409876,12.167584 28.806978,-3.9093795 27.416581,-3.9167525 43.666667,12.333333 56.83412,25.500787 58.311491,28.267561 53.845394,31.395737 50.941718,33.429551 49.186673,32.431359 40.25,23.663281 L 33,16.550055 V 46.846456 C 33,79.484524 32.918705,80 27.771429,80 26.467143,80 24.86,79.46 24.2,78.8 Z"
       id="path44"
       inkscape:connector-curvature="0" />
    <path
       style="fill:#fee0c5"
       d="M 24.25,78.504169 C 23.309245,77.435654 23,69.652101 23,47.042206 23,30.518993 22.651238,17 22.224972,17 21.798707,17 18.09747,20.375 14,24.5 6.6267264,31.922814 3.7424288,33.342429 1.2,30.8 -1.8910857,27.708914 -0.14341275,24.810079 12.333333,12.333333 23.177778,1.4888889 25.069069,0 28,0 30.930931,0 32.822222,1.4888889 43.666667,12.333333 56.143413,24.810079 57.891086,27.708914 54.8,30.8 52.257571,33.342429 49.373274,31.922814 42,24.5 37.90253,20.375 34.201293,17 33.775028,17 33.348762,17 32.985688,30.3875 32.968197,46.75 32.934065,78.678148 32.725986,80.03894 27.889757,79.961963 26.575391,79.941042 24.9375,79.285035 24.25,78.504169 Z"
       id="path42"
       inkscape:connector-curvature="0" />
    <path
       style="fill:#fedec2"
       d="M 24.240547,78.013569 C 23.324408,76.546598 23,68.132079 23,45.836187 V 15.645236 l -8.377815,8.177382 C 6.1628446,32.079576 4.0284872,33.171344 1.4285714,30.571429 -1.4930218,27.649835 0.03297555,25.229945 12.741712,12.631317 22.294352,3.1614414 26.114824,0 28.00614,0 29.906146,0 33.672524,3.1506612 43.264428,12.763904 55.811227,25.338615 57.547183,28.052817 54.8,30.8 52.353553,33.246447 49.554369,31.803555 41.50517,23.946926 34.780999,17.383625 33.132024,16.213568 32.59152,17.622098 32.226766,18.572633 31.97751,32.209017 32.037619,47.925172 32.097729,63.641327 31.840709,77.2875 31.466466,78.25 c -0.943861,2.427472 -5.658625,2.273205 -7.225919,-0.236431 z"
       id="path40"
       inkscape:connector-curvature="0" />
    <path
       style="fill:#fed7b1"
       d="M 24.556704,77.777494 C 23.231986,75.886193 23,71.096902 23,45.639676 V 15.724364 l -8.476541,8.137818 C 9.8613616,28.337982 5.4738616,31.985688 4.7734591,31.968197 2.6284679,31.914628 0,29.385601 0,27.375329 0,24.411956 24.936582,0 27.96364,0 c 3.008064,0 28.013957,24.436801 28.027618,27.389757 0.0092,1.996384 -2.622189,4.524932 -4.764717,4.57844 -0.700403,0.01749 -5.017997,-3.563103 -9.594654,-7.956877 -4.576657,-4.393773 -8.6161,-7.693773 -8.976541,-7.333333 C 32.294906,17.038428 32,30.893333 32,47.466667 32,69.57037 31.680236,77.919764 30.8,78.8 c -1.860102,1.860102 -4.530579,1.422741 -6.243296,-1.022506 z"
       id="path38"
       inkscape:connector-curvature="0" />
    <path
       style="fill:#fec895"
       d="M 25.2,78.8 C 24.318615,77.918615 24,69.422222 24,46.8 24,22.504227 23.730745,16 22.724972,16 22.023707,16 18.09747,19.375 14,23.5 6.8334867,30.714664 5.0294842,31.716017 1.5817875,30.393011 -2.1419195,28.964091 0.14049855,25.377386 12.809007,12.75 21.963461,3.6252625 26.272166,0 27.962665,0 c 1.672396,0 5.780943,3.3796353 14.070443,11.574157 13.08616,12.936221 14.963165,15.520481 12.995183,17.891754 -2.537184,3.05712 -5.430039,1.680118 -13.478417,-6.415743 -4.346763,-4.372407 -8.273706,-7.720849 -8.72654,-7.440983 C 32.3705,15.889052 32,29.62106 32,46.124758 32,64.896808 31.612422,76.855679 30.964816,78.065741 29.798136,80.245703 27.001862,80.601862 25.2,78.8 Z"
       id="path36"
       inkscape:connector-curvature="0" />
    <path
       style="fill:#febd82"
       d="M 25.240547,78.013569 C 24.323655,76.545391 24,68.066244 24,45.513569 24,28.731106 23.7104,15 23.356445,15 23.00249,15 18.963047,18.6 14.379905,23 9.796762,27.4 5.5567779,31 4.9577176,31 3.0641172,31 0,28.977878 0,27.728223 0,25.956208 26.210617,0 28,0 29.789383,0 56,25.956208 56,27.728223 56,28.977878 52.935883,31 51.042282,31 50.443222,31 46.203238,27.4 41.620095,23 37.036953,18.6 32.99751,15 32.643555,15 32.2896,15 32,28.478826 32,44.952947 32,75.658247 31.51438,80 28.080032,80 27.200616,80 25.922848,79.106106 25.240547,78.013569 Z"
       id="path34"
       inkscape:connector-curvature="0" />
    <path
       style="fill:#feb672"
       d="M 25.160515,77.452947 C 24.362348,75.701162 24,65.553671 24,44.952947 24,21.321704 23.730522,15 22.72318,15 c -0.70225,0 -4.41475,3.181825 -8.25,7.070723 C 6.0085258,30.653782 4.7081797,31.459213 2.0230318,29.782311 0.91036432,29.087438 0,28.045025 0,27.465837 0,25.862059 26.452416,0 28.092804,0 29.613567,0 56,25.909867 56,27.403164 c 0,1.009022 -3.076783,3.517797 -4.372185,3.565033 -0.479702,0.01749 -4.618907,-3.625281 -9.198233,-8.095051 C 36.828432,17.406 33.595681,14.941174 32.551767,15.341762 31.196423,15.861856 31,19.791544 31,46.386828 c 0,16.747278 -0.273145,31.161401 -0.606989,32.031385 -0.932992,2.43134 -3.937429,1.877096 -5.232496,-0.965266 z"
       id="path32"
       inkscape:connector-curvature="0" />
    <path
       style="fill:#feb168"
       d="m 25.606989,78.418213 c -0.333844,-0.869984 -0.61388,-15.157484 -0.622302,-31.75 C 24.976073,29.696207 24.560223,15.852956 24.034002,15.020776 23.28626,13.838276 21.30401,15.297682 14.152123,22.29618 5.6377733,30.627919 5.0798889,30.993522 2.6028082,29.864889 1.1712637,29.212633 0,28.210523 0,27.637977 0,26.083536 26.281973,0.0181322 27.859149,0.00839293 29.549027,-0.00204229 56,25.908177 56,27.573943 56,28.891692 53.802212,30 51.1891,30 50.283071,30 45.867002,26.344317 41.375613,21.876259 36.740396,17.265121 32.731781,14.047734 32.104725,14.435276 31.337041,14.909731 31,24.532868 31,45.97723 31,62.949787 30.726855,77.548229 30.393011,78.418213 30.059167,79.288196 28.982312,80 28,80 27.017688,80 25.940833,79.288196 25.606989,78.418213 Z"
       id="path30"
       inkscape:connector-curvature="0" />
    <path
       style="fill:#fea550"
       d="M 26.035184,78.065741 C 25.386497,76.853659 25,64.74147 25,45.624758 25,24.959895 24.653433,14.903844 23.925748,14.45411 23.33491,14.088952 19.114894,17.437394 14.547934,21.895093 9.9809742,26.352792 5.5511917,30 4.7039729,30 2.6211987,30 0,28.942433 0,28.102102 0,27.273744 27.174651,0 28,0 c 0.32,0 6.738347,6.1565284 14.262992,13.681174 10.62101,10.62101 13.436354,13.976166 12.586647,15 -2.245488,2.705647 -5.213271,1.202418 -13.397573,-6.786081 C 36.885106,17.437394 32.66509,14.088952 32.074252,14.45411 31.346567,14.903844 31,24.959895 31,45.624758 31,74.821044 30.548022,80 28,80 27.488702,80 26.604535,79.129584 26.035184,78.065741 Z"
       id="path28"
       inkscape:connector-curvature="0" />
    <path
       style="fill:#fe9d41"
       d="M 26.240547,78.013569 C 25.32265,76.543783 25,67.976255 25,45.072586 25,24.683908 24.644343,13.898226 23.958042,13.474068 23.384965,13.119887 18.891382,16.768485 13.972302,21.582064 5.3494333,30.019995 4.9317232,30.289921 2.3307983,29.10486 L -0.36692392,27.875696 13.816538,13.692234 28,-0.49122807 42.183462,13.692234 56.366924,27.875696 53.669202,29.10486 c -2.600925,1.185061 -3.018635,0.915135 -11.641504,-7.522796 -4.91908,-4.813579 -9.412663,-8.462177 -9.98574,-8.107996 C 31.356349,13.897798 31,24.506554 31,44.493917 31,77.937199 30.109503,84.208752 26.240547,78.013569 Z"
       id="path26"
       inkscape:connector-curvature="0" />
    <path
       style="fill:#fe9939"
       d="M 26.160515,77.452947 C 25.359682,75.69531 25,65.312547 25,43.952947 25,20.763754 24.70279,13 23.815067,13 23.163354,13 18.709617,16.836432 13.917875,21.525404 5.6447937,29.621049 5.0749083,29.991253 2.6126713,28.869383 0.02562673,27.690646 0.05154161,27.65625 14.00066,13.754143 L 27.981593,-0.1796727 41.490796,13.138025 C 48.920858,20.462759 55,26.787352 55,27.192678 c 0,0.405325 -0.927,1.23307 -2.059999,1.839433 C 51.112879,30.009957 49.890265,29.16608 42.124934,21.567294 37.309647,16.855283 32.88543,13 32.293341,13 30.255343,13 29.90785,18.299094 30.040256,47.358415 30.113285,63.386287 29.860958,77.2875 29.479529,78.25 c -0.962028,2.427589 -1.958838,2.188207 -3.319014,-0.797053 z"
       id="path24"
       inkscape:connector-curvature="0" />
    <path
       style="fill:#fe922a"
       d="M 26.630286,77.75 C 26.298649,76.5125 26.021165,61.648377 26.013655,44.718615 26.001728,17.831766 25.803667,13.86189 24.448233,13.341762 23.404319,12.941174 20.171568,15.406 14.570418,20.873146 9.9910923,25.342916 5.6268874,28.993109 4.8721854,28.984687 0.37397798,28.93449 1.7290402,26.823516 14.554162,13.901689 L 28,0.35446514 41.445838,13.901689 C 54.27096,26.823516 55.626022,28.93449 51.127815,28.984687 50.373113,28.993109 46.008908,25.342916 41.429582,20.873146 35.828432,15.406 32.595681,12.941174 31.551767,13.341762 30.196333,13.86189 29.998272,17.831766 29.986345,44.718615 29.973192,74.368855 29.656158,80 28,80 27.578295,80 26.961923,78.9875 26.630286,77.75 Z"
       id="path22"
       inkscape:connector-curvature="0" />
    <path
       style="fill:#fe8715"
       d="M 27.457295,78.069098 C 27.773726,77.557102 27.575283,76.855545 27.016312,76.510081 26.362729,76.106145 26,64.649244 26,44.409598 26,16.576683 25.816297,12.866737 24.411419,12.327635 23.312398,11.905901 20.147516,14.380966 14.141637,20.35902 5.4622164,28.998227 3,30.524575 3,27.265813 3,25.299058 26.053937,2 28,2 29.946063,2 53,25.299058 53,27.265813 53,30.524575 50.537784,28.998227 41.858363,20.35902 35.852484,14.380966 32.687602,11.905901 31.588581,12.327635 30.185166,12.866176 29.998408,16.525119 29.986345,43.718615 29.972866,74.10559 29.672943,79 27.824352,79 27.30604,79 27.140864,78.581094 27.457295,78.069098 Z"
       id="path20"
       inkscape:connector-curvature="0" />
    <path
       style="fill:#fe830b"
       d="M 27.75,76.417268 C 27.3375,76.004437 27,61.621767 27,44.455778 27,5.1642344 27.407464,5.8647468 13.025028,20.430008 5.499407,28.051292 4,29.092097 4,26.694682 4,25.000869 26.284362,3 28,3 29.715638,3 52,25.000869 52,26.694682 52,27.412607 51.69178,28 51.315067,28 50.938354,28 46.7213,24.175 41.943836,19.5 37.166372,14.825 32.804692,11 32.251213,11 29.366145,11 29.022539,14.391692 28.764271,45.419202 28.618922,62.880969 28.1625,76.830098 27.75,76.417268 Z"
       id="path18"
       inkscape:connector-curvature="0" />
    <path
       style="fill:#fe8006"
       d="M 27,46.559017 C 27,28.010384 27.369972,16.889378 28,16.5 28.658195,16.093213 29,26.156282 29,45.940983 29,65.313661 28.644488,76 28,76 27.355978,76 27,65.519672 27,46.559017 Z M 14.509547,15.990424 C 20.546038,9.9351565 26.332792,4.7117637 27.369,4.382884 c 1.441655,-0.4575637 4.546587,2.0570558 13.223949,10.709801 6.236964,6.219271 11.116217,11.531482 10.842785,11.804914 -0.273432,0.273432 -4.195831,-3.154472 -8.716442,-7.617566 L 34.5,11.165318 l -6.598709,-0.007 -6.59871,-0.007 -7.87783,7.924307 C 9.0919441,23.434062 5.0940377,27 4.5405144,27 3.9869911,27 8.4730557,22.045691 14.509547,15.990424 Z"
       id="path16"
       inkscape:connector-curvature="0" />
    <path
       style="fill:#fe7f04"
       d="m 28.441386,46.5 c 4.75e-4,-15.95 0.138544,-22.334972 0.306822,-14.188826 0.168277,8.146146 0.167889,21.196146 -8.63e-4,29 C 28.578593,69.115028 28.440912,62.45 28.441386,46.5 Z"
       id="path14"
       inkscape:connector-curvature="0" />
  </g>
</svg>
