<?xml version="1.0" encoding="UTF-8" standalone="no"?>
<!-- Created with Inkscape (http://www.inkscape.org/) -->

<svg
   xmlns:dc="http://purl.org/dc/elements/1.1/"
   xmlns:cc="http://creativecommons.org/ns#"
   xmlns:rdf="http://www.w3.org/1999/02/22-rdf-syntax-ns#"
   xmlns:svg="http://www.w3.org/2000/svg"
   xmlns="http://www.w3.org/2000/svg"
   xmlns:sodipodi="http://sodipodi.sourceforge.net/DTD/sodipodi-0.dtd"
   xmlns:inkscape="http://www.inkscape.org/namespaces/inkscape"
   version="1.1"
   id="svg166"
   width="40"
   height="40.242615"
   viewBox="0 0 40 40.242615"
   sodipodi:docname="burger-icon.svg"
   inkscape:version="0.92.1 r15371">
  <metadata
     id="metadata172">
    <rdf:RDF>
      <cc:Work
         rdf:about="">
        <dc:format>image/svg+xml</dc:format>
        <dc:type
           rdf:resource="http://purl.org/dc/dcmitype/StillImage" />
        <dc:title></dc:title>
      </cc:Work>
    </rdf:RDF>
  </metadata>
  <defs
     id="defs170" />
  <sodipodi:namedview
     pagecolor="#ffffff"
     bordercolor="#666666"
     borderopacity="1"
     objecttolerance="10"
     gridtolerance="10"
     guidetolerance="10"
     inkscape:pageopacity="0"
     inkscape:pageshadow="2"
     inkscape:window-width="1366"
     inkscape:window-height="746"
     id="namedview168"
     showgrid="false"
     inkscape:zoom="2.8780488"
     inkscape:cx="40.134416"
     inkscape:cy="39.644251"
     inkscape:window-x="-8"
     inkscape:window-y="-8"
     inkscape:window-maximized="1"
     inkscape:current-layer="svg166" />
  <g
     id="g176"
     transform="matrix(0.49901406,0,0,0.49901406,0.06707543,0)">
    <path
       style="fill:#fee7d1"
       d="M 35.253095,80.016548 C 33.035952,79.079319 5.6168037,64.026658 1.9102219,61.71186 0.70263285,60.957708 0,59.387721 0,57.443594 c 0,-2.547005 0.68782347,-3.46189 4.0038695,-5.325613 4.3318924,-2.434659 6.6945735,-2.213667 9.5022585,0.888791 1.408343,1.556201 1.523753,2.252297 0.564963,3.407569 -1.416586,1.706881 -1.425696,1.700321 13.826453,9.956998 C 33.616194,69.467103 38.872864,72 39.579033,72 c 0.70617,0 7.183287,-3.194085 14.393595,-7.097968 10.454909,-5.660609 12.884764,-7.368938 11.999117,-8.436077 -1.547774,-1.864953 0.406314,-5.271754 3.463979,-6.039179 C 73.486919,49.409991 80,53.77077 80,57.5 80,60.580259 78.529704,61.616603 60.26011,71.41375 43.880155,80.197571 39.359945,81.752592 35.253095,80.016548 Z M 20.040204,54.331663 C 10.437316,49.047044 1.9998164,44.142674 1.2902041,43.433061 -1.8687204,40.274137 0.96124408,34.827954 6.7552395,32.915763 9.4515042,32.025916 10.539055,32.123182 12.538018,33.432954 15.080632,35.098938 15.749891,37.418508 14,38.5 c -0.55,0.339919 -1,0.975873 -1,1.413233 0,1.142394 25.108239,14.507487 26.955559,14.34842 C 40.805002,54.188509 46.9,51.200942 53.5,47.622613 c 11.576361,-6.276367 12,-6.621983 12,-9.789911 0,-2.585037 0.579045,-3.563719 2.72101,-4.598952 2.326989,-1.124659 3.188749,-1.073215 5.951103,0.355253 1.776552,0.918691 3.814597,2.25485 4.52899,2.969243 1.983952,1.983952 1.492464,5.756777 -0.982528,7.542218 C 72.985168,47.515111 41.196421,63.99839 39.399222,63.97003 38.35465,63.953546 29.643092,59.616281 20.040204,54.331663 Z m 0.858345,-18.13382 C 0.81620472,25.133106 0,24.560345 0,21.532543 0,18.22896 1.9562369,16.91023 19.961165,8.0764036 32.349013,1.9985069 37.428271,0 40.487559,0 43.520674,0 48.481355,1.9221594 60.026394,7.5708872 68.536877,11.734875 76.5125,16.088316 77.75,17.245201 c 2.896992,2.708271 2.928788,6.849795 0.06631,8.63744 -6.672028,4.16675 -36.84867,20.109359 -37.980009,20.065202 -0.734968,-0.02869 -9.256958,-4.416187 -18.937756,-9.75 z M 52.375864,30.05566 C 69.52339,20.892635 69.298377,22.388122 54.692238,14.660517 47.768173,10.997232 41.398422,8 40.537235,8 37.925327,8 12.678278,21.08367 13.621531,21.94841 c 1.823553,1.671767 24.93852,14.036218 26.254333,14.043732 0.756724,0.0043 6.381724,-2.667095 12.5,-5.936482 z"
       id="path190"
       inkscape:connector-curvature="0" />
    <path
       style="fill:#fed6af"
       d="M 25.5,73.917027 C 1.1184383,60.46481 0,59.745009 0,57.505802 c 0,-3.2128 7.3443249,-7.125578 10.594855,-5.644537 2.576344,1.173861 3.085019,3.058861 1.305623,4.838257 -1.183017,1.183017 -0.289652,1.771653 16.978119,11.186836 C 34.036826,70.698861 38.888155,73 39.659329,73 c 1.027706,0 25.70275,-12.77558 28.171691,-14.58598 0.182061,-0.1335 -0.140958,-1.124628 -0.717822,-2.202507 -0.826957,-1.545184 -0.64107,-2.328808 0.878685,-3.704168 2.271172,-2.055381 5.434597,-1.532916 9.345635,1.543507 3.104171,2.441741 3.341042,4.044285 0.912482,6.173382 C 74.384285,63.613271 42.180757,79.999719 39.399222,79.993069 37.737342,79.989095 31.805375,77.395938 25.5,73.917027 Z M 21.018926,53.944369 C 11.954335,48.984931 3.5168352,44.258213 2.2689259,43.440551 c -3.5779394,-2.344356 -2.91933485,-5.706719 1.6172286,-8.25641 4.5618867,-2.563924 6.0472031,-2.691522 8.6727155,-0.745045 1.698214,1.259006 1.774429,1.711754 0.609028,3.617898 -0.732656,1.198341 -0.957656,2.537838 -0.5,2.976661 C 14.721842,43.003076 37.867477,55 39.613131,55 41.244617,55 65.89646,42.436873 67.591972,40.741361 67.892604,40.440729 67.556122,39.2621 66.844233,38.122185 65.726501,36.332412 65.819384,35.845895 67.524945,34.55661 70.14202,32.578285 70.803767,32.639428 75.5,35.293482 c 4.644732,2.624948 5.476687,5.51123 2.245057,7.788724 C 72.588294,46.716438 41.260202,62.998461 39.458422,62.980765 38.38129,62.970186 30.083517,58.903808 21.018926,53.944369 Z M 19.25,34.287589 C 2.8941273,25.268562 0,23.326383 0,21.369378 0,19.379484 2.5903216,17.768971 19.037357,9.5330433 29.507904,4.2898695 39.142852,0 40.448353,0 42.964374,0 76.251871,16.109013 78.611254,18.468397 81.41121,21.268352 80.177063,23.482325 73.75,27.189148 60.185805,35.012327 41.128647,44.997426 39.849959,44.951254 39.107482,44.924444 29.8375,40.125795 19.25,34.287589 Z M 55,29.601856 C 62.425,25.557006 68.32297,21.854377 68.106601,21.373792 67.500338,20.027202 42.122937,6.9944764 40.199471,7.0419079 37.955297,7.0972478 12.662051,20.211691 12.314788,21.5 12.010224,22.629902 37.680737,36.964203 40,36.959299 c 0.825,-0.0017 7.575,-3.312594 15,-7.357443 z"
       id="path188"
       inkscape:connector-curvature="0" />
    <path
       style="fill:#fec791"
       d="M 18.770937,69.712863 C -1.8461872,58.47045 -3.2981128,56.943185 3.5339269,53.685212 5.4775867,52.758346 7.8974866,52 8.9114822,52 c 2.3248088,0 4.6285428,2.548212 3.1370758,3.469989 -2.6005802,1.607247 -0.203404,3.698622 11.616057,10.134227 6.965539,3.792681 13.449766,7.283857 14.409395,7.758169 1.292636,0.638906 5.20187,-1.019553 15.085384,-6.399846 16.218477,-8.828858 16.204678,-8.818933 14.730492,-10.595218 -1.499726,-1.80706 0.544744,-4.368745 3.482559,-4.363583 3.246997,0.0057 8.81609,3.778764 8.442307,5.719661 C 79.440568,59.666378 42.576523,79.992299 39.5,79.951954 38.4,79.937529 29.071921,75.329938 18.770937,69.712863 Z M 33.5,60.161389 C 30.75,58.610476 22.0875,53.821873 14.25,49.520049 -1.3151128,40.976717 -2.3949022,39.64325 3.368034,36.081559 c 5.8242057,-3.599557 12.120974,-1.785556 8.586223,2.473558 -0.76008,0.91584 -0.905291,1.893529 -0.361875,2.436466 C 13.199544,42.597332 38.264832,56 39.660696,56 41.53516,56 69,40.976601 69,39.95126 69,39.492986 68.55,38.839919 68,38.5 66.155131,37.359808 66.976384,35.044031 69.44536,34.424358 72.217481,33.7286 80,37.556718 80,39.616047 c 0,0.68627 -1.2375,2.101492 -2.75,3.144936 C 73.369245,45.43824 40.518899,63.001972 39.413482,62.990616 38.911067,62.985455 36.25,61.712303 33.5,60.161389 Z M 19,33.612153 C 4.9447725,25.819752 0.5,22.892353 0.5,21.427756 0.5,19.928813 4.5039482,17.498026 18.5,10.5 28.4,5.55 36.65,1.1625 36.833333,0.75 37.758836,-1.3323801 43.716789,0.85104977 61.01816,9.6130892 76.790217,17.600628 79.996676,19.587525 79.980344,21.363089 79.964325,23.104627 76.446849,25.396464 60.969099,33.75 50.523726,39.3875 40.970071,43.970479 39.738755,43.934397 38.50744,43.898316 29.175,39.253306 19,33.612153 Z m 35.696047,-3.302988 c 7.867174,-4.22996 14.300576,-8.16746 14.296448,-8.75 -0.0041,-0.582541 -6.376375,-4.386313 -14.160549,-8.452827 L 40.678902,5.7126756 25.839451,13.079704 c -8.161698,4.051866 -14.83215,7.829014 -14.823227,8.393663 0.01321,0.836176 27.419545,16.483083 28.929823,16.516704 0.245326,0.0055 6.882826,-3.450947 14.75,-7.680906 z"
       id="path186"
       inkscape:connector-curvature="0" />
    <path
       style="fill:#feb56f"
       d="M 19.25,69.341416 C 8.6625,63.490851 0,58.104765 0,57.372336 0,55.486534 7.6998283,51.769954 10.056871,52.51805 12.040487,53.147625 12.813087,56 11,56 10.45,56 10,56.594846 10,57.32188 10,58.750463 37.119312,74 39.659861,74 41.114343,74 66.025884,60.9331 68.792382,58.719061 69.689,58.001494 69.765557,57.365557 69.042382,56.642382 67.401788,55.001788 67.818514,53.192377 69.99613,52.501228 71.975159,51.873109 80,55.574995 80,57.116047 80,57.527317 78.7625,58.72509 77.25,59.777765 73.457519,62.417266 40.535412,80.002486 39.41085,79.989404 38.909882,79.983577 29.8375,75.191982 19.25,69.341416 Z M 18.781009,51.690952 C 7.4906108,45.544258 0.04971167,40.904047 0.03100871,39.998283 0.00175673,38.581642 7.283159,33.991226 9.55,33.997222 c 0.5775,0.0015 1.583856,0.536634 2.236346,1.189124 0.915129,0.915129 0.806223,1.606379 -0.476371,3.023629 -1.020159,1.127263 -1.30472,2.194971 -0.736346,2.762855 2.041914,2.040155 27.061819,15.215201 28.95104,15.245113 C 41.530022,56.249694 70,41.305375 70,40.220984 c 0,-0.309927 -0.712334,-1.350623 -1.582964,-2.312658 -1.453973,-1.606622 -1.414388,-1.839376 0.485784,-2.856317 1.639834,-0.877612 2.886953,-0.689745 6.015116,0.906125 4.974337,2.537718 5.764936,3.816199 3.432202,5.550231 -4.327272,3.216666 -37.274425,20.4865 -38.98101,20.432587 -1.028021,-0.03248 -10.292674,-4.644977 -20.588119,-10.25 z M 19.25,33.209928 C 8.6625,27.350624 0,22.005143 0,21.331081 0,20.103904 36.832806,0.79819373 40.38691,0.16250787 c 1.0378,-0.18562067 2.167883,0.0393793 2.511294,0.5 0.343411,0.46062063 8.719302,4.93428553 18.61309,9.94147713 10.009747,5.065878 18.122418,9.783718 18.290163,10.636454 0.211686,1.076113 -5.522395,4.693096 -19.255336,12.146015 C 49.789885,39.223904 40.429229,43.969222 39.744664,43.931604 39.060099,43.893987 29.8375,39.069233 19.25,33.209928 Z M 55.836951,30.272815 C 63.626628,26.022863 70,22.067176 70,21.482401 70,20.121314 42.883035,5.9858748 40.381204,6.0428155 37.836342,6.1007355 10.634999,20.240359 10.64518,21.5 10.655228,22.743212 37.860092,38 40.066855,38 c 0.883876,0 7.980419,-3.477233 15.770096,-7.727185 z"
       id="path184"
       inkscape:connector-curvature="0" />
    <path
       style="fill:#fea651"
       d="M 18.781009,68.690952 C 8.4855635,63.085928 0.04806349,58.020846 0.03100871,57.435212 -0.00709142,56.126917 6.3401532,53 9.0339269,53 11.188479,53 11.75598,55.578893 9.75,56.254045 c -2.4595495,0.82781 1.283802,3.548816 15.553504,11.305692 l 14.183202,7.709856 6.006647,-3.142386 C 48.797009,70.398894 55.690828,66.70442 60.81295,63.917263 69.837657,59.00655 70.106017,58.759179 69.483495,55.924852 68.924506,53.379794 69.128244,53 71.052511,53 c 2.823116,0 9.359606,3.994962 8.270689,5.054868 -2.078436,2.023062 -38.231117,20.938439 -39.919262,20.886084 -1.047166,-0.03248 -10.327484,-4.644977 -20.622929,-10.25 z M 19.5,51.463169 C 9.05,45.730361 0.37940142,40.468409 0.23200316,39.769941 -0.10672595,38.164825 8.4672356,34.581582 10.646069,35.417679 c 1.47319,0.565315 1.455662,0.812428 -0.186321,2.626799 C 9.3491756,39.271647 9.0060106,40.403984 9.5736287,40.968396 11.332876,42.717707 38.093307,57 39.611706,57 c 0.837547,0 8.005589,-3.4875 15.928982,-7.75 14.113065,-7.592321 16.005796,-9.303516 13.292095,-12.017217 -2.463854,-2.463854 2.358115,-2.628078 6.870981,-0.234008 3.569859,1.893806 4.150825,2.567237 3.095451,3.588117 C 77.124113,42.207244 40.567075,62.01823 39.390557,61.943227 38.900751,61.912002 29.95,57.195976 19.5,51.463169 Z M 19.137849,32.613542 C 9.0386665,27.00066 0.71366652,21.978934 0.63784937,21.454151 0.56203222,20.929368 8.6,16.382412 18.5,11.349803 28.4,6.3171953 37.043507,1.7046953 37.707794,1.0998034 39.123028,-0.18889346 42.684966,-0.36761269 43.166667,0.82590594 43.35,1.2801542 51.706831,5.8926542 61.737403,11.075906 71.767975,16.259158 79.963609,20.95 79.949923,21.5 79.913456,22.965508 42.164041,43.016058 39.6422,42.909391 38.46399,42.859557 29.237032,38.226424 19.137849,32.613542 Z M 55.156241,31.223424 C 67.973341,24.326722 71,22.369382 71,20.977268 71,20.549454 64.1375,16.716424 55.75,12.459423 L 40.5,4.7194209 25.184225,12.398911 c -11.243085,5.637401 -15.2318055,8.106467 -15,9.285182 0.396107,2.014175 28.746563,17.472649 30.831058,16.811056 0.840647,-0.266811 7.204078,-3.539087 14.140958,-7.271725 z"
       id="path182"
       inkscape:connector-curvature="0" />
    <path
       style="fill:#fe942d"
       d="M 25,71.360054 C 17.575,67.209276 8.9125,62.459614 5.75,60.80525 2.5875,59.150886 0.00168677,57.505419 0.00374837,57.148658 0.00901723,56.23688 8.9792356,52.645902 9.6288494,53.295516 c 0.2932552,0.293255 0.061212,1.415092 -0.515651,2.492971 -0.814389,1.5217 -0.6648485,2.29054 0.6689797,3.439461 C 12.762662,61.795249 37.688776,75 39.554491,75 c 1.727292,0 28.953256,-14.173419 30.920468,-16.096722 0.63218,-0.618068 0.551484,-1.631289 -0.229521,-2.881877 -1.842077,-2.949634 0.172569,-3.358959 4.832216,-0.981785 3.983452,2.032206 4.067066,2.170717 2.129586,3.527781 C 73.849034,60.919576 40.270473,79.003421 39.353856,78.953462 38.884235,78.927865 32.425,75.510832 25,71.360054 Z M 19.583333,50.899665 C 9.7291655,45.454849 1.2916655,41 0.83333255,41 -1.3344898,41 0.43837957,39.18555 4.5652375,37.180568 9.0615432,34.996094 12.3257,35.0743 10.087132,37.312868 c -2.8359308,2.835931 -0.9177435,4.570007 14.034675,12.687606 13.848733,7.518411 15.34307,8.10948 17.75,7.020819 7.58812,-3.432127 28.342324,-15.415733 28.810293,-16.635242 0.297908,-0.776336 0.01946,-2.040728 -0.618783,-2.809758 -2.113918,-2.547116 0.759723,-2.80372 4.960191,-0.442924 3.187805,1.791646 3.753558,2.50265 2.74579,3.450744 -2.465125,2.319157 -36.759445,20.414491 -38.50208,20.315552 -0.97197,-0.05519 -9.829718,-4.555185 -19.683885,-10 z M 22.210151,33.529132 C -1.3814278,20.605639 -0.02320524,21.786598 5.2027173,18.741358 7.5662228,17.364101 16.025,12.98111 24,9.0013787 31.975,5.0216475 38.65,1.3682655 38.833333,0.88275191 39.253954,-0.23115866 42,-0.28433864 42,0.82142619 42,1.2732106 50.508755,5.8857106 60.908345,11.071426 c 10.39959,5.185716 18.94959,9.72047 19,10.077232 0.05041,0.356761 -2.495845,2.001753 -5.658345,3.655537 -3.1625,1.653783 -12.05,6.422486 -19.75,10.597117 -7.7,4.174631 -14.225218,7.592139 -14.500484,7.594463 -0.275267,0.0023 -8.280481,-4.257666 -17.789365,-9.466643 z M 55.94447,31.424941 C 70.451154,23.539244 72.346761,22.161089 71.192798,20.339019 70.280266,18.898162 42.471323,5 40.500832,5 39.661629,5 32.201033,8.3926403 23.921729,12.539201 13.126352,17.945898 8.957769,20.518149 9.1842252,21.633076 9.5704256,23.53448 36.608753,38.833295 39.754621,38.930403 c 1.240042,0.03828 8.525474,-3.33918 16.189849,-7.505462 z"
       id="path180"
       inkscape:connector-curvature="0" />
    <path
       style="fill:#fe8917"
       d="M 20.5,68 C 10.6,62.534354 1.825,58.038525 1,58.009269 -0.13678516,57.968956 7.258632,54 8.4705319,54 8.6092003,54 8.5238728,55.039868 8.2809153,56.310819 8.0375681,57.583807 8.4787387,59.152428 9.2632202,59.80349 12.234351,62.26931 38.166023,75.998549 39.794447,75.967913 40.732501,75.950265 48.25,72.225309 56.5,67.690232 70.418048,60.039394 71.486421,59.248277 71.311736,56.722319 c -0.216112,-3.12501 -0.251568,-3.107657 3.167106,-1.550005 1.415122,0.644772 2.415582,1.657272 2.223244,2.25 C 76.327315,58.577248 41.173647,77.976709 39.5,77.952189 38.95,77.944131 30.4,73.465646 20.5,68 Z m 13,-10.362269 C 21.177428,50.418713 2.3281783,40.589245 1.25,40.820067 0.5625,40.967251 0,40.617947 0,40.043837 0,39.469727 0.81,39 1.8,39 2.79,39 4.0275,38.600578 4.55,38.112395 5.0725,37.624212 6.6214711,36.884301 7.9921579,36.468149 10.194443,35.799517 10.330231,35.89717 9.1595823,37.307715 8.4309788,38.185629 7.9845077,39.652642 8.1674243,40.567744 8.5508899,42.486161 36.429909,58.177679 39.532516,58.221375 41.670674,58.251488 69.951444,43.407382 71.259952,41.568172 71.677925,40.980677 71.77724,39.469126 71.480651,38.209168 70.951246,35.960165 70.996712,35.94694 73.9707,37.484848 75.636815,38.34643 77,39.411266 77,39.85115 77,41.03267 41.556139,60.001609 39.369128,59.99054 38.341107,59.985336 35.7,58.926573 33.5,57.637731 Z M 21.068434,32.18053 C 11.481073,26.856239 3.4907166,22.04143 3.3120862,21.480955 3.1334558,20.920481 11.09016,16.430472 20.993652,11.503158 30.897143,6.5758445 39,1.9719146 39,1.2722029 c 0,-1.67772865 1.689133,-1.62917725 2.70031,0.077616 0.439829,0.7424004 9.324825,5.6924004 19.744435,11.0000001 C 71.864355,17.657419 79.816936,22 79.117147,22 c -0.699789,0 -9.593823,4.5 -19.76452,10 -10.170698,5.5 -19.023279,9.968739 -19.672402,9.93053 -0.649124,-0.03821 -9.02443,-4.425708 -18.611791,-9.75 z m 32.82373,1.167124 C 69.197146,25.272197 72,23.378412 72,21.112862 72,19.86681 67.702179,17.147061 57.095446,11.680956 48.897942,7.4564304 41.467319,4 40.58295,4 37.955628,4 8.9680548,18.919673 8.3214312,20.604747 c -0.3272058,0.852685 0.029115,2.144878 0.7918245,2.871539 2.0621323,1.964672 29.1628313,16.506867 30.7789083,16.515917 0.76569,0.0043 7.06569,-2.985759 14,-6.644549 z"
       id="path178"
       inkscape:connector-curvature="0" />
  </g>
</svg>
