<?xml version="1.0" encoding="UTF-8" standalone="no"?>
<!-- Created with Inkscape (http://www.inkscape.org/) -->

<svg
   xmlns:dc="http://purl.org/dc/elements/1.1/"
   xmlns:cc="http://creativecommons.org/ns#"
   xmlns:rdf="http://www.w3.org/1999/02/22-rdf-syntax-ns#"
   xmlns:svg="http://www.w3.org/2000/svg"
   xmlns="http://www.w3.org/2000/svg"
   xmlns:sodipodi="http://sodipodi.sourceforge.net/DTD/sodipodi-0.dtd"
   xmlns:inkscape="http://www.inkscape.org/namespaces/inkscape"
   version="1.1"
   id="svg226"
   width="40"
   height="40.5"
   viewBox="0 0 40 40.5"
   sodipodi:docname="gear-icon.svg"
   inkscape:version="0.92.1 r15371">
  <metadata
     id="metadata232">
    <rdf:RDF>
      <cc:Work
         rdf:about="">
        <dc:format>image/svg+xml</dc:format>
        <dc:type
           rdf:resource="http://purl.org/dc/dcmitype/StillImage" />
        <dc:title></dc:title>
      </cc:Work>
    </rdf:RDF>
  </metadata>
  <defs
     id="defs230" />
  <sodipodi:namedview
     pagecolor="#ffffff"
     bordercolor="#666666"
     borderopacity="1"
     objecttolerance="10"
     gridtolerance="10"
     guidetolerance="10"
     inkscape:pageopacity="0"
     inkscape:pageshadow="2"
     inkscape:window-width="640"
     inkscape:window-height="480"
     id="namedview228"
     showgrid="false"
     inkscape:zoom="2.8780488"
     inkscape:cx="40"
     inkscape:cy="41"
     inkscape:window-x="216"
     inkscape:window-y="164"
     inkscape:window-maximized="0"
     inkscape:current-layer="svg226" />
  <g
     id="g236"
     transform="scale(0.5)">
    <path
       style="fill:#fef3e8"
       d="m 32,79 c -1.1,-1.1 -2,-2.863196 -2,-3.918213 0,-5.406682 -2.73571,-6.432853 -8.22583,-3.085525 -4.724161,2.880322 -7.172429,2.49605 -11.732063,-1.841426 C 5.2985314,65.642381 4.903724,62.722869 8.2354335,56.794892 10.43102,52.888372 10.436526,52.792364 8.5443039,51.408737 7.4846941,50.633932 5.9037575,50 5.0311112,50 1.8724032,50 0,46.278351 0,40 0,33.649582 1.8760504,30 5.1404534,30 10.266045,30 11.110306,27.869408 8.0037381,22.77417 5.1031645,18.016793 5.4564607,14.718724 9.3036251,10.639541 13.722537,5.9541293 17.008328,5.2173477 21.545707,7.8944666 27.268577,11.271042 30,10.381273 30,5.1404534 30,1.8066039 33.639755,0 40.356443,0 47.296917,0 49.179761,1.1802314 50.39549,6.2928198 51.316148,10.164524 53.488372,10.655833 58.136216,8.0435983 63.170056,5.214422 65.705708,5.8249715 70.371775,10.98975 74.56277,15.628681 74.717303,16.673647 72,22 68.945181,27.98794 69.664378,30 74.859547,30 78.12395,30 80,33.649582 80,40 c 0,6.278351 -1.872403,10 -5.031111,10 -0.872646,0 -2.446292,0.628601 -3.496991,1.39689 -1.866949,1.365147 -1.854956,1.515181 0.527749,6.602357 l 2.43811,5.205467 -2.061652,3.554869 c -1.133909,1.955178 -3.661344,4.482613 -5.616522,5.616522 l -3.554869,2.061652 -5.205467,-2.43811 C 52.912071,69.616942 52.762037,69.604949 51.39689,71.471898 50.628601,72.522597 50,74.196251 50,75.19113 50,78.91842 46.41655,81 40,81 35.333333,81 33.555556,80.555556 32,79 Z m 9.339667,-8.75 c 0.260944,-0.9625 0.727128,-2.897001 1.035965,-4.298891 0.414978,-1.883691 1.877094,-3.123329 5.602483,-4.75 6.191638,-2.703546 6.469205,-2.705803 10.70645,-0.08704 4.399862,2.719264 5.107696,1.903905 2.296266,-2.645083 -1.983244,-3.208957 -2.114197,-4.080482 -1.114492,-7.417201 1.518664,-5.068847 4.791174,-9.048355 7.456241,-9.067097 1.197581,-0.0084 2.787963,-0.402172 3.534183,-0.875 C 72.560786,40.029966 71.076264,38.9666 66.58729,38.051459 64.192831,37.563314 63.008315,36.420952 61.309025,32.961036 58.551703,27.346862 58.5297,26.34786 61.059422,21.627947 c 1.132682,-2.113339 1.831352,-4.070505 1.552599,-4.349258 -0.278752,-0.278753 -2.046108,0.444507 -3.927456,1.607244 C 56.803217,20.04867 54.725469,21 54.067347,21 51.464701,21 43.039784,16.685757 42.625724,15.140957 42.383815,14.238431 41.905872,12.244096 41.563628,10.709102 40.76785,7.1399698 39.33736,8.033423 38.021085,12.921698 c -0.886698,3.292944 -1.73248,4.138048 -5.962557,5.957778 -6.14591,2.643899 -7.512817,2.645293 -11.211733,0.01143 -1.62907,-1.160001 -3.212549,-1.858488 -3.518843,-1.552194 -0.306294,0.306294 0.410785,2.555864 1.593509,4.999046 2.081921,4.300674 2.09645,4.581009 0.456184,8.802194 C 17.151945,36.867741 16.193169,38 13.568685,38 c -1.202534,0 -3.05939,0.638327 -4.1263472,1.418505 -1.8529409,1.354904 -1.8054642,1.447249 1.0588702,2.059561 4.839718,1.034593 5.869467,1.878983 8.372164,6.865137 l 2.373373,4.728499 -2.575493,4.964149 C 15.855331,63.463416 16.600826,64.244595 21.5,61 c 3.771329,-2.497653 4.367598,-2.486128 10.527299,0.203473 4.526997,1.976689 5.157723,2.645675 6.128253,6.5 1.134027,4.503629 2.382769,5.502323 3.184115,2.546527 z M 35.047168,56.69508 C 30.132235,55.128226 24.537238,49.158118 23.257026,44.114477 20.545005,33.429952 28.815559,23 40,23 c 7.981389,0 14.282069,4.907805 16.934178,13.190584 2.422322,7.565134 -3.194166,17.347062 -11.605808,20.213196 -5.287903,1.80177 -5.522303,1.808411 -10.281202,0.2913 z M 45.179014,44.974832 c 2.438653,-2.438653 2.896212,-3.553455 2.360027,-5.75 C 46.573538,35.269538 43.581367,32.666667 40,32.666667 c -3.581367,0 -6.573538,2.602871 -7.539041,6.558165 -0.536185,2.196545 -0.07863,3.311347 2.360027,5.75 C 36.484828,46.638674 38.815385,48 40,48 c 1.184615,0 3.515172,-1.361326 5.179014,-3.025168 z"
       id="path256"
       inkscape:connector-curvature="0" />
    <path
       style="fill:#fee7d1"
       d="M 33.752195,79.92113 C 32.790903,79.361201 31.50364,76.914415 30.891611,74.483828 29.521258,69.041665 27.461006,68.214002 22.096709,70.950663 16.594049,73.75791 14.71848,73.543309 10.571202,69.631923 6.3516683,65.65239 6.005812,62.541228 9.1592299,56.930478 10.946419,53.750604 11.097624,52.822556 10.036785,51.544323 9.3318641,50.694946 8.3157188,50 7.7786844,50 7.24165,50 5.2717501,49.273726 3.4011291,48.386059 0.06952288,46.805108 0,46.644747 0,40.541046 0,33.524846 1.238721,31.703523 6.8175696,30.516998 11.131124,29.599579 11.593644,28.083963 9.0697849,23.13679 6.1089644,17.333102 6.4210417,14.645625 10.533333,10.533333 14.579468,6.4871987 17.106935,6.1581825 21.863977,9.0583531 26.619609,11.957664 29.214663,11.30434 30.471906,6.8912434 32.144972,1.018545 33.548441,0 39.967457,0 c 6.264807,0 8.339873,1.3487269 9.552745,6.208982 1.184804,4.747778 3.009646,5.417967 8.064934,2.961918 5.934317,-2.8831138 6.7327,-2.7819892 11.411983,1.445462 4.59089,4.147594 4.825895,5.636125 1.855171,11.750769 -2.592389,5.335918 -2.05447,7.217336 2.33014,8.149867 C 78.639689,31.677662 80,33.569808 80,40 c 0,6.229881 -1.35609,8.309167 -6.208982,9.520202 -4.747778,1.184804 -5.417967,3.009646 -2.961918,8.064934 2.954723,6.08171 2.768747,7.425186 -1.621263,11.711916 -4.381724,4.27864 -6.796252,4.575072 -12.153132,1.492044 -4.595038,-2.644569 -6.618914,-1.62898 -7.644123,3.835848 -0.353288,1.883189 -1.590324,4.087971 -2.748968,4.899517 -2.397531,1.679297 -10.290989,1.921839 -12.909419,0.396669 z m 8.82162,-11.50128 c 0.827287,-2.967137 2.044849,-4.46271 5.009552,-6.1534 4.923617,-2.807805 6.571543,-2.812541 11.401502,-0.03277 2.134607,1.228524 4.241416,1.873368 4.681798,1.432987 0.440381,-0.440382 -0.204463,-2.547191 -1.432987,-4.681798 -2.779771,-4.829959 -2.775035,-6.477885 0.03277,-11.401502 1.69069,-2.964703 3.186263,-4.182265 6.1534,-5.009552 5.551614,-1.54788 5.606136,-3.286673 0.146167,-4.661509 -4.068925,-1.024567 -4.800917,-1.65491 -6.572453,-5.65976 -2.510051,-5.674387 -2.492642,-6.489143 0.240116,-11.237415 1.228524,-2.134607 1.89849,-4.216294 1.488813,-4.625971 -0.409677,-0.409677 -2.488602,0.235167 -4.619834,1.432986 -4.846182,2.723707 -6.611597,2.710129 -11.519292,-0.0886 -2.964703,-1.69069 -4.182265,-3.186263 -5.009552,-6.1534 C 41.077779,6.2144789 39.469884,6.0871784 37.772258,11.2 35.336647,18.535444 26.345018,22.180933 21,18 15.855591,13.975985 14.647391,15.956641 18.178987,22.624611 l 2.184541,4.124611 -2.105571,4.875389 c -1.89034,4.377027 -2.579324,5.010793 -6.740219,6.200023 -5.4681952,1.562872 -5.4463318,3.220391 0.06241,4.731573 3.182353,0.872996 4.386033,1.945572 6.397649,5.700822 l 2.477798,4.625513 -2.227798,4.58548 C 17.002509,59.990037 16,62.491465 16,63.026751 16,64.585946 18.297105,64.114235 21,62 c 3.268837,-2.556921 6.600722,-2.479197 11.422258,0.26645 2.957682,1.684267 4.273373,3.291021 5.35,6.53355 1.697626,5.112822 3.305521,4.985521 4.801557,-0.38015 z M 33.240245,54.889882 C 22.619381,49.63265 20.234681,36.831986 28.362058,28.704608 c 6.808956,-6.808955 16.466928,-6.808955 23.275884,0 8.29284,8.29284 5.764984,21.482896 -5.059343,26.399061 -5.299993,2.407137 -8.135271,2.361693 -13.338354,-0.213787 z M 45.685549,45.825686 C 50.690464,41.123812 46.938471,32 40,32 c -6.827368,0 -10.524115,8.6843 -5.825686,13.685549 2.868242,3.053104 8.339623,3.119712 11.511235,0.140137 z"
       id="path254"
       inkscape:connector-curvature="0" />
    <path
       style="fill:#fed6af"
       d="M 35.736409,80.356529 C 33.859777,79.815529 31,75.115771 31,72.572713 c 0,-0.839634 -1.113178,-2.255989 -2.473728,-3.147456 -2.319556,-1.519831 -2.685276,-1.490106 -5.868034,0.476947 -4.493255,2.776984 -7.852095,2.647 -11.528065,-0.446124 C 6.9212387,65.914495 6.4968831,63.726456 9.0337853,58.646802 11.92305,52.861609 11.378065,50.796642 6.5439657,49.212788 0.63897962,47.278067 0,46.387589 0,40.093163 c 0,-5.127042 0.25980292,-5.81119 2.75,-7.241664 1.5125,-0.868844 3.9875,-1.874441 5.5,-2.23466 3.391371,-0.807693 3.576325,-3.278431 0.691509,-9.237665 C 7.0299494,17.430419 6.9938526,16.912568 8.4357977,14.124154 11.633678,7.9401348 16.785339,6.4681453 22.616816,10.072196 26.712167,12.603262 29.752712,11.886872 30.633567,8.1833499 30.984586,6.7075075 31.982655,4.2625 32.851499,2.75 34.268736,0.28284582 34.98838,0 39.848312,0 44.148873,0 45.650284,0.44376424 47.132705,2.1530097 48.159717,3.337165 49,5.0873122 49,6.0422257 c 0,0.9549135 0.876917,2.7985592 1.948704,4.0969903 L 52.897408,12.5 56.896822,10.25 c 5.48166,-3.0838855 8.128306,-2.8510273 11.907011,1.047607 3.708496,3.826197 3.96177,6.281364 1.205354,11.684385 -2.335466,4.577892 -1.799866,6.794966 1.851114,7.662531 1.451835,0.344993 3.877199,1.338132 5.389699,2.206976 2.496048,1.433836 2.75,2.108645 2.75,7.307405 0,4.785212 -0.365707,5.983839 -2.222506,7.284392 C 76.555115,48.299483 74.804968,49 73.888278,49 c -0.916691,0 -2.670277,0.812639 -3.896858,1.805865 l -2.230149,1.805864 2.119365,4.154297 c 2.967326,5.816441 2.723308,8.867387 -0.986391,12.332764 -3.660322,3.419253 -6.538348,3.633585 -11.920625,0.887752 l -3.946704,-2.013458 -2.013458,2.013458 C 49.906056,71.093944 49,72.850147 49,73.889216 c 0,4.72389 -7.17517,8.222495 -13.263591,6.467313 z m 6.325244,-8.416048 C 42.44915,71.148216 43.166816,69.15 43.656466,67.5 44.239715,65.534594 45.745707,63.913051 48.02337,62.798032 52.612971,60.551213 55.947851,60.612574 59,63 c 4.780068,3.739023 7.136353,1.397717 3.918511,-3.893601 -1.055181,-1.735106 -1.916829,-4.381362 -1.914773,-5.880569 0.0055,-4.043244 3.467182,-9.073676 6.715243,-9.758554 7.16787,-1.511398 7.724379,-4.351471 1.213028,-6.190532 -3.673253,-1.037471 -4.897449,-1.981059 -6.25,-4.817389 -2.19714,-4.60745 -2.12389,-7.684401 0.276918,-11.632213 1.418251,-2.332127 1.666943,-3.573014 0.901039,-4.495873 -0.84077,-1.013066 -1.991873,-0.777477 -5.608658,1.147886 -4.286284,2.281765 -4.757887,2.336023 -8.114441,0.933565 C 45.362405,16.417822 43,14.141577 43,11.536142 43,10.351507 42.325,8.5087509 41.5,7.4411296 c -1.484836,-1.9215061 -1.515164,-1.9215061 -3,0 -0.825,1.0676213 -1.506891,2.8676214 -1.515313,4.0000004 -0.02334,3.137827 -1.132166,4.29422 -6.316571,6.587529 l -4.761908,2.106419 -4.552626,-2.668017 c -6.046452,-3.543457 -7.865737,-2.148404 -4.599439,3.526914 2.692229,4.67785 2.792048,6.792797 0.543173,11.508736 -1.376378,2.886295 -2.529488,3.778757 -6.016998,4.656922 C 8.907445,37.75713 6.7099123,38.660355 6.3969119,39.1668 5.5090433,40.603402 8.011821,43 10.399938,43 c 3.445163,0 6.446681,2.756019 7.754134,7.119911 1.099554,3.669983 0.988591,4.457758 -1.189527,8.444992 -3.160022,5.784695 -1.757286,7.706191 3.330289,4.561897 3.914673,-2.419401 6.402331,-2.642504 10.408113,-0.933439 C 34.791518,63.937749 37,66.051647 37,68.220729 c 0,4.688022 3.374987,7.168262 5.061653,3.719752 z M 33.179627,54.318244 c -1.826205,-0.899919 -4.526205,-3.218484 -6,-5.152367 -3.645978,-4.784179 -3.757059,-13.141837 -0.240308,-18.080659 3.318767,-4.660777 10.01031,-7.469818 15.745457,-6.60978 5.62277,0.843187 11.874143,6.656477 12.870738,11.968785 2.492675,13.287103 -10.546828,23.703153 -22.375887,17.874021 z m 12.897296,-8.241321 c 3.930009,-3.930009 3.930009,-8.223837 0,-12.153846 C 44.081926,31.92808 42.152497,31 40,31 c -4.301907,0 -9,4.698093 -9,9 0,4.301907 4.698093,9 9,9 2.152497,0 4.081926,-0.92808 6.076923,-2.923077 z"
       id="path252"
       inkscape:connector-curvature="0" />
    <path
       style="fill:#fec690"
       d="M 33.627178,77.75 C 32.846768,76.5125 31.881319,74.375 31.481736,73 29.890932,67.525898 26.688896,66.56353 21.5,70 17.406206,72.711213 15.659277,72.51775 11.534796,68.896408 7.4043588,65.269836 7.2188846,63.661274 10.219115,57.485896 12.630946,52.52162 12.039635,49.823091 8.3928167,49.151339 7.3517675,48.959575 5.0375,48.120802 3.25,47.287398 0.18688324,45.85925 0,45.469446 0,40.508503 0,34.667462 0.73043972,33.681046 6.5468611,31.66735 12.18821,29.714266 12.954683,27.864935 10.243953,22.747074 7.378175,17.336482 7.4203919,15.842276 10.54392,12.130173 14.039711,7.9756619 16.182123,7.5421027 21.019901,10.010153 26.349452,12.729087 29.137274,12.297524 30.775242,8.5 34.234845,0.47913041 34.188634,0.52003362 40.147574,0.20414514 45.63294,-0.0866388 45.756634,-0.03262891 47.364299,3.3552743 48.263935,5.2511155 49,7.4317501 49,8.2011291 49,10.134137 51.047758,12 53.169206,12 c 0.973064,0 3.579434,-0.943543 5.791934,-2.0967626 3.976241,-2.0725327 4.060258,-2.0748431 7.270552,-0.1999308 1.786303,1.0432574 3.927433,3.1089334 4.758066,4.5903904 1.397492,2.492466 1.335485,3.023212 -0.830564,7.109156 -2.867476,5.409087 -2.53808,7.69122 1.353035,9.374142 8.01539,3.466687 7.967802,3.412855 8.283626,9.370579 0.290784,5.485366 0.236774,5.60906 -3.151129,7.216725 C 74.748885,48.263935 72.56825,49 71.798871,49 69.929164,49 68,51.025492 68,52.988558 c 0,0.873707 0.9,3.353856 2,5.511442 2.681621,5.259844 2.559558,6.140442 -1.4,10.1 -3.917212,3.917212 -5.819505,4.173242 -10.37417,1.396262 C 52.609819,66.572179 49.986021,67.523269 48.559977,73.5 47.387892,78.41235 45.26486,80 39.868065,80 c -3.91346,0 -5.089297,-0.423919 -6.240887,-2.25 z m 9.92394,-8.25 c 0.879283,-3.176297 1.999169,-4.49696 5.438295,-6.413296 l 4.330989,-2.413297 4.304827,2.283705 C 61.798194,65.170865 65,65.185815 65,62.991547 c 0,-0.589173 -0.920839,-2.876217 -2.046309,-5.082321 -1.806517,-3.541065 -1.897479,-4.422683 -0.776235,-7.523425 1.540103,-4.259081 3.005558,-5.572573 7.713787,-6.913895 2.54516,-0.725088 3.701744,-1.673845 3.92426,-3.219109 0.267437,-1.857224 -0.394787,-2.369866 -4.346882,-3.365015 -4.196013,-1.056568 -4.86203,-1.634822 -6.658272,-5.780892 L 60.814462,26.5 l 2.095546,-4 c 3.684473,-7.032957 2.077941,-9.044191 -4.398366,-5.50636 -4.152641,2.268476 -4.244598,2.273761 -8.864433,0.509429 -4.207451,-1.60684 -4.800434,-2.237896 -6.007234,-6.392947 -0.979911,-3.3738615 -1.902602,-4.6941028 -3.440794,-4.9232937 -1.738017,-0.2589649 -2.34294,0.5137485 -3.494845,4.4642267 -1.262376,4.329342 -1.843682,4.962344 -6.198171,6.749384 l -4.805148,1.971985 -3.798626,-2.186212 c -7.119616,-4.097531 -8.970372,-2.311004 -5.183579,5.003689 l 2.427947,4.6899 -1.951005,4.41057 c -1.735567,3.923537 -2.468661,4.540918 -6.638882,5.590992 -3.9767157,1.001348 -4.640015,1.512803 -4.3723748,3.371434 0.2225157,1.545264 1.3790996,2.494021 3.9242598,3.219109 4.714211,1.343026 6.17358,2.654526 7.723592,6.941009 1.163846,3.218558 1.058526,3.926905 -1.161707,7.813264 -3.891677,6.812103 -1.805678,8.637838 5.237684,4.584193 l 3.804562,-2.189628 4.833267,2.092191 c 4.325179,1.872253 4.976125,2.582129 6.192236,6.7528 1.135562,3.894432 1.716235,4.609125 3.532195,4.347437 1.57943,-0.227603 2.475777,-1.4061 3.280532,-4.313172 z M 35.683804,54.542933 C 28.636394,52.044756 24.99746,47.021397 25.003738,39.79966 c 0.01307,-15.037979 19.987511,-20.418586 28.060544,-7.5588 1.60503,2.556703 1.966309,4.500825 1.676245,9.020263 -0.314929,4.906873 -0.85993,6.266855 -3.675518,9.171805 -1.81817,1.875875 -4.489093,3.692239 -5.935386,4.036364 C 43.68333,54.813418 41.825,55.27514 41,55.49534 40.175,55.715541 37.782712,55.286958 35.683804,54.542933 Z m 7.767823,-5.958275 C 47.479197,46.901832 49,44.417297 49,39.520287 49,34.465892 45.402525,31 40.156239,31 c -4.684595,0 -7.845032,2.297383 -9.051352,6.579604 -1.234607,4.382634 0.984805,9.122373 5.111128,10.915239 4.061031,1.764496 3.251585,1.754448 7.235612,0.08981 z"
       id="path250"
       inkscape:connector-curvature="0" />
    <path
       style="fill:#febe81"
       d="M 35.211871,79.152105 C 34.5034,78.702607 33.150047,76.172307 32.20442,73.529215 29.970324,67.284769 27.834688,66.496355 21.467028,69.56529 16.692801,71.866258 16.482937,71.882122 13.541712,70.164354 11.880036,69.193883 9.8826006,67.263394 9.1029658,65.874377 7.8282914,63.603386 7.9131405,62.892982 9.9449716,58.824634 13.421936,51.862687 13.021634,51.156735 3,46.57686 0.88760675,45.611499 0.4541166,44.653728 0.20405958,40.399393 -0.11543686,34.963653 0.17243338,34.6683 9.25,31.118324 c 3.373791,-1.319393 3.639333,-4.611345 0.753738,-9.344154 -2.7104297,-4.445512 -2.5277357,-6.096326 1.073185,-9.697247 3.651916,-3.6519162 6.835822,-3.9120027 11.628581,-0.949914 4.234255,2.616913 7.878983,1.453014 8.9028,-2.8430004 C 31.973217,6.7528039 32.982655,4.2625 33.851499,2.75 35.22658,0.35623224 36.047994,0 40.192555,0 c 5.275174,0 7.011601,1.6249494 8.290566,7.758317 1.001974,4.805035 3.729895,5.853816 8.609943,3.310193 5.336076,-2.7813183 8.018468,-2.6053086 11.219845,0.736209 3.215271,3.35602 3.366903,5.942415 0.659515,11.249334 -2.404258,4.712736 -1.474813,7.550985 2.806441,8.570031 1.496624,0.356234 3.958635,1.358571 5.471135,2.227415 2.380843,1.367657 2.75,2.205531 2.75,6.241664 0,5.184677 -0.833575,6.234196 -6.448969,8.119625 -2.108545,0.707967 -4.438242,2.206698 -5.177104,3.330513 -1.157654,1.760802 -1.068984,2.555274 0.641344,5.746376 2.726919,5.087841 2.491808,7.850328 -0.948662,11.146507 -3.15281,3.020584 -5.367012,3.104598 -11.842047,0.449324 -4.196171,-1.72076 -6.283359,-0.50821 -8.011774,4.654436 -0.707966,2.114643 -1.775567,4.433236 -2.372445,5.15243 -1.193021,1.437503 -8.583519,1.757177 -10.628472,0.459731 z m 8.568437,-9.422093 c 1.122241,-3.97339 1.927947,-4.9991 4.90342,-6.242332 C 53.408922,61.513368 55.984545,61.641277 59,64 c 3.137054,2.453839 4.663039,2.498134 5.908217,0.171497 0.719942,-1.345223 0.464938,-2.673127 -0.964816,-5.024169 -3.995695,-6.570394 -1.499553,-13.474885 5.509559,-15.2398 7.047795,-1.774655 6.961971,-6.176257 -0.14643,-7.509801 -2.444528,-0.458596 -4.063609,-1.591778 -5.395779,-3.776462 -2.424892,-3.976688 -2.406244,-6.729695 0.07858,-11.600346 1.820575,-3.568621 1.854087,-4.034647 0.395053,-5.493681 -1.459034,-1.459034 -1.972184,-1.372806 -6.049197,1.016483 l -4.454922,2.610758 -4.678616,-2.32724 C 45.386371,14.929444 44.401639,13.879869 43.865192,11.139392 43.503382,9.2910574 42.4857,7.0571288 41.603678,6.1751062 40.196396,4.7678244 39.825279,4.7507536 38.573312,6.0357143 37.788634,6.8410714 36.762764,9.075 36.293602,11 c -0.689068,2.827284 -1.758291,3.951891 -5.562945,5.851097 l -4.709923,2.351098 -4.618896,-2.706854 c -4.283566,-2.510336 -4.738067,-2.587612 -6.260367,-1.064405 -1.522,1.522907 -1.47771,1.927132 0.608529,5.553874 2.745694,4.773145 2.826852,7.556925 0.339249,11.636455 -1.33217,2.184684 -2.951251,3.317866 -5.395779,3.776462 -7.2672708,1.363348 -7.0347592,5.625469 0.41634,7.631842 2.686005,0.723266 4.339633,1.938878 5.383512,3.957517 2.060953,3.985443 1.895454,6.440826 -0.743322,11.028104 -2.100753,3.651974 -2.13936,4.02213 -0.582029,5.580374 1.557652,1.558566 1.896155,1.527923 5.118034,-0.463308 4.112766,-2.541829 7.022186,-2.625243 11.65754,-0.334224 2.510364,1.240744 3.686519,2.650448 4.340145,5.201968 1.939601,7.571494 5.467291,7.915016 7.496618,0.730012 z M 33.218183,53.336917 C 23.421045,48.508103 22.37521,34.141392 31.355344,27.746973 c 4.33906,-3.089683 12.950252,-3.089683 17.289312,0 9.053261,6.44649 7.909491,20.914998 -2.026091,25.62974 -4.320979,2.050439 -9.188855,2.035982 -13.400382,-0.0398 z M 46.6,46.6 C 50.973922,42.226078 51.128094,38.294109 47.102336,33.788504 44.704392,31.104738 43.47955,30.545455 40,30.545455 c -3.47955,0 -4.704392,0.559283 -7.102336,3.243049 C 28.871906,38.294109 29.026078,42.226078 33.4,46.6 c 2.45,2.45 4.294118,3.4 6.6,3.4 2.305882,0 4.15,-0.95 6.6,-3.4 z"
       id="path248"
       inkscape:connector-curvature="0" />
    <path
       style="fill:#feb56e"
       d="m 34.666864,78.184383 c -0.903711,-0.99859 -1.935801,-3.279066 -2.293532,-5.067725 -0.367363,-1.836811 -1.710248,-3.946533 -3.085717,-4.847775 -2.268793,-1.48657 -2.73974,-1.447755 -6.888206,0.567725 C 16.352241,71.77455 14.716297,71.579848 11.130096,67.49539 7.8355493,63.743109 7.8585864,63.041717 11.50818,55.984182 13.437413,52.253457 12.169851,49.317817 8.2211354,48.371468 6.7245109,48.012787 4.2625,47.095917 2.75,46.33398 0.32933604,45.114546 0,44.378743 0,40.189927 0,35.997794 0.34578916,35.226952 2.9042921,33.715608 4.5016527,32.772023 6.7412788,32 7.8812391,32 c 1.1399602,0 2.7858269,-1.088438 3.6574819,-2.418751 1.469712,-2.243064 1.435068,-2.712302 -0.476947,-6.460162 -2.885349,-5.655751 -2.6387385,-8.457816 1.014951,-11.532193 3.755599,-3.1601283 5.050381,-3.2074572 10.10037,-0.369205 3.639205,2.045348 4.159874,2.101555 6.629079,0.715626 1.473822,-0.827234 2.839757,-2.3885943 3.035412,-3.4696887 C 32.037241,7.3845318 32.879198,5.0375 33.712602,3.25 35.105012,0.26353609 35.606601,0 39.898334,0 c 4.045409,0 4.881863,0.36802972 6.250167,2.75 0.868844,1.5125 1.871181,3.9745109 2.227415,5.4711354 1.085111,4.5588046 4.082761,5.3742816 9.841182,2.6771816 4.532434,-2.1228788 5.167874,-2.1926182 7.590168,-0.83302 1.453988,0.816103 3.311334,2.673449 4.127437,4.127437 1.361046,2.424873 1.288806,3.059982 -0.873064,7.675665 -2.241378,4.785435 -2.275009,5.157013 -0.68621,7.581826 C 69.294301,30.852601 70.978801,32 72.118761,32 c 1.13996,0 3.379586,0.772023 4.976947,1.715608 C 79.654211,35.226952 80,35.997794 80,40.189927 c 0,4.188816 -0.329336,4.924619 -2.75,6.144053 -1.5125,0.761937 -4.002804,1.685908 -5.534009,2.053268 -4.319673,1.036357 -5.341898,4.465549 -2.810368,9.427757 2.769787,5.429232 2.644287,7.283966 -0.710342,10.497904 C 64.865545,71.502998 61.596507,71.713009 57.5,69 55.85,67.907248 53.9375,67.010213 53.25,67.006589 51.195051,66.995757 48,70.83277 48,73.311439 c 0,5.761446 -9.415021,9.202412 -13.333136,4.872944 z M 42.952231,72.75 c 0.500145,-1.2375 1.151474,-3.397467 1.447398,-4.799927 0.350926,-1.663123 1.777899,-3.141172 4.103135,-4.25 4.63531,-2.210426 5.821686,-2.148364 10.512426,0.549927 3.755768,2.16046 3.982528,2.178897 5.698118,0.463308 1.715589,-1.71559 1.697152,-1.94235 -0.463308,-5.698118 -2.742522,-4.767632 -2.800334,-6.600408 -0.335693,-10.642303 1.295104,-2.123909 3.298957,-3.567546 6.246262,-4.5 C 73.756525,42.735217 74.5,42.071675 74.5,40 c 0,-2.137171 -0.653092,-2.655885 -4.5,-3.574095 -3.637274,-0.868172 -4.826296,-1.730899 -6.201968,-4.5 C 61.520507,27.341458 61.592235,25.6051 64.25,20.98481 66.368099,17.302682 66.400296,16.973623 64.799215,15.371622 63.197823,13.769309 62.83857,13.807715 58.651738,16.028825 54.493151,18.23495 53.932041,18.297691 49.991454,16.99718 45.828322,15.623222 45.262897,14.899918 43.348992,8.5 c -0.67873,-2.2696079 -1.491805,-3 -3.339612,-3 -2.059734,0 -2.653221,0.7462331 -3.787522,4.76232 -1.124539,3.981527 -1.928821,5.006228 -4.905586,6.25 -4.790566,2.001626 -6.962604,1.875702 -10.447396,-0.605688 -5.493088,-3.911424 -8.463728,-0.08902 -4.882653,6.282644 2.065654,3.675335 2.149444,4.36962 0.961688,7.968554 C 15.449878,34.696915 14.925196,35.143701 9.5,36.5 c -3.3333333,0.833333 -4,1.416667 -4,3.5 0,2.071675 0.7434746,2.735217 4.3394307,3.872887 2.9473053,0.932454 4.9511583,2.376091 6.2462623,4.5 2.41666,3.963209 2.401552,5.779619 -0.08196,9.852943 -1.097944,1.800794 -1.997944,4.031346 -2,4.956782 -0.0061,2.727016 3.655099,3.196506 6.901319,0.884994 3.524887,-2.509942 5.920754,-2.59518 10.574013,-0.376196 2.773219,1.322456 3.784327,2.576728 4.635258,5.75 0.598583,2.232225 1.294292,4.39609 1.54602,4.80859 0.986604,1.616725 4.426285,0.641737 5.291883,-1.5 z M 34.5,53.588356 C 25.04433,49.385751 22.458424,38.103225 29.192908,30.433071 c 5.861694,-6.676101 15.776394,-6.648875 21.666421,0.05949 5.367747,6.113526 5.105824,14.304817 -0.632444,19.77887 -4.860841,4.637026 -10.215667,5.7664 -15.726885,3.31692 z M 46.313534,47.585231 C 50.77819,43.447527 51.077978,37.077978 47,33 41.679653,27.679653 32.235833,30.227868 30.417028,37.474564 c -2.344126,9.339742 8.9662,16.533457 15.896506,10.110667 z"
       id="path246"
       inkscape:connector-curvature="0" />
    <path
       style="fill:#fea651"
       d="M 36.353827,79.04509 C 34.990891,78.471112 33.592866,76.290312 32.523055,73.069412 30.398993,66.674461 27.821817,65.73563 21.31364,68.985971 16.126958,71.576326 13.304677,70.920823 10.371749,66.444608 8.9794229,64.31965 8.8518761,63.27612 9.7244944,61.149071 13.608581,51.681423 13.518513,52.230431 11.54534,50.0501 10.524916,48.922545 9.0402774,48 8.2461416,48 7.4520057,48 5.2717501,47.273726 3.4011291,46.386059 0.31575778,44.921954 0,44.375597 0,40.501068 0,35.767585 2.244706,33.501059 8.0905295,32.331894 12.920495,31.365901 13.846525,28.07745 11,22 8.23401,16.094496 9.0278459,13.071201 14.022668,10.488278 16.952096,8.9734118 17.334087,8.9995647 20.623183,10.940178 22.543308,12.07308 25.018182,13 26.122902,13 28.968347,13 32,11.186843 32,9.4850527 32,8.6905338 32.723861,6.2313665 33.60858,4.0202364 35.163769,0.13343502 35.371526,0 39.868033,0 c 5.217163,0 6.247014,0.99981714 8.093619,7.8575861 1.451787,5.3915269 4.454761,6.2878059 10.668943,3.1842929 4.157195,-2.0762034 4.606637,-2.1164587 6.894326,-0.617507 1.345973,0.881916 3.168791,2.704734 4.050707,4.050707 1.500689,2.290341 1.457571,2.739384 -0.672591,7.004621 -2.951817,5.91044 -1.961794,9.48925 2.979246,10.769602 C 78.135923,33.869783 80,35.764642 80,40.501068 80,44.375597 79.684242,44.921954 76.598871,46.386059 74.72825,47.273726 72.547994,48 71.753858,48 69.873433,48 67,51.202303 67,53.297947 c 0,0.902256 0.972602,3.506444 2.161338,5.787084 1.988858,3.815707 2.039423,4.347547 0.633627,6.664421 -0.840241,1.38479 -2.728285,3.245169 -4.195652,4.134175 C 63.082973,71.408153 62.70898,71.372149 59.017569,69.25 56.864976,68.0125 54.250162,67 53.20687,67 c -2.500781,0 -4.823154,2.741333 -5.659855,6.680902 -0.371565,1.749496 -1.252036,3.659324 -1.956602,4.244061 -1.883989,1.563573 -6.775138,2.156726 -9.236586,1.120127 z m 5.954248,-4.496023 c 0.798013,-0.798012 1.750808,-3.049402 2.117322,-5.003088 0.539848,-2.877639 1.458828,-3.956429 4.839548,-5.681144 l 4.173159,-2.128987 4.190174,2.222882 c 7.518766,3.988696 10.324084,1.197619 6.34161,-6.309418 -2.194034,-4.135796 -2.19676,-4.200329 -0.340805,-8.068939 1.554874,-3.241027 2.655166,-4.126027 6.513524,-5.239031 7.620101,-2.198138 7.341274,-5.945757 -0.63573,-8.54462 -3.120538,-1.016654 -4.403462,-2.172398 -5.870917,-5.288916 -1.865276,-3.96139 -1.863049,-4.015774 0.333928,-8.157118 1.216448,-2.293026 2.053764,-4.997487 1.860702,-6.009913 -0.51072,-2.678242 -4.357433,-2.813881 -7.917113,-0.279165 -2.829339,2.014667 -3.421141,2.090965 -7.016041,0.904541 C 46.14236,15.396834 45.512751,14.686391 44.059229,9.25 43.109067,5.6962467 42.516157,5 40.440017,5 c -1.783369,0 -2.783404,0.7747792 -3.549523,2.75 -2.362156,6.090153 -3.556183,7.568559 -7.310134,9.051176 -3.712714,1.46633 -4.119115,1.433252 -7.698118,-0.62656 -4.554846,-2.621437 -6.46893,-2.735581 -7.741483,-0.461656 -0.695766,1.243267 -0.294748,3.02305 1.462503,6.490818 2.380267,4.697231 2.391387,4.840798 0.658931,8.507569 -1.381481,2.923928 -2.732652,4.066468 -6.254134,5.288447 -6.914681,2.399443 -6.5390948,7.247154 0.666216,8.598878 2.825595,0.530085 3.856394,1.440101 5.52757,4.879886 l 2.054262,4.228289 -2.567032,4.396577 C 13.762013,61.40392 13.368522,62.936281 14.110712,64.25 15.40925,66.548488 18.882657,66.438421 22,64 25.143198,61.541355 26.171032,61.536445 30.916503,63.9574 34.696827,65.885981 36,67.628068 36,70.753047 36,72.434045 38.775285,76 40.083559,76 c 0.425471,0 1.426504,-0.65292 2.224516,-1.450933 z M 32.298549,52.040484 c -8.676638,-5.290456 -8.314766,-19.878017 0.607569,-24.491935 3.834536,-1.982916 10.353228,-1.982916 14.187764,0 8.922335,4.613918 9.284207,19.201479 0.607569,24.491935 -4.193703,2.557051 -11.209199,2.557051 -15.402902,0 z M 47.076923,47.076923 C 53.518449,40.635397 49.110987,30 40,30 c -5.84748,0 -10,4.15252 -10,10 0,3.25776 0.630579,4.784425 2.923077,7.076923 C 35.215575,49.369421 36.74224,50 40,50 c 3.25776,0 4.784425,-0.630579 7.076923,-2.923077 z"
       id="path244"
       inkscape:connector-curvature="0" />
    <path
       style="fill:#fe9937"
       d="M 34.64202,76.75 C 33.869773,75.5125 32.952255,73.268192 32.60309,71.76265 32.253926,70.257107 30.817163,68.271081 29.410283,67.349258 26.983482,65.759157 26.623995,65.784146 22.399409,67.836608 16.76609,70.573486 14.850079,70.557017 12.32308,67.75 8.9019754,63.9498 8.8441541,63.24106 11.523811,57.953012 13.905588,53.252801 13.995612,52.642248 12.617077,50.538339 11.790849,49.277354 9.8515037,47.940199 8.3074218,47.566882 1.2841908,45.868858 0,44.763041 0,40.413359 0,36.785512 0.37315779,36.130596 3.25,34.709395 5.0375,33.826344 7.6603522,32.866272 9.0785605,32.575901 10.555466,32.273512 12.156187,30.952622 12.825248,29.484195 13.819034,27.30307 13.615401,26.174542 11.460842,21.922725 8.8442824,16.759194 8.9080882,16.04341 12.32308,12.25 c 2.537246,-2.8183991 4.859896,-2.8371627 9.76755,-0.07891 3.23646,1.818993 4.274533,1.983558 6.400882,1.014728 1.39587,-0.636001 3.024915,-2.400492 3.620101,-3.9210928 3.401182,-8.68944603 4.021358,-9.37977241 8.14225,-9.06325467 4.129475,0.31717697 6.017183,2.42384927 7.200642,8.03587657 0.317487,1.5055426 1.717503,3.4844729 3.111147,4.3976239 2.40429,1.575351 2.791288,1.539719 7.565949,-0.696613 4.623424,-2.1654957 5.247647,-2.235875 7.687022,-0.866689 4.255269,2.38842 5.076766,6.31864 2.321418,11.106162 -2.009705,3.491937 -2.150645,4.382352 -1.096495,6.927295 0.773789,1.868092 2.154875,3.114592 3.833043,3.459515 1.442876,0.296562 4.085911,1.2617 5.873411,2.144751 2.798252,1.382376 3.25,2.123668 3.25,5.333066 0,4.158073 -2.110056,6.16389 -7.798552,7.413294 -1.821444,0.400056 -3.990844,1.819383 -4.898724,3.204982 -1.530161,2.335321 -1.497611,2.758424 0.533884,6.939854 2.748464,5.657167 2.720839,7.527087 -0.151059,10.225095 C 64.810672,70.526493 61.402935,70.584812 57.5,68 55.85,66.907248 53.917045,66.010213 53.204545,66.006589 51.046378,65.995612 47,70.751819 47,73.299558 47,78.761047 37.544483,81.4011 34.64202,76.75 Z m 8.801276,-2.972506 C 44.299483,72.555115 45,70.523501 45,69.262795 45,67.749874 46.104894,66.296936 48.25,64.98904 52.41864,62.447371 54.217642,62.490959 59.020489,65.25 L 62.937214,67.5 65.218607,65.218607 67.5,62.937214 65.25,59.020489 C 62.490959,54.217642 62.447371,52.41864 64.98904,48.25 66.296936,46.104894 67.749874,45 69.262795,45 72.336463,45 76,42.316863 76,40.065741 76,37.608918 74.098574,36.196996 69.504586,35.242507 66.157919,34.547172 65.467272,33.90045 64.117252,30.197805 62.626231,26.108444 62.65943,25.784616 65.011035,21.4798 l 2.442324,-4.470886 -2.172279,-2.172278 -2.172278,-2.172278 -4.451879,2.361716 c -4.137307,2.194836 -4.743391,2.265508 -8.577429,1.000162 -3.125227,-1.031419 -4.2517,-1.987695 -4.645822,-3.943895 -1.987043,-9.8625627 -7.984792,-10.8934468 -10.28276,-1.767386 -0.884255,3.511693 -1.658049,4.466651 -4.432099,5.469761 -4.587104,1.658718 -6.052167,1.541164 -10.027983,-0.804625 -6.334217,-3.737279 -9.397534,0.32663 -5.617401,7.452251 2.147723,4.048497 2.183648,4.459425 0.712363,8.148212 -1.300018,3.259389 -2.15947,4.011446 -5.339298,4.672117 C 5.8996385,36.197367 4,37.615672 4,40.065741 4,42.316863 7.6635374,45 10.737205,45 c 1.512921,0 2.965859,1.104894 4.273755,3.25 2.493067,4.088926 2.491773,5.877104 -0.0072,9.97583 -2.64208,4.333408 -2.523756,6.580112 0.417114,7.920061 1.998159,0.910423 2.941788,0.732075 5.40437,-1.021438 3.682041,-2.621844 6.742541,-2.685442 10.779123,-0.223992 2.063389,1.258226 3.322838,2.985454 3.755938,5.150955 1.224501,6.122504 5.140191,7.927545 8.083013,3.726078 z M 34.071085,52.302363 c -12.334658,-6.483546 -9.241641,-24.243657 4.51549,-25.927962 7.309197,-0.894876 14.110482,4.627988 15.039024,12.212174 1.277196,10.431922 -10.322804,18.568311 -19.554514,13.715788 z m 10.961648,-2.81929 C 48.192884,47.848895 51,43.387877 51,40 51,34.699857 45.300143,29 40,29 c -5.300143,0 -11,5.699857 -11,11 0,3.287054 2.759676,7.805258 5.762571,9.434612 3.539142,1.920317 6.622258,1.934865 10.270162,0.04846 z"
       id="path242"
       inkscape:connector-curvature="0" />
    <path
       style="fill:#fe9228"
       d="M 35.610711,77.467854 C 34.768031,76.625173 33.783742,74.364166 33.423403,72.443392 32.744852,68.826407 29.843119,66 26.808287,66 25.847602,66 23.220299,66.959733 20.969835,68.13274 16.181961,70.62832 12.749553,69.739196 10.819618,65.503449 9.8585742,63.394188 10.053317,62.15625 12,58 15.190816,51.187475 14.110788,48.966391 6.3454289,46.371334 0.79862688,44.517684 0.48459734,44.236007 0.19850281,40.857696 -0.13921231,36.86983 1.9711939,34.842026 8.1164972,33.249618 c 2.0117268,-0.52129 3.9685538,-1.928591 4.8396468,-3.480552 1.334445,-2.377481 1.254231,-3.049824 -0.916905,-7.685289 -2.0572914,-4.392403 -2.2060758,-5.403523 -1.099398,-7.471369 0.703939,-1.315321 2.407185,-2.905124 3.784991,-3.532894 2.073813,-0.944893 3.097725,-0.791745 5.947295,0.889542 C 22.565333,13.086075 25.11347,14 26.334654,14 29.121022,14 33,11.352164 33,9.450156 33,8.6601162 33.781155,6.210633 34.7359,4.00686 36.30244,0.3909214 36.82422,0 40.084026,0 c 3.793729,0 3.926582,0.17825702 7.991241,10.722412 1.305675,3.387061 5.364332,3.911976 10.482679,1.35575 4.916348,-2.4553431 7.202886,-1.899005 10.049243,2.445085 1.500415,2.289923 1.467198,2.721458 -0.5,6.49561 C 66.948235,23.242359 66,25.847602 66,26.808287 c 0,2.88744 2.738278,5.889369 5.959848,6.533683 1.667379,0.333475 4.181696,1.359893 5.587372,2.280927 2.072759,1.358123 2.498794,2.340762 2.254277,5.199423 -0.284866,3.330378 -0.6319,3.64151 -6.291147,5.640292 -7.671125,2.709356 -8.947237,5.370139 -5.696869,11.878371 2.767987,5.542356 2.75431,5.740857 -0.6182,8.971926 C 63.85013,70.517767 62.466757,70.627079 58.5,68 56.85,66.907248 54.4875,66.010213 53.25,66.006589 50.262714,65.997841 47,69.387624 47,72.5 c 0,5.29609 -7.701683,8.65546 -11.389289,4.967854 z m 7.033065,-1.930898 c 1.252223,-0.877091 2.346745,-3.076217 2.73287,-5.490911 0.552765,-3.456799 1.174284,-4.253617 4.383718,-5.620146 3.537586,-1.50625 3.955753,-1.479577 7.739636,0.493688 4.562077,2.379087 6.58658,2.593833 8.3,0.880413 1.71342,-1.71342 1.498674,-3.737923 -0.880413,-8.3 -1.954036,-3.747011 -1.988393,-4.229025 -0.543214,-7.621103 1.294332,-3.038015 2.268763,-3.803914 6.051433,-4.756401 8.167855,-2.05669 8.368174,-8.256228 0.318069,-9.843724 C 67.11056,34.561881 66.230961,33.871908 64.629083,30.480653 62.779062,26.564067 62.781885,26.47504 64.88186,22.509914 67.296867,17.949951 67.521036,15.921036 65.8,14.2 64.004823,12.404823 61.168118,12.744101 57.775678,15.159732 54.90632,17.202894 54.520171,17.238505 50.621307,15.819507 47.544967,14.699868 46.27863,13.58177 45.626927,11.409775 43.607069,4.6780007 43.109624,4 40.190418,4 c -2.935027,0 -3.924036,1.255105 -5.806855,7.369204 -0.625154,2.030069 -2.0181,3.319394 -4.762816,4.408507 -3.70197,1.468957 -4.079608,1.429854 -8.263398,-0.855638 -3.41505,-1.865549 -4.768015,-2.154318 -6.120748,-1.306379 -2.569527,1.610667 -2.646607,4.88249 -0.216873,9.205617 2.126056,3.782808 2.130585,3.892078 0.318498,7.684409 C 13.786821,33.752496 12.797859,34.520273 9,35.426377 4.7283091,36.445529 4.5,36.677574 4.5,40 c 0,3.307925 0.2661478,3.584216 4.8497455,5.034585 3.9518175,1.250457 5.1184795,2.173715 6.3011895,4.986554 1.333214,3.170782 1.28436,3.749257 -0.599745,7.10157 C 12.724583,61.262348 12.45103,64.05103 14.2,65.8 c 1.789145,1.789145 4.628896,1.458025 7.98388,-0.930934 2.736565,-1.948606 3.332566,-2.018742 6.965676,-0.819708 C 33.288627,65.415375 35,67.429347 35,70.934259 35,72.936087 38.200816,77 39.777494,77 c 0.427621,0 1.717448,-0.65837 2.866282,-1.463044 z M 32.762571,51.434612 c -7.84085,-4.2544 -7.672435,-18.103069 0.277262,-22.799071 3.471804,-2.050844 10.146958,-2.107428 13.9929,-0.118614 7.990198,4.131892 7.990198,18.834254 0,22.966146 -3.700071,1.913381 -10.698291,1.889615 -14.270162,-0.04846 z M 45.527942,49.805315 C 48.821401,48.304715 51,44.181801 51,39.44966 51,34.009643 45.72652,29 40,29 c -5.751637,0 -11,5.007753 -11,10.495708 0,4.273825 2.423312,8.905552 5.4202,10.359743 2.8814,1.398152 7.979601,1.37514 11.107742,-0.05014 z"
       id="path240"
       inkscape:connector-curvature="0" />
    <path
       style="fill:#fe8917"
       d="m 35.153496,76.25 c -0.50428,-0.9625 -1.236836,-3.239677 -1.627904,-5.060394 -0.514441,-2.395113 -1.606911,-3.737608 -3.951257,-4.855549 -3.022892,-1.441517 -3.51705,-1.403929 -7.367442,0.560394 -5.362739,2.735865 -7.342143,2.654935 -10.229234,-0.418232 L 9.6066904,63.952439 12.374197,58.309601 C 15.136019,52.678355 15.137745,52.66146 13.214594,50.085607 12.154683,48.665972 9.5352992,46.940775 7.3937414,46.251837 5.2521836,45.562899 2.7125,44.721913 1.75,44.38298 0.58317895,43.972097 0,42.715027 0,40.610773 c 0,-2.566159 0.6382106,-3.499664 3.4149675,-4.995047 1.8782322,-1.011494 4.0157322,-1.599352 4.75,-1.306351 0.9677858,0.386184 0.8962694,0.554447 -0.2599799,0.611678 -2.6462668,0.13098 -5.211286,3.722421 -4.5474855,6.367213 C 3.9721825,43.737348 7.6524994,46 11.021373,46 12.971218,46 16,50.517763 16,53.42617 c 0,0.83902 -0.898318,2.998867 -1.996262,4.79966 -2.655354,4.355181 -2.521514,6.388804 0.553055,8.403339 2.427488,1.590551 2.750454,1.566431 6.386154,-0.476947 4.513981,-2.536999 6.186663,-2.653679 9.973022,-0.695676 1.878869,0.971601 3.031586,2.531228 3.462217,4.684383 C 35.197003,74.235014 37.677909,77 40.532543,77 c 2.874231,0 4.420751,-1.937332 5.154127,-6.456597 0.429922,-2.649301 1.352463,-4.029399 3.401949,-5.08923 3.78962,-1.959688 5.557504,-1.836 9.616885,0.672836 2.772937,1.713769 3.89614,1.919894 5.781299,1.060958 3.496323,-1.593031 4.013144,-4.642967 1.481026,-8.740022 -1.619936,-2.62111 -2.015238,-4.381698 -1.545734,-6.884366 0.764585,-4.07559 1.937528,-5.097214 6.873923,-5.987135 6.634589,-1.196066 7.575999,-7.241268 1.605826,-10.311702 -1.68837,-0.868322 -1.906075,-1.239637 -0.732884,-1.25 0.917929,-0.0081 3.052584,0.772758 4.743678,1.735258 2.403138,1.367766 3.076098,2.434389 3.081039,4.883369 0.0042,2.086629 -0.578285,3.339232 -1.743677,3.749611 -0.9625,0.338933 -3.502184,1.179919 -5.643741,1.868857 -2.141558,0.688938 -4.810198,2.480108 -5.930311,3.980378 l -2.036568,2.727762 2.345964,5.008732 c 1.943314,4.149057 2.151734,5.435021 1.214319,7.492424 -1.653529,3.6291 -5.532153,4.226748 -10.695507,1.648045 -5.747935,-2.870658 -9.016191,-1.554136 -10.688446,4.305532 -0.641232,2.246909 -1.592189,4.64779 -2.113238,5.33529 -1.477403,1.949365 -8.457169,1.583893 -9.548976,-0.5 z M 34,51.302363 C 24.460894,46.390097 25.280034,31.950465 35.314459,28.131335 45.832147,24.128274 55.871726,34.167853 51.868665,44.685541 49.1923,51.717453 40.823779,54.816342 34,51.302363 Z M 48.099128,48.40503 c 3.709055,-3.553501 4.683862,-8.539871 2.545948,-13.023124 -1.795353,-3.764893 -6.902251,-7.37241 -10.444736,-7.378168 -5.708313,-0.0093 -12.188443,6.418665 -12.196602,12.098379 -0.0047,3.243133 3.746899,8.94152 7.026277,10.672486 3.686253,1.945729 9.703696,0.8547 13.069113,-2.369573 z M 10.77104,33.330706 c 0.699072,-0.28127 1.94612,-1.816861 2.771218,-3.412424 1.401327,-2.709868 1.328185,-3.240438 -1.110016,-8.051997 C 9.8253237,16.72178 9.8244815,16.71204 11.76135,14.107657 14.328996,10.655106 17.130954,10.3836 21.993,13.116222 c 3.829964,2.15256 4.161231,2.180655 7.415311,0.628892 2.509527,-1.19671 3.593994,-2.495814 4.119407,-4.9347203 C 34.847125,2.685866 36.792981,0 39.91067,0 c 3.067031,0 6.146053,3.4334564 6.02165,6.7148167 -0.05495,1.4493256 -0.273658,1.3577874 -1.162514,-0.4865529 -2.61705,-5.43027797 -8.851191,-3.2848915 -10.47422,3.6045463 -0.677864,2.8773999 -1.671177,4.0490659 -4.612194,5.4403339 -3.722041,1.760736 -3.779643,1.754757 -8.231933,-0.854459 -4.255394,-2.493827 -4.610124,-2.544743 -6.967562,-1.000091 -3.045511,1.995495 -3.135513,4.362679 -0.345652,9.091141 1.893539,3.20931 2.003388,4.07417 0.959859,7.557161 -0.92351,3.0824 -1.656364,3.916028 -3.388246,3.854157 -1.215422,-0.04342 -1.63789,-0.309077 -0.938818,-0.590347 z M 64.856767,29.916269 C 63.743508,26.20054 63.850592,25.434677 66.04509,21.41746 l 2.411837,-4.415078 -2.729654,-2.729655 -2.729655,-2.729654 -4.347407,2.374871 C 52.543919,17.253646 45.912065,15.519387 46.06768,10.627555 L 46.135361,8.5 l 1.053373,2.178822 c 0.579355,1.198352 2.32247,2.704499 3.873589,3.346993 2.4163,1.000864 3.402908,0.84068 6.888687,-1.118438 7.966764,-4.4775709 13.619184,1.174849 9.141613,9.141613 -2.001341,3.560905 -2.133393,4.438369 -1.05848,7.033438 0.675471,1.630732 1.956618,3.390619 2.846993,3.910861 1.36789,0.799251 1.276268,0.950608 -0.590994,0.976302 -1.729298,0.0238 -2.475928,-0.857649 -3.433375,-4.053322 z"
       id="path238"
       inkscape:connector-curvature="0" />
  </g>
</svg>
