<?xml version="1.0" encoding="UTF-8" standalone="no"?>
<!-- Created with Inkscape (http://www.inkscape.org/) -->

<svg
   xmlns:dc="http://purl.org/dc/elements/1.1/"
   xmlns:cc="http://creativecommons.org/ns#"
   xmlns:rdf="http://www.w3.org/1999/02/22-rdf-syntax-ns#"
   xmlns:svg="http://www.w3.org/2000/svg"
   xmlns="http://www.w3.org/2000/svg"
   xmlns:sodipodi="http://sodipodi.sourceforge.net/DTD/sodipodi-0.dtd"
   xmlns:inkscape="http://www.inkscape.org/namespaces/inkscape"
   version="1.1"
   id="svg258"
   width="33"
   height="40.04113"
   viewBox="0 0 33 40.04113"
   sodipodi:docname="globe-icon.svg"
   inkscape:version="0.92.1 r15371">
  <metadata
     id="metadata264">
    <rdf:RDF>
      <cc:Work
         rdf:about="">
        <dc:format>image/svg+xml</dc:format>
        <dc:type
           rdf:resource="http://purl.org/dc/dcmitype/StillImage" />
        <dc:title></dc:title>
      </cc:Work>
    </rdf:RDF>
  </metadata>
  <defs
     id="defs262" />
  <sodipodi:namedview
     pagecolor="#ffffff"
     bordercolor="#666666"
     borderopacity="1"
     objecttolerance="10"
     gridtolerance="10"
     guidetolerance="10"
     inkscape:pageopacity="0"
     inkscape:pageshadow="2"
     inkscape:window-width="640"
     inkscape:window-height="480"
     id="namedview260"
     showgrid="false"
     inkscape:zoom="2.95"
     inkscape:cx="33"
     inkscape:cy="40"
     inkscape:window-x="0"
     inkscape:window-y="0"
     inkscape:window-maximized="0"
     inkscape:current-layer="svg258" />
  <g
     id="g268"
     transform="matrix(0.49871604,0,0,0.49871604,0.04811145,0.07308117)">
    <path
       style="fill:#fef3e8"
       d="M 16.449154,77.839798 C 15.936739,76.22532 16.318829,75.160246 17.857368,73.914413 19.953425,72.217129 19.937985,72.192346 15.737323,70.511574 9.5211961,68.024373 8.2135986,64.742196 12.024418,61.191878 14.043694,59.310636 14.03907,59.299077 10.203871,56.641282 2.3410095,51.192316 -0.00653774,45.653279 0.01505634,32.600777 0.03324092,21.609139 1.4295625,17.204161 6.5841373,11.877287 11.205414,7.1015373 15.549032,4.7307491 22.808129,3.0220757 28.118664,1.7720622 33.025393,2.3744654 39.869689,5.1167378 41.847726,5.9092688 42.137433,5.8005268 41.622561,4.4587937 40.787645,2.2830375 43.273896,0 46.478231,0 c 6.590943,0 15.485371,8.6271007 18.073637,17.530423 1.879566,6.465482 1.603692,26.105336 -0.459014,32.677797 -1.733285,5.522818 -10.176092,14.17757 -17.305972,17.740412 -3.35848,1.678253 -6.821952,3.072982 -7.696604,3.0994 -0.874653,0.02642 -0.01528,0.818144 1.909722,1.759393 2.605062,1.273773 3.5,2.348202 3.5,4.201969 L 44.5,79.5 30.826187,79.777724 C 17.472001,80.048955 17.135936,80.003656 16.449154,77.839798 Z M 50.5,53 c 2.148243,-2.2 3.680896,-4 3.405896,-4 -0.275,0 -2.257653,1.8 -4.405896,4 -2.148243,2.2 -3.680896,4 -3.405896,4 0.275,0 2.257653,-1.8 4.405896,-4 z M 39.160109,49.113416 C 53.025651,40.32015 50.031914,18.946955 34.178051,13.545001 28.058205,11.45976 25.994043,11.585607 19.546406,14.437058 11.949469,17.796784 8,23.884814 8,32.235619 c 0,12.482467 7.283676,19.646332 20.054219,19.724343 5.547338,0.03389 7.253463,-0.403409 11.10589,-2.846546 z"
       id="path286"
       inkscape:connector-curvature="0" />
    <path
       style="fill:#fee7d1"
       d="M 17.361626,78.5 C 16.321638,75.789833 17.81769,74.154778 22.191601,73.221259 26.464018,72.309402 26.474945,72.296095 23.5,71.627918 13.015178,69.27301 9.4049683,66.72451 11.631828,63.25 c 0.732619,-1.143086 2.118077,-1.650531 3.994885,-1.463188 14.831303,1.480464 18.964952,1.351463 24.611945,-0.768077 3.621494,-1.35929 7.378086,-3.793374 10.182395,-6.597682 C 62.889963,41.952143 61.608068,19.598686 47.820471,9.0725758 42.716657,5.17608 41.762676,3.7820319 42.638374,1.5 44.023343,-2.1091731 51.282414,0.48249442 57.112384,6.6675788 64.064196,14.04284 66,19.802613 66,33.111711 66,40.699681 65.51326,44.225904 63.853538,48.661908 60.20274,58.41954 50.70432,66.681298 39.25,70.062148 34.309762,71.520305 33.68018,73 38,73 c 3.905892,0 7.652599,3.50874 5.944468,5.566912 C 42.167724,80.707758 18.185658,80.647392 17.361626,78.5 Z M 21.5,61.115859 C 13.12479,58.916642 4.5333104,51.802148 1.589074,44.627876 -0.71582268,39.011495 -0.54988407,25.42517 1.891911,19.832905 6.829862,8.5238777 21.246943,1.2410008 33.222982,4.0058225 55.729701,9.2017864 64.664357,34.603071 49.889337,51.388379 43.171562,59.020175 30.306507,63.428329 21.5,61.115859 Z M 38.092716,50.672361 C 43.729269,47.695502 48.115537,40.852985 48.772929,34.011376 49.430715,27.165659 45.639616,19.362809 39.73738,15.414388 33.671434,11.356449 24.351658,10.857177 18,14.249889 3.0921937,22.212834 3.3775713,43.382866 18.5,51.341153 c 4.684869,2.465446 14.278216,2.13798 19.592716,-0.668792 z"
       id="path284"
       inkscape:connector-curvature="0" />
    <path
       style="fill:#fed6af"
       d="m 17.699509,78.659316 c -0.863269,-2.249642 0.90327,-3.909586 4.841973,-4.549804 5.335855,-0.867319 4.484337,-2.332259 -2.242305,-3.857635 -3.189547,-0.723282 -6.684891,-2.199057 -7.767431,-3.2795 -1.820924,-1.817396 -1.846001,-2.086694 -0.335014,-3.597681 1.444697,-1.444697 2.394155,-1.489666 8.224607,-0.389538 C 42.106902,67.07693 59.289172,53.874102 59.444273,33 59.525257,22.1008 55.189857,13.175575 47.087022,7.5603066 44.255633,5.5981521 43,4.0017202 43,2.3639991 c 0,-6.6478547 13.711755,1.5400176 18.801669,11.2272759 6.301109,11.99244 5.533327,31.107673 -1.654946,41.202672 -5.020854,7.051139 -12.432158,12.210746 -21.338984,14.855789 -5.676359,1.685698 -5.945808,3.697829 -0.556551,4.156092 4.051077,0.344474 6.087682,2.147517 5.159076,4.567424 C 42.880637,79.753439 40.92387,80 30.5,80 21.150459,80 18.091014,79.679563 17.699509,78.659316 Z M 17.328895,58.907438 C 10.957676,56.45763 4.5149775,50.367205 1.9399648,44.359944 -0.68883164,38.22721 -0.701953,26.803401 1.912793,20.703446 5.7554275,11.738943 14.618978,5.4272429 24.869849,4.3558148 44.862694,2.2661488 61.028544,21.342284 55.468321,40.46283 54.076941,45.247522 52.624498,47.534337 48.11717,52.036934 39.281182,60.863649 28.609674,63.24503 17.328895,58.907438 Z M 39.026161,50.86514 c 2.23421,-1.255696 5.39232,-4.291197 7.01802,-6.745557 C 48.54109,40.349938 49,38.669575 49,33.296437 49,29.798066 48.393792,25.487716 47.652871,23.717881 45.886,19.497367 39.22557,13.559579 34.514127,12.004662 25.499444,9.0295485 14.193136,13.407949 9.2801917,21.776578 c -5.1566748,8.783795 -2.8961582,21.76531 4.7776333,27.43661 7.041781,5.204213 17.425569,5.891225 24.968336,1.651952 z"
       id="path282"
       inkscape:connector-curvature="0" />
    <path
       style="fill:#fec792"
       d="M 18.180449,77.75 C 18.436153,75.949554 19.299207,75.400099 22.5,75 c 3.157342,-0.394668 4,-0.918726 4,-2.487644 0,-1.590321 -0.899536,-2.120874 -4.5,-2.654135 -6.750844,-0.999862 -10,-2.535569 -10,-4.726481 0,-2.506972 2.339059,-3.333528 5.756552,-2.034199 3.803964,1.446265 16.339913,1.354416 20.93242,-0.153368 C 51.713832,58.66793 59.971171,47.22617 59.990231,33.428139 60.004951,22.772015 57.854013,17.71804 49.882254,9.6778217 43.200653,2.9388408 42.050756,0 46.095558,0 c 3.787782,0 13.702569,9.8352454 16.334021,16.202981 0.976653,2.36336 2.179538,5.078413 2.673077,6.03345 1.649591,3.192088 1.037847,17.907403 -0.973169,23.409308 -4.14463,11.339224 -13.897674,20.547642 -24.623427,23.248418 -4.219211,1.06241 -6.62981,3.315426 -5.140642,4.804594 0.336872,0.336873 2.304965,0.886024 4.373539,1.220336 2.901738,0.468964 3.834052,1.118833 4.080594,2.844377 C 43.13592,79.977731 43.013258,80 30.5,80 17.964768,80 17.863524,79.981509 18.180449,77.75 Z M 15.444028,57.57038 C 5.4225277,52.504303 0,43.901737 0,33.069209 0,22.872527 3.6066432,15.47068 11.285531,9.9081219 19.073199,4.2667645 30.41239,3.2109239 39.335882,7.2962337 49.361174,11.885964 54.978914,20.031796 55.77595,31.134653 c 0.400852,5.58394 0.08245,7.494895 -2.010539,12.06658 C 50.965814,49.316358 45.654692,54.96053 40.179449,57.639146 37.854669,58.776481 33.554626,59.565695 28.5,59.782748 21.504036,60.083164 19.865453,59.805502 15.444028,57.57038 Z M 38,51.948985 C 51.725964,45.023965 54.167967,26.378754 42.671074,16.284348 28.315261,3.679778 6,13.586967 6,32.565012 c 0,16.4296 17.202144,26.849784 32,19.383973 z"
       id="path280"
       inkscape:connector-curvature="0" />
    <path
       style="fill:#febe81"
       d="M 18.472927,78.956195 C 17.359783,77.155089 20.106639,75 23.515456,75 c 2.067167,0 3.495101,-0.585127 3.8808,-1.590242 0.927528,-2.417101 0.04696,-3.099696 -4.687055,-3.633288 C 17.260158,69.162284 12.5,66.928917 12.5,64.986525 c 0,-1.083399 0.949154,-1.413659 3.5,-1.217832 14.548014,1.116845 20.517837,0.67971 26.086482,-1.910159 C 49.207516,58.546679 54.57369,53.16895 57.824646,46.086482 59.910858,41.541501 60.38346,39.008541 60.359628,32.5 60.322229,22.286768 57.771125,16.592876 49.797289,8.9255718 46.60878,5.8596363 44,2.5971363 44,1.6755718 c 0,-5.8022874 13.995505,5.522481 17.901247,14.4851852 1.279697,2.936584 2.725428,6.120637 3.212737,7.075674 0.487309,0.955037 0.879467,5.005037 0.871463,9 -0.02071,10.334904 -3.091195,18.554217 -9.638653,25.80147 C 51.89158,62.96929 47.449801,65.724465 39.644835,68.3979 34.870114,70.033385 33.5,70.94833 33.5,72.501345 c 0,1.580033 0.769502,2.062711 3.673888,2.304483 3.832111,0.318998 6.461287,2.35742 5.353185,4.150367 C 42.140091,79.582345 37.327729,80 30.5,80 23.672271,80 18.859909,79.582345 18.472927,78.956195 Z M 17,57.873232 C -1.0424852,49.912514 -5.6111493,27.828814 7.8542794,13.665266 18.438943,2.5318367 36.004634,2.1388497 46.915151,12.791379 58.537171,24.138588 58.847578,40.282857 47.658857,51.471578 39.316122,59.814313 27.154631,62.353666 17,57.873232 Z M 39.569549,51.51211 C 46.187047,47.633997 49.370369,42.220906 49.80305,34.110515 50.041029,29.649718 49.646264,26.299724 48.589121,23.809077 45.017049,15.393208 34.500118,9.2326666 25.447078,10.253075 12.483329,11.714278 2.6582102,25.58954 5.9447308,37.794746 9.8958204,52.467972 26.429244,59.212841 39.569549,51.51211 Z"
       id="path278"
       inkscape:connector-curvature="0" />
    <path
       style="fill:#feb46d"
       d="M 18.625,79.202254 C 17.618429,77.573588 19.907071,75.700269 23.645843,75.092548 26.601257,74.61216 27.5,74.006846 27.5,72.496732 c 0,-1.193799 -0.787616,-2.09797 -2,-2.295969 -1.1,-0.179646 -4.3625,-0.985879 -7.25,-1.79163 C 14.089846,67.24825 13,66.516503 13,64.884167 c 0,-1.888254 0.35426,-1.990119 4.25,-1.222065 8.034519,1.584025 19.842201,0.949695 24.872405,-1.33619 C 48.724271,59.325813 54.507278,53.703138 57.720218,47.160544 60.13823,42.236681 60.49875,40.328711 60.490392,32.5 60.481743,24.397109 60.183694,22.961822 57.500301,18.100878 55.861035,15.131361 52.158537,10.631361 49.272528,8.1008781 43.867567,3.3617531 42.474931,0 45.916667,0 c 1.054166,0 2.066666,0.3375 2.25,0.75 C 48.35,1.1625 50.175165,2.7509926 52.222589,4.2799835 60.421461,10.402801 65.998688,22.252015 65.999496,33.55 c 2.77e-4,3.8775 -0.37125,7.4775 -0.825616,8 -0.454366,0.5225 -1.394862,2.766962 -2.089991,4.987692 -3.052588,9.752103 -11.739833,17.709393 -23.471868,21.499622 -5.77563,1.865912 -6.680547,2.474672 -6.417845,4.317439 C 33.433789,74.035552 34.366005,74.608251 37.5,75 c 3.200793,0.400099 4.063847,0.949554 4.319551,2.75 C 42.135058,79.971526 41.993433,80 30.628568,80 24.297774,80 18.896169,79.641014 18.625,79.202254 Z M 20.139461,58.852576 C 8.9207478,55.624218 0,44.080687 0,32.791926 0,26.700745 3.3927175,18.425768 7.8453673,13.656753 15.650748,5.2967922 29.465375,3.0277636 40.266525,8.331634 53.725235,14.940491 59.17089,30.954719 52.556671,44.473696 46.827548,56.183601 32.676629,62.460341 20.139461,58.852576 Z M 35,54.014978 C 43.833361,51.557114 50.339928,42.431344 50.339928,32.5 50.339928,11.404018 24.958315,2.1280532 10.63012,17.987652 2.8699305,26.577255 3.168258,39.076384 11.339121,47.692878 17.523753,54.214815 26.072551,56.499023 35,54.014978 Z"
       id="path276"
       inkscape:connector-curvature="0" />
    <path
       style="fill:#fea651"
       d="m 19.188159,78.261484 c 0.184145,-0.956185 1.22964,-1.873705 2.323325,-2.038935 C 27.256531,75.354607 28,74.931078 28,72.526261 28,70.486707 27.390178,69.991569 24.25,69.481492 18.185337,68.496373 13.5,66.52502 13.5,64.958436 c 0,-1.617116 0.500674,-1.616572 8.75,0.0095 11.304156,2.228236 22.484872,-1.614954 30.632059,-10.529275 6.561964,-7.179834 8.502174,-13.01915 7.909856,-23.805753 C 60.234192,20.476297 57.929474,15.701557 49.89384,8.0551073 46.652228,4.9704936 44,1.8962071 44,1.2233594 44,-1.6171846 47.688235,0.43047932 53.954537,6.75 c 4.740627,4.780887 7.207989,8.208602 8.457968,11.75 0.970647,2.75 2.174915,5.781394 2.676153,6.736431 2.622533,4.996861 -0.806312,21.345198 -6.009439,28.652316 -4.998099,7.019182 -13.574483,12.7433 -21.800001,14.549926 -3.75908,0.825633 -5.543805,2.708251 -4.68617,4.943211 0.586048,1.527216 1.966902,2.096074 6.895468,2.840665 1.093685,0.16523 2.13918,1.08275 2.323325,2.038935 C 42.114389,79.832489 41.024461,80 30.5,80 19.975539,80 18.885611,79.832489 19.188159,78.261484 Z M 18.387642,57.673922 C 11.149515,54.943839 3.4138598,47.285851 2.3022202,41.75 1.9984991,40.2375 1.35625,39 0.875,39 -0.30646654,39 -0.24298449,28.416268 0.95155689,26.236431 1.4749132,25.281394 2.6297605,22.857653 3.5178842,20.850339 5.5395119,16.281111 11.07273,10.679097 15.850339,8.3645517 17.857653,7.3920951 22.56112,6.4101323 26.302488,6.182412 c 11.290074,-0.6871761 19.676128,3.822354 25.485735,13.70474 2.344771,3.988555 2.709434,5.695552 2.694468,12.612848 -0.01352,6.247295 -0.487266,8.876353 -2.162371,12 C 47.348137,53.771868 38.536906,58.989685 28,58.90196 24.425,58.872196 20.099439,58.319579 18.387642,57.673922 Z M 39.5,52.051206 C 48.582916,47.031322 53.226074,35.2751 49.993847,25.481357 48.412662,20.690318 42.753276,14.424941 37.659515,11.826297 c -6.002373,-3.0621816 -16.887149,-2.3265497 -22.432,1.516035 -6.839021,4.739445 -9.6482914,9.7907 -10.0412595,18.054852 -0.2835006,5.962042 0.042058,7.812921 2.0270283,11.524151 3.0298992,5.664898 8.4373062,10.020124 14.5001962,11.67873 6.146948,1.6816 11.526965,0.910629 17.78652,-2.548859 z"
       id="path274"
       inkscape:connector-curvature="0" />
    <path
       style="fill:#fe942d"
       d="m 19,79.2 c 0,-1.743609 2.563527,-3.2 5.632612,-3.2 5.913358,0 5.420546,-6.904509 -0.505057,-7.076078 -3.668849,-0.106227 -9.424618,-2.315112 -9.92219,-3.807828 -0.313785,-0.941353 0.527449,-1.04679 3.439631,-0.431106 7.312545,1.545994 19.472046,0.843507 24.530674,-1.417203 6.559737,-2.931557 13.297443,-9.49523 16.553862,-16.126278 C 61.146247,42.220349 61.495592,40.350815 61.465479,32.5 61.435748,24.748864 61.062939,22.793451 58.778812,18.408225 57.320132,15.607749 53.623166,11.028393 50.563333,8.2318776 45.475934,3.5822818 43.4901,0 46,0 c 0.55,0 1,0.39020118 1,0.86711374 0,0.47691256 1.768376,2.03736946 3.929724,3.46768206 4.716847,3.121462 9.641984,10.0019402 11.776308,16.4516512 0.857889,2.592454 1.949986,5.141053 2.426883,5.663553 1.120413,1.227553 1.12967,10.858394 0.01163,12.1 -0.4705,0.5225 -1.635672,3.407374 -2.589272,6.410832 C 59.053038,55.99147 52.171266,62.610653 39.639793,67.00192 32.93071,69.35291 32.5,69.6847 32.5,72.50192 c 0,2.6958 0.352481,3.031524 3.495985,3.329785 C 39.534414,76.167437 42,77.5188 42,79.122445 42,79.6051 36.825,80 30.5,80 24.175,80 19,79.64 19,79.2 Z M 20.143751,57.853688 C 12.547015,55.667331 4.1737071,47.524603 2.4468032,40.64407 2.0792041,39.179438 1.3782919,37.733797 0.88922056,37.431535 -1.9149265,35.698476 1.5985984,23.624297 7.2075896,15.718547 10.03008,11.740308 18.543271,7.2009772 24.601163,6.4440935 43.131369,4.1288972 58.65656,21.910053 53.52307,39.568639 49.499903,53.407847 34.068313,61.861206 20.143751,57.853688 Z M 35.065352,54.998403 C 39.79912,53.683377 46.557445,47.777427 49.204455,42.642554 53.767099,33.791589 51.33162,22.010397 43.521687,15.153185 33.277125,6.1583402 19.747419,7.0207864 10.31295,17.270064 -5.7842209,34.757467 11.745389,61.476613 35.065352,54.998403 Z"
       id="path272"
       inkscape:connector-curvature="0" />
    <path
       style="fill:#fe8816"
       d="m 20.243678,78.75 c 0.22569,-0.6875 1.95069,-1.387686 3.833334,-1.555969 C 27.442921,76.893165 30,74.814975 30,72.380299 30,70.051347 27.132186,68.275196 22.316181,67.621405 19.667282,67.261807 16.825,66.508188 16,65.946695 14.941736,65.226443 15.677962,65.157593 18.5,65.7129 c 2.2,0.432905 7.398603,0.729838 11.552451,0.659851 C 39.968152,66.205684 46.97591,62.995096 53.855954,55.467231 60.10339,48.63154 62.475031,42.154944 62.460438,31.969669 62.446418,22.183754 59.362046,15.613738 51.020422,7.6013052 45.219571,2.0293773 43.879232,0 46,0 c 0.55,0 1.009608,0.5625 1.021351,1.25 0.01174,0.6875 1.767696,2.4850226 3.902117,3.9944947 4.883099,3.4533493 9.70197,10.6592433 11.681157,17.4674053 0.8396,2.888124 1.947032,5.511009 2.46096,5.828634 1.409175,0.870918 1.060926,6.708556 -0.525073,8.801699 -0.767735,1.013228 -1.691017,3.589127 -2.051739,5.72422 -1.66502,9.855164 -11.939185,20.109028 -23.59273,23.546109 C 32.369601,68.537462 31,69.558662 31,72.5 c 0,2.923189 1.694257,4.257639 5.927003,4.668295 C 38.807439,77.350733 40.530632,78.0625 40.756322,78.75 41.06737,79.697522 38.585517,80 30.5,80 22.414483,80 19.93263,79.697522 20.243678,78.75 Z M 18.085526,56.282895 C 12.372758,54.265121 5.4919759,47.374108 3.9067245,42.083011 3.229996,39.824292 2.0741395,37.476493 1.3381545,36.86568 -0.16070948,35.621734 -0.5130421,29 0.91963332,29 1.4254316,29 2.6104723,26.678117 3.5530569,23.840261 9.5373719,5.8231752 34.094898,1.2938342 47.192635,15.791464 56.872877,26.506335 55.763628,41.876443 44.600983,51.702196 37.463,57.9853 27.686972,59.674165 18.085526,56.282895 Z m 20.53687,-2.109843 C 47.18886,49.759495 52,41.964968 52,32.5 52,22.526059 46.985811,14.879355 37.5,10.387309 27.902704,5.8424687 19.276745,7.665217 10.865458,16.015445 6.1168858,20.729546 5.0334908,22.491271 3.9753451,27.219564 1.2079201,39.585723 8.7061173,52.116881 21.143751,55.911796 c 4.709538,1.436953 12.89532,0.622646 17.478645,-1.738744 z"
       id="path270"
       inkscape:connector-curvature="0" />
  </g>
</svg>
