<?xml version="1.0" encoding="UTF-8" standalone="no"?>
<!-- Created with Inkscape (http://www.inkscape.org/) -->

<svg
   xmlns:dc="http://purl.org/dc/elements/1.1/"
   xmlns:cc="http://creativecommons.org/ns#"
   xmlns:rdf="http://www.w3.org/1999/02/22-rdf-syntax-ns#"
   xmlns:svg="http://www.w3.org/2000/svg"
   xmlns="http://www.w3.org/2000/svg"
   xmlns:sodipodi="http://sodipodi.sourceforge.net/DTD/sodipodi-0.dtd"
   xmlns:inkscape="http://www.inkscape.org/namespaces/inkscape"
   version="1.1"
   id="svg288"
   width="40"
   height="40.003075"
   viewBox="0 0 40 40.003075"
   sodipodi:docname="magic-icon.svg"
   inkscape:version="0.92.1 r15371">
  <metadata
     id="metadata294">
    <rdf:RDF>
      <cc:Work
         rdf:about="">
        <dc:format>image/svg+xml</dc:format>
        <dc:type
           rdf:resource="http://purl.org/dc/dcmitype/StillImage" />
        <dc:title></dc:title>
      </cc:Work>
    </rdf:RDF>
  </metadata>
  <defs
     id="defs292" />
  <sodipodi:namedview
     pagecolor="#ffffff"
     bordercolor="#666666"
     borderopacity="1"
     objecttolerance="10"
     gridtolerance="10"
     guidetolerance="10"
     inkscape:pageopacity="0"
     inkscape:pageshadow="2"
     inkscape:window-width="640"
     inkscape:window-height="480"
     id="namedview290"
     showgrid="false"
     inkscape:zoom="2.95"
     inkscape:cx="40"
     inkscape:cy="40"
     inkscape:window-x="0"
     inkscape:window-y="0"
     inkscape:window-maximized="0"
     inkscape:current-layer="svg288" />
  <g
     id="g298"
     transform="matrix(0.49985825,0,0,0.49985825,0,0.01441589)">
    <path
       style="fill:#fee6ce"
       d="M 0,76.855657 C 0,74.112469 2.424015,71.26691 19,54.551498 29.45,44.013599 38,35.078553 38,34.695841 38,34.313128 37.505508,34 36.901129,34 34.764433,34 29.146551,30.824289 28.554665,29.281859 27.712423,27.087011 30.183759,23.710452 35.345571,20.003518 39.665686,16.901046 39.7723,16.688227 40.449555,9.8151598 40.829992,5.9543257 41.38262,2.1664827 41.677618,1.3977307 42.786955,-1.4931561 51.117329,0.64719496 56.822113,5.288857 57.780271,6.0684566 60.162718,5.8619457 65.476669,4.5386788 76.868907,1.7018115 78.349725,3.1881206 75.506537,14.605741 74.213151,19.799699 73.990153,22.29072 74.736426,23.208351 77.337971,26.407262 80,32.305038 80,34.869901 80,38.450918 76.840905,40 69.538014,40 c -5.278918,0 -5.437045,0.08701 -9.541259,5.25 -2.295358,2.8875 -4.817719,5.614942 -5.605246,6.060983 -2.678137,1.516847 -5.14172,-0.351556 -7.294798,-5.53244 L 44.950776,40.614849 25.168397,60.307424 C 9.278368,76.125319 4.8561453,80 2.6930088,80 0.33997143,80 0,79.603051 0,76.855657 Z M 57.563865,34.5 c 2.476403,-2.703601 3.990548,-3.5 6.654339,-3.5 4.634822,0 5.100251,-0.74403 2.632958,-4.209023 -1.720807,-2.416651 -1.975356,-3.797106 -1.441812,-7.819156 l 0.647936,-4.884376 -4.942915,0.585415 C 57.084433,15.150147 55.626835,14.870472 53.222849,13.158683 49.700989,10.650897 49,11.133024 49,16.063074 c 0,3.031249 -0.675134,4.322517 -3.605014,6.894986 -1.982758,1.740885 -3.445258,3.315208 -3.25,3.498497 0.195258,0.183288 2.071254,1.044591 4.168881,1.914006 2.854107,1.182957 4.238182,2.59092 5.5,5.594925 0.927373,2.207794 1.879181,4.018747 2.115128,4.024341 0.235948,0.0056 1.871639,-1.564829 3.63487,-3.489829 z"
       id="path312"
       inkscape:connector-curvature="0" />
    <path
       style="fill:#fed5ad"
       d="m 0,77.759151 c 0,-1.577792 5.8125959,-8.058901 19.644073,-21.90336 13.293305,-13.30578 19.457695,-20.148205 19.06757,-21.164854 -0.317077,-0.82629 -1.910249,-1.795284 -3.540381,-2.153322 -3.640684,-0.799628 -6.429316,-3.701562 -5.609653,-5.837571 0.335407,-0.874055 3.046257,-3.428711 6.024111,-5.677013 5.408991,-4.083828 5.414377,-4.093406 5.51396,-9.805426 0.209995,-12.04522896 2.415466,-13.5082964 11.552268,-7.6635548 l 5.752689,3.6799507 7.150292,-1.780548 C 76.533445,2.7196098 77.446044,3.7449038 74.356023,15.341376 l -1.643977,6.169644 3.643977,5.696454 c 5.975776,9.341641 4.627156,11.777356 -6.540282,11.812273 L 63.5,39.039494 58.971894,44.769747 c -5.600356,7.087172 -7.656467,7.346627 -10.682639,1.348017 -1.21591,-2.41023 -2.40371,-4.88523 -2.639555,-5.5 C 45.413855,40.002994 36.05467,48.6125 24.851513,59.75 10.517515,73.999991 3.8181139,80 2.2410674,80 0.58637573,80 0,79.413681 0,77.759151 Z M 58,35.5 C 60.842168,32.567627 62.090326,32 65.696167,32 68.063275,32 70,31.575722 70,31.05716 c 0,-0.518562 -0.942647,-2.540507 -2.094771,-4.493213 -1.734656,-2.940022 -1.972896,-4.436512 -1.38583,-8.704994 l 0.708942,-5.154621 -3.364171,0.785219 C 58.655575,14.705271 56.370243,14.399825 53.06483,12.046163 49.158889,9.2648878 48,10.057023 48,15.508126 c 0,3.842089 -0.436895,4.723327 -3.5,7.059672 -1.925,1.468269 -3.5,3.082162 -3.5,3.586428 0,0.504267 1.958301,1.756275 4.351779,2.782239 3.455249,1.481093 4.68967,2.70986 5.991903,5.964463 C 52.24575,37.155418 53.349175,39 53.795736,39 54.242298,39 56.134217,37.425 58,35.5 Z"
       id="path310"
       inkscape:connector-curvature="0" />
    <path
       style="fill:#fec792"
       d="M 0,77.805153 C 0,76.288849 6.1057712,69.479454 19.75,55.779179 30.6125,44.87206 39.652739,35.501525 39.839419,34.955769 40.0261,34.410012 37.8886,33.011704 35.089419,31.848417 28.619044,29.15945 28.551827,27.282008 34.75,22.368108 41.652924,16.895482 42,16.274218 42,9.3906578 c 0,-3.4248956 0.273145,-6.9388872 0.606989,-7.8088703 0.61348,-1.59870253 4.94394,-2.23250889 5.559678,-0.8137147 0.183333,0.42244 2.659915,2.2463022 5.503516,4.0530271 l 5.170183,3.2849542 7.16947,-2.1776596 c 6.495812,-1.9730423 7.31607,-2.0310599 8.729671,-0.6174587 1.413601,1.4136012 1.390219,2.1535179 -0.248845,7.8746322 -0.994975,3.472938 -1.768149,7.06513 -1.718163,7.98265 0.09449,1.734347 5.164087,10.081376 6.477501,10.665115 1.403736,0.623883 0.756471,4.950206 -0.831787,5.559678 C 77.548229,37.726855 74.368646,38 71.352471,38 64.510011,38 63.203507,38.703949 58.430917,44.962183 53.228509,51.78403 50.719208,51.793403 48.306404,45 47.177086,41.82033 45.947449,40 44.928895,40 44.047979,40 34.44967,49 23.59932,60 4.1583916,79.709061 0,82.846474 0,77.805153 Z M 57.717251,36.371056 c 2.515644,-3.135822 3.61591,-3.696654 8.096994,-4.127229 C 68.66641,31.96977 71,31.545426 71,31.300841 c 0,-0.244586 -1.178399,-2.455488 -2.618665,-4.913116 -2.454387,-4.188093 -2.539831,-4.749985 -1.36201,-8.956746 0.69116,-2.468583 0.996157,-4.74883 0.677771,-5.067216 C 67.37871,12.045377 64.915187,12.349498 62.2226,13.039587 57.568723,14.23234 57.137841,14.165768 53.496443,11.691373 51.389644,10.259766 49.291072,9.3201077 48.83295,9.6032428 48.374827,9.886378 48,11.961153 48,14.213853 c 0,3.477605 -0.603752,4.670155 -4,7.900928 -2.2,2.09281 -4,4.180139 -4,4.638509 0,0.458371 1.9125,1.514902 4.25,2.347847 3.482089,1.240809 4.660026,2.362258 6.519287,6.206655 C 52.017395,37.888506 53.436247,40 53.922292,40 c 0.486045,0 2.193777,-1.633025 3.794959,-3.628944 z"
       id="path308"
       inkscape:connector-curvature="0" />
    <path
       style="fill:#feb56d"
       d="M 0,78.240852 C 0,77.273321 9.225,67.264938 20.5,56 31.775,44.735062 41,35.171004 41,34.746538 41,34.322071 38.525,32.880218 35.5,31.542419 32.475,30.20462 30,28.67982 30,28.153973 30,27.628127 32.7,24.858839 36,22 41.348676,17.366363 42,16.393787 42,13.040627 42,5.7640339 43.205339,0 44.726976,0 45.527296,0 48.74818,1.8 51.884495,4 58.14556,8.3918866 59.586014,8.6594252 65.5,6.5288365 67.7,5.7362585 70.7375,5.0680339 72.25,5.0438928 75.580163,4.99074 75.731536,6.4263676 73.341508,15.395848 l -1.658492,6.224117 4.158492,6.260732 C 78.128679,31.324099 80,34.728357 80,35.445714 80,37.019953 75.596237,38 68.522517,38 c -5.203764,0 -5.249061,0.02746 -9.982668,6.052589 -2.93247,3.732567 -5.375045,5.933215 -6.372308,5.74116 C 51.278122,49.622463 49.847665,47.57989 48.988746,45.254698 46.005878,37.179728 46.775351,36.744018 24.220732,59.279456 4.7071285,78.776464 0,82.461477 0,78.240852 Z M 57.879759,37 c 2.888299,-3.594103 3.669525,-4 7.698749,-4 5.583393,0 6.41896,-1.649996 3.350117,-6.615487 -2.022954,-3.273208 -2.157167,-4.196916 -1.251904,-8.616117 1.199019,-5.853221 0.241438,-6.693565 -5.792228,-5.083088 -3.31887,0.885857 -4.33581,0.702824 -7.89825,-1.421559 C 48.586362,8.0436489 47,8.7622239 47,14.428309 c 0,3.956103 -0.476479,4.931935 -4,8.192018 -2.2,2.035516 -4,3.988254 -4,4.339418 0,0.351163 1.6875,1.236036 3.75,1.966386 5.070902,1.79565 5.960592,2.631188 8.205413,7.705977 C 52.018082,39.034448 53.287529,41 53.776405,41 c 0.488876,0 2.335385,-1.8 4.103354,-4 z"
       id="path306"
       inkscape:connector-curvature="0" />
    <path
       style="fill:#fea54f"
       d="M 0.44493085,78.717088 C 0.1650638,77.987766 8.80882,68.616285 20.476316,56.999244 31.764342,45.760032 41,35.822339 41,34.915482 41,33.880605 39.138213,32.492927 36,31.188744 33.209389,30.029018 31,28.461167 31,27.640588 31,26.83195 33.257706,24.513029 36.017125,22.487429 42.305842,17.871087 43,16.544985 43,9.1475289 43,5.8563542 43.273145,2.4517706 43.606989,1.5817875 44.212075,0.00495852 46.99213,-0.67481227 47.008746,0.75 c 0.0048,0.4125 2.666349,2.462135 5.914529,4.5547444 L 58.829058,9.1094888 65.993225,6.93344 c 9.023884,-2.7409207 9.797629,-2.1506526 7.493497,5.716583 -0.942327,3.217487 -1.718587,6.812142 -1.725022,7.98812 -0.01104,2.01738 5.487063,11.106467 7.568019,12.510932 0.528943,0.356992 0.685266,1.369492 0.347383,2.25 -0.475699,1.239653 -2.144652,1.616786 -7.395717,1.67121 -3.729762,0.03866 -7.517975,0.376157 -8.418252,0.75 -0.900276,0.373843 -3.519494,3.069103 -5.820483,5.989465 -2.438595,3.09501 -4.83102,5.180551 -5.73574,5 -0.853668,-0.170362 -2.293626,-2.208926 -3.199908,-4.530141 -3.178853,-8.141843 -2.269918,-8.66138 -25.342947,14.48575 C 12.122391,70.444411 2.2238561,80 1.7673115,80 1.3107669,80 0.7156956,79.42269 0.44493085,78.717088 Z M 57.782258,37.866905 c 3.383246,-3.5557 4.651054,-4.202126 9.07519,-4.627229 5.987098,-0.575285 6.319866,-1.503515 2.570264,-7.169546 -2.300879,-3.476864 -2.459736,-4.292322 -1.505577,-7.72856 0.586691,-2.112863 1.069221,-4.687949 1.072288,-5.722412 0.0058,-1.940248 -0.790569,-1.945182 -9.001515,-0.05578 -1.745596,0.40168 -3.683159,-0.221193 -6.379078,-2.050693 C 48.512041,7.0505173 47,7.7510846 47,13.577042 c 0,4.239672 -0.399358,5.006487 -4.630741,8.891566 -5.077819,4.662241 -5.051788,4.756404 2.11608,7.654706 C 47.593014,31.379891 48.838878,32.622573 50,35.62389 51.547706,39.624466 52.845669,42 53.483827,42 c 0.201186,0 2.13548,-1.859893 4.298431,-4.133095 z"
       id="path304"
       inkscape:connector-curvature="0" />
    <path
       style="fill:#fe942c"
       d="M 0.87244472,78.337379 C -0.03727229,77.23532 -0.13458427,76.551588 0.58381856,76.309439 2.9155853,75.52348 41.5,35.83566 41.5,34.22317 c 0,-1.116325 -1.395489,-2.169096 -4,-3.017639 -7.316607,-2.383732 -7.399055,-3.39683 -0.696191,-8.554565 L 42.783758,18.0495 43.498041,9.02475 C 43.890897,4.0611375 44.566961,0 45.000407,0 c 0.433445,0 2.118923,1.2431916 3.745507,2.7626481 1.626583,1.5194564 4.579638,3.6362677 6.562343,4.7040249 3.533049,1.9026728 3.746033,1.9047764 10.683163,0.1055172 3.893034,-1.0097228 7.356108,-1.5579956 7.695719,-1.2183841 0.339612,0.3396115 -0.175418,3.5466603 -1.144509,7.1267749 -2.120799,7.834864 -1.772689,9.463876 3.498823,16.373024 2.246569,2.944483 3.880519,5.557757 3.631,5.807275 -0.249518,0.249519 -4.191441,0.765396 -8.759828,1.146395 L 62.606468,37.5 58.553234,42.660497 c -2.229279,2.838273 -4.642244,5.421823 -5.362145,5.741222 -0.867524,0.384894 -2.127836,-1.27101 -3.73739,-4.910497 C 47.828277,39.815854 46.439254,38 45.253234,38 43.275326,38 4,76.804932 4,78.759151 4,80.504441 2.4935979,80.301293 0.87244472,78.337379 Z M 58.379673,38 c 3.092844,-3.342767 4.338111,-4 7.578845,-4 7.700222,0 8.515055,-1.367173 4.412844,-7.404119 -2.519759,-3.708159 -2.577947,-4.094896 -1.404825,-9.336959 0.711115,-3.177596 0.852549,-5.839836 0.337605,-6.35478 -0.514945,-0.514945 -3.245209,-0.391403 -6.517154,0.294894 -5.450099,1.143171 -5.761631,1.090538 -9.700065,-1.6387985 C 47.853857,5.9337205 46,7.1051601 46,14.038415 46,18.436186 45.669758,19.093498 42,22 c -2.2,1.742432 -4,3.812526 -4,4.600208 0,1.289607 3.502372,3.324144 8.265008,4.801164 0.970754,0.301057 2.208254,1.683908 2.75,3.073002 0.541746,1.389094 1.423854,3.650626 1.960241,5.025626 1.360762,3.488241 3.118615,3.132132 7.404424,-1.5 z"
       id="path302"
       inkscape:connector-curvature="0" />
    <path
       style="fill:#fe8816"
       d="M 1.2105734,78.401478 C 0.5013888,77.630665 0.33199128,77 0.83413448,77 2.1892626,77 42.445461,36.225783 42.827335,34.466429 43.046572,33.456372 41.233144,32.108554 37.336064,30.385081 l -5.818607,-2.573264 2.991272,-2.469945 c 9.903219,-8.177258 9.483197,-7.544358 9.590951,-14.4519 C 44.188862,5.1729866 45.638109,-2.748493 45.909066,1 c 0.05964,0.825 2.845518,3.2636032 6.190852,5.4191183 l 6.082426,3.9191187 6.94366,-1.8009534 c 3.819013,-0.9905241 7.212311,-1.5323018 7.540663,-1.2039503 0.328351,0.3283515 -0.213426,3.7216497 -1.203951,7.5406627 l -1.800953,6.94366 3.919119,6.082426 c 2.155515,3.345334 4.508176,6.086361 5.228135,6.091172 0.719959,0.0048 1.071737,0.392674 0.781727,0.861919 -0.290009,0.469245 -4.029067,0.928898 -8.309017,1.021452 -7.386205,0.159726 -7.93457,0.332377 -10.788855,3.396827 -1.653921,1.775701 -3.948374,4.534661 -5.098785,6.131021 -2.476466,3.436449 -3.81874,2.903031 -5.451454,-2.166401 C 48.445213,38.586718 47.217728,37 45.118408,37 43.519557,37 3.5732896,76.372824 2.8602979,78.651478 c -0.2510601,0.802365 -0.7512358,0.726568 -1.6497245,-0.25 z M 58.379673,39 c 3.235303,-3.496738 4.253051,-4 8.089204,-4 4.906281,0 7.82904,-2.057979 6.787088,-4.778939 -0.36248,-0.946583 -1.64609,-3.176701 -2.852465,-4.955816 -2.102348,-3.100459 -2.131065,-3.447434 -0.69171,-8.35754 1.287155,-4.390901 1.301689,-5.322797 0.101734,-6.522752 C 68.613569,9.1849979 67.670066,9.20578 63.209533,10.530416 58.086249,12.051868 57.947562,12.036469 54.27062,9.5379226 52.216431,8.1420652 49.559376,7 48.366052,7 c -1.90751,0 -2.253726,0.7241629 -2.865251,5.993102 -0.628702,5.416931 -1.070767,6.290261 -4.598187,9.084029 -5.412642,4.286892 -5.107202,6.239317 1.338576,8.556412 4.906628,1.76381 5.361457,2.218639 7.125267,7.125267 2.315792,6.442153 3.98804,6.672434 9.013216,1.24119 z"
       id="path300"
       inkscape:connector-curvature="0" />
  </g>
</svg>
