<?xml version="1.0" encoding="UTF-8" standalone="no"?>
<!-- Created with Inkscape (http://www.inkscape.org/) -->

<svg
   xmlns:dc="http://purl.org/dc/elements/1.1/"
   xmlns:cc="http://creativecommons.org/ns#"
   xmlns:rdf="http://www.w3.org/1999/02/22-rdf-syntax-ns#"
   xmlns:svg="http://www.w3.org/2000/svg"
   xmlns="http://www.w3.org/2000/svg"
   xmlns:sodipodi="http://sodipodi.sourceforge.net/DTD/sodipodi-0.dtd"
   xmlns:inkscape="http://www.inkscape.org/namespaces/inkscape"
   version="1.1"
   id="svg314"
   width="50"
   height="40.08548"
   viewBox="0 0 50 40.08548"
   sodipodi:docname="monitor-icon.svg"
   inkscape:version="0.92.1 r15371">
  <metadata
     id="metadata320">
    <rdf:RDF>
      <cc:Work
         rdf:about="">
        <dc:format>image/svg+xml</dc:format>
        <dc:type
           rdf:resource="http://purl.org/dc/dcmitype/StillImage" />
        <dc:title></dc:title>
      </cc:Work>
    </rdf:RDF>
  </metadata>
  <defs
     id="defs318" />
  <sodipodi:namedview
     pagecolor="#ffffff"
     bordercolor="#666666"
     borderopacity="1"
     objecttolerance="10"
     gridtolerance="10"
     guidetolerance="10"
     inkscape:pageopacity="0"
     inkscape:pageshadow="2"
     inkscape:window-width="640"
     inkscape:window-height="480"
     id="namedview316"
     showgrid="false"
     inkscape:zoom="2.95"
     inkscape:cx="50"
     inkscape:cy="40"
     inkscape:window-x="0"
     inkscape:window-y="0"
     inkscape:window-maximized="0"
     inkscape:current-layer="svg314" />
  <g
     id="g324"
     transform="matrix(0.5,0,0,0.5,0,0.08547838)">
    <path
       style="fill:#feead6"
       d="M 27.053051,78.563922 C 26.171352,77.50154 26.147001,76.593844 26.959471,75.07573 28.234771,72.69281 30.258299,72.110971 38.5,71.757401 43.747533,71.532281 44.5,71.249178 44.5,69.5 44.5,67.582722 43.666667,67.47932 24.352116,67 6.3103101,66.552265 3.9830315,66.299544 2.0881045,64.582332 c -2.07969127,-1.884649 -2.11158198,-2.45286 -1.85211618,-33 L 0.5,0.5 H 50 99.5 l 0.264012,31.082332 c 0.259468,30.54714 0.227575,31.115351 -1.852117,33 C 96.016968,66.299544 93.68969,66.552265 75.647884,67 56.333333,67.47932 55.5,67.582722 55.5,69.5 c 0,1.749178 0.752467,2.032281 6,2.257401 8.241701,0.35357 10.265229,0.935409 11.540529,3.318329 0.81247,1.518114 0.788119,2.42581 -0.09358,3.488192 C 71.977949,79.731496 67.687544,80 50,80 32.312456,80 28.022051,79.731496 27.053051,78.563922 Z M 92,32 V 8 H 50 8 v 24 24 h 42 42 z"
       id="path342"
       inkscape:connector-curvature="0" />
    <path
       style="fill:#fed8b4"
       d="m 27.610575,78.427558 c -0.331872,-0.864843 -0.139184,-2.439843 0.428195,-3.5 C 28.923897,73.273682 30.192863,73 36.976167,73 c 8.41017,0 9.5862,-0.623215 8.598924,-4.556835 L 44.961896,66 H 25.38524 C 8.6855538,66 5.3817717,65.747876 2.9042921,64.284392 L 0,62.568785 V 32.712964 C 0,8.1712523 0.25427487,2.602868 1.4285714,1.4285714 c 2.1327043,-2.13270421 95.0101526,-2.13270421 97.1428576,0 C 99.744953,2.6020959 100,8.123656 100,32.355991 V 61.85484 l -2.634859,2.07258 C 94.900557,65.866062 93.447752,66 74.884193,66 H 55.038104 l -0.613195,2.443165 C 53.437633,72.376785 54.613663,73 63.023833,73 c 6.783304,0 8.05227,0.273682 8.937397,1.927558 0.567379,1.060157 0.760067,2.635157 0.428195,3.5 C 71.866262,79.790898 68.888942,80 50,80 31.111058,80 28.133738,79.790898 27.610575,78.427558 Z M 92.5,32 V 7.5 H 50 7.5 L 7.2310061,30.979311 c -0.1479466,12.913621 -0.047692,24.056014 0.222788,24.760874 0.391359,1.019865 9.1248759,1.228292 42.7689939,1.020689 L 92.5,56.5 Z"
       id="path340"
       inkscape:connector-curvature="0" />
    <path
       style="fill:#fecb9a"
       d="M 28.686013,79.35268 C 27.33934,78.006006 28.03255,75.052947 29.934259,74.035184 30.998101,73.465833 35.075265,73 38.994624,73 h 7.126107 L 45.810365,69.25 45.5,65.5 24.400581,65 C 8.5792729,64.625077 2.8882625,64.156677 1.6505812,63.127555 0.18474982,61.908729 0,58.451233 0,32.237798 0,5.2988103 0.15286178,2.6044466 1.75,1.392046 3.1454219,0.33276983 12.905691,0.05716287 49.921259,0.03180337 91.741415,0.00315223 96.523777,0.16403625 98.171259,1.6549876 99.863438,3.186388 100,5.4921861 100,32.532543 100,58.472032 99.814562,61.909301 98.349419,63.127555 97.111738,64.156677 91.420727,64.625077 75.599419,65 L 54.5,65.5 54.189635,69.25 53.879269,73 h 7.369236 c 8.00653,0 11.209687,1.380173 10.597169,4.566097 -0.351539,1.828475 -1.519409,1.948587 -21.422728,2.203249 C 38.84494,79.917487 29.06332,79.729987 28.686013,79.35268 Z M 92.767171,32.25 93.034342,7 H 50.017171 7 V 31.833333 C 7,45.491667 7.3048211,56.971488 7.6773803,57.344047 8.0499395,57.716606 27.287439,57.904106 50.42738,57.760714 L 92.5,57.5 Z"
       id="path338"
       inkscape:connector-curvature="0" />
    <path
       style="fill:#feba78"
       d="m 28.589736,78.373252 c -1.168301,-3.044544 1.299241,-4.281223 9.144025,-4.582787 8.363757,-0.321515 10.06002,-1.491654 8.894441,-6.135688 L 45.961896,65 H 26.382077 C 10.435,65 6.1712297,64.700557 3.4011291,63.386059 L 0,61.772117 V 32.608299 C 0,4.6267203 0.08153909,3.3746658 2.0114309,1.7222409 3.8541183,0.14448277 7.9019224,0.00498599 50.261431,0.0594332 93.170686,0.11458704 96.626005,0.24663239 98.25,1.893321 99.83579,3.5012711 100,6.3938616 100,32.719946 v 29.052171 l -3.401129,1.613942 C 93.82877,64.700557 89.565,65 73.617923,65 H 54.038104 l -0.666306,2.654777 c -1.165579,4.644034 0.530684,5.814173 8.894441,6.135688 7.844784,0.301564 10.312326,1.538243 9.144025,4.582787 C 70.86147,79.803387 68.273771,80 50,80 31.726229,80 29.13853,79.803387 28.589736,78.373252 Z M 93.768064,33.124229 c 0.188522,-17.1428 -0.07036,-24.7835432 -0.872445,-25.75 C 91.331969,5.4901461 9.0770874,5.3229126 7.2,7.2 5.8933111,8.5066889 5.3974357,56.064102 6.6771564,57.343823 7.0495925,57.716259 26.737092,57.903759 50.427156,57.76049 L 93.5,57.5 Z"
       id="path336"
       inkscape:connector-curvature="0" />
    <path
       style="fill:#fea957"
       d="M 29.686777,79.353444 C 29.30905,78.975716 29,77.85024 29,76.852385 29,74.701994 31.11991,74.105219 40,73.75578 L 46.5,73.5 46.819201,69.601786 c 0.20001,-2.442601 -0.173395,-4.210558 -1,-4.734687 C 45.093641,64.407038 35.487628,64.023735 24.472506,64.015313 7.9822339,64.002705 4.0524773,63.725058 2.2225062,62.443296 0.01441007,60.896685 0,60.702174 0,32.443296 0,5.3333333 0.09375379,3.9062462 2,2 3.9448441,0.05515588 5.2754796,0.00229816 50.25,0.08333333 c 44.246704,0.07972379 46.3258,0.1663528 48,1.99999997 1.580726,1.731271 1.75,4.6679348 1.75,30.3599627 0,28.258878 -0.01441,28.453389 -2.222506,30 -1.829971,1.281762 -5.759728,1.559409 -22.25,1.572017 -11.015122,0.0084 -20.621135,0.391725 -21.346695,0.851786 -0.826605,0.524129 -1.20001,2.292086 -1,4.734687 L 53.5,73.5 60,73.75578 c 9.564446,0.376369 11.187954,0.906218 10.814919,3.529566 -0.311658,2.19172 -0.522689,2.217451 -20.378142,2.484765 -11.034772,0.14856 -20.372272,-0.03894 -20.75,-0.416667 z M 92.76755,58.164824 c 0.980828,-0.62256 1.207029,-6.556877 1,-26.234687 L 93.5,6.5 H 50 6.5 L 6.2324502,31.930137 c -0.2070296,19.67781 0.019172,25.612127 1,26.234687 1.6557906,1.050978 83.8793088,1.050978 85.5350998,0 z"
       id="path334"
       inkscape:connector-curvature="0" />
    <path
       style="fill:#fe9e42"
       d="M 29.603744,78.409758 C 28.538889,75.634788 29.939061,75 37.124758,75 45.894201,75 48,73.966936 48,69.664816 48,67.869167 47.46,65.86 46.8,65.2 45.949146,64.349146 39.955806,64 26.201129,64 10.420572,64 6.1678732,63.698965 3.4011291,62.386059 L 0,60.772117 V 32.750729 4.7293414 L 2.5515219,2.3646707 5.1030438,0 50.301522,0.10548645 95.5,0.21097289 97.75,2.460726 C 99.975925,4.6864064 100,5.0093262 100,32.639632 v 27.929153 l -2.904292,1.715607 C 94.613957,63.750399 91.296817,64 74.295708,64 60.154602,64 54.052914,64.347086 53.2,65.2 52.54,65.86 52,67.869167 52,69.664816 52,73.966936 54.105799,75 62.875242,75 c 7.185697,0 8.585869,0.634788 7.521014,3.409758 C 69.866886,79.789272 67.164109,80 50,80 32.835891,80 30.133114,79.789272 29.603744,78.409758 Z M 93.8,57.8 C 95.355057,56.244943 95.505507,9.8130651 93.964816,6.9342585 92.96604,5.0680271 91.419813,5 50,5 8.5801865,5 7.0339605,5.0680271 6.0351838,6.9342585 4.4944932,9.8130651 4.6449428,56.244943 6.2,57.8 c 1.7256404,1.72564 85.87436,1.72564 87.6,0 z"
       id="path332"
       inkscape:connector-curvature="0" />
    <path
       style="fill:#fe932a"
       d="M 30.180449,77.75 C 30.476558,75.66506 31.123562,75.46332 39,75 l 8.5,-0.5 0.311109,-4.323905 C 48.32759,62.997856 48.334233,63 25.57692,63 11.536534,63 4.5800092,62.619775 2.7071665,61.75 L 0.01560393,60.5 0.00780197,32.795455 0,5.0909091 2.5454545,2.5454545 5.0909091,0 50.295455,0.10559016 95.5,0.21118032 97.75,2.6408661 C 99.969263,5.0373601 100,5.444173 100,32.420266 V 59.76998 l -2.464817,1.61501 C 95.46958,62.738426 91.764225,63 74.657628,63 51.641012,63 51.671855,62.990149 52.188891,70.176095 L 52.5,74.5 61,75 c 7.876438,0.46332 8.523442,0.66506 8.819551,2.75 L 70.139102,80 H 50 29.860898 Z m 63.146058,-19 c 1.548183,-1.13253 1.683615,-3.693376 1.44113,-27.25 L 94.5,5.5 H 50 5.5 l -0.2676365,26 C 4.9898784,55.056624 5.12531,57.61747 6.6734931,58.75 c 2.4717733,1.808156 84.1812409,1.808156 86.6530139,0 z"
       id="path330"
       inkscape:connector-curvature="0" />
    <path
       style="fill:#fe8917"
       d="M 30.606989,78.418213 C 30.273145,77.548229 30,76.694407 30,76.520829 30,76.347251 33.841465,76.046555 38.53659,75.852616 44.744827,75.596176 47.331773,75.090875 48.021277,74 49.280934,72.007077 49.251862,67.339126 47.964816,64.934259 46.992889,63.118197 45.67324,63 26.369108,63 8.7399184,63 5.3945163,62.755404 2.9042921,61.284392 L 0,59.568785 V 32.861316 6.1538462 L 3.0769231,3.0769231 6.1538462,0 H 50 93.846154 L 96.923077,3.0769231 100,6.1538462 V 32.861316 59.568785 l -2.904292,1.715607 C 94.605484,62.755404 91.260082,63 73.630892,63 54.32676,63 53.007111,63.118197 52.035184,64.934259 50.748138,67.339126 50.719066,72.007077 51.978723,74 c 0.690465,1.092397 3.285881,1.596561 9.551249,1.85535 7.084455,0.29262 8.503138,0.615982 8.03659,1.831787 C 69.254953,78.499178 69,79.351771 69,79.581787 69,79.811804 60.498145,80 50.106989,80 c -16.305465,0 -18.976143,-0.216638 -19.5,-1.581787 z M 95.013544,57.974693 C 96.297572,55.575465 95.975106,6.637168 94.666667,5.3315416 93.577647,4.2448635 6.4223529,4.2448635 5.3333333,5.3315416 4.0248936,6.637168 3.7024283,55.575465 4.9864559,57.974693 6.0496297,59.961251 6.910848,60 50,60 93.089152,60 93.95037,59.96125 95.013544,57.974693 Z"
       id="path328"
       inkscape:connector-curvature="0" />
    <path
       style="fill:#fe8107"
       d="m 31.18752,78.25 c 0.279477,-1.463587 1.641713,-1.795792 8.323324,-2.029789 6.04434,-0.211679 8.293446,-0.684212 9.239156,-1.941129 1.165064,-1.548455 1.334936,-1.548455 2.5,0 0.94571,1.256917 3.194816,1.72945 9.239156,1.941129 6.681611,0.233997 8.043847,0.566202 8.323324,2.029789 C 69.121322,79.867369 67.695539,80 50,80 32.304461,80 30.878678,79.867369 31.18752,78.25 Z M 48.232073,64 C 47.045901,62.100638 45.900045,62 25.460141,62 7.2511556,62 3.8486035,61.769042 3.3616264,60.5 3.0450442,59.675 2.1591674,59 1.3930112,59 0.23687416,59 0,54.428626 0,32.116631 0,5.7536495 0.04015095,5.222763 2.0742126,4.690844 3.2150295,4.3925136 4.3925136,3.2150295 4.690844,2.0742126 5.2295417,0.01422937 5.5403684,0 50,0 94.459632,0 94.770458,0.01422937 95.309156,2.0742126 95.607486,3.2150295 96.78497,4.3925136 97.925787,4.690844 99.959849,5.222763 100,5.7536495 100,32.116631 100,54.428626 99.763126,59 98.606989,59 97.840833,59 96.954956,59.675 96.638374,60.5 96.151396,61.769042 92.748844,62 74.539859,62 54.099955,62 52.954099,62.100638 51.767927,64 51.080966,65.1 50.285399,66 50,66 49.714601,66 48.919034,65.1 48.232073,64 Z m 46.094,-4.25 c 1.549934,-1.134098 1.683558,-3.753486 1.44113,-28.25 L 95.5,4.5 H 50 4.5 l -0.2672031,27 c -0.2424276,24.496514 -0.1088036,27.115902 1.4411296,28.25 2.4722303,1.80895 86.1799165,1.80895 88.6521465,0 z"
       id="path326"
       inkscape:connector-curvature="0" />
  </g>
</svg>
