<?xml version="1.0" encoding="UTF-8" standalone="no"?>
<!-- Created with Inkscape (http://www.inkscape.org/) -->

<svg
   xmlns:dc="http://purl.org/dc/elements/1.1/"
   xmlns:cc="http://creativecommons.org/ns#"
   xmlns:rdf="http://www.w3.org/1999/02/22-rdf-syntax-ns#"
   xmlns:svg="http://www.w3.org/2000/svg"
   xmlns="http://www.w3.org/2000/svg"
   xmlns:sodipodi="http://sodipodi.sourceforge.net/DTD/sodipodi-0.dtd"
   xmlns:inkscape="http://www.inkscape.org/namespaces/inkscape"
   version="1.1"
   id="svg344"
   width="40"
   height="40.479256"
   viewBox="0 0 40 40.479256"
   sodipodi:docname="note-icon.svg"
   inkscape:version="0.92.1 r15371">
  <metadata
     id="metadata350">
    <rdf:RDF>
      <cc:Work
         rdf:about="">
        <dc:format>image/svg+xml</dc:format>
        <dc:type
           rdf:resource="http://purl.org/dc/dcmitype/StillImage" />
        <dc:title></dc:title>
      </cc:Work>
    </rdf:RDF>
  </metadata>
  <defs
     id="defs348" />
  <sodipodi:namedview
     pagecolor="#ffffff"
     bordercolor="#666666"
     borderopacity="1"
     objecttolerance="10"
     gridtolerance="10"
     guidetolerance="10"
     inkscape:pageopacity="0"
     inkscape:pageshadow="2"
     inkscape:window-width="640"
     inkscape:window-height="480"
     id="namedview346"
     showgrid="false"
     inkscape:zoom="2.8780488"
     inkscape:cx="40"
     inkscape:cy="41"
     inkscape:window-x="0"
     inkscape:window-y="0"
     inkscape:window-maximized="0"
     inkscape:current-layer="svg344" />
  <g
     id="g354"
     transform="matrix(0.4998252,0,0,0.4998252,0.0130959,0.00664644)">
    <path
       style="fill:#fef3e9"
       d="M 1.25,80.337719 C 0.2826155,79.947371 0,71.725668 0,43.973371 V 8.1134079 L 2.2225062,6.556704 C 4.0466595,5.2790173 7.8855726,5 23.640719,5 34.198357,5 43.548229,5.273145 44.418213,5.6069888 47.236569,6.6884938 46.299675,10.846682 42.75,13.01096 c -2.875903,1.753472 -5.062932,1.981994 -19,1.985302 L 8,15 V 43.5 72 H 34 60 V 57.088894 42.177787 l 3.076725,-2.588893 C 69.393762,34.273458 70,35.903143 70,58.2 70,75.666667 69.858156,77.141844 68,79 66.080474,80.919526 64.722475,80.996823 34.25,80.921053 16.7875,80.877632 1.9375,80.615132 1.25,80.337719 Z M 19.571429,60.428571 C 18.707143,59.564286 18,58.195879 18,57.387668 18,55.956219 21.058384,45.523084 23.243616,39.5 24.523773,35.971546 56.16564,3.5747808 60.403638,1.4534302 62.000639,0.6540436 65.876775,0 69.017274,0 73.853365,0 75.130765,0.40349219 77.363636,2.6363636 79.562766,4.8354934 80,6.170508 80,10.686024 c 0,2.977313 -0.644579,6.628449 -1.432397,8.113636 -0.787818,1.485187 -9.225318,10.434565 -18.75,19.887506 L 42.5,55.874332 33.117575,58.937166 c -10.825739,3.533995 -11.436332,3.60122 -13.546146,1.491405 z M 53.5,31.263603 C 62.85,22.237776 70.89518,14.010929 71.378177,12.98172 72.637331,10.298613 71.434202,8 68.770668,8 65.301376,8 32.423068,41.340405 31.503185,45.791269 30.839012,49.004873 30.889942,49.065922 33.661481,48.378367 35.425756,47.940691 42.933685,41.463573 53.5,31.263603 Z"
       id="path372"
       inkscape:connector-curvature="0" />
    <path
       style="fill:#fee8d2"
       d="M 1.75,79.919901 C 0.13639183,78.980061 0,76.188735 0,44.105297 0,11.505891 0.11688766,9.2041932 1.8521404,7.6338111 3.4796747,6.1609128 6.1763185,5.9905322 24.089127,6.2288235 43.267343,6.4839484 44.495776,6.6134271 44.842326,8.416241 45.062579,9.562039 44.263692,11.060822 42.855339,12.144005 40.800342,13.724531 38.364119,13.958364 23.75,13.977764 L 7,14 V 43.516333 73.032667 L 33.75,72.766333 60.5,72.5 61,57.105182 C 61.494847,41.869019 61.527312,41.69 64.150169,39.734465 c 1.457593,-1.086743 3.145093,-1.670017 3.75,-1.296164 C 68.637308,38.893878 69,45.364207 69,58.059017 69,75.666667 68.859212,77.140788 67,79 65.085318,80.914682 63.688236,80.998703 34.25,80.969591 15.23068,80.950783 2.8324003,80.550342 1.75,79.919901 Z M 20.2,59.8 C 18.512631,58.112631 18.653574,56.862961 21.689243,46.595634 L 24.378487,37.5 41.418395,20.208926 C 50.790344,10.698835 59.774322,2.2613353 61.38279,1.458926 62.991257,0.65651669 66.453524,0 69.076715,0 73.069255,0 74.347357,0.50120315 76.923077,3.0769231 79.441736,5.5955825 80,6.9653602 80,10.626583 c 0,2.460005 -0.644579,5.68789 -1.432397,7.173077 -0.787818,1.485187 -9.225318,10.455068 -18.75,19.93307 L 42.5,54.96546 33.562412,57.98273 C 23.665793,61.323763 21.956257,61.556257 20.2,59.8 Z M 34.607996,48.95894 C 37.413472,47.8923 69.091406,18.316323 71.711758,14.317161 73.626055,11.395574 72.519418,8.1684696 69.328629,7.3676327 67.069145,6.8005382 64.879217,8.6388127 49.377203,24.115309 36.527805,36.943556 31.707952,42.417333 30.987501,45 c -1.567013,5.617414 -1.354068,5.850265 3.620495,3.95894 z"
       id="path370"
       inkscape:connector-curvature="0" />
    <path
       style="fill:#fed6af"
       d="M 2.75,79.859288 0,78.833333 V 44.116667 C 0,18.448148 0.31275404,9.087246 1.2,8.2 2.0564103,7.3435897 8.3555556,7 23.2,7 43.505825,7 44,7.0487292 44,9.0510266 44,12.870115 38.317431,14.180006 22.590851,13.986055 14.840883,13.890478 7.9308037,13.854515 7.2351194,13.906139 c -0.9957848,0.07389 -1.2085288,6.422995 -1,29.843861 L 6.5,73.5 33.75,73.766072 61,74.032144 V 59.150931 c 0,-13.540727 0.186696,-15.118559 2.07258,-17.516072 2.565602,-3.261635 4.703541,-3.375044 5.477695,-0.290571 0.323608,1.289358 0.444682,9.824492 0.269052,18.966964 -0.275682,14.350726 -0.563202,16.866376 -2.103634,18.405712 -1.622613,1.621457 -4.477146,1.800491 -31.5,1.975658 C 16.862976,80.811587 4.4484282,80.492929 2.75,79.859288 Z M 20,57.394614 c 0,-1.432962 1.174725,-6.495462 2.610501,-11.25 L 25.221001,37.5 42.824102,19.75 C 52.505808,9.9875 61.006083,2 61.713602,2 62.421121,2 63,1.55 63,1 63,0.45 65.3625,0.01000613 68.25,0.02223585 76.198177,0.05589955 80,3.9667591 80,12.109228 80,16.283544 79.698611,16.651223 60.75,35.593229 L 41.5,54.836518 33.198378,57.418259 C 22.297984,60.808198 20,60.804081 20,57.394614 Z M 34.100777,49.835548 C 37.667989,48.613548 70.386342,17.754975 72.783543,13.351592 75.007936,9.2656368 72.313653,6.2840925 67,6.9514141 66.175,7.0550227 57.847861,14.755792 48.495246,24.064235 c -13.180511,13.118259 -17.284801,17.821744 -18.25,20.914354 -2.063306,6.611075 -1.892636,6.826075 3.855531,4.856959 z"
       id="path368"
       inkscape:connector-curvature="0" />
    <path
       style="fill:#fec58d"
       d="M 1.2,78.8 C 0.31353322,77.913533 0,68.680114 0,43.460515 V 9.32103 L 2.547053,8.160515 C 5.7159572,6.7166657 42.597154,6.5391641 43.477458,7.9635255 43.804978,8.4934645 43.156535,9.8434645 42.036475,10.963525 40.148577,12.851423 38.767521,13 23.106989,13 8.6252627,13 6.1273369,13.225782 5.6069888,14.581787 5.273145,15.451771 5,28.694628 5,44.010359 5,67.992284 5.2180988,72.075242 6.5714286,73.428571 7.9185638,74.775707 11.815152,75 33.871429,75 52.549206,75 59.928854,74.671146 60.8,73.8 61.624081,72.975919 62,68.012219 62,57.954988 62,44.738775 62.188977,43.138953 63.936987,41.557026 67.51078,38.322788 68,40.343175 68,58.336511 68,72.30211 67.705911,75.974859 66.443296,77.777494 64.891125,79.993528 64.795615,80 33.643296,80 10.676288,80 2.0821223,79.682122 1.2,78.8 Z M 21.032592,58.539271 c -0.96832,-1.166754 -0.599417,-3.433462 1.833029,-11.262984 L 25.910948,37.474032 44.813751,18.737016 63.716555,0 h 4.608389 c 3.941678,0 5.119568,0.51117905 8.141723,3.5333333 C 79.365137,6.4318035 80,7.8053257 80,11.177676 c 0,3.999423 -0.520282,4.635668 -19.167901,23.440139 l -19.167901,19.32913 -9.084571,3.026527 c -10.573364,3.522519 -9.988879,3.443262 -11.547035,1.565799 z M 34.124273,50.468297 C 37.559455,49.265828 42.315293,45.130355 56.25,31.228716 67.012668,20.491589 74,12.760427 74,11.589159 74,8.7891549 71.085564,6 68.15979,6 66.221537,6 61.582797,10.022882 48.332975,23.194527 32.990054,38.446921 30.871158,40.952726 29.573491,45.379487 28.310958,49.686397 28.261963,52 29.43329,52 c 0.173392,0 2.284334,-0.689266 4.690983,-1.531703 z"
       id="path366"
       inkscape:connector-curvature="0" />
    <path
       style="fill:#febe81"
       d="M 1.75,78.607954 C 0.14470617,77.389362 0,74.514407 0,43.839757 0,19.164391 0.3145139,10.085486 1.2,9.2 2.6281966,7.7718034 43,7.4603758 43,8.8775553 43,11.755144 39.248799,12.513181 22.599799,13 L 5.5,13.5 V 44 74.5 h 28 28 L 62,58.796427 c 0.510421,-16.030868 1.19925,-18.701417 4.497318,-17.43583 1.439477,0.552379 1.59469,2.67131 1.317218,17.982281 -0.233157,12.865596 -0.669627,17.78315 -1.686981,19.00662 -1.221957,1.469526 -4.730727,1.647015 -32,1.618699 C 10.245052,79.943397 3.1146006,79.643833 1.75,78.607954 Z M 21,56.894614 c 0,-1.157962 1.121089,-5.780863 2.49131,-10.273113 L 25.98262,38.453774 45.297771,19.226887 C 63.608714,0.9996199 64.811069,0 68.424108,0 71.51791,0 72.966074,0.73078002 76.117647,3.8823529 79.26257,7.0272758 80,8.4850911 80,11.557322 80,15.150645 78.988452,16.359698 60.75,34.56588 L 41.5,53.78182 33.496591,56.39091 C 23.551668,59.632928 21,59.735779 21,56.894614 Z M 34.38398,50.78971 c 3.260443,-0.958713 7.617927,-4.648321 20.963023,-17.75 9.265852,-9.096841 17.50764,-17.811499 18.315084,-19.365908 1.304282,-2.51087 1.290887,-3.096628 -0.120057,-5.2499995 C 72.038745,6.1294983 70.428579,5.5209548 67,5.9513185 66.175,6.0548745 57.622803,13.980828 47.995118,23.564548 c -13.603261,13.541142 -17.782403,18.314157 -18.75,21.41445 -2.317872,7.426733 -1.913189,7.884324 5.138862,5.810712 z"
       id="path364"
       inkscape:connector-curvature="0" />
    <path
       style="fill:#feb46d"
       d="M 2.25,78.779505 0,77.694371 V 44.207428 C 0,13.48784 0.14461969,10.610703 1.75,9.392046 3.0646456,8.3940878 8.4132855,8.0556949 23.25,8.0318034 34.1125,8.0143115 43,8.36 43,8.8 c 0,2.687858 -3.021787,3.200575 -18.95,3.215313 -9.1025,0.0084 -17.1192204,0.376633 -17.8149341,0.818247 -0.9842963,0.624795 -1.206156,7.554511 -1,31.234687 L 5.5,74.5 h 28 28 L 62,59.399116 C 62.483674,44.791295 63.333139,41 66.122445,41 66.6051,41 67,49.030256 67,58.845012 c 0,16.017967 -0.187234,18.014457 -1.828741,19.5 -1.618215,1.464465 -5.215731,1.647197 -31.25,1.587308 C 14.955472,79.888691 3.7004145,79.479014 2.25,78.779505 Z M 21,57.264536 c 0,-0.954505 1.203442,-5.669899 2.674316,-10.478655 L 26.348632,38.04269 45.529973,19.021345 C 63.738014,0.96518135 64.905971,0 68.547524,0 c 3.200383,0 4.467384,0.67687234 7.644343,4.0838529 2.974319,3.1896684 3.808522,4.8865783 3.809908,7.7500001 0.0017,3.447019 -1.170311,4.810012 -19.607985,22.803743 L 40.784029,53.775192 32.582916,56.387596 C 22.935519,59.460703 21,59.607241 21,57.264536 Z M 36.167095,50.103771 C 41.247344,47.880478 75,14.448463 75,11.639767 75,9.5672225 70.663389,5 68.695493,5 c -2.615086,0 -9.180349,5.702168 -23.728252,20.608843 -11.299846,11.578515 -14.803543,15.806794 -15.75,19.007177 -2.368303,8.00826 -1.099261,9.010322 6.949854,5.487751 z"
       id="path362"
       inkscape:connector-curvature="0" />
    <path
       style="fill:#fea651"
       d="M 3,78.729129 0.5,77.441606 0.23689952,43.887287 -0.02620096,10.332968 2.5339525,9.166484 C 5.4615431,7.8325845 42,7.4932863 42,8.8 42,11.492178 38.98481,12 23,12 11.422222,12 6.0369478,12.363052 5.2,13.2 4.3214076,14.078592 4,22.228571 4,43.628571 c 0,25.238096 0.2145417,29.443114 1.5714286,30.8 C 6.9216105,75.778753 10.906061,76 33.871429,76 53.326984,76 60.926528,75.673472 61.8,74.8 62.627915,73.972085 63,68.893877 63,58.422445 c 0,-11.477073 0.327199,-15.449107 1.342009,-16.291324 0.738105,-0.612573 1.638105,-0.817673 2,-0.455778 C 66.703904,42.037238 67,49.822325 67,58.975537 67,71.763369 66.671522,76.067311 65.581713,77.55887 64.241386,79.3933 62.551125,79.5142 34.831713,79.758326 12.451741,79.955427 4.9074893,79.711503 3,78.729129 Z M 21.529086,58.047062 c -0.323922,-0.524116 0.635955,-5.136616 2.13306,-10.25 L 26.384154,38.5 43.942077,20.988063 C 53.598935,11.356498 62.517644,2.6939978 63.761431,1.7380631 67.607477,-1.2178839 71.118686,-0.47369672 75.791792,4.2878515 82.818769,11.447819 82.820461,11.4445 60.832099,33.617815 l -19.167901,19.32913 -9.084571,3.026527 c -10.164729,3.386382 -10.231453,3.398903 -11.050541,2.07359 z m 12.542775,-6.571041 c 3.461226,-1.191208 8.41429,-5.394569 22.683389,-19.25 C 76.301741,13.246192 77.455129,11.455129 73,7 68.661159,2.6611587 66.826918,3.8062486 47.771164,22.75 31.556056,38.869801 29.776137,40.980965 28.390971,45.736859 26.9578,50.657579 27.115799,53 28.880878,53 c 0.419564,0 2.755507,-0.68579 5.190983,-1.523979 z"
       id="path360"
       inkscape:connector-curvature="0" />
    <path
       style="fill:#fe942d"
       d="M 2.25,77.779505 0,76.694371 V 44.207428 C 0,14.440221 0.14650618,11.609271 1.75,10.392046 3.9182158,8.7461358 41,8.3757469 41,10 41,10.627005 34.730377,11 24.19113,11 12.321023,11 6.8807527,11.367274 5.6754033,12.25 4.1196159,13.389366 3.992066,16.243714 4.2342737,44.5 L 4.5,75.5 h 29 29 l 0.274876,-15.648201 c 0.216475,-12.323539 0.588285,-15.908306 1.75,-16.872444 C 65.815441,41.908281 66,43.934901 66,59.177555 66,71.395012 65.641498,76.958502 64.8,77.8 63.20005,79.39995 5.5708011,79.381067 2.25,77.779505 Z M 21.987352,56.75 c -0.007,-0.6875 1.18533,-5.17562 2.649525,-9.9736 L 27.299049,38.0528 46.550666,19.0264 C 61.298242,4.4513498 66.391832,0 68.322194,0 71.473454,0 80,8.2315579 80,11.273795 c 0,1.413007 -6.513225,8.6576 -19.606586,21.808203 L 40.786827,52.7743 32.584315,55.38715 C 23.298529,58.345069 22.005175,58.511404 21.987352,56.75 Z M 36.167095,51.103391 C 39.191667,49.779468 45.859661,43.796862 58.25,31.290336 68.0125,21.436291 76,12.675452 76,11.821804 76,9.6948523 72.370168,5.2522621 70.023893,4.5075834 66.704919,3.4541818 62.967467,6.3939357 46.282023,23.182141 29.873796,39.691421 27,43.781617 27,50.625727 c 0,3.005624 3.031022,3.16356 9.167095,0.477664 z"
       id="path358"
       inkscape:connector-curvature="0" />
    <path
       style="fill:#fe8814"
       d="M 1.75,76.919901 C 0.14036574,75.982375 0,73.304186 0,43.529765 V 11.158911 L 3.071506,10.484295 C 4.7608344,10.113256 6.4108344,10.077501 6.7381727,10.404839 7.0655111,10.732178 6.6314783,11 5.7736555,11 4.9158326,11 3.9408326,11.711804 3.6069888,12.581787 3.273145,13.451771 3,27.761771 3,44.381787 3,66.551508 3.3196149,74.919615 4.2,75.8 c 1.7120498,1.71205 56.88795,1.71205 58.6,0 C 63.628758,74.971242 64,69.866667 64,59.3 64,49.766667 64.376906,44 65,44 c 1.355953,0 1.323554,29.526916 -0.03518,32.065741 -0.988961,1.847891 -2.38432,1.932901 -31.25,1.90385 C 15.059091,77.950816 2.8305136,77.549243 1.75,76.919901 Z M 23,55.894614 c 0,-0.607962 1.122004,-4.783862 2.493343,-9.279778 l 2.493343,-8.174392 18.256657,-17.81343 C 65.903665,1.4439959 67.494413,0 68.966667,0 69.802034,0 72.282509,2.35629 78.529307,9.0838878 79.338188,9.9550261 80,11.035265 80,11.484419 80,11.933573 71.145886,21.222716 60.324192,32.126958 L 40.648384,51.952854 33.070783,54.476427 C 24.64706,57.281784 23,57.513726 23,55.894614 Z M 35.759752,52.195616 C 38.849144,50.965868 44.959806,45.572719 58.000701,32.566197 67.890359,22.702605 76.239589,13.820483 76.554544,12.828147 77.350747,10.319534 74.161914,5.3097076 70.91212,3.9635991 66.748881,2.2391288 64.263988,4.0900442 45.78191,22.682273 28.582362,39.984327 26,43.697381 26,51.125727 c 0,2.482088 0.375228,2.866853 2.75,2.819889 1.5125,-0.02991 4.666888,-0.817411 7.009752,-1.75 z"
       id="path356"
       inkscape:connector-curvature="0" />
  </g>
</svg>
