<?xml version="1.0" encoding="UTF-8" standalone="no"?>
<!-- Created with Inkscape (http://www.inkscape.org/) -->

<svg
   xmlns:dc="http://purl.org/dc/elements/1.1/"
   xmlns:cc="http://creativecommons.org/ns#"
   xmlns:rdf="http://www.w3.org/1999/02/22-rdf-syntax-ns#"
   xmlns:svg="http://www.w3.org/2000/svg"
   xmlns="http://www.w3.org/2000/svg"
   xmlns:sodipodi="http://sodipodi.sourceforge.net/DTD/sodipodi-0.dtd"
   xmlns:inkscape="http://www.inkscape.org/namespaces/inkscape"
   version="1.1"
   id="svg374"
   width="40"
   height="40.093002"
   viewBox="0 0 40 40.093002"
   sodipodi:docname="rocket-icon.svg"
   inkscape:version="0.92.1 r15371">
  <metadata
     id="metadata380">
    <rdf:RDF>
      <cc:Work
         rdf:about="">
        <dc:format>image/svg+xml</dc:format>
        <dc:type
           rdf:resource="http://purl.org/dc/dcmitype/StillImage" />
        <dc:title></dc:title>
      </cc:Work>
    </rdf:RDF>
  </metadata>
  <defs
     id="defs378" />
  <sodipodi:namedview
     pagecolor="#ffffff"
     bordercolor="#666666"
     borderopacity="1"
     objecttolerance="10"
     gridtolerance="10"
     guidetolerance="10"
     inkscape:pageopacity="0"
     inkscape:pageshadow="2"
     inkscape:window-width="640"
     inkscape:window-height="480"
     id="namedview376"
     showgrid="false"
     inkscape:zoom="2.95"
     inkscape:cx="47.04385"
     inkscape:cy="40.000002"
     inkscape:window-x="0"
     inkscape:window-y="0"
     inkscape:window-maximized="0"
     inkscape:current-layer="svg374" />
  <g
     id="g384"
     transform="matrix(0.49748283,0,0,0.5000008,0.07605696,0.07016262)">
    <path
       style="fill:#fef3e8"
       d="m 0,73.11481 c 0,-8.362028 1.6399872,-12.609522 5.8593559,-15.175473 4.6086341,-2.802678 8.5401881,-2.55261 9.9928331,0.635599 1.431723,3.142288 1.039972,3.836778 -3.936249,6.978129 C 9.5041149,67.075583 8,68.788472 8,70.012545 8,73.390319 10.883011,72.224447 14.213108,67.5 c 3.421552,-4.854194 5.529673,-5.546693 8.131904,-2.671259 2.251206,2.487554 2.078576,5.767644 -0.493668,9.380028 C 18.961746,78.266835 14.377099,80 6.5321186,80 H 0 Z M 29.25664,78.75 c -0.543537,-0.6875 -1.273638,-2.4875 -1.622445,-4 -0.348807,-1.5125 -0.930556,-3.9875 -1.292774,-5.5 C 25.404857,65.339233 16.199748,55.059884 13.079351,54.440241 11.660708,54.158529 8.1375,53.246234 5.25,52.412919 0.05877693,50.914763 0,50.85359 0,46.9489 0,44.777005 0.45,43 1,43 c 0.55,0 1,-0.583674 1,-1.297052 0,-0.713379 1.8202567,-3.075879 4.0450149,-5.25 C 9.8379033,32.746388 10.539118,32.468835 17.295015,32 L 24.5,31.5 29.232304,22.565865 C 38.83823,4.4307981 46.77917,0 69.675172,0 h 10.57673 L 79.722569,14.25 C 79.431436,22.0875 78.656806,30.266451 78.001171,32.425447 76.19835,38.362101 67.152759,46.640057 56.723433,51.897495 L 48,56.294989 v 6.545908 6.545909 l -5.47876,5.306597 C 38.088682,78.986674 36.393461,80 33.643685,80 31.774347,80 29.800177,79.4375 29.25664,78.75 Z M 38,59.115297 C 38,51.174862 38.758679,50.197284 49,44.941503 59.20802,39.702813 65.347437,35.390634 67.28879,32.095899 70.104637,27.31703 71.977396,20.007536 71.989176,13.75 L 72,8 67.25,8.0108243 C 62.231923,8.0222595 55.154911,9.834292 50.277322,12.356591 45.699888,14.723674 40.858746,20.748574 36.100448,30 c -6.27879,12.207676 -6.013332,12 -15.338769,12 -8.873086,0 -9.837627,1.205069 -3.107568,3.882504 4.498412,1.789613 15.203344,12.944935 17.315418,18.043932 C 36.86192,68.495071 38,66.688269 38,59.115297 Z M 49.198089,35.327186 C 44.761434,33.140678 42.645658,28.836068 43.272807,23.272021 44.809396,9.6394409 62.406991,8.5968106 66.853008,21.874931 c 1.647404,4.920004 -1.440723,11.637032 -6.279599,13.658843 -4.483161,1.873185 -7.257477,1.8228 -11.37532,-0.206588 z m 8.361218,-9.423147 c 0.372538,-0.602779 -0.02832,-1.801623 -0.890794,-2.664098 -1.262436,-1.262436 -1.85875,-1.326948 -3.058884,-0.330925 -0.819911,0.680466 -1.244351,1.879309 -0.943199,2.664097 0.645669,1.682586 3.920612,1.904084 4.892877,0.330926 z"
       id="path402"
       inkscape:connector-curvature="0" />
    <path
       style="fill:#fee7d1"
       d="M 0,73.153638 C 0,64.492977 1.7298629,60.951729 7.4403369,57.92233 c 4.3373701,-2.30097 4.4727101,-2.310996 6.4946711,-0.481147 2.976315,2.693528 2.574193,4.212283 -1.855715,7.008761 -4.0382004,2.549205 -5.9973863,6.031963 -4.3307556,7.698593 1.460193,1.460193 5.5379836,-0.840253 7.4763916,-4.217734 2.043263,-3.560179 4.270406,-4.594527 6.287806,-2.920234 3.606222,2.992899 -0.02525,11.052146 -6.129273,13.60257 C 13.557888,79.375913 9.3497839,80 6.0321186,80 H 0 Z M 30.214482,78.75 C 29.647758,78.0625 28.498541,74.867174 27.660667,71.649276 25.609041,63.769905 18.082053,54.890156 12.400088,53.646045 10.255039,53.176369 6.5875,52.126651 4.25,51.313337 -1.8489951,49.191242 -1.6422593,45.958068 5.0614364,38.623157 L 10.122873,33.085139 17.260665,32.79257 24.398458,32.5 29.759463,23 c 2.948553,-5.225 6.5714,-10.777646 8.050771,-12.339214 C 44.671894,3.4178819 55.007677,0 70.04879,0 H 80 v 10.450779 c 0,12.291057 -1.305867,19.495166 -4.561051,25.162069 -3.290581,5.728525 -7.581274,9.213097 -18.774448,15.247169 L 47,56.070005 v 6.6584 6.658401 l -5.47876,5.306597 C 35.990628,80.050223 32.360033,81.352795 30.214482,78.75 Z M 39,58.963858 C 39,50.996261 38.887048,51.123128 52.369821,43.946911 57.798223,41.05764 63.704311,37.229022 65.494463,35.43887 69.639828,31.293506 71.988394,24.562595 72.713274,14.75 L 73.285786,7 H 69.037237 C 63.250738,7 53.366795,9.6451456 48.417131,12.518363 43.808146,15.193821 42.067862,17.538538 34.699786,31 L 29.5,40.5 21.5,41 c -11.342615,0.708913 -14.0532884,2.867842 -6.111571,4.867589 3.536789,0.890574 5.768533,2.582822 11.5,8.72002 C 30.799793,58.77586 34,62.577728 34,63.036206 c 0,0.458477 0.483617,2.10039 1.074704,3.648694 1.036555,2.71517 1.1253,2.746194 2.5,0.87397 C 38.471143,66.337999 39,63.148811 39,58.963858 Z M 48.513679,33.8321 c -8.105393,-6.375703 -5.480786,-18.142956 4.537443,-20.343328 4.384948,-0.963096 10.032,2.15789 12.298314,6.796975 2.327394,4.764115 1.601192,7.963625 -2.808381,12.373198 -4.124427,4.124427 -9.684302,4.589417 -14.027376,1.173155 z M 57.5,25 c 0,-1.832728 -0.601738,-2.585447 -2.254471,-2.820137 -2.457106,-0.348911 -3.852657,1.795603 -2.856989,4.390274 0.361403,0.941801 1.50471,1.442025 2.856989,1.25 C 56.898262,27.585447 57.5,26.832728 57.5,25 Z"
       id="path400"
       inkscape:connector-curvature="0" />
    <path
       style="fill:#fed6af"
       d="M 0.07308826,73.25 C 0.1598255,65.239461 1.8695536,61.796178 7.2901976,58.715205 10.203214,57.059512 11.476102,56.81013 12.790198,57.637654 15.866295,59.574762 15.30795,61.78051 11.063222,64.46009 7.7913824,66.525511 7,67.606947 7,70.012545 c 0,4.666168 3.927594,4.074351 8.378882,-1.262545 2.988328,-3.582871 3.825446,-4.076204 5.332935,-3.142817 2.625573,1.625668 2.639466,3.572175 0.05313,7.443179 C 17.626312,77.74799 12.767132,79.99655 5.75,79.998446 L 0,80 Z M 30.238624,77.75 C 29.633989,76.5125 28.601102,73.25 27.94332,70.5 26.210811,63.256883 17.997856,54.23025 11.917175,52.886105 0.78776215,50.425929 0,50.061789 0,47.377438 0,45.676956 1.715901,43.034083 5.1690234,39.415982 10.282643,34.058051 10.40125,34 16.234765,34 c 3.243195,0 6.771154,-0.467984 7.83991,-1.039965 1.068755,-0.57198 3.761342,-4.656087 5.983527,-9.075793 C 34.567527,14.91564 40.615362,7.7430183 45.955052,5.0308691 52.012535,1.9541366 61.772097,0 71.080767,0 H 80 V 9.919233 C 80,20.515991 78.041611,30.466552 74.9654,35.5 c -3.136834,5.132641 -8.11207,9.143045 -17.927075,14.450535 -5.203922,2.814035 -9.809531,5.66386 -10.234687,6.332946 -0.425157,0.669085 -0.779903,3.931891 -0.788325,7.250679 -0.0151,5.951634 -0.08754,6.105495 -5.296758,11.25 -5.715336,5.644341 -8.751424,6.503559 -10.479931,2.96584 z m 7.189947,-9.321429 C 38.547818,67.309325 39,64.908029 39,60.083559 39,51.984132 38.973939,52.014365 52.046884,44.947761 57.246098,42.137316 63.190395,38.205189 65.256434,36.2097 70.197662,31.437203 72.853168,24.128644 73.213426,14.310241 L 73.5,6.5 68,6.7159627 c -7.056868,0.2770946 -13.277872,1.9217606 -19.262922,5.0925983 -5.2212,2.766155 -9.005661,7.75304 -15.103653,19.902485 -1.990634,3.966075 -4.492921,7.678575 -5.560638,8.25 C 27.00507,40.532471 23.372316,41 20,41 c -6.057209,0 -10,1.185695 -10,3.007249 0,0.515285 2.3625,1.626447 5.25,2.469249 4.482415,1.308325 6.166386,2.583412 11.51774,8.721126 3.447257,3.953817 6.780986,8.901823 7.408288,10.995567 C 34.803329,68.286936 35.438203,70 35.586859,70 c 0.148656,0 0.977427,-0.707143 1.841712,-1.571429 z M 50.320985,34.386706 c -3.181992,-1.569222 -6.324274,-6.562174 -6.317247,-10.037835 0.0061,-3.015929 3.790587,-8.319384 6.746722,-9.454626 1.512247,-0.580748 4.276568,-0.812352 6.142936,-0.514675 10.23762,1.632847 12.181611,15.509768 2.796612,19.963241 -4.276922,2.029532 -5.332615,2.034478 -9.369023,0.04389 z m 7.096626,-6.702803 C 60.981294,25.078074 56.986972,19.258927 53.25,21.612298 c -2.385108,1.50203 -2.677612,3.817233 -0.72852,5.766324 1.963628,1.963629 2.575989,2.00181 4.896131,0.305281 z"
       id="path398"
       inkscape:connector-curvature="0" />
    <path
       style="fill:#fec791"
       d="M 0.07308826,73.75 C 0.12026025,69.716179 0.76756068,66.436234 1.8985847,64.5 3.8532076,61.153823 10.578688,56.901097 12.655531,57.698057 c 2.541215,0.975155 1.415344,4.327577 -2.162268,6.438419 C 5.3058966,67.197097 4.3073962,74 9.0455383,74 c 1.8799547,0 4.7864067,-2.459446 8.7911007,-7.439049 1.045306,-1.299777 1.644694,-1.406369 2.75,-0.489047 1.87325,1.55466 1.782514,3.480942 -0.336639,7.1467 C 18.031535,77.056152 11.375423,80 4.9170946,80 H 0 Z M 30.038544,76 c -0.571199,-2.2 -1.476063,-5.689236 -2.010809,-7.753858 -0.646141,-2.494714 -2.91027,-5.664723 -6.75,-9.450681 C 16.606837,54.189974 14.542153,52.893141 10.5,52.02594 3.1762402,50.454705 -0.00409432,48.966869 0.03182828,47.12868 0.04933383,46.232906 2.2584476,43.025 4.94097,40 L 9.8182834,34.5 17.659142,34 25.5,33.5 30.24376,24.54421 C 39.843933,6.4199512 48.377244,1.255705 70.313619,0.29446546 L 80.127239,-0.13556178 79.706261,10.682219 C 78.826105,33.299402 74.855546,39.901588 56.119917,49.901243 L 46,55.302486 v 5.898417 C 46,68.164971 44.623847,71.185917 39.144576,76.25 33.739032,81.245943 31.383791,81.181281 30.038544,76 Z m 8.404752,-8.222506 C 39.440725,66.353465 40,63.355361 40,59.432481 c 0,-7.356523 0.131614,-7.50266 13.046884,-14.486596 5.199214,-2.811476 10.885704,-6.483733 12.636645,-8.160571 4.88526,-4.678505 7.510717,-11.865639 8.100971,-22.176238 l 0.508981,-8.8909249 -7.39674,0.5447072 C 50.330932,7.4827897 43.122341,12.295345 35.472028,27.242432 28.865063,40.15104 29.042091,40 20.519326,40 c -6.332086,0 -7.442008,0.288797 -9.490583,2.469405 l -2.3198856,2.469404 2.3955716,0.903193 c 1.317564,0.496756 3.858253,1.221319 5.645975,1.61014 3.813921,0.829508 15.80449,13.843208 16.872363,18.312046 1.203217,5.035224 2.364251,5.520133 4.820529,2.013306 z M 50.356999,34.008419 c -5.031771,-2.030571 -7.059261,-10.133087 -3.726306,-14.891546 0.89688,-1.280477 3.14688,-2.961644 5,-3.735926 C 58.119453,12.669769 65,17.774341 65,25.299429 c 0,7.290426 -7.340193,11.656038 -14.643001,8.70899 z M 57.8,27.8 c 1.773001,-1.773001 1.456728,-5.595104 -0.55,-6.64665 -0.996666,-0.522263 -2.718572,-0.551281 -4,-0.06741 C 49.387823,22.544316 50.81534,29 55,29 c 0.88,0 2.14,-0.54 2.8,-1.2 z"
       id="path396"
       inkscape:connector-curvature="0" />
    <path
       style="fill:#febe81"
       d="M 0,74.08104 C 0,70.383401 0.62588957,67.071529 1.6677528,65.256187 3.6559234,61.792 9.4753873,57.752321 11.825617,58.204933 14.614894,58.742099 13.7096,61.721576 10,64.213353 7.2100658,66.08738 6.4370344,67.318597 6.1896347,70.282169 5.8934334,73.830332 6.0189335,74 8.9396347,74 11.924997,74 13.222825,73.034845 16.895796,68.083241 18.777816,65.546053 22,65.695976 22,68.320732 c 0,1.854337 -4.122635,7.818425 -6,8.680013 -0.825,0.378622 -2.506394,1.208345 -3.736431,1.843829 C 11.033532,79.480058 7.7710317,80 5.0135688,80 H 0 Z M 31.200245,78.25 C 30.721678,77.2875 29.752158,73.988301 29.045757,70.918447 28.018239,66.453098 26.635358,64.089646 22.130695,59.100061 17.508304,53.980075 15.694173,52.688315 12,51.886455 -2.2667497,48.789701 -2.5899081,48.200571 5.491838,40.021831 l 5.413202,-5.47817 7.501493,-0.378808 7.501493,-0.378808 4.616677,-8.938738 C 33.063875,19.931002 36.521288,14.336941 38.207842,12.416062 44.73402,4.9831564 55.771117,0.86293949 70.815725,0.24333706 L 80.131449,-0.14032502 79.706008,10.179837 C 78.805671,32.019781 74.589025,39.55903 58.5,48.095601 44.738377,55.397292 45,55.111315 45,62.852254 v 6.716066 l -5.281445,5.21584 c -5.671513,5.601062 -7.156281,6.205169 -8.51831,3.46584 z m 7.243051,-9.472506 C 39.476721,67.302073 40,64.299652 40,59.845588 40,52.0788 39.750668,52.347131 53.87785,44.91028 68.421486,37.254198 72.951841,30.703022 74.43501,15.183338 75.347072,5.6396367 74.610554,4.6734745 67.084951,5.5415593 59.334553,6.4355744 52.50117,8.5162512 47.294738,11.567423 c -4.734645,2.774687 -8.555829,8.020438 -14.609433,20.05594 -1.970596,3.91785 -4.317747,7.40535 -5.215891,7.75 C 26.57127,39.718014 22.871163,40 19.246953,40 c -4.728248,0 -7.106007,0.467458 -8.418212,1.654988 -2.960932,2.679606 -2.1419075,4.070403 3.143727,5.338407 4.159889,0.997942 5.977046,2.266774 11.119842,7.764439 5.491523,5.870455 7.059833,8.333239 9.228667,14.492166 0.832455,2.363955 2.249337,2.20155 4.122319,-0.472506 z M 51.388117,34.057775 C 48.386725,32.791292 45,28.156477 45,25.315481 45,15.652832 58.14699,11.273002 63.043958,19.304261 65.758595,23.756393 65.510409,27.408248 62.25,30.986706 59.298231,34.226415 54.801088,35.49793 51.388117,34.057775 Z M 58,28 c 1.1,-1.1 2,-2.527067 2,-3.171259 C 60,23.088795 56.9128,20 55.173753,20 53.230182,20 50,22.906296 50,24.654988 50,26.220412 53.535621,30 55,30 c 0.55,0 1.9,-0.9 3,-2 z"
       id="path394"
       inkscape:connector-curvature="0" />
    <path
       style="fill:#feb56d"
       d="m 0,74.486431 c 0,-7.501086 3.3145533,-13.131442 9.1544118,-15.55039 2.2597952,-0.936038 3.2330292,-0.9486 4.1283442,-0.05329 0.895315,0.895315 0.163634,2.049134 -3.103703,4.894365 -3.0563956,2.66154 -4.3327578,4.578135 -4.4771215,6.722879 -0.1865475,2.771448 0.075022,3.023124 3.4333831,3.303528 3.6724924,0.306632 4.9119514,-0.631322 8.5169924,-6.445196 1.076904,-1.73673 1.265507,-1.749187 2.882256,-0.190361 1.637723,1.579048 1.608767,1.864048 -0.543139,5.345905 C 17.272376,76.913388 10.850908,80 4.4170946,80 H 0 Z M 31.247589,77.25 C 30.700311,75.7375 29.532383,72.022458 28.652194,68.994351 27.379293,64.615203 25.870048,62.347665 21.275925,57.912016 16.001288,52.819326 14.827384,52.183193 7.75,50.582381 2.3638627,49.364106 0,48.378002 0,47.349404 0,46.535389 2.4068733,43.423767 5.3486073,40.434689 10.658333,35.039508 10.741338,35 16.76682,35 c 3.338283,0 6.77481,-0.270612 7.636726,-0.601361 0.861917,-0.330748 3.710677,-4.666848 6.330577,-9.635778 2.6199,-4.968929 6.43293,-10.754697 8.473401,-12.857263 C 46.203238,4.696992 57.582973,0.63295145 71,0.55156207 L 79.5,0.5 79.405026,10 C 79.292541,21.251608 77.998249,27.395232 74.31441,34.163656 71.136712,40.002136 67.428369,43.087369 56.5,48.984728 45.029217,55.174794 45,55.209677 45,62.714848 45,69.053204 44.946567,69.176219 39.854943,74.559861 37.025161,77.551937 34.154755,80 33.476263,80 32.797771,80 31.794868,78.7625 31.247589,77.25 Z m 6.92367,-7.904988 C 39.60004,68.051984 40,66.208587 40,60.916441 c 0,-4.765606 0.456487,-7.230071 1.539885,-8.313469 0.846937,-0.846937 6.304203,-4.136948 12.127258,-7.311136 16.197798,-8.829533 20.335635,-15.146834 20.666616,-31.55205 L 74.5,5.5 68.355084,5.5906172 c -3.379703,0.049839 -8.329703,0.6830762 -11,1.4071928 C 46.017592,10.07225 41.444449,14.182626 34.916766,27.165544 29.06884,38.796491 27.611387,40 19.374195,40 c -4.846648,0 -7.225871,0.460781 -8.545454,1.654988 -3.0015898,2.716401 -2.1276563,4.116198 3.611501,5.784616 4.730448,1.375179 6.278599,2.542777 11.865846,8.949089 4.324114,4.958007 6.647824,8.552098 7.105071,10.989437 0.746078,3.976938 1.976997,4.485556 4.7601,1.966882 z M 49.299035,32.496899 c -2.845707,-1.993211 -4.632353,-7.493963 -3.443812,-10.602857 1.336808,-3.496717 4.417192,-5.901712 8.383467,-6.54535 2.905165,-0.471444 4.047948,-0.06439 6.851301,2.440407 C 67.923241,23.894607 64.230864,34 55.166743,34 c -2.046952,0 -4.68742,-0.676396 -5.867708,-1.503101 z m 9.164499,-4.456604 C 60.665221,25.607458 59.848127,21.40396 56.997676,20.499262 51.84114,18.862641 48.01371,24.147693 51.536466,28.040295 52.511896,29.118133 54.070486,30 55,30 c 0.929514,0 2.488104,-0.881867 3.463534,-1.959705 z"
       id="path392"
       inkscape:connector-curvature="0" />
    <path
       style="fill:#fea650"
       d="M 0,75.187829 C 0,69.070238 3.1152078,62.508904 6.9649127,60.518144 13.277372,57.253845 15.390081,59.935837 9.5076635,63.746055 6.0613871,65.978312 4.5032757,69.182202 5.1729271,72.659422 5.9527533,76.708733 13.446503,74.899872 16.365965,69.957617 18.34021,66.615485 21,66.021806 21,68.923275 21,73.9821 11.254477,80 3.0621026,80 0.07018221,80 0,79.889707 0,75.187829 Z M 30.974528,75.75 C 30.36812,73.4125 29.486232,70.034543 29.014777,68.243429 28.543322,66.452315 25.649838,62.130494 22.584812,58.639382 17.099071,52.391039 16.88592,52.264657 8.9367114,50.547129 4.4952822,49.587501 0.64306119,48.233407 0.3762203,47.538031 0.10937941,46.842655 2.5030677,43.746195 5.6955275,40.657008 L 11.5,35.040306 l 6.595012,-0.02015 c 7.770342,-0.02374 7.772422,-0.02551 14.006392,-11.895292 C 37.584306,12.685152 43.590801,6.9972078 52.203853,4.0885348 55.605323,2.9398407 59.399408,2 60.635155,2 61.870901,2 63.160081,1.55 63.5,1 63.839919,0.45 67.418331,0 71.452028,0 77.217181,0 78.915866,0.33836591 79.393011,1.5817875 80.394293,4.1910868 80.077364,17.834152 79,18.5 c -0.55,0.339919 -1,1.699596 -1,3.021504 0,1.321909 -0.958993,5.007851 -2.131097,8.190983 C 73.033725,37.412106 66.923654,43.206673 55.160572,49.351508 44.882902,54.720389 44.013507,55.883786 43.978428,64.3151 43.958221,69.172169 43.637597,69.831947 38.907507,74.75 36.130364,77.6375 33.457416,80 32.967622,80 32.477829,80 31.580936,78.0875 30.974528,75.75 Z m 8.036432,-7 c 1.414657,-2.320205 1.982633,-5.034479 1.985302,-9.487455 0.0037,-6.129559 0.06925,-6.27881 3.790731,-8.62808 C 46.86984,49.319622 51.426764,46.803764 54.913491,45.04367 67.333965,38.773834 72.968898,31.342432 74.471793,19.25 74.762307,16.9125 75.225154,13.232296 75.500341,11.07177 76.17837,5.7484977 74.384067,4.0372559 68.770922,4.6538663 60.04109,5.6128484 50.896071,8.29596 46.553477,11.172375 41.71865,14.374831 39.919004,16.863618 32.967654,29.960626 L 28.435308,38.5 20.241362,39 c -6.658306,0.406294 -8.599252,0.906069 -10.3565993,2.666723 -2.8804338,2.885854 -1.866223,4.988201 2.7956093,5.794986 5.411576,0.936539 7.287518,2.221662 13.544465,9.278702 3.780799,4.264259 5.892492,7.668463 6.668432,10.75 1.365775,5.423986 3.331803,5.828777 6.117691,1.259589 z M 49.076725,31.411106 C 46.595729,29.323485 46,28.056127 46,24.865652 46,19.37877 49.429971,16 55,16 c 5.570029,0 9,3.37877 9,8.865652 0,3.190475 -0.595729,4.457833 -3.076725,6.545454 C 59.190191,32.8694 56.603429,34 55,34 53.396571,34 50.809809,32.8694 49.076725,31.411106 Z M 58.8,28.8 c 1.546918,-1.546918 1.546918,-6.053082 0,-7.6 -1.546918,-1.546918 -6.053082,-1.546918 -7.6,0 -1.798677,1.798677 -1.46024,6.549044 0.55,7.719901 2.381686,1.387205 5.597588,1.332511 7.05,-0.119901 z"
       id="path390"
       inkscape:connector-curvature="0" />
    <path
       style="fill:#fe942d"
       d="M 1.25,79.327717 C -0.68958739,78.560597 -0.12271729,71.98895 2.3090254,67.050582 4.6836243,62.22826 10.387825,57.987825 12.141348,59.741348 12.814751,60.414751 11.97705,61.469099 9.6027225,62.936514 7.216249,64.411436 5.7424457,66.273253 5.0895324,68.63791 3.7069581,73.645182 4.5524474,75 9.0598657,75 c 3.2796633,0 4.3156413,-0.584545 7.0365253,-3.970321 1.75485,-2.183676 3.576055,-3.732118 4.047123,-3.440983 2.947336,1.821554 -3.765382,8.836166 -9.892691,10.3376 C 7.6378703,78.566573 4.825,79.25506 4,79.456268 3.175,79.657475 1.9375,79.599627 1.25,79.327717 Z M 31.570445,76.293515 C 30.147344,68.217454 27.80811,63.392865 22.555356,57.700209 17.457371,52.175284 16.810344,51.806457 8.9027856,49.917788 4.3372575,48.827342 0.46395504,47.797288 0.29544685,47.62878 0.12693866,47.460272 2.456501,44.774861 5.4722522,41.661201 L 10.955436,36 h 6.867294 c 8.039804,0 7.982597,0.04669 14.090647,-11.5 2.327544,-4.4 5.886711,-9.745413 7.90926,-11.878695 C 44.057696,8.15438 53.369263,3.5680173 60.226692,2.5713963 62.826372,2.193573 65.215429,1.4604448 65.535709,0.94222242 66.512657,-0.63851325 76.959038,-0.18381943 78.656166,1.5133093 80.452805,3.3099483 80.054884,11.964328 77.734903,21.549851 74.33197,35.609835 70.247145,40.539186 55.388884,48.515849 50.499998,51.140449 45.9375,53.984091 45.25,54.835054 44.5625,55.686017 44,59.06527 44,62.344506 c 0,5.81419 -0.130281,6.101225 -5.246378,11.558871 -2.885508,3.078142 -5.531753,5.728705 -5.880546,5.890138 -0.348792,0.161434 -0.934976,-1.413566 -1.302631,-3.5 z M 41,60.967896 C 41,53.0682 40.946365,53.130741 53.5,46.392329 70.514441,37.259492 74.834455,30.764456 75.267757,13.665028 L 75.5,4.5 68.590988,4.6645596 C 50.948168,5.0847782 42.168242,10.754172 33.999454,27.001086 28.31632,38.304279 27.45747,39 19.187091,39 12.964717,39 12.1318,39.252993 9.5778525,41.91874 8.039871,43.524046 7.0434718,45.261322 7.363632,45.779352 c 0.3201603,0.51803 3.258247,1.692759 6.529081,2.610508 5.368645,1.506365 6.529016,2.354993 11.93218,8.726498 3.913478,4.614841 6.222916,8.324949 6.671942,10.718461 0.927588,4.944473 2.450174,5.590132 5.743045,2.435361 C 40.712215,67.901533 41,66.931627 41,60.967896 Z m 8.825006,-29.006019 c -2.763044,-1.612149 -4.20051,-7.406319 -2.643185,-10.654211 3.540655,-7.384239 14.580555,-6.219017 16.324923,1.723037 0.705585,3.212511 -1.535115,8.38247 -4.051546,9.348116 -2.411648,0.925436 -7.723675,0.69545 -9.630192,-0.416942 z M 59,29 c 2.402613,-2.402613 2.538472,-4.786212 0.443296,-7.777494 C 57.499732,18.447679 53.653676,18.346324 51,21 48.419177,23.580823 48.469659,25.806575 51.174314,28.685549 53.844923,31.528282 56.370246,31.629754 59,29 Z"
       id="path388"
       inkscape:connector-curvature="0" />
    <path
       style="fill:#fe8918"
       d="m 31.418768,72.522874 c -1.667312,-7.031478 -2.526728,-8.691106 -7.249708,-14 C 17.713335,51.266279 16.527992,50.59624 7.25,48.959036 3.2625,48.255398 0,47.301763 0,46.839847 0,46.377931 0.62817047,46 1.3959344,46 2.1636983,46 4.5809061,43.880476 6.7675072,41.289946 l 3.9756388,-4.710055 7.378427,-0.40129 c 4.058135,-0.22071 7.97985,-0.888589 8.714923,-1.484176 0.735074,-0.595587 3.129392,-4.648777 5.320708,-9.007089 C 39.19122,11.697372 46.751604,5.672984 60,3.5011856 62.475,3.0954609 65.715153,2.1417159 67.20034,1.3817522 70.956528,-0.54027263 78,-0.46315213 78,1.5 78,2.325 78.45,3 79,3 c 1.3135,0 1.297825,9.302175 -0.01789,10.617893 -0.559841,0.559841 -1.519415,3.912341 -2.132387,7.45 -1.349322,7.787369 -4.527279,14.34725 -9.010428,18.599162 C 66.002682,41.408935 60.225,45.135706 55,47.948769 c -5.225,2.813062 -10.0625,5.861396 -10.75,6.774075 -0.6875,0.912678 -1.250245,4.385907 -1.250543,7.718286 -5.2e-4,5.792636 -0.191608,6.256605 -4.348723,10.55887 -2.391498,2.475 -4.571433,5.175 -4.8443,6 -0.272866,0.825 -1.347316,-2.089706 -2.387666,-6.477126 z m 7.992338,-2.599599 C 41.601967,67.319585 42,65.869464 42,60.491369 42,53.134472 41.842943,53.29952 55.875139,45.91028 70.350947,38.287437 74.983586,30.997957 76.616958,13.272923 77.520478,3.4681083 76.72067,2.5509182 68.031523,3.4274719 49.4665,5.3002957 41.447063,10.766854 32.717142,27.5 L 27.5,37.5 20.003805,37.798779 c -6.518079,0.259793 -7.855517,0.64303 -10.2500002,2.937091 -4.4065721,4.221764 -3.6797102,5.99831 3.2414652,7.922568 5.351765,1.487923 6.624548,2.390795 11.85799,8.411683 4.065501,4.677214 6.217216,8.152686 7.019128,11.337364 1.406943,5.587478 3.721094,6.052778 7.538718,1.51579 z m 11.904266,-37.89241 c -4.744063,-1.993608 -5.73646,-8.700686 -1.860827,-12.57632 6.914162,-6.914161 18.0329,2.919023 11.795455,10.431659 -2.027611,2.442138 -6.783562,3.46884 -9.934628,2.144661 z m 10.113086,-5.601843 c 1.988323,-7.922108 -9.595276,-11.380856 -12.502894,-3.733241 -1.161572,3.055168 0.896888,6.924172 4.382733,8.237621 3.033324,1.14294 7.296284,-1.22179 8.120161,-4.50438 z M 0,76.128888 c 0,-1.185814 0.43864853,-2.93742 0.9747745,-3.892457 0.536126,-0.955037 1.625676,-3.394043 2.4212223,-5.420013 0.8989433,-2.289286 2.6469918,-4.304408 4.6181558,-5.323737 4.4019954,-2.27636 4.8545244,-1.202765 0.5608452,1.330568 -3.6800853,2.171303 -4.9518857,5.003679 -4.4030796,9.805922 0.2901762,2.539142 0.7719959,2.907323 4.170266,3.18669 3.3856468,0.27833 4.3065198,-0.172257 7.7499998,-3.792107 4.223877,-4.440216 4.859834,-4.443976 2.242545,-0.01326 C 16.23284,75.56871 13.322722,76.892413 5.8952719,77.668735 0.33392983,78.25001 0,78.162788 0,76.128888 Z"
       id="path386"
       inkscape:connector-curvature="0" />
  </g>
</svg>
