<?xml version="1.0" encoding="UTF-8" standalone="no"?>
<!-- Created with Inkscape (http://www.inkscape.org/) -->

<svg
   xmlns:dc="http://purl.org/dc/elements/1.1/"
   xmlns:cc="http://creativecommons.org/ns#"
   xmlns:rdf="http://www.w3.org/1999/02/22-rdf-syntax-ns#"
   xmlns:svg="http://www.w3.org/2000/svg"
   xmlns="http://www.w3.org/2000/svg"
   xmlns:sodipodi="http://sodipodi.sourceforge.net/DTD/sodipodi-0.dtd"
   xmlns:inkscape="http://www.inkscape.org/namespaces/inkscape"
   version="1.1"
   id="svg404"
   width="40"
   height="40.271946"
   viewBox="0 0 40 40.271946"
   sodipodi:docname="wrench-icon.svg"
   inkscape:version="0.92.1 r15371">
  <metadata
     id="metadata410">
    <rdf:RDF>
      <cc:Work
         rdf:about="">
        <dc:format>image/svg+xml</dc:format>
        <dc:type
           rdf:resource="http://purl.org/dc/dcmitype/StillImage" />
        <dc:title></dc:title>
      </cc:Work>
    </rdf:RDF>
  </metadata>
  <defs
     id="defs408" />
  <sodipodi:namedview
     pagecolor="#ffffff"
     bordercolor="#666666"
     borderopacity="1"
     objecttolerance="10"
     gridtolerance="10"
     guidetolerance="10"
     inkscape:pageopacity="0"
     inkscape:pageshadow="2"
     inkscape:window-width="640"
     inkscape:window-height="480"
     id="namedview406"
     showgrid="false"
     inkscape:zoom="2.8780488"
     inkscape:cx="40"
     inkscape:cy="41"
     inkscape:window-x="0"
     inkscape:window-y="0"
     inkscape:window-maximized="0"
     inkscape:current-layer="svg404" />
  <g
     id="g414"
     transform="matrix(0.49764238,0,0,0.49764238,0.0994741,0.01333712)">
    <path
       style="fill:#fee7d0"
       d="M 7.3551339,80.007729 C 6.1754576,79.531706 4.0379576,77.605254 2.6051339,75.726725 0.44425974,72.893673 0,71.25161 0,66.097688 V 59.884159 L 14.51387,44.985763 29.027739,30.087367 28.391168,24.671141 C 27.537555,17.408223 29.8716,10.492653 34.769178,5.7736601 39.438976,1.2741417 44.027545,0.01264454 55.75,0.00557693 64.729273,1.6322467e-4 65,0.06711931 65,2.2932807 65,3.5900925 62.827416,7.1560498 60,10.5 c -2.75,3.252391 -5,6.176721 -5,6.498511 0,0.32179 1.923077,2.47243 4.273505,4.779201 l 4.273504,4.194127 6.355961,-5.543227 c 3.798172,-3.312502 6.94041,-5.318954 7.808283,-4.98592 C 78.51003,15.749211 79.351771,16 79.581787,16 80.484226,16 79.926043,33.731774 78.904983,37.5 77.525903,42.589503 71.844947,48.511896 66.316889,50.623081 62.135053,52.220139 55.804324,52.165017 51.730699,50.49608 50.345321,49.9285 46.996776,52.848729 36.299018,63.953875 28.78471,71.754341 21.390742,78.780819 19.867979,79.568271 16.822476,81.143162 10.701675,81.358128 7.3551339,80.007729 Z M 30.646805,57.039226 C 39.188666,48.2608 47.015042,40.812613 48.038752,40.487701 c 1.02371,-0.324913 3.211434,0.107435 4.861609,0.960774 6.300933,3.258339 14.767956,0.877611 17.522366,-4.926877 2.768496,-5.834173 2.057668,-7.150575 -1.957523,-3.62519 C 66.521066,34.603384 64.187494,36 63.279489,36 60.812748,36 45,19.790996 45,17.26244 c 0,-1.159944 1.180994,-3.512521 2.624432,-5.22795 1.443437,-1.715428 2.375615,-3.3677762 2.071506,-3.6718854 -1.143674,-1.1436744 -6.645334,0.8595185 -9.098725,3.3129094 -3.327592,3.327592 -4.171203,8.263361 -2.560165,14.978919 l 1.30213,5.427887 -16.169589,16.277365 C 14.276315,57.312235 7,65.25659 7,66.013806 7,67.827417 11.994125,73 13.745165,73 c 0.754041,0 8.359779,-7.182348 16.90164,-15.960774 z"
       id="path430"
       inkscape:connector-curvature="0" />
    <path
       style="fill:#fed6b0"
       d="M 10.676484,80.18196 C 9.026825,79.989744 6.2205584,78.220558 3.9264836,75.926484 0.28956064,72.289561 0,71.585626 0,66.381036 V 60.762072 L 15.027121,45.537463 30.054241,30.312854 29.404419,24.783885 C 28.139346,14.020088 33.506506,4.8609937 43,1.5829352 c 6.04131,-2.08603566 20.562515,-2.16538503 21.348686,-0.1166573 0.32545,0.8481092 -1.210409,3.64341 -3.643011,6.6303709 -7.858968,9.6499242 -7.682494,8.4027232 -1.993874,14.0913432 l 5.048419,5.048418 6.178651,-5.680213 c 8.20953,-7.547258 9.472101,-7.233114 9.864464,2.454408 0.532321,13.1431 -3.790748,21.588802 -13.021216,25.438714 C 62.354551,51.296001 56.095445,51.456241 52.493577,49.81512 49.985076,48.67217 49.337574,49.181334 34.196524,64.203034 18.404642,79.870435 16.881825,80.904999 10.676484,80.18196 Z M 31.480318,58.006136 C 40.291143,49.209511 47.795812,41.751199 48.15736,41.43211 c 0.361548,-0.31909 2.846716,0.197427 5.522595,1.147816 6.245213,2.218103 11.238489,1.347784 15.243122,-2.656849 2.79061,-2.79061 5.068529,-9.264805 3.730547,-10.602786 -0.322549,-0.322549 -2.192224,0.823434 -4.154834,2.546628 -1.962611,1.723195 -4.340224,3.134961 -5.283586,3.13726 C 60.935359,35.009733 46,19.343453 46,16.946481 c 0,-1.032289 1.35,-3.414454 3,-5.2937 C 52.650816,7.4947313 52.700566,7 49.467881,7 45.427372,7 40.564639,9.4893062 38.525358,12.601642 36.484931,15.715729 35.977761,23.140438 37.42072,28.773009 38.24535,31.991939 37.992704,32.31571 22.129602,48.368846 13.258321,57.346401 6,65.470663 6,66.42276 6,68.702047 11.3512,74 13.653395,74 14.65331,74 22.616909,66.855261 31.480318,58.006136 Z"
       id="path428"
       inkscape:connector-curvature="0" />
    <path
       style="fill:#fec792"
       d="M 4.328583,75.482441 C 0.53185457,71.519956 0,70.410912 0,66.456313 0,61.996117 0.16461364,61.777701 15.34265,46.099009 L 30.6853,30.250275 30.222664,24.671488 C 29.524389,16.251215 30.629827,12.356904 35.092592,7.5153761 40.040836,2.1471648 46.139252,0 56.437897,0 c 9.395708,0 9.668439,1.0032384 2.587496,9.5180508 -2.736033,3.2900722 -4.986033,6.6757552 -5,7.5237412 C 53.997712,18.722472 61.9466,27 63.588234,27 c 0.556892,0 3.536975,-2.25 6.622406,-5 3.085431,-2.75 6.550259,-5 7.699617,-5 1.928835,0 2.088622,0.558241 2.07519,7.25 -0.01765,8.793233 -2.058972,15.135397 -6.303829,19.585319 -5.25896,5.513016 -8.052671,6.493576 -16.793848,5.894442 L 49.175815,49.201172 33.764556,64.600586 18.353297,80 H 13.505232 C 9.0620299,80 8.2956841,79.622737 4.328583,75.482441 Z M 31.511722,57.94517 C 48.73893,40.646253 47.274302,41.496319 56,43.732238 63.371953,45.621265 70.993047,41.283982 73.000752,34.056846 74.942638,27.066632 73.32258,25.966311 68.5,31 66.9192,32.65 64.663045,34 63.486323,34 61.328393,34 46,19.281517 46,17.209451 46,16.648328 47.575,14.304075 49.5,12 c 4.204498,-5.032457 4.33604,-6 0.815724,-6 -4.06754,0 -10.646831,3.5976438 -12.587569,6.88305 -1.939125,3.282678 -2.306353,11.465974 -0.703702,15.681267 0.978588,2.57388 0.30702,3.420545 -15,18.910937 C 10.473694,59.164387 6,64.34759 6,66.041118 6,68.989318 10.689558,74 13.448813,74 c 1.349456,0 7.663233,-5.611865 18.062909,-16.05483 z"
       id="path426"
       inkscape:connector-curvature="0" />
    <path
       style="fill:#febe80"
       d="M 4.915063,75.25 C 0.63566772,71.088045 0.02910921,69.988773 0.01551497,66.370501 5.6525214e-4,62.391452 0.56377266,61.658368 15.474365,46.248902 l 15.474365,-15.9921 -0.595853,-6.380846 c -0.497585,-5.328524 -0.227334,-7.164835 1.638695,-11.134641 2.507448,-5.3343646 6.834012,-9.454854 10.8355,-10.3194033 1.47011,-0.3176276 3.585997,-1.0153232 4.70197,-1.55043485 2.696718,-1.29308188 15.705705,-0.69217826 16.180893,0.74741835 0.20313,0.6153924 -2.136606,4.1760933 -5.199414,7.9126687 -3.062808,3.7365751 -5.443142,7.1214041 -5.289631,7.5218421 0.378631,0.987671 8.36775,9.574326 9.639144,10.36009 0.559433,0.345749 3.801557,-1.855845 7.204722,-4.892431 C 73.46792,19.484479 77.095553,17 78.126163,17 79.773262,17 80,17.818473 80,23.764117 c 0,16.256689 -8.822005,26.988504 -21.377127,26.004901 -2.81758,-0.220736 -5.925248,-0.76292 -6.905929,-1.204852 -1.428371,-0.643679 -5.027981,2.403 -18.095837,15.316161 C 18.373055,78.947875 17.063263,80 13.553711,80 10.426666,80 8.9827477,79.206055 4.915063,75.25 Z M 32.05704,58.413997 48.747276,41.827993 l 4.898958,1.739956 c 8.360454,2.96937 15.793473,0.102119 18.878948,-7.282462 C 73.990238,32.779115 74.540288,27 73.408964,27 73.083895,27 70.977895,28.575 68.728966,30.5 66.480036,32.425 64.029706,34 63.283788,34 61.542125,34 47.065141,18.951929 47.028036,17.102992 47.012616,16.334637 48.575,13.783904 50.5,11.434695 52.425,9.0854862 54,6.9016399 54,6.5817032 54,5.2899457 46.277469,6.1165794 43.071085,7.751554 37.842236,10.417808 35.671445,14.050008 35.623428,20.213086 35.600773,23.120889 35.922882,26.85 36.339226,28.5 37.057934,31.348293 36.284677,32.345645 21.048107,48.222585 12.221648,57.420006 5,65.677506 5,66.572585 5,68.763573 11.351859,75 13.583402,75 14.564272,75 22.87741,67.536298 32.05704,58.413997 Z"
       id="path424"
       inkscape:connector-curvature="0" />
    <path
       style="fill:#feb56e"
       d="M 8.5,78.135945 C 3.3599928,74.955002 0,70.375504 0,66.55088 0,63.450522 1.6105005,61.385319 15.25,46.995258 L 30.5,30.906072 30.5061,23.203036 C 30.5111,16.864217 30.947086,14.73857 32.96801,11.200592 36.952975,4.2241323 45.848769,0.03993704 56.75,0.01455327 62.417122,0.00135725 63,0.19388451 63,2.078955 63,3.2223803 60.75,6.7447907 58,9.9065337 55.25,13.068277 53,16.312163 53,17.115171 53,18.610842 61.934864,28 63.358166,28 c 0.434208,0 3.73137,-2.495794 7.327026,-5.546208 3.595657,-3.050415 7.049939,-5.377363 7.676183,-5.170996 1.83272,0.603938 1.91302,11.139175 0.125302,16.439455 -2.796389,8.290819 -5.868976,11.971657 -12.358801,14.805355 -4.036446,1.762462 -8.654744,1.881891 -13.08264,0.338319 L 49.792026,47.731849 34.646013,62.758565 C 15.969903,81.287572 14.751012,82.004444 8.5,78.135945 Z M 32.034557,58.465488 48.590556,41.930977 52.263159,43.465488 C 62.703725,47.827835 72.412772,42.259104 74.43253,30.75 74.999658,27.518361 74.831999,27 73.219627,27 72.190578,27 70.257687,28.16632 68.924314,29.591822 63.858172,35.00801 63.468466,34.918798 54.874875,26.375609 50.543694,22.06983 47,17.932897 47,17.182424 47,16.431952 48.575,13.977895 50.5,11.728966 55.322747,6.0946708 55.147254,4.6393027 49.75,5.5091718 41.203374,6.8866213 36.124809,11.713082 35.273352,19.267184 c -0.278699,2.472612 0.04031,6.153196 0.708912,8.179077 L 37.197903,31.12968 21.098951,47.491086 C 9.8077475,58.966365 5,64.532233 5,66.128638 5,68.991244 10.713501,75 13.435446,75 c 1.307571,0 8.003431,-5.952584 18.599111,-16.534512 z"
       id="path422"
       inkscape:connector-curvature="0" />
    <path
       style="fill:#fea651"
       d="M 11.154549,79.199671 C 9.8645503,78.999587 6.8270503,76.767303 4.4045486,74.23904 -3.0356637,66.474004 -2.7805037,65.861527 15.864377,46.731246 L 31.728754,30.453857 31.315403,22.976928 C 30.958434,16.519867 31.217713,14.958426 33.216254,11.529571 35.712776,7.2463386 40.833017,3.2640052 44.940597,2.4108121 46.348269,2.118422 48.281394,1.4563751 49.236431,0.93959683 50.191468,0.42281857 53.678968,0 56.986431,0 64.513682,0 64.806226,1.4228279 58.737626,8.5171758 50.848504,17.73976 51.005876,16.430481 57.050748,22.551386 60.01026,25.548124 63.004788,28 63.705253,28 64.405718,28 67.463355,25.75 70.5,23 c 3.036645,-2.75 6.416409,-5 7.510587,-5 4.937174,0 0.730686,19.95072 -5.474584,25.965105 -4.558374,4.41815 -11.351053,6.179139 -18.433315,4.778801 L 48.823169,47.700015 33.161585,63.227476 C 24.547713,71.76758 16.6,78.936855 15.5,79.159199 c -1.1,0.222343 -3.055453,0.240556 -4.345451,0.04047 z M 32.548383,58.921735 48.733814,42.84347 l 5.296353,1.572848 c 6.488109,1.926761 11.90418,0.803181 16.033576,-3.326215 C 73.943478,37.210368 76.772021,26 73.871201,26 73.250361,26 70.999065,27.575 68.86832,29.5 66.737575,31.425 64.143211,33 63.103066,33 62.00657,33 58.177822,29.634369 53.99141,24.990471 46.045569,16.176318 46.187475,17.363609 52.225459,10.215204 56.257053,5.4421754 55.866113,4.6188398 49.903486,5.3250248 37.83033,6.7549115 33.193774,13.793607 35.440187,27.281568 l 0.796368,4.781567 -15.618277,15.817082 C 3.2783501,65.440863 2.5930949,66.746941 7.9230769,72.076923 13.303452,77.457298 14.570848,76.780237 32.548383,58.921735 Z"
       id="path420"
       inkscape:connector-curvature="0" />
    <path
       style="fill:#fe942c"
       d="M 8.4922819,77.158301 C 2.7178783,73.636846 -2.3713612,64.220605 0.75,62.833333 1.1625,62.65 8.4012602,55.43998 16.836134,46.811067 L 32.172267,31.122134 31.483222,24.687928 C 30.921198,19.439826 31.153777,17.440788 32.744884,13.843827 35.162064,8.3793913 39.785429,4.3818697 45.295469,2.9921565 47.607961,2.4089119 50.533674,1.4970766 51.797053,0.9658559 54.251857,-0.0663305 63,-0.37877136 63,0.56574145 63,1.9395719 60.356526,5.8774681 56.342753,10.482824 53.954239,13.223378 52,16.16375 52,17.016984 52,18.690168 61.927646,29 63.538805,29 c 0.536753,0 3.813793,-2.475 7.28231,-5.5 3.468518,-3.025 6.952706,-5.5 7.74264,-5.5 3.97128,0 -0.896746,19.591822 -6.2691,25.230577 -5.22631,5.485469 -12.321372,6.884324 -21.214207,4.182572 C 48.927261,46.758985 47.152635,48.247448 34.960437,60.93377 16.756052,79.875941 14.857225,81.03989 8.4922819,77.158301 Z M 32.493784,59.460973 48.568945,42.921947 l 3.683409,1.539026 c 8.105643,3.386755 16.549417,0.869392 20.455664,-6.098495 2.446486,-4.363996 3.466798,-12.407558 1.655403,-13.05026 -0.625118,-0.221799 -3.239987,1.417216 -5.810819,3.642256 C 65.981769,31.179513 63.531779,33 63.10818,33 61.939039,33 48,18.368589 48,17.141376 48,16.551895 49.284007,14.591434 50.85335,12.784796 54.798379,8.2432511 56.264807,5.281694 54.966006,4.4789906 53.379101,3.4982295 45.959559,5.0067349 41.665772,7.18313 35.120239,10.500868 32.136963,21.191361 35.498591,29.283056 36.081351,30.685802 32.801172,34.545474 20.119673,47.378893 1.9604892,65.755618 1.5802326,66.513566 7.5333333,72.466667 13.593649,78.526982 14.341003,78.137572 32.493784,59.460973 Z"
       id="path418"
       inkscape:connector-curvature="0" />
    <path
       style="fill:#fe8917"
       d="M 4.8754388,72.968209 C 2.1939475,70.200725 0,67.27464 0,66.465798 0,65.656957 7.4313716,57.381014 16.514159,48.074813 L 33.028318,31.154449 32.439302,24.327224 C 31.930779,18.432982 32.167992,16.88615 34.175143,13.008071 36.507453,8.5017421 41.901988,3.9808939 44.897883,4.021962 45.779047,4.0340411 44.596797,4.9078774 42.27066,5.9638204 35.084152,9.2261139 31.593072,18.061353 33.983223,26.937697 L 35.13988,31.23319 19.06994,47.490205 C 10.231473,56.431563 3,64.53848 3,65.505576 3,70.575072 10.964584,77.711361 15.26195,76.492317 16.492877,76.143136 24.571108,68.577019 33.213573,59.678722 47.74111,44.721144 49.082501,43.596018 50.985434,44.772127 c 4.079867,2.521564 10.513029,2.649075 15.356522,0.304381 4.915776,-2.379687 7.334276,-5.396339 9.264279,-11.555556 1.506783,-4.808594 1.817783,-2.587688 0.36837,2.630591 -1.292794,4.654405 -7.700293,10.518768 -12.470821,11.413725 -1.98855,0.373054 -5.277899,0.347512 -7.309665,-0.05676 C 48.334043,45.944544 48.378009,45.916991 32.415668,62.40963 18.168124,77.130504 17.115331,78 13.538731,78 10.302734,78 9.0405696,77.266913 4.8754388,72.968209 Z M 55.67903,25.112084 C 52.005564,21.32373 49,17.577171 49,16.786398 49,15.995624 50.167756,14.257687 51.595014,12.924314 56.792165,8.0690317 57.88037,3 53.725537,3 51.657487,3 51.654344,2.9723143 53.55887,1.5318034 56.136181,-0.41757629 62,-0.48395826 62,1.4362447 62,2.2261793 59.525,5.7103673 56.5,9.1788848 53.475,12.647402 51,16.178964 51,17.0268 51,19.360832 61.224978,29 63.700858,29 c 1.175882,0 4.599826,-2.25 7.608764,-5 3.008938,-2.75 6.195202,-5 7.080587,-5 1.928285,0 2.1529,3.713899 0.450579,7.450087 L 77.681576,28.99428 76.590788,26.826109 C 74.860216,23.386232 73.399083,23.590948 68.688156,27.933329 66.261656,30.169998 63.844726,32 63.3172,32 62.789673,32 59.352497,28.900438 55.67903,25.112084 Z M 47.8125,3.316886 c 0.721875,-0.2888706 1.584375,-0.2533443 1.916667,0.078947 0.332291,0.3322917 -0.258334,0.5686404 -1.3125,0.5252193 -1.164943,-0.047984 -1.4019,-0.28494 -0.604167,-0.6041663 z"
       id="path416"
       inkscape:connector-curvature="0" />
  </g>
</svg>
