<?xml version="1.0" encoding="UTF-8"?><!DOCTYPE svg PUBLIC "-//W3C//DTD SVG 1.1//EN" "http://www.w3.org/Graphics/SVG/1.1/DTD/svg11.dtd"><svg xmlns="http://www.w3.org/2000/svg"><symbol id="burger-icon" viewBox="0 0 40 40.242615"><path d="M17.659 39.93c-1.107-.468-14.79-7.98-16.639-9.135-.602-.376-.953-1.16-.953-2.13 0-1.27.343-1.727 1.998-2.657 2.162-1.215 3.34-1.105 4.742.443.703.777.76 1.124.282 1.7-.707.852-.712.849 6.9 4.97 2.853 1.544 5.476 2.808 5.829 2.808.352 0 3.584-1.594 7.182-3.542 5.217-2.825 6.43-3.677 5.988-4.21-.772-.93.203-2.63 1.728-3.013 2.022-.508 5.272 1.668 5.272 3.53 0 1.536-.733 2.054-9.85 6.942-8.174 4.384-10.43 5.16-12.48 4.293zm-7.592-12.818c-4.792-2.637-9.002-5.084-9.356-5.438-1.576-1.577-.164-4.294 2.727-5.249 1.346-.444 1.888-.395 2.886.259 1.269.83 1.602 1.988.73 2.528-.275.17-.5.487-.5.705 0 .57 12.53 7.24 13.451 7.16.424-.036 3.466-1.527 6.76-3.313 5.776-3.132 5.987-3.304 5.987-4.885 0-1.29.29-1.778 1.358-2.295 1.162-.561 1.592-.535 2.97.177.887.459 1.904 1.126 2.26 1.482.99.99.745 2.873-.49 3.764-2.362 1.704-18.225 9.93-19.122 9.915-.521-.008-4.869-2.173-9.66-4.81zm.429-9.049C.474 12.542.067 12.256.067 10.745c0-1.648.976-2.307 9.961-6.715C16.21.997 18.744 0 20.271 0c1.514 0 3.989.96 9.75 3.778 4.247 2.078 8.227 4.25 8.844 4.828 1.446 1.351 1.462 3.418.034 4.31-3.33 2.08-18.388 10.035-18.953 10.013-.367-.015-4.62-2.204-9.45-4.866zm15.707-3.065c8.557-4.572 8.445-3.826 1.156-7.682-3.455-1.828-6.634-3.324-7.063-3.324-1.304 0-13.902 6.529-13.432 6.96.91.835 12.445 7.005 13.102 7.009.377.002 3.184-1.331 6.237-2.963z" fill="#fee7d1"/><path d="M12.792 36.886C.625 30.173.067 29.814.067 28.696c0-1.603 3.665-3.556 5.287-2.816 1.286.585 1.54 1.526.652 2.414-.59.59-.145.884 8.472 5.582 2.574 1.404 4.995 2.552 5.38 2.552.512 0 12.826-6.375 14.058-7.279.09-.066-.07-.56-.358-1.099-.413-.77-.32-1.162.438-1.848 1.133-1.026 2.712-.765 4.664.77 1.549 1.219 1.667 2.018.455 3.08-1.93 1.692-18 9.869-19.387 9.866-.83-.002-3.79-1.296-6.936-3.032zm-2.236-9.967c-4.524-2.475-8.734-4.834-9.357-5.242-1.785-1.17-1.456-2.847.807-4.12 2.277-1.28 3.018-1.343 4.328-.371.848.628.886.854.304 1.805-.366.598-.478 1.266-.25 1.485 1.025.983 12.575 6.97 13.447 6.97.814 0 13.115-6.27 13.961-7.115.15-.15-.017-.739-.373-1.307-.557-.894-.511-1.136.34-1.78 1.306-.987 1.636-.956 3.98.368 2.317 1.31 2.733 2.75 1.12 3.887-2.573 1.813-18.207 9.938-19.106 9.93-.537-.006-4.678-2.035-9.201-4.51zm-.883-9.809C1.511 12.61.067 11.64.067 10.664c0-.993 1.293-1.797 9.5-5.907C14.792 2.141 19.6 0 20.251 0c1.256 0 17.867 8.039 19.044 9.216 1.397 1.397.782 2.502-2.426 4.352-6.768 3.904-16.278 8.886-16.916 8.863-.37-.013-4.997-2.408-10.28-5.321zm17.84-2.338c3.705-2.019 6.648-3.866 6.54-4.106-.302-.672-12.966-7.176-13.926-7.152-1.12.028-13.741 6.572-13.915 7.215-.152.564 12.658 7.717 13.816 7.714.411 0 3.78-1.653 7.485-3.671z" fill="#fed6af"/><path d="M9.434 34.788c-10.288-5.61-11.013-6.373-7.603-7.998.97-.463 2.177-.841 2.683-.841 1.16 0 2.31 1.271 1.565 1.731-1.297.802-.101 1.846 5.797 5.057 3.476 1.893 6.712 3.635 7.19 3.872.646.319 2.596-.509 7.528-3.194 8.094-4.405 8.087-4.4 7.351-5.287-.748-.902.272-2.18 1.738-2.177 1.62.002 4.4 1.885 4.213 2.854-.187.97-18.583 11.112-20.118 11.092-.549-.007-5.204-2.306-10.344-5.11zm7.35-4.767c-1.372-.774-5.695-3.163-9.606-5.31-7.767-4.263-8.306-4.928-5.43-6.706 2.906-1.796 6.048-.89 4.284 1.235-.379.457-.451.944-.18 1.215.802.802 13.31 7.49 14.006 7.49.936 0 14.641-7.497 14.641-8.009 0-.228-.225-.554-.499-.724-.92-.569-.51-1.725.721-2.034 1.384-.347 5.267 1.563 5.267 2.591 0 .342-.617 1.049-1.372 1.57-1.937 1.335-18.33 10.1-18.881 10.094-.25-.002-1.579-.638-2.951-1.412zM9.548 16.773c-7.013-3.889-9.231-5.35-9.231-6.08 0-.748 1.998-1.961 8.982-5.453 4.94-2.47 9.057-4.66 9.148-4.866.462-1.039 3.435.05 12.069 4.423 7.87 3.986 9.47 4.977 9.462 5.863-.008.87-1.763 2.013-9.486 6.182-5.213 2.813-9.98 5.1-10.595 5.082-.614-.018-5.271-2.336-10.349-5.151zm17.813-1.648c3.926-2.111 7.136-4.076 7.134-4.367-.002-.29-3.182-2.189-7.066-4.218l-7.063-3.69-7.405 3.677C8.89 8.549 5.56 10.434 5.564 10.716c.007.417 13.683 8.225 14.437 8.242.122.002 3.434-1.722 7.36-3.833z" fill="#fec791"/><path d="M9.673 34.602C4.39 31.682.067 28.995.067 28.63c0-.941 3.842-2.796 5.019-2.423.99.314 1.375 1.738.47 1.738-.274 0-.499.297-.499.66 0 .712 13.533 8.322 14.8 8.322.727 0 13.158-6.52 14.538-7.625.448-.358.486-.676.125-1.037-.818-.818-.61-1.721.476-2.066.988-.314 4.992 1.534 4.992 2.303 0 .205-.617.803-1.372 1.328-1.893 1.317-18.321 10.092-18.882 10.086-.25-.003-4.778-2.394-10.06-5.314zm-.234-8.807C3.805 22.727.092 20.412.083 19.96c-.015-.707 3.618-2.998 4.75-2.995.288 0 .79.268 1.116.593.456.457.402.802-.238 1.51-.51.562-.651 1.095-.368 1.378 1.02 1.018 13.505 7.593 14.447 7.608 1.001.015 15.208-7.442 15.208-7.983 0-.155-.355-.674-.79-1.154-.725-.802-.706-.918.243-1.426.818-.437 1.44-.344 3.001.453 2.482 1.266 2.877 1.904 1.713 2.77-2.16 1.604-18.6 10.222-19.452 10.195-.513-.016-5.136-2.318-10.274-5.114zm.234-9.223C4.39 13.648.067 10.981.067 10.645.067 10.032 18.447.398 20.221.08c.518-.093 1.082.02 1.253.25.171.23 4.35 2.462 9.288 4.96 4.995 2.528 9.043 4.883 9.127 5.308.106.537-2.756 2.342-9.609 6.061-5.367 2.913-10.038 5.281-10.38 5.262-.341-.018-4.944-2.426-10.227-5.35zm18.257-1.465c3.888-2.121 7.068-4.095 7.068-4.387 0-.68-13.532-7.733-14.78-7.705-1.27.03-14.844 7.085-14.839 7.714.005.62 13.58 8.234 14.682 8.234.441 0 3.982-1.736 7.87-3.856z" fill="#feb56f"/><path d="M9.44 34.278C4.3 31.48.09 28.953.082 28.66c-.02-.653 3.148-2.213 4.492-2.213 1.075 0 1.358 1.287.357 1.624-1.227.413.641 1.77 7.762 5.641l7.077 3.848 2.998-1.569a670.66 670.66 0 0 0 7.645-4.096c4.503-2.45 4.637-2.574 4.326-3.989-.279-1.27-.177-1.46.783-1.46 1.41 0 4.67 1.994 4.127 2.523-1.037 1.01-19.077 10.449-19.92 10.423-.522-.017-5.153-2.318-10.29-5.115zm.358-8.597C4.583 22.82.256 20.194.183 19.846c-.17-.801 4.11-2.59 5.197-2.172.735.282.726.405-.093 1.31-.555.613-.726 1.178-.443 1.46.878.873 14.232 8 14.99 8 .418 0 3.995-1.74 7.949-3.868 7.042-3.788 7.987-4.642 6.633-5.996-1.23-1.23 1.176-1.312 3.428-.117 1.782.945 2.072 1.281 1.545 1.79-.836.809-19.078 10.695-19.665 10.658-.245-.016-4.711-2.37-9.926-5.23zm-.18-9.406c-5.04-2.801-9.195-5.307-9.233-5.57-.037-.261 3.974-2.53 8.914-5.041C14.239 3.152 18.552.85 18.884.549c.706-.643 2.483-.732 2.724-.137.091.227 4.262 2.529 9.267 5.115 5.005 2.587 9.095 4.927 9.088 5.202-.018.731-18.855 10.737-20.114 10.683-.588-.024-5.192-2.336-10.232-5.137zm17.973-.694c6.396-3.442 7.906-4.418 7.906-5.113 0-.214-3.424-2.126-7.61-4.25l-7.61-3.863-7.643 3.832C7.024 9 5.034 10.232 5.15 10.821c.198 1.005 14.345 8.719 15.385 8.389.42-.134 3.595-1.766 7.057-3.63z" fill="#fea651"/><path d="M12.542 35.61c-3.705-2.072-8.027-4.442-9.606-5.267C1.358 29.517.068 28.696.07 28.518c.003-.455 4.479-2.247 4.803-1.923.146.147.03.706-.257 1.244-.407.76-.332 1.143.334 1.717 1.487 1.28 13.925 7.87 14.856 7.87.862 0 14.448-7.073 15.43-8.032.316-.309.275-.814-.114-1.439-.92-1.471.086-1.676 2.41-.49 1.989 1.015 2.03 1.084 1.064 1.761-1.676 1.174-18.432 10.198-18.89 10.173-.234-.013-3.457-1.718-7.163-3.79zM9.84 25.4C4.922 22.683.712 20.46.483 20.46c-1.082 0-.197-.906 1.862-1.906 2.244-1.09 3.873-1.051 2.756.066-1.415 1.415-.458 2.28 7.003 6.33 6.91 3.753 7.657 4.048 8.858 3.504 3.786-1.712 14.143-7.692 14.376-8.3.15-.388.01-1.02-.308-1.403-1.055-1.27.379-1.399 2.475-.22 1.59.893 1.873 1.248 1.37 1.721-1.23 1.157-18.343 10.187-19.213 10.138-.485-.028-4.905-2.273-9.823-4.99zm1.311-8.668c-11.772-6.45-11.095-5.86-8.487-7.38 1.18-.687 5.4-2.874 9.38-4.86 3.98-1.986 7.311-3.81 7.402-4.051.21-.556 1.58-.583 1.58-.031 0 .225 4.247 2.527 9.436 5.115 5.19 2.588 9.456 4.85 9.481 5.028.026.179-1.245 1-2.823 1.825-1.578.825-6.013 3.205-9.856 5.288-3.842 2.083-7.098 3.788-7.236 3.79-.137 0-4.132-2.125-8.877-4.724zm16.834-1.05c7.24-3.936 8.185-4.623 7.61-5.533-.456-.719-14.333-7.654-15.316-7.654-.42 0-4.142 1.693-8.274 3.762-5.387 2.698-7.467 3.982-7.354 4.538.193.949 13.685 8.583 15.255 8.632.619.019 4.255-1.666 8.08-3.746z" fill="#fe942d"/><path d="M10.297 33.933c-4.94-2.727-9.32-4.971-9.73-4.986-.568-.02 3.122-2 3.727-2 .07 0 .027.519-.095 1.153-.121.635.1 1.418.49 1.743 1.483 1.23 14.423 8.081 15.236 8.066.468-.009 4.22-1.868 8.336-4.13 6.946-3.818 7.479-4.213 7.392-5.474-.108-1.56-.126-1.55 1.58-.773.706.322 1.205.827 1.11 1.123-.188.576-17.73 10.256-18.565 10.244-.274-.004-4.54-2.239-9.481-4.966zm6.487-5.171C10.634 25.16 1.229 20.255.691 20.37c-.343.073-.624-.101-.624-.388 0-.286.404-.52.898-.52s1.112-.2 1.373-.443c.26-.244 1.033-.613 1.717-.82 1.1-.335 1.167-.286.583.418-.364.438-.587 1.17-.495 1.627.191.957 14.103 8.787 15.651 8.81 1.067.014 15.18-7.393 15.833-8.31.208-.294.258-1.048.11-1.677-.264-1.122-.242-1.129 1.242-.362.832.43 1.512.962 1.512 1.181 0 .59-17.687 10.056-18.778 10.05-.513-.002-1.831-.53-2.929-1.174zm-6.203-12.703c-4.785-2.657-8.772-5.06-8.861-5.34-.09-.28 3.881-2.52 8.823-4.979S19.53.984 19.53.635c0-.837.843-.813 1.347.039.22.37 4.653 2.84 9.853 5.489 5.2 2.648 9.168 4.815 8.819 4.815-.35 0-4.788 2.246-9.863 4.99-5.075 2.745-9.493 4.975-9.817 4.956-.324-.02-4.503-2.209-9.287-4.865zm16.379.582c7.637-4.03 9.036-4.975 9.036-6.105 0-.622-2.145-1.98-7.437-4.707-4.091-2.108-7.8-3.833-8.24-3.833-1.312 0-15.777 7.445-16.1 8.286-.163.426.015 1.07.396 1.433 1.029.98 14.552 8.237 15.359 8.242.382.002 3.526-1.49 6.986-3.316z" fill="#fe8917"/></symbol><symbol id="gear-icon" viewBox="0 0 40 40.5"><path d="M16 39.5c-.55-.55-1-1.432-1-1.96 0-2.702-1.368-3.216-4.113-1.542-2.362 1.44-3.586 1.248-5.866-.92-2.372-2.257-2.57-3.717-.903-6.68 1.098-1.954 1.1-2.002.154-2.694-.53-.387-1.32-.704-1.756-.704C.936 25 0 23.14 0 20c0-3.175.938-5 2.57-5 2.563 0 2.985-1.065 1.432-3.613-1.45-2.379-1.274-4.028.65-6.067 2.21-2.343 3.852-2.711 6.12-1.373C13.635 5.636 15 5.191 15 2.57 15 .903 16.82 0 20.178 0c3.47 0 4.412.59 5.02 3.146.46 1.936 1.546 2.182 3.87.876 2.517-1.415 3.785-1.11 6.118 1.473C37.28 7.815 37.359 8.337 36 11c-1.527 2.994-1.168 4 1.43 4 1.632 0 2.57 1.825 2.57 5 0 3.14-.936 5-2.516 5-.436 0-1.223.314-1.748.698-.934.683-.928.758.264 3.302l1.219 2.602-1.03 1.778c-.568.977-1.832 2.241-2.81 2.808l-1.777 1.03L29 36c-2.544-1.192-2.619-1.198-3.302-.264-.384.525-.698 1.362-.698 1.86 0 1.863-1.792 2.904-5 2.904-2.333 0-3.222-.222-4-1zm4.67-4.375c.13-.481.363-1.449.518-2.15.207-.941.938-1.561 2.801-2.374 3.096-1.352 3.235-1.353 5.353-.044 2.2 1.36 2.554.952 1.148-1.323-.991-1.604-1.057-2.04-.557-3.708.76-2.535 2.396-4.524 3.728-4.534.6-.004 1.394-.2 1.767-.437.852-.54.11-1.072-2.134-1.53-1.198-.243-1.79-.815-2.64-2.544-1.378-2.808-1.39-3.307-.124-5.667.566-1.057.915-2.035.776-2.175-.14-.139-1.023.223-1.964.804-.94.581-1.98 1.057-2.308 1.057-1.302 0-5.514-2.157-5.721-2.93a68.712 68.712 0 0 1-.531-2.215c-.398-1.785-1.113-1.338-1.771 1.106-.444 1.646-.867 2.069-2.982 2.979-3.073 1.322-3.756 1.322-5.606.005-.814-.58-1.606-.929-1.759-.776-.153.154.205 1.278.797 2.5 1.04 2.15 1.048 2.29.228 4.401C8.576 18.434 8.097 19 6.784 19c-.6 0-1.53.32-2.063.71-.926.677-.903.723.53 1.029 2.42.517 2.934.94 4.186 3.433l1.186 2.364-1.287 2.482C7.928 31.732 8.3 32.122 10.75 30.5c1.886-1.249 2.184-1.243 5.264.102 2.263.988 2.579 1.323 3.064 3.25.567 2.252 1.191 2.75 1.592 1.273zm-3.146-6.777c-2.458-.784-5.255-3.769-5.895-6.29C10.273 16.714 14.408 11.5 20 11.5c3.99 0 7.141 2.454 8.467 6.595 1.211 3.783-1.597 8.674-5.803 10.107-2.644.9-2.761.904-5.14.146zm5.066-5.86c1.219-1.22 1.448-1.777 1.18-2.876-.483-1.977-1.98-3.279-3.77-3.279s-3.287 1.302-3.77 3.28c-.268 1.098-.039 1.655 1.18 2.874C18.242 23.32 19.408 24 20 24c.592 0 1.758-.68 2.59-1.513z" fill="#fef3e8"/><path d="M16.876 39.96c-.48-.28-1.124-1.503-1.43-2.718-.685-2.721-1.715-3.135-4.398-1.767-2.751 1.404-3.689 1.297-5.762-.659-2.11-1.99-2.283-3.545-.706-6.35.893-1.59.969-2.055.438-2.694-.352-.425-.86-.772-1.129-.772-.268 0-1.253-.363-2.188-.807C.035 23.403 0 23.323 0 20.271c0-3.509.62-4.42 3.409-5.013 2.157-.458 2.388-1.216 1.126-3.69-1.48-2.901-1.324-4.245.732-6.301 2.023-2.023 3.286-2.188 5.665-.738 2.378 1.45 3.675 1.123 4.304-1.083C16.072.509 16.774 0 19.984 0c3.132 0 4.17.674 4.776 3.104.593 2.374 1.505 2.71 4.033 1.481 2.967-1.441 3.366-1.39 5.706.723 2.295 2.074 2.413 2.818.927 5.876-1.296 2.668-1.027 3.608 1.165 4.074C39.32 15.838 40 16.785 40 20c0 3.115-.678 4.155-3.104 4.76-2.374.593-2.71 1.505-1.481 4.033 1.477 3.04 1.384 3.712-.811 5.856-2.19 2.139-3.398 2.287-6.077.746-2.297-1.323-3.31-.815-3.822 1.917-.176.942-.795 2.044-1.374 2.45-1.199.84-5.146.961-6.455.199zm4.41-5.75c.415-1.484 1.023-2.231 2.506-3.077 2.461-1.404 3.285-1.406 5.7-.016 1.068.614 2.121.937 2.341.716.22-.22-.102-1.273-.716-2.34-1.39-2.416-1.388-3.24.016-5.701.846-1.483 1.593-2.091 3.077-2.505 2.776-.774 2.803-1.643.073-2.33-2.034-.513-2.4-.828-3.286-2.83-1.255-2.838-1.247-3.245.12-5.62.614-1.067.95-2.108.744-2.312-.205-.205-1.244.117-2.31.716-2.423 1.362-3.305 1.355-5.76-.044-1.482-.846-2.09-1.593-2.504-3.077-.748-2.683-1.552-2.746-2.4-.19-1.219 3.668-5.714 5.49-8.387 3.4-2.572-2.012-3.176-1.022-1.41 2.312l1.092 2.063-1.053 2.437c-.945 2.189-1.29 2.506-3.37 3.1-2.734.782-2.723 1.61.031 2.366 1.591.437 2.193.973 3.199 2.85l1.239 2.313-1.114 2.293C8.5 29.995 8 31.246 8 31.514c0 .779 1.149.543 2.5-.514 1.634-1.278 3.3-1.24 5.711.133 1.479.842 2.137 1.646 2.675 3.267.849 2.556 1.653 2.493 2.4-.19zm-4.666-6.765c-5.31-2.629-6.503-9.029-2.439-13.093 3.405-3.404 8.233-3.404 11.638 0 4.146 4.147 2.882 10.742-2.53 13.2-2.65 1.203-4.067 1.18-6.669-.107zm6.223-4.532C25.345 20.562 23.469 16 20 16c-3.414 0-5.262 4.342-2.913 6.843 1.434 1.526 4.17 1.56 5.756.07z" fill="#fee7d1"/><path d="M17.868 40.178c-.938-.27-2.368-2.62-2.368-3.892 0-.42-.557-1.128-1.237-1.573-1.16-.76-1.343-.745-2.934.238-2.247 1.389-3.926 1.324-5.764-.223-2.104-1.77-2.317-2.865-1.048-5.405 1.445-2.892 1.172-3.925-1.245-4.717C.319 23.64 0 23.194 0 20.046c0-2.563.13-2.905 1.375-3.62.756-.435 1.994-.937 2.75-1.118 1.696-.403 1.788-1.639.346-4.618-.956-1.975-.974-2.234-.253-3.628 1.599-3.092 4.175-3.828 7.09-2.026 2.048 1.266 3.568.907 4.009-.944.175-.738.674-1.96 1.109-2.717C17.134.141 17.494 0 19.924 0c2.15 0 2.901.222 3.642 1.077.514.592.934 1.467.934 1.944 0 .478.438 1.4.974 2.049l.975 1.18 2-1.125c2.74-1.542 4.064-1.426 5.953.524 1.854 1.913 1.98 3.14.603 5.842-1.168 2.289-.9 3.397.925 3.831.726.173 1.939.67 2.695 1.104C39.873 17.143 40 17.48 40 20.079c0 2.393-.183 2.992-1.111 3.643-.611.428-1.487.778-1.945.778-.458 0-1.335.406-1.948.903l-1.115.903 1.06 2.077c1.483 2.908 1.361 4.434-.494 6.166-1.83 1.71-3.27 1.817-5.96.444l-1.974-1.006-1.006 1.006c-.554.554-1.007 1.432-1.007 1.952 0 2.362-3.588 4.11-6.632 3.233zm3.163-4.208c.194-.396.552-1.395.797-2.22.292-.983 1.045-1.793 2.184-2.351 2.294-1.123 3.962-1.093 5.488.101 2.39 1.87 3.568.699 1.96-1.947-.528-.867-.96-2.19-.958-2.94.003-2.022 1.733-4.537 3.357-4.88 3.584-.755 3.863-2.175.607-3.095-1.837-.518-2.449-.99-3.125-2.408-1.099-2.304-1.062-3.843.138-5.816.71-1.166.834-1.787.451-2.248-.42-.507-.996-.39-2.804.574-2.143 1.14-2.38 1.168-4.058.466C22.681 8.21 21.5 7.071 21.5 5.768c0-.592-.337-1.514-.75-2.047-.742-.961-.758-.961-1.5 0-.412.533-.753 1.433-.758 2-.011 1.568-.566 2.147-3.158 3.293l-2.38 1.054-2.277-1.334c-3.023-1.772-3.933-1.075-2.3 1.763 1.346 2.339 1.396 3.396.272 5.754-.689 1.444-1.265 1.89-3.009 2.329-1.186.299-2.285.75-2.442 1.003-.443.719.808 1.917 2.002 1.917 1.723 0 3.223 1.378 3.877 3.56.55 1.835.494 2.229-.595 4.222-1.58 2.893-.878 3.854 1.665 2.281 1.958-1.21 3.202-1.32 5.204-.466 2.045.872 3.149 1.929 3.149 3.013 0 2.344 1.687 3.584 2.53 1.86zm-4.441-8.81c-.913-.45-2.263-1.61-3-2.577-1.823-2.392-1.879-6.571-.12-9.04 1.659-2.33 5.005-3.735 7.872-3.305 2.812.421 5.937 3.328 6.436 5.984 1.246 6.644-5.274 11.852-11.188 8.937zm6.448-4.122c1.965-1.965 1.965-4.111 0-6.076-.997-.998-1.962-1.462-3.038-1.462-2.151 0-4.5 2.349-4.5 4.5s2.349 4.5 4.5 4.5c1.076 0 2.041-.464 3.038-1.462z" fill="#fed6af"/><path d="M16.814 38.875c-.39-.619-.873-1.688-1.073-2.375-.796-2.737-2.397-3.218-4.991-1.5-2.047 1.356-2.92 1.259-4.983-.552-2.065-1.813-2.158-2.617-.657-5.705 1.205-2.482.91-3.831-.914-4.167-.52-.096-1.677-.516-2.571-.932C.093 22.93 0 22.734 0 20.254c0-2.92.365-3.413 3.273-4.42 2.821-.977 3.204-1.902 1.849-4.46-1.433-2.706-1.412-3.453.15-5.309 1.748-2.077 2.82-2.294 5.238-1.06 2.665 1.36 4.059 1.144 4.878-.755C17.118.24 17.094.26 20.074.102c2.742-.145 2.804-.118 3.608 1.576.45.948.818 2.038.818 2.423C24.5 5.067 25.524 6 26.585 6c.486 0 1.79-.472 2.896-1.048 1.988-1.037 2.03-1.038 3.635-.1.893.521 1.964 1.554 2.379 2.295.699 1.246.668 1.511-.415 3.554-1.434 2.705-1.27 3.846.676 4.687 4.008 1.734 3.984 1.707 4.142 4.686.145 2.742.118 2.804-1.576 3.608-.948.45-2.038.818-2.423.818-.934 0-1.899 1.013-1.899 1.994 0 .437.45 1.677 1 2.756 1.34 2.63 1.28 3.07-.7 5.05-1.959 1.959-2.91 2.087-5.187.698-2.808-1.712-4.12-1.236-4.833 1.752-.586 2.456-1.648 3.25-4.346 3.25-1.957 0-2.545-.212-3.12-1.125zm4.962-4.125c.44-1.588 1-2.248 2.719-3.207l2.165-1.206 2.153 1.142c2.086 1.106 3.687 1.114 3.687.017 0-.295-.46-1.438-1.023-2.541-.903-1.77-.949-2.212-.388-3.762.77-2.13 1.503-2.786 3.857-3.457 1.272-.363 1.85-.837 1.962-1.61.133-.928-.198-1.185-2.174-1.682-2.098-.528-2.43-.818-3.329-2.89l-.998-2.304 1.048-2c1.842-3.516 1.039-4.522-2.2-2.753-2.075 1.134-2.121 1.137-4.431.255-2.104-.804-2.4-1.12-3.004-3.197-.49-1.687-.951-2.347-1.72-2.462-.87-.13-1.172.257-1.748 2.233-.631 2.164-.922 2.48-3.099 3.374l-2.402.986-1.9-1.093c-3.56-2.049-4.485-1.155-2.592 2.502l1.214 2.345-.975 2.205c-.868 1.962-1.234 2.27-3.32 2.796-1.988.5-2.32.756-2.186 1.685.112.773.69 1.247 1.962 1.61 2.357.671 3.087 1.327 3.862 3.47.582 1.61.53 1.964-.58 3.907-1.947 3.406-.904 4.319 2.618 2.292l1.902-1.095 2.417 1.046c2.163.937 2.488 1.292 3.096 3.377.568 1.947.858 2.304 1.766 2.174.79-.114 1.238-.703 1.64-2.157zm-3.934-7.479c-3.524-1.249-5.343-3.76-5.34-7.371.006-7.52 9.994-10.21 14.03-3.78.803 1.279.983 2.25.838 4.51-.157 2.454-.43 3.134-1.837 4.586-.91.938-2.245 1.847-2.968 2.019-.723.172-1.652.403-2.065.513-.413.11-1.609-.105-2.658-.477zm3.884-2.979c2.014-.841 2.774-2.083 2.774-4.532 0-2.527-1.799-4.26-4.422-4.26-2.342 0-3.922 1.149-4.526 3.29-.617 2.191.493 4.561 2.556 5.457 2.03.883 1.626.878 3.618.045z" fill="#fec690"/><path d="M17.606 39.576c-.354-.225-1.031-1.49-1.504-2.811-1.117-3.123-2.185-3.517-5.368-1.982-2.388 1.15-2.493 1.158-3.963.3-.831-.486-1.83-1.451-2.22-2.146-.637-1.135-.594-1.49.421-3.525 1.739-3.48 1.539-3.834-3.472-6.124C.444 22.806.227 22.327.102 20.2c-.16-2.718-.016-2.866 4.523-4.64 1.687-.66 1.82-2.307.377-4.673-1.355-2.223-1.264-3.048.536-4.849 1.826-1.825 3.418-1.956 5.815-.474 2.117 1.308 3.94.726 4.451-1.422.183-.766.687-2.01 1.122-2.767C17.613.178 18.024 0 20.096 0c2.638 0 3.506.812 4.146 3.88.5 2.402 1.865 2.926 4.305 1.654 2.668-1.39 4.009-1.302 5.61.368 1.607 1.678 1.683 2.972.33 5.625-1.203 2.356-.738 3.776 1.402 4.285.749.178 1.98.68 2.736 1.114 1.19.684 1.375 1.103 1.375 3.12 0 2.593-.417 3.118-3.224 4.06-1.055.354-2.22 1.104-2.589 1.666-.579.88-.535 1.277.32 2.873 1.364 2.544 1.247 3.925-.474 5.573-1.576 1.51-2.683 1.552-5.92.225-2.099-.86-3.142-.254-4.007 2.327-.354 1.057-.887 2.217-1.186 2.576-.596.719-4.292.879-5.314.23zm4.284-4.711c.561-1.987.964-2.5 2.452-3.121 2.362-.987 3.65-.923 5.158.256 1.569 1.227 2.332 1.25 2.954.086.36-.673.233-1.337-.482-2.512-1.998-3.286-.75-6.738 2.754-7.62 3.524-.888 3.481-3.088-.073-3.755-1.222-.23-2.032-.796-2.698-1.888-1.212-1.989-1.203-3.365.04-5.8.91-1.785.927-2.018.197-2.747-.73-.73-.986-.687-3.024.508L26.94 9.577 24.6 8.414c-1.907-.95-2.4-1.474-2.667-2.844-.181-.924-.69-2.041-1.131-2.482-.704-.704-.89-.713-1.515-.07-.393.403-.906 1.52-1.14 2.482-.345 1.414-.88 1.976-2.782 2.926L13.01 9.6 10.7 8.248c-2.14-1.255-2.368-1.294-3.13-.533-.76.762-.738.964.305 2.777 1.373 2.387 1.413 3.779.17 5.819-.666 1.092-1.476 1.659-2.698 1.888-3.634.682-3.518 2.813.208 3.816 1.343.361 2.17.97 2.692 1.979 1.03 1.992.947 3.22-.372 5.514-1.05 1.826-1.07 2.01-.291 2.79.779.78.948.764 2.559-.232 2.056-1.27 3.511-1.312 5.829-.167 1.255.62 1.843 1.325 2.17 2.601.97 3.786 2.733 3.958 3.748.365zm-5.28-8.197c-4.9-2.414-5.422-9.597-.932-12.795 2.17-1.544 6.475-1.544 8.644 0 4.527 3.224 3.955 10.458-1.013 12.815-2.16 1.026-4.594 1.018-6.7-.02zM23.3 23.3c2.187-2.187 2.264-4.153.251-6.406-1.199-1.342-1.811-1.621-3.551-1.621-1.74 0-2.352.28-3.551 1.621-2.013 2.253-1.936 4.219.251 6.406 1.225 1.225 2.147 1.7 3.3 1.7s2.075-.475 3.3-1.7z" fill="#febe81"/><path d="M17.333 39.092c-.451-.5-.967-1.64-1.146-2.534-.184-.918-.855-1.973-1.543-2.424-1.135-.743-1.37-.723-3.444.284-3.024 1.47-3.842 1.372-5.635-.67-1.647-1.876-1.636-2.227.19-5.756.964-1.865.33-3.333-1.644-3.806-.749-.18-1.98-.638-2.736-1.019C.165 22.557 0 22.189 0 20.095c0-2.096.173-2.482 1.452-3.237.799-.472 1.919-.858 2.489-.858.57 0 1.393-.544 1.828-1.21.735-1.12.718-1.356-.238-3.23-1.443-2.827-1.32-4.228.507-5.766 1.878-1.58 2.526-1.603 5.05-.184 1.82 1.023 2.08 1.05 3.315.358.737-.414 1.42-1.195 1.518-1.735.098-.54.519-1.714.935-2.608C17.553.132 17.803 0 19.95 0c2.023 0 2.441.184 3.125 1.375.435.756.936 1.987 1.114 2.736.543 2.279 2.041 2.687 4.92 1.338 2.267-1.061 2.584-1.096 3.796-.416.727.408 1.655 1.336 2.063 2.063.68 1.213.645 1.53-.436 3.838-1.12 2.393-1.138 2.579-.343 3.791.46.701 1.301 1.275 1.871 1.275.57 0 1.69.386 2.489.858 1.28.755 1.452 1.14 1.452 3.237 0 2.094-.165 2.462-1.375 3.072-.756.381-2.001.843-2.767 1.027-2.16.518-2.671 2.232-1.405 4.714 1.385 2.714 1.322 3.641-.355 5.248-1.665 1.595-3.3 1.7-5.348.344-.825-.546-1.781-.995-2.125-.997C25.598 33.498 24 35.416 24 36.656c0 2.88-4.708 4.6-6.667 2.436zm4.143-2.717c.25-.619.576-1.699.724-2.4.175-.832.889-1.57 2.051-2.125 2.318-1.105 2.911-1.074 5.257.275 1.877 1.08 1.99 1.09 2.849.232.857-.858.848-.972-.232-2.85-1.371-2.383-1.4-3.3-.168-5.32.648-1.063 1.65-1.784 3.123-2.25 1.798-.57 2.17-.901 2.17-1.937 0-1.069-.327-1.328-2.25-1.787-1.819-.434-2.413-.865-3.101-2.25-1.139-2.292-1.103-3.16.226-5.47 1.059-1.842 1.075-2.006.275-2.807-.801-.801-.98-.782-3.074.328-2.08 1.103-2.36 1.135-4.33.485-2.082-.687-2.365-1.049-3.322-4.249-.339-1.135-.745-1.5-1.67-1.5-1.03 0-1.326.373-1.893 2.381-.562 1.99-.964 2.503-2.453 3.125-2.395 1.001-3.481.938-5.224-.303-2.746-1.955-4.231-.044-2.44 3.142 1.032 1.837 1.074 2.184.48 3.984-.75 2.27-1.011 2.493-3.724 3.171-1.667.417-2 .708-2 1.75 0 1.036.372 1.368 2.17 1.936 1.473.467 2.475 1.188 3.123 2.25 1.208 1.982 1.2 2.89-.041 4.927-.55.9-1 2.016-1 2.478-.003 1.364 1.827 1.599 3.45.443 1.763-1.255 2.96-1.298 5.288-.188 1.386.66 1.892 1.288 2.317 2.875.3 1.116.647 2.198.773 2.404.493.808 2.213.32 2.646-.75zm-4.226-9.58c-4.728-2.102-6.02-7.743-2.654-11.578 2.931-3.339 7.889-3.325 10.834.03 2.684 3.056 2.553 7.152-.317 9.889-2.43 2.318-5.107 2.883-7.863 1.658zm5.907-3.002c2.232-2.07 2.382-5.254.343-7.293-2.66-2.66-7.382-1.386-8.291 2.237-1.173 4.67 4.483 8.267 7.948 5.056z" fill="#feb56e"/><path d="M18.177 39.523c-.682-.287-1.38-1.378-1.915-2.988-1.063-3.198-2.351-3.667-5.605-2.042-2.594 1.295-4.005.967-5.471-1.27-.696-1.063-.76-1.585-.324-2.648 1.942-4.734 1.897-4.46.91-5.55C5.263 24.461 4.52 24 4.124 24s-1.487-.363-2.422-.807C.158 22.461 0 22.188 0 20.251c0-2.367 1.122-3.5 4.045-4.085C6.46 15.683 6.923 14.039 5.5 11c-1.383-2.953-.986-4.464 1.511-5.756 1.465-.757 1.656-.744 3.3.226.96.567 2.198 1.03 2.75 1.03C14.484 6.5 16 5.593 16 4.743c0-.398.362-1.627.804-2.733.778-1.943.882-2.01 3.13-2.01 2.609 0 3.124.5 4.047 3.929.726 2.696 2.227 3.144 5.334 1.592 2.079-1.038 2.304-1.058 3.447-.309.673.441 1.585 1.353 2.026 2.026.75 1.145.729 1.37-.336 3.502-1.476 2.955-.981 4.744 1.49 5.385 3.126.81 4.058 1.757 4.058 4.126 0 1.937-.158 2.21-1.7 2.942-.936.444-2.026.807-2.423.807-.94 0-2.377 1.601-2.377 2.649 0 .451.486 1.753 1.08 2.894.995 1.907 1.02 2.173.317 3.332-.42.692-1.364 1.622-2.097 2.067-1.259.762-1.446.744-3.291-.317-1.077-.619-2.384-1.125-2.906-1.125-1.25 0-2.411 1.37-2.83 3.34-.185.875-.626 1.83-.978 2.122-.942.782-3.387 1.079-4.618.56zm2.977-2.248c.399-.4.875-1.525 1.059-2.502.27-1.439.73-1.978 2.42-2.84l2.086-1.065 2.095 1.111c3.76 1.995 5.162.6 3.17-3.154-1.096-2.068-1.097-2.1-.17-4.035.778-1.62 1.328-2.063 3.257-2.62 3.81-1.098 3.67-2.972-.318-4.272-1.56-.508-2.201-1.086-2.935-2.644-.933-1.98-.932-2.008.167-4.079.608-1.146 1.027-2.498.93-3.005-.255-1.339-2.178-1.407-3.958-.14-1.415 1.008-1.71 1.046-3.508.453-2.378-.785-2.693-1.14-3.42-3.858-.474-1.777-.77-2.125-1.809-2.125-.892 0-1.392.387-1.775 1.375-1.18 3.045-1.778 3.784-3.655 4.526-1.856.733-2.06.716-3.849-.314-2.277-1.31-3.234-1.367-3.87-.23-.349.621-.148 1.511.73 3.245 1.19 2.349 1.196 2.42.33 4.254-.69 1.462-1.366 2.033-3.127 2.644-3.457 1.2-3.27 3.623.333 4.3 1.413.264 1.928.72 2.764 2.44l1.027 2.113-1.283 2.199c-.964 1.65-1.16 2.416-.79 3.073.65 1.15 2.386 1.094 3.945-.125 1.572-1.23 2.086-1.232 4.458-.021 1.89.964 2.542 1.835 2.542 3.398 0 .84 1.388 2.623 2.042 2.623.213 0 .713-.326 1.112-.725zM16.149 26.02c-4.338-2.645-4.157-9.939.304-12.246 1.917-.991 5.177-.991 7.094 0 4.461 2.307 4.642 9.601.304 12.246-2.097 1.279-5.605 1.279-7.702 0zm7.39-2.482A4.961 4.961 0 0 0 20 15c-2.924 0-5 2.076-5 5 0 1.629.315 2.392 1.462 3.538C17.608 24.685 18.372 25 20 25c1.629 0 2.392-.315 3.538-1.462z" fill="#fea651"/><path d="M17.321 38.375c-.386-.619-.845-1.74-1.02-2.494-.174-.752-.892-1.745-1.596-2.206-1.213-.795-1.393-.783-3.505.243-2.817 1.369-3.775 1.36-5.038-.043-1.711-1.9-1.74-2.254-.4-4.898 1.19-2.35 1.236-2.656.547-3.708-.414-.63-1.383-1.299-2.155-1.486C.642 22.934 0 22.382 0 20.207c0-1.814.187-2.142 1.625-2.852.894-.442 2.205-.922 2.914-1.067.739-.151 1.54-.812 1.874-1.546.497-1.09.395-1.655-.683-3.78-1.308-2.582-1.276-2.94.432-4.837 1.268-1.41 2.43-1.419 4.883-.04 1.619.91 2.138.992 3.2.508.699-.318 1.513-1.2 1.81-1.96C17.757.287 18.067-.058 20.128.1c2.065.158 3.009 1.212 3.6 4.018.159.752.859 1.742 1.556 2.198 1.202.788 1.395.77 3.783-.348 2.312-1.083 2.624-1.118 3.843-.433 2.128 1.194 2.539 3.16 1.161 5.553-1.005 1.746-1.075 2.191-.548 3.464.387.934 1.077 1.557 1.916 1.73.722.148 2.043.63 2.937 1.072 1.4.69 1.625 1.062 1.625 2.666 0 2.08-1.055 3.082-3.9 3.707-.91.2-1.995.91-2.449 1.602-.765 1.168-.748 1.38.267 3.47 1.375 2.829 1.36 3.764-.075 5.113-1.438 1.35-3.142 1.38-5.093.087-.825-.546-1.791-.995-2.148-.997-1.079-.005-3.102 2.373-3.102 3.647 0 2.73-4.728 4.05-6.179 1.725zm4.4-1.486c.429-.611.779-1.627.779-2.258 0-.756.552-1.483 1.625-2.136 2.084-1.271 2.984-1.25 5.385.13l1.959 1.125 1.14-1.14 1.141-1.141-1.125-1.959c-1.38-2.401-1.401-3.3-.13-5.385.653-1.073 1.38-1.625 2.136-1.625 1.537 0 3.369-1.342 3.369-2.467 0-1.229-.95-1.935-3.248-2.412-1.673-.347-2.018-.67-2.693-2.522-.746-2.045-.73-2.207.447-4.36l1.22-2.235-1.085-1.086-1.087-1.086-2.226 1.181c-2.068 1.097-2.371 1.133-4.288.5-1.563-.516-2.126-.994-2.323-1.972-.994-4.931-3.993-5.447-5.142-.884-.442 1.756-.829 2.234-2.216 2.735-2.293.83-3.026.77-5.014-.402-3.167-1.869-4.698.163-2.808 3.726 1.074 2.024 1.092 2.23.356 4.074-.65 1.63-1.08 2.006-2.67 2.336C2.95 18.1 2 18.808 2 20.033 2 21.158 3.832 22.5 5.369 22.5c.756 0 1.483.552 2.136 1.625 1.247 2.044 1.246 2.939-.003 4.988-1.321 2.167-1.262 3.29.208 3.96 1 .455 1.471.366 2.703-.51 1.84-1.312 3.37-1.343 5.39-.113 1.03.63 1.66 1.493 1.877 2.576.612 3.061 2.57 3.963 4.042 1.863zM17.037 26.15c-6.168-3.242-4.621-12.122 2.257-12.964 3.655-.447 7.056 2.314 7.52 6.106.638 5.216-5.162 9.284-9.777 6.858zm5.48-1.41c1.58-.817 2.984-3.047 2.984-4.741 0-2.65-2.85-5.5-5.5-5.5s-5.5 2.85-5.5 5.5c0 1.644 1.38 3.903 2.881 4.717 1.77.96 3.311.968 5.135.025z" fill="#fe9937"/><path d="M17.805 38.734c-.421-.421-.913-1.552-1.093-2.512-.34-1.809-1.79-3.222-3.308-3.222-.48 0-1.794.48-2.92 1.066-2.393 1.248-4.11.804-5.074-1.314-.48-1.055-.383-1.674.59-3.752 1.595-3.406 1.055-4.517-2.827-5.814-2.774-.927-2.93-1.068-3.074-2.757-.169-1.994.887-3.008 3.96-3.804 1.005-.26 1.984-.964 2.42-1.74.666-1.19.626-1.525-.46-3.843-1.028-2.196-1.102-2.702-.55-3.736.353-.657 1.205-1.452 1.893-1.766 1.037-.473 1.55-.396 2.974.445.947.558 2.22 1.015 2.831 1.015C14.561 7 16.5 5.676 16.5 4.725c0-.395.39-1.62.868-2.722C18.151.195 18.412 0 20.042 0c1.897 0 1.963.09 3.996 5.361.652 1.694 2.682 1.956 5.241.678 2.458-1.228 3.601-.95 5.025 1.223.75 1.145.733 1.36-.25 3.247-.58 1.112-1.054 2.415-1.054 2.895 0 1.444 1.37 2.945 2.98 3.267.834.167 2.09.68 2.794 1.14 1.036.68 1.249 1.17 1.127 2.6-.143 1.665-.316 1.82-3.146 2.82-3.835 1.355-4.473 2.685-2.848 5.94 1.384 2.77 1.377 2.87-.31 4.485-1.672 1.603-2.364 1.658-4.347.344-.825-.546-2.006-.995-2.625-.997C25.131 33 23.5 34.693 23.5 36.25c0 2.648-3.85 4.328-5.695 2.484zm3.517-.966c.626-.438 1.173-1.538 1.366-2.745.277-1.728.587-2.127 2.192-2.81 1.769-.753 1.978-.74 3.87.247 2.281 1.19 3.293 1.297 4.15.44.857-.857.75-1.869-.44-4.15-.977-1.874-.994-2.115-.272-3.81.647-1.52 1.135-1.903 3.026-2.379 4.084-1.028 4.184-4.128.159-4.922-1.818-.358-2.258-.703-3.058-2.399-.925-1.958-.924-2.002.126-3.985 1.207-2.28 1.32-3.294.459-4.155-.898-.898-2.316-.728-4.012.48-1.435 1.021-1.628 1.04-3.577.33-1.539-.56-2.172-1.12-2.498-2.205C21.803 2.339 21.555 2 20.095 2c-1.467 0-1.962.628-2.903 3.685-.313 1.015-1.01 1.66-2.382 2.204-1.85.734-2.04.715-4.131-.428-1.708-.933-2.384-1.077-3.06-.653-1.285.805-1.324 2.441-.11 4.603 1.064 1.891 1.066 1.946.16 3.842-.776 1.623-1.27 2.007-3.169 2.46-2.136.51-2.25.626-2.25 2.287 0 1.654.133 1.792 2.425 2.517 1.976.626 2.56 1.087 3.15 2.494.667 1.585.643 1.874-.3 3.55-1.163 2.07-1.3 3.465-.425 4.339.895.895 2.314.729 3.992-.465 1.368-.975 1.666-1.01 3.483-.41 2.07.683 2.925 1.69 2.925 3.442 0 1.001 1.6 3.033 2.389 3.033.214 0 .858-.33 1.433-.732zm-4.94-12.05c-3.921-2.128-3.837-9.052.138-11.4 1.736-1.026 5.073-1.054 6.996-.06 3.995 2.066 3.995 9.418 0 11.484-1.85.956-5.349.944-7.135-.025zm6.382-.815c1.647-.75 2.736-2.812 2.736-5.178 0-2.72-2.637-5.225-5.5-5.225-2.876 0-5.5 2.504-5.5 5.248 0 2.137 1.212 4.453 2.71 5.18 1.44.699 3.99.687 5.554-.025z" fill="#fe9228"/><path d="M17.577 38.125c-.252-.481-.619-1.62-.814-2.53-.257-1.198-.804-1.869-1.976-2.428-1.511-.72-1.758-.702-3.684.28-2.68 1.368-3.67 1.328-5.114-.209l-1.186-1.262 1.384-2.821c1.381-2.816 1.382-2.824.42-4.112-.53-.71-1.84-1.573-2.91-1.917a149.81 149.81 0 0 1-2.822-.935C.292 21.986 0 21.358 0 20.305c0-1.283.32-1.75 1.707-2.497.94-.506 2.008-.8 2.375-.653.484.193.449.277-.13.306-1.323.065-2.605 1.86-2.273 3.183C1.986 21.87 3.826 23 5.51 23 6.486 23 8 25.259 8 26.713c0 .42-.45 1.5-.998 2.4-1.328 2.178-1.26 3.194.276 4.202 1.214.795 1.376.783 3.193-.239 2.257-1.268 3.094-1.327 4.987-.348.94.486 1.516 1.266 1.731 2.342.41 2.048 1.65 3.43 3.077 3.43 1.437 0 2.21-.969 2.577-3.228.215-1.325.677-2.015 1.701-2.545 1.895-.98 2.78-.918 4.809.337 1.386.856 1.948.96 2.89.53 1.749-.797 2.007-2.322.74-4.37-.81-1.31-1.007-2.19-.772-3.442.382-2.038.969-2.549 3.437-2.994 3.317-.598 3.788-3.62.803-5.156-.844-.434-.953-.62-.367-.625.46-.004 1.527.387 2.372.868 1.202.684 1.538 1.217 1.54 2.442.003 1.043-.288 1.67-.871 1.874-.481.17-1.751.59-2.822.935-1.07.344-2.405 1.24-2.965 1.99L32.32 26.48l1.173 2.504c.971 2.075 1.076 2.718.607 3.747-.827 1.814-2.766 2.113-5.348.824-2.874-1.436-4.508-.777-5.344 2.152-.32 1.124-.796 2.324-1.057 2.668-.738.975-4.228.792-4.774-.25zM17 25.651c-4.77-2.456-4.36-9.676.657-11.585 5.26-2.002 10.279 3.018 8.277 8.277-1.338 3.516-5.522 5.065-8.934 3.308zm7.05-1.448c1.854-1.777 2.341-4.27 1.273-6.512-.898-1.882-3.452-3.686-5.223-3.69-2.854-.004-6.094 3.21-6.098 6.05-.002 1.622 1.873 4.47 3.513 5.336 1.843.973 4.852.428 6.535-1.184zM5.386 16.665c.35-.14.973-.908 1.385-1.706.7-1.355.664-1.62-.555-4.026-1.303-2.572-1.304-2.577-.335-3.88 1.283-1.725 2.684-1.861 5.115-.495 1.915 1.076 2.081 1.09 3.708.315 1.255-.599 1.797-1.248 2.06-2.468C17.424 1.343 18.396 0 19.955 0c1.534 0 3.073 1.717 3.011 3.357-.027.725-.137.68-.581-.243C21.076.4 17.959 1.472 17.148 4.916c-.34 1.44-.836 2.025-2.306 2.72-1.861.88-1.89.878-4.116-.427-2.128-1.247-2.305-1.272-3.484-.5-1.523.998-1.568 2.182-.173 4.546.947 1.605 1.002 2.037.48 3.778-.462 1.542-.828 1.958-1.694 1.928-.608-.022-.819-.155-.47-.296zm27.042-1.707c-.556-1.858-.503-2.24.595-4.25l1.205-2.207-1.364-1.365-1.365-1.364-2.174 1.187c-3.053 1.668-6.369.8-6.291-1.645l.034-1.064.526 1.09c.29.599 1.162 1.352 1.937 1.673 1.208.5 1.702.42 3.445-.56 3.983-2.238 6.81.588 4.57 4.571-1 1.78-1.066 2.22-.529 3.517.338.816.978 1.696 1.424 1.956.684.4.638.475-.296.488-.865.012-1.238-.429-1.717-2.027z" fill="#fe8917"/></symbol><symbol id="globe-icon" viewBox="0 0 33 40.04113"><path d="M8.252 38.893c-.256-.805-.065-1.336.702-1.958 1.045-.846 1.038-.858-1.057-1.697-3.1-1.24-3.753-2.877-1.852-4.648 1.007-.938 1.005-.944-.908-2.269-3.921-2.717-5.092-5.48-5.081-11.99C.065 10.85.76 8.654 3.332 5.997c2.304-2.381 4.47-3.564 8.09-4.416 2.65-.623 5.096-.323 8.51 1.045.986.395 1.13.34.874-.328-.416-1.085.823-2.224 2.422-2.224 3.287 0 7.722 4.303 9.013 8.743.938 3.224.8 13.019-.229 16.297-.864 2.754-5.075 7.07-8.63 8.847-1.675.837-3.403 1.533-3.839 1.546-.436.013-.008.408.952.877 1.3.636 1.746 1.171 1.746 2.096v1.242l-6.82.139c-6.66.135-6.827.112-7.17-.967zm16.981-12.388c1.072-1.097 1.836-1.995 1.699-1.995s-1.126.898-2.197 1.995c-1.072 1.097-1.836 1.995-1.699 1.995s1.126-.898 2.197-1.995zm-5.655-1.938C26.493 20.18 25 9.522 17.093 6.828c-3.052-1.04-4.081-.977-7.297.445-3.788 1.676-5.758 4.712-5.758 8.877 0 6.225 3.632 9.797 10.001 9.836 2.767.017 3.618-.2 5.539-1.42z" fill="#fef3e8"/><path d="M8.707 39.222c-.519-1.351.227-2.167 2.408-2.632 2.131-.455 2.137-.462.653-.795-5.229-1.174-7.03-2.445-5.919-4.178.365-.57 1.056-.823 1.992-.73 7.397.738 9.459.674 12.275-.383 1.806-.678 3.68-1.892 5.078-3.29 6.218-6.219 5.579-17.367-1.297-22.616-2.545-1.944-3.021-2.639-2.584-3.777.69-1.8 4.31-.507 7.218 2.577 3.467 3.678 4.432 6.551 4.432 13.188 0 3.785-.242 5.543-1.07 7.756-1.82 4.866-6.558 8.986-12.27 10.672-2.464.727-2.778 1.465-.624 1.465 1.948 0 3.817 1.75 2.965 2.777-.886 1.067-12.846 1.037-13.257-.034zm2.064-8.67C6.594 29.457 2.309 25.909.84 22.33-.31 19.529-.226 12.753.99 9.964c2.463-5.64 9.653-9.272 15.626-7.893 11.224 2.591 15.68 15.26 8.312 23.63-3.35 3.806-9.767 6.005-14.158 4.852zm8.275-5.208c2.81-1.484 4.998-4.897 5.326-8.309.328-3.414-1.563-7.305-4.506-9.275-3.025-2.023-7.673-2.272-10.841-.58-7.435 3.971-7.292 14.529.25 18.498 2.336 1.23 7.12 1.066 9.77-.334z" fill="#fee7d1"/><path d="M8.875 39.302c-.43-1.122.45-1.95 2.415-2.27 2.661-.432 2.236-1.162-1.118-1.923-1.591-.36-3.334-1.097-3.874-1.636-.908-.906-.92-1.04-.167-1.794.72-.72 1.194-.743 4.102-.194 10.814 2.04 19.384-4.544 19.46-14.954.041-5.436-2.12-9.887-6.162-12.687-1.412-.979-2.038-1.775-2.038-2.592 0-3.315 6.838.768 9.377 5.6 3.142 5.98 2.76 15.513-.826 20.548-2.504 3.516-6.2 6.09-10.642 7.409-2.83.84-2.965 1.844-.277 2.072 2.02.172 3.036 1.071 2.573 2.278-.265.688-1.24.811-6.439.811-4.663 0-6.189-.16-6.384-.668zm-.185-9.85c-3.177-1.223-6.39-4.26-7.674-7.256-1.311-3.058-1.318-8.756-.014-11.798 1.916-4.47 6.337-7.618 11.45-8.153 9.97-1.042 18.032 8.472 15.26 18.008-.695 2.386-1.42 3.526-3.667 5.772-4.407 4.402-9.729 5.59-15.355 3.426zm10.821-4.012c1.114-.626 2.69-2.14 3.5-3.364 1.245-1.88 1.474-2.718 1.474-5.397 0-1.745-.302-3.895-.672-4.777-.88-2.105-4.202-5.067-6.552-5.842-4.496-1.484-10.135.7-12.585 4.873-2.571 4.381-1.444 10.855 2.383 13.683 3.512 2.596 8.69 2.939 12.452.824z" fill="#fed6af"/><path d="M9.115 38.848c.128-.898.558-1.172 2.154-1.371 1.575-.197 1.995-.458 1.995-1.24 0-.794-.449-1.059-2.244-1.325-3.367-.498-4.987-1.264-4.987-2.357 0-1.25 1.166-1.662 2.87-1.014 1.898.721 8.15.675 10.44-.077 6.496-2.132 10.614-7.838 10.623-14.72.008-5.314-1.065-7.835-5.04-11.844-3.333-3.361-3.907-4.827-1.89-4.827 1.89 0 6.834 4.905 8.147 8.08.487 1.18 1.087 2.533 1.333 3.01.823 1.592.517 8.93-.485 11.674-2.067 5.655-6.931 10.248-12.28 11.595-2.105.53-3.307 1.653-2.564 2.396.168.168 1.15.442 2.18.608 1.448.234 1.913.558 2.036 1.419.158 1.104.097 1.115-6.144 1.115-6.252 0-6.302-.009-6.144-1.122zM7.75 28.784C2.752 26.258.048 21.968.048 16.565c0-5.085 1.799-8.776 5.628-11.55 3.884-2.814 9.54-3.34 13.99-1.303 5 2.289 7.801 6.351 8.198 11.888.2 2.785.042 3.738-1.002 6.018-1.396 3.05-4.045 5.865-6.776 7.2-1.16.568-3.304.961-5.824 1.07-3.49.15-4.307.011-6.512-1.104zM19 25.981c6.845-3.454 8.063-12.752 2.329-17.787C14.169 1.908 3.04 6.85 3.04 16.314c0 8.193 8.58 13.39 15.96 9.667z" fill="#fec792"/><path d="M9.26 39.45c-.554-.898.816-1.973 2.516-1.973 1.03 0 1.743-.292 1.935-.793.463-1.206.023-1.546-2.337-1.812-2.718-.307-5.092-1.42-5.092-2.39 0-.54.473-.704 1.746-.606 7.255.557 10.232.339 13.01-.953 3.55-1.652 6.227-4.334 7.848-7.866 1.04-2.267 1.276-3.53 1.264-6.776-.018-5.093-1.29-7.933-5.267-11.757-1.59-1.529-2.891-3.156-2.891-3.615 0-2.894 6.98 2.754 8.927 7.224.638 1.464 1.36 3.052 1.602 3.528.244.477.44 2.497.435 4.489-.01 5.154-1.542 9.253-4.807 12.868-2.222 2.459-4.437 3.833-8.33 5.166-2.38.816-3.064 1.272-3.064 2.047 0 .788.384 1.028 1.832 1.149 1.911.159 3.223 1.176 2.67 2.07-.193.312-2.593.52-5.998.52-3.405 0-5.805-.208-5.998-.52zm-.734-10.515C-.472 24.965-2.75 13.952 3.966 6.888c5.278-5.552 14.038-5.748 19.48-.436 5.796 5.66 5.95 13.71.37 19.29-4.16 4.161-10.225 5.428-15.29 3.193zm11.256-3.172c3.3-1.934 4.888-4.634 5.104-8.678.118-2.225-.079-3.896-.606-5.138-1.781-4.197-7.026-7.27-11.541-6.76-6.465.728-11.365 7.648-9.726 13.735 1.97 7.318 10.216 10.681 16.77 6.841z" fill="#febe81"/><path d="M9.337 39.573c-.502-.813.64-1.747 2.504-2.05 1.474-.24 1.922-.542 1.922-1.295 0-.595-.393-1.046-.998-1.145-.548-.09-2.175-.491-3.615-.893-2.075-.58-2.619-.944-2.619-1.758 0-.942.177-.993 2.12-.61 4.007.79 9.896.474 12.404-.666 3.293-1.496 6.177-4.3 7.78-7.563 1.205-2.456 1.385-3.407 1.38-7.312-.004-4.04-.152-4.756-1.49-7.18-.818-1.482-2.665-3.726-4.104-4.988-2.695-2.363-3.39-4.04-1.674-4.04.526 0 1.031.168 1.123.374.091.206 1.001.998 2.022 1.76 4.09 3.054 6.87 8.964 6.871 14.598 0 1.934-.185 3.73-.412 3.99-.226.26-.695 1.38-1.042 2.487-1.522 4.864-5.855 8.832-11.706 10.722-2.88.93-3.331 1.235-3.2 2.154.12.838.584 1.123 2.147 1.319 1.596.2 2.027.473 2.154 1.371.158 1.108.087 1.122-5.58 1.122-3.158 0-5.852-.179-5.987-.397zm.755-10.15C4.497 27.814.048 22.058.048 16.428c0-3.038 1.692-7.165 3.913-9.543 3.892-4.17 10.782-5.3 16.169-2.656 6.712 3.296 9.428 11.283 6.129 18.025-2.857 5.84-9.915 8.97-16.167 7.17zm7.411-2.412c4.406-1.226 7.65-5.777 7.65-10.73 0-10.52-12.658-15.147-19.803-7.237-3.87 4.284-3.722 10.517.353 14.814 3.084 3.253 7.348 4.392 11.8 3.153z" fill="#feb46d"/><path d="M9.618 39.103c.091-.477.613-.934 1.158-1.017 2.865-.432 3.236-.644 3.236-1.843 0-1.017-.304-1.264-1.87-1.518-3.025-.492-5.361-1.475-5.361-2.256 0-.807.25-.806 4.364.005 5.637 1.11 11.213-.806 15.276-5.251 3.273-3.581 4.24-6.493 3.945-11.873-.278-5.065-1.428-7.446-5.435-11.26-1.617-1.538-2.94-3.071-2.94-3.407 0-1.416 1.84-.395 4.965 2.756 2.364 2.385 3.595 4.094 4.218 5.86.484 1.372 1.085 2.884 1.335 3.36 1.308 2.492-.402 10.645-2.997 14.29-2.493 3.5-6.77 6.355-10.872 7.256-1.875.411-2.765 1.35-2.337 2.465.292.761.98 1.045 3.439 1.416.545.083 1.067.54 1.158 1.017.151.784-.392.867-5.641.867s-5.792-.083-5.641-.867zm-.4-10.267c-3.61-1.362-7.467-5.18-8.022-7.942-.151-.754-.472-1.371-.712-1.371-.589 0-.557-5.278.039-6.365.26-.477.837-1.685 1.28-2.687C2.81 8.193 5.57 5.4 7.953 4.245c1.001-.485 3.347-.975 5.213-1.089 5.63-.342 9.812 1.907 12.71 6.835 1.17 1.99 1.351 2.84 1.344 6.29-.007 3.116-.244 4.427-1.079 5.985-2.48 4.624-6.874 7.226-12.129 7.182-1.783-.014-3.94-.29-4.794-.612zm10.53-2.804c4.53-2.504 6.845-8.367 5.233-13.251-.789-2.39-3.611-5.514-6.151-6.81-2.994-1.527-8.422-1.16-11.188.756-3.41 2.364-4.811 4.883-5.007 9.004-.142 2.974.02 3.897 1.01 5.748 1.512 2.825 4.208 4.997 7.232 5.824 3.066.839 5.749.454 8.87-1.271z" fill="#fea651"/><path d="M9.524 39.571c0-.87 1.278-1.595 2.809-1.595 2.949 0 2.703-3.444-.252-3.53-1.83-.052-4.7-1.154-4.948-1.898-.157-.47.263-.523 1.715-.215 3.647.77 9.711.42 12.234-.707 3.271-1.462 6.631-4.736 8.255-8.043 1.206-2.454 1.38-3.386 1.365-7.302-.015-3.865-.2-4.84-1.34-7.027-.727-1.397-2.571-3.68-4.097-5.076C22.728 1.86 21.737.073 22.989.073c.274 0 .499.195.499.433 0 .237.882 1.016 1.96 1.729 2.352 1.557 4.808 4.988 5.873 8.205.427 1.293.972 2.564 1.21 2.824.559.612.563 5.415.006 6.035-.235.26-.816 1.699-1.292 3.197-1.746 5.5-5.178 8.802-11.428 10.992-3.346 1.172-3.56 1.338-3.56 2.743 0 1.344.175 1.512 1.743 1.66 1.765.168 2.994.842 2.994 1.642 0 .24-2.58.437-5.735.437-3.154 0-5.735-.18-5.735-.399zm.57-10.645c-3.788-1.09-7.964-5.152-8.826-8.583-.183-.73-.533-1.451-.776-1.602-1.399-.865.353-6.886 3.15-10.829 1.408-1.984 5.654-4.248 8.675-4.625C21.558 2.132 29.301 11 26.741 19.807c-2.006 6.901-9.702 11.117-16.647 9.119zm7.442-1.424c2.36-.656 5.731-3.602 7.051-6.162 2.276-4.415 1.061-10.29-2.834-13.71-5.11-4.486-11.857-4.056-16.562 1.056-8.028 8.721.715 22.046 12.345 18.816z" fill="#fe942d"/><path d="M10.144 39.347c.113-.343.973-.692 1.912-.776 1.678-.15 2.954-1.186 2.954-2.4 0-1.162-1.43-2.048-3.832-2.374-1.321-.18-2.739-.555-3.15-.835-.528-.36-.161-.394 1.246-.117 1.098.216 3.69.364 5.762.33 4.945-.084 8.44-1.685 11.87-5.44 3.117-3.409 4.3-6.639 4.292-11.718-.007-4.88-1.545-8.157-5.705-12.153C22.6 1.085 21.93.074 22.989.074c.274 0 .504.28.51.622.005.343.881 1.24 1.945 1.993 2.436 1.722 4.839 5.316 5.826 8.71.419 1.441.971 2.75 1.227 2.908.703.434.53 3.345-.261 4.39-.383.505-.844 1.79-1.024 2.854-.83 4.915-5.954 10.029-11.766 11.743-3.255.96-3.938 1.47-3.938 2.936 0 1.458.845 2.123 2.956 2.328.938.091 1.797.446 1.91.789.155.473-1.083.623-5.115.623s-5.27-.15-5.115-.623zM9.068 28.142c-2.85-1.006-6.281-4.443-7.072-7.081-.337-1.127-.913-2.298-1.28-2.602-.748-.62-.924-3.923-.21-3.923.253 0 .844-1.158 1.314-2.573C4.805 2.977 17.052.718 23.584 7.949c4.828 5.343 4.274 13.009-1.293 17.909-3.56 3.133-8.435 3.976-13.223 2.284zM19.31 27.09c4.272-2.201 6.671-6.088 6.671-10.809 0-4.974-2.5-8.787-7.231-11.028C13.964 2.987 9.662 3.896 5.467 8.06c-2.368 2.351-2.909 3.23-3.436 5.588-1.38 6.167 2.359 12.417 8.562 14.31 2.349.716 6.43.31 8.717-.868z" fill="#fe8816"/></symbol><symbol id="magic-icon" viewBox="0 0 40 40.003075"><path d="M0 38.431c0-1.37 1.212-2.793 9.497-11.149 5.224-5.267 9.498-9.733 9.498-9.925 0-.19-.248-.347-.55-.347-1.068 0-3.876-1.588-4.172-2.359-.42-1.097.815-2.785 3.395-4.638 2.16-1.55 2.213-1.657 2.551-5.092.19-1.93.466-3.824.614-4.208.554-1.445 4.718-.375 7.57 1.945.479.39 1.67.287 4.326-.375 5.695-1.418 6.435-.675 5.014 5.032-.647 2.596-.758 3.842-.385 4.3 1.3 1.6 2.63 4.547 2.63 5.83 0 1.79-1.578 2.564-5.229 2.564-2.639 0-2.718.043-4.77 2.624-1.146 1.443-2.407 2.807-2.801 3.03-1.339.758-2.57-.176-3.646-2.766l-1.073-2.58-9.888 9.843c-7.943 7.906-10.154 9.843-11.235 9.843C.17 40.003 0 39.805 0 38.431zM28.774 17.26c1.238-1.352 1.994-1.75 3.326-1.75 2.317 0 2.55-.372 1.316-2.104-.86-1.208-.987-1.898-.72-3.908l.323-2.442-2.47.293c-2.015.238-2.743.099-3.945-.757-1.76-1.254-2.11-1.013-2.11 1.452 0 1.515-.338 2.16-1.803 3.446-.991.87-1.722 1.657-1.624 1.749.097.092 1.035.522 2.083.957 1.427.591 2.119 1.295 2.75 2.796.463 1.104.939 2.01 1.057 2.012.118.003.935-.782 1.817-1.744z" fill="#fee6ce"/><path d="M0 38.883c0-.789 2.905-4.028 9.82-10.949 6.644-6.65 9.725-10.07 9.53-10.579-.158-.413-.955-.897-1.77-1.076-1.82-.4-3.213-1.85-2.803-2.918.167-.437 1.522-1.714 3.01-2.838 2.705-2.041 2.707-2.046 2.757-4.901.105-6.021 1.207-6.753 5.775-3.831l2.875 1.84 3.574-.89c5.488-1.367 5.944-.855 4.4 4.942l-.822 3.084 1.821 2.847c2.987 4.67 2.313 5.887-3.269 5.905l-3.157.01-2.263 2.864c-2.8 3.543-3.828 3.672-5.34.674-.608-1.205-1.202-2.442-1.32-2.75-.118-.307-4.796 3.997-10.396 9.564C5.257 37.004 1.91 40.003 1.12 40.003c-.827 0-1.12-.293-1.12-1.12zm28.992-21.124c1.42-1.465 2.044-1.75 3.847-1.75 1.183 0 2.151-.211 2.151-.47 0-.26-.471-1.27-1.047-2.246-.867-1.47-.986-2.218-.693-4.352l.355-2.576-1.682.392c-2.604.608-3.746.455-5.398-.721-1.953-1.39-2.532-.994-2.532 1.73 0 1.92-.218 2.361-1.75 3.53-.962.733-1.749 1.54-1.749 1.792s.98.878 2.175 1.39c1.728.74 2.345 1.355 2.996 2.982.45 1.127 1.002 2.049 1.225 2.049.223 0 1.17-.787 2.102-1.75z" fill="#fed5ad"/><path d="M0 38.906c0-.758 3.052-4.162 9.872-11.01 5.43-5.452 9.949-10.136 10.042-10.409.093-.272-.975-.971-2.374-1.553-3.235-1.344-3.268-2.282-.17-4.739 3.45-2.735 3.624-3.046 3.624-6.487 0-1.712.137-3.468.303-3.903.307-.799 2.472-1.116 2.78-.407.091.212 1.33 1.123 2.75 2.026l2.585 1.642 3.584-1.088c3.247-.986 3.657-1.015 4.363-.309.707.707.695 1.077-.124 3.936-.498 1.736-.884 3.532-.86 3.99.048.867 2.582 5.04 3.239 5.332.701.311.378 2.474-.416 2.779-.435.166-2.024.303-3.532.303-3.42 0-4.073.352-6.459 3.48-2.6 3.41-3.855 3.415-5.06.019-.565-1.59-1.18-2.5-1.689-2.5-.44 0-5.238 4.5-10.662 9.998C2.08 39.858 0 41.426 0 38.906zm28.85-20.711c1.258-1.568 1.808-1.848 4.048-2.063 1.425-.137 2.592-.35 2.592-.472s-.59-1.227-1.309-2.455c-1.227-2.094-1.27-2.375-.68-4.478.345-1.234.497-2.373.338-2.532-.16-.16-1.39-.008-2.737.337-2.326.597-2.541.563-4.361-.674-1.053-.715-2.102-1.185-2.331-1.043-.23.141-.417 1.178-.417 2.304 0 1.739-.302 2.335-2 3.95-1.099 1.046-1.999 2.09-1.999 2.318 0 .23.956.758 2.125 1.174 1.74.62 2.33 1.18 3.258 3.102.624 1.29 1.334 2.346 1.577 2.346.242 0 1.096-.817 1.896-1.814z" fill="#fec792"/><path d="M0 39.124c0-.484 4.611-5.487 10.247-11.118 5.636-5.63 10.247-10.411 10.247-10.623 0-.212-1.237-.933-2.749-1.602s-2.75-1.43-2.75-1.694c0-.262 1.35-1.647 3-3.076 2.673-2.316 2.999-2.802 2.999-4.478 0-3.637.603-6.519 1.363-6.519.4 0 2.01.9 3.578 2 3.13 2.195 3.85 2.329 6.806 1.264 1.1-.396 2.618-.73 3.374-.742 1.664-.027 1.74.69.545 5.174l-.829 3.111 2.079 3.13c1.143 1.721 2.079 3.423 2.079 3.781 0 .787-2.202 1.277-5.737 1.277-2.602 0-2.624.014-4.99 3.025-1.466 1.866-2.687 2.966-3.186 2.87-.444-.085-1.16-1.106-1.589-2.269-1.49-4.036-1.106-4.254-12.38 7.01C2.353 39.392 0 41.234 0 39.125zm28.932-20.615c1.443-1.796 1.834-2 3.848-2 2.79 0 3.209-.824 1.675-3.306-1.012-1.636-1.079-2.098-.626-4.307.6-2.926.12-3.346-2.896-2.54-1.658.442-2.167.35-3.948-.711-2.699-1.61-3.492-1.25-3.492 1.582 0 1.977-.238 2.465-2 4.094-1.099 1.018-1.999 1.994-1.999 2.17 0 .175.844.617 1.875.982 2.535.898 2.98 1.316 4.101 3.852.532 1.201 1.166 2.184 1.41 2.184.245 0 1.168-.9 2.052-2z" fill="#feb56d"/><path d="M.222 39.362c-.14-.365 4.181-5.05 10.013-10.856 5.643-5.618 10.26-10.585 10.26-11.039 0-.517-.931-1.21-2.5-1.863-1.395-.58-2.5-1.363-2.5-1.773 0-.404 1.13-1.564 2.508-2.576 3.144-2.308 3.49-2.97 3.49-6.668 0-1.645.137-3.347.304-3.782.303-.788 1.692-1.128 1.7-.416.003.207 1.334 1.231 2.957 2.277l2.952 1.902 3.581-1.088c4.51-1.37 4.898-1.075 3.746 2.858-.471 1.608-.86 3.405-.862 3.993-.006 1.008 2.742 5.551 3.783 6.253.264.179.342.685.173 1.125-.238.62-1.072.808-3.697.835-1.864.02-3.757.188-4.207.375-.45.187-1.76 1.534-2.91 2.994-1.219 1.547-2.415 2.59-2.867 2.5-.427-.086-1.146-1.105-1.6-2.265-1.588-4.07-1.134-4.33-12.667 7.24C6.059 35.228 1.112 40.004.883 40.004c-.228 0-.525-.288-.66-.641zm28.66-20.42c1.692-1.777 2.326-2.1 4.537-2.312 2.993-.288 3.16-.752 1.285-3.584-1.15-1.738-1.23-2.146-.753-3.863.294-1.057.535-2.344.536-2.86.003-.97-.395-.973-4.499-.029-.873.201-1.841-.11-3.189-1.025-2.55-1.73-3.306-1.38-3.306 1.532 0 2.12-.2 2.503-2.314 4.445-2.539 2.33-2.526 2.377 1.057 3.826 1.554.628 2.177 1.25 2.757 2.75.774 1.999 1.422 3.186 1.741 3.186.1 0 1.068-.93 2.149-2.065z" fill="#fea54f"/><path d="M.436 39.172c-.455-.55-.503-.893-.144-1.014 1.165-.393 20.452-20.23 20.452-21.037 0-.558-.697-1.084-2-1.508-3.657-1.192-3.698-1.698-.347-4.276l2.989-2.3.357-4.511c.196-2.482.534-4.512.75-4.512.217 0 1.06.622 1.873 1.381.813.76 2.29 1.818 3.28 2.352 1.766.95 1.873.952 5.34.052 1.946-.504 3.677-.778 3.847-.609.17.17-.088 1.773-.572 3.563-1.06 3.916-.886 4.73 1.749 8.184 1.123 1.472 1.94 2.778 1.815 2.903s-2.095.382-4.379.573l-4.152.346-2.026 2.58c-1.114 1.418-2.32 2.71-2.68 2.87-.434.192-1.064-.636-1.868-2.455-.813-1.837-1.507-2.745-2.1-2.745C21.632 19.009 2 38.406 2 39.383c0 .872-.754.77-1.564-.211zm28.746-20.163c1.546-1.67 2.168-2 3.788-2 3.849 0 4.256-.683 2.206-3.7-1.26-1.854-1.289-2.047-.703-4.668.356-1.588.427-2.919.17-3.176-.258-.257-1.623-.196-3.258.147-2.725.572-2.88.545-4.85-.819-2.615-1.813-3.542-1.227-3.542 2.239 0 2.198-.165 2.526-1.999 3.98-1.1.87-2 1.905-2 2.299 0 .644 1.751 1.661 4.132 2.4.485.15 1.104.841 1.375 1.536l.98 2.512c.68 1.743 1.558 1.565 3.7-.75z" fill="#fe942c"/><path d="M.605 39.204c-.354-.385-.44-.7-.188-.7.677 0 20.8-20.382 20.99-21.261.11-.505-.796-1.179-2.744-2.04l-2.909-1.287 1.495-1.234c4.95-4.088 4.74-3.771 4.795-7.224.044-2.858.769-6.817.904-4.944.03.413 1.422 1.632 3.095 2.71l3.04 1.958 3.47-.9c1.91-.495 3.606-.766 3.77-.602.164.164-.107 1.86-.602 3.77l-.9 3.47 1.959 3.04c1.077 1.673 2.253 3.043 2.613 3.045.36.003.536.197.391.431-.145.235-2.014.464-4.153.51-3.692.08-3.966.167-5.393 1.699-.827.887-1.974 2.266-2.549 3.064-1.238 1.718-1.909 1.451-2.725-1.083-.748-2.324-1.362-3.117-2.411-3.117-.8 0-20.767 19.681-21.123 20.82-.126.401-.376.363-.825-.125zm28.577-19.695c1.617-1.748 2.125-2 4.043-2 2.452 0 3.913-1.028 3.393-2.388-.182-.473-.823-1.588-1.426-2.478-1.051-1.55-1.065-1.723-.346-4.177.643-2.195.65-2.66.05-3.26-.599-.6-1.07-.59-3.3.072-2.561.76-2.63.753-4.468-.496-1.027-.698-2.355-1.269-2.952-1.269-.953 0-1.126.362-1.432 2.996-.314 2.708-.535 3.144-2.298 4.54-2.706 2.144-2.553 3.12.669 4.278 2.452.882 2.68 1.109 3.561 3.561 1.158 3.22 1.994 3.336 4.506.62z" fill="#fe8816"/></symbol><symbol id="monitor-icon" viewBox="0 0 50 40.08548"><path d="M13.527 39.367c-.441-.53-.453-.985-.047-1.744.637-1.191 1.65-1.482 5.77-1.659 2.624-.112 3-.254 3-1.129 0-.958-.417-1.01-10.074-1.25-9.02-.223-10.184-.35-11.132-1.208-1.04-.943-1.056-1.227-.926-16.5L.25.335h49.5l.132 15.542c.13 15.273.114 15.557-.926 16.5-.948.858-2.111.985-11.132 1.208-9.657.24-10.074.292-10.074 1.25 0 .875.376 1.017 3 1.13 4.12.176 5.133.467 5.77 1.658.406.76.394 1.213-.047 1.744-.484.584-2.63.718-11.473.718-8.844 0-10.989-.134-11.473-.718zM46 16.085v-12H4v24h42z" fill="#feead6"/><path d="M13.805 39.3c-.166-.433-.07-1.22.214-1.75.443-.828 1.077-.965 4.47-.965 4.204 0 4.792-.311 4.299-2.278l-.307-1.222h-9.788c-8.35 0-10.002-.126-11.24-.857L0 31.37V16.442C0 4.172.127 1.387.714.8 1.781-.267 48.22-.267 49.286.8c.586.587.714 3.347.714 15.463v14.75l-1.317 1.036c-1.233.97-1.96 1.036-11.24 1.036h-9.924l-.307 1.222c-.493 1.967.095 2.278 4.3 2.278 3.392 0 4.026.137 4.469.964.283.53.38 1.318.214 1.75-.262.682-1.75.786-11.195.786-9.444 0-10.933-.104-11.195-.786zM46.25 16.084V3.835H3.75l-.134 11.74c-.074 6.457-.024 12.028.11 12.38.197.51 4.563.615 21.385.51l21.139-.13z" fill="#fed8b4"/><path d="M14.343 39.762c-.673-.674-.327-2.15.624-2.659.532-.285 2.57-.518 4.53-.518h3.563l-.155-1.875-.155-1.875-10.55-.25c-7.91-.187-10.756-.421-11.375-.936C.092 31.04 0 29.311 0 16.204 0 2.734.076 1.388.875.782c.698-.53 5.578-.668 24.086-.68 20.91-.015 23.3.065 24.125.811.846.766.914 1.919.914 15.439 0 12.97-.093 14.688-.825 15.297-.62.515-3.465.749-11.375.936l-10.55.25-.155 1.875-.155 1.875h3.684c4.004 0 5.605.69 5.299 2.284-.176.914-.76.974-10.712 1.101-5.789.074-10.68-.02-10.868-.208zm32.04-23.552l.134-12.625H3.5v12.417c0 6.83.152 12.57.339 12.756.186.186 9.805.28 21.375.208l21.036-.13z" fill="#fecb9a"/><path d="M14.295 39.272c-.584-1.522.65-2.14 4.572-2.291 4.182-.161 5.03-.746 4.447-3.068l-.333-1.328h-9.79c-7.974 0-10.105-.15-11.49-.806L0 30.972V16.39C0 2.399.04 1.773 1.006.947 1.927.157 3.95.088 25.13.115c21.454.028 23.182.094 23.994.917.793.804.875 2.25.875 15.413v14.527l-1.7.807c-1.386.657-3.517.806-11.491.806h-9.79l-.333 1.328c-.583 2.322.265 2.907 4.447 3.068 3.923.15 5.156.769 4.572 2.291-.274.715-1.568.813-10.705.813s-10.43-.098-10.705-.813zm32.589-22.624c.094-8.572-.035-12.392-.436-12.875-.782-.942-41.91-1.026-42.848-.088-.653.654-.901 24.433-.261 25.072.186.187 10.03.28 21.875.209l21.536-.13z" fill="#feba78"/><path d="M14.843 39.762c-.188-.189-.343-.751-.343-1.25 0-1.076 1.06-1.374 5.5-1.549l3.25-.128.16-1.949c.1-1.22-.087-2.105-.5-2.367-.363-.23-5.166-.422-10.674-.426-8.245-.006-10.21-.145-11.125-.786-1.104-.773-1.111-.87-1.111-15C0 2.752.047 2.04 1 1.085 1.972.113 2.638.087 25.125.127c22.123.04 23.163.083 24 1 .79.866.875 2.334.875 15.18 0 14.13-.007 14.227-1.111 15-.915.641-2.88.78-11.125.786-5.508.004-10.31.196-10.674.426-.413.262-.6 1.146-.5 2.367l.16 1.95 3.25.127c4.782.189 5.594.453 5.407 1.765-.155 1.096-.26 1.109-10.189 1.243-5.517.074-10.186-.02-10.375-.209zm31.54-10.594c.491-.311.604-3.279.5-13.117L46.75 3.335H3.25l-.134 12.716c-.103 9.838.01 12.806.5 13.117.828.525 41.94.525 42.768 0z" fill="#fea957"/><path d="M14.802 39.29c-.533-1.387.168-1.705 3.76-1.705 4.385 0 5.438-.516 5.438-2.667 0-.898-.27-1.903-.6-2.233-.425-.425-3.422-.6-10.3-.6-7.89 0-10.016-.15-11.4-.806L0 30.472V2.45l1.276-1.183L2.552.085 25.15.138 47.75.191l1.125 1.125C49.988 2.429 50 2.59 50 16.406V30.37l-1.452.858c-1.241.733-2.9.857-11.4.857-7.07 0-10.122.174-10.548.6-.33.33-.6 1.335-.6 2.233 0 2.15 1.053 2.667 5.438 2.667 3.592 0 4.293.318 3.76 1.705-.265.69-1.616.795-10.198.795s-9.933-.105-10.198-.795zM46.9 28.985c.778-.777.853-23.993.082-25.432-.499-.934-1.272-.968-21.982-.968s-21.483.034-21.982.968c-.77 1.439-.696 24.655.082 25.432.863.863 42.937.863 43.8 0z" fill="#fe9e42"/><path d="M15.09 38.96c.148-1.042.472-1.143 4.41-1.375l4.25-.25.156-2.161c.258-3.59.261-3.589-11.118-3.589-7.02 0-10.498-.19-11.434-.625l-1.346-.625-.004-13.852L0 2.631l1.273-1.273L2.545.085l22.603.053L47.75.191l1.125 1.215C49.985 2.604 50 2.808 50 16.296V29.97l-1.232.808c-1.033.677-2.886.807-11.44.807-11.507 0-11.492-.004-11.234 3.589l.156 2.161 4.25.25c3.938.232 4.262.333 4.41 1.375l.16 1.125H14.93zm31.573-9.5c.774-.566.842-1.846.72-13.625l-.133-13H2.75l-.134 13c-.121 11.779-.053 13.06.72 13.625 1.237.905 42.091.905 43.327 0z" fill="#fe932a"/><path d="M15.303 39.295c-.166-.435-.303-.862-.303-.95 0-.086 1.92-.236 4.268-.333 3.104-.128 4.398-.381 4.743-.927.63-.996.615-3.33-.029-4.532-.486-.908-1.145-.968-10.797-.968-8.815 0-10.488-.122-11.733-.857L0 29.87V3.162l1.538-1.538L3.077.085h43.846l1.539 1.539L50 3.162V29.87l-1.452.858c-1.245.735-2.918.857-11.733.857-9.652 0-10.311.06-10.797.968-.644 1.202-.658 3.536-.029 4.532.346.547 1.643.799 4.776.928 3.542.146 4.252.308 4.018.916-.156.406-.283.832-.283.947 0 .115-4.25.21-9.447.21-8.152 0-9.488-.109-9.75-.791zm32.204-10.222c.642-1.2.48-25.669-.174-26.322-.544-.543-44.122-.543-44.666 0-.655.653-.816 25.122-.174 26.322.532.993.962 1.012 22.507 1.012s21.975-.019 22.507-1.012z" fill="#fe8917"/><path d="M15.594 39.21c.14-.731.82-.897 4.161-1.014 3.023-.106 4.147-.343 4.62-.971.583-.774.667-.774 1.25 0 .473.628 1.597.865 4.62.97 3.34.118 4.022.284 4.161 1.015.155.81-.558.875-9.406.875s-9.56-.066-9.406-.875zm8.522-7.125c-.593-.95-1.166-1-11.386-1-9.104 0-10.806-.115-11.05-.75-.157-.412-.6-.75-.983-.75C.118 29.585 0 27.3 0 16.144 0 2.962.02 2.697 1.037 2.43c.57-.15 1.16-.738 1.308-1.308C2.615.093 2.77.085 25 .085s22.385.008 22.655 1.038c.149.57.737 1.159 1.308 1.308C49.98 2.697 50 2.962 50 16.144c0 11.156-.118 13.441-.697 13.441-.383 0-.826.338-.984.75-.243.635-1.945.75-11.05.75-10.219 0-10.792.05-11.385 1-.344.55-.741 1-.884 1-.143 0-.54-.45-.884-1zm23.047-2.125c.775-.567.842-1.876.72-14.125l-.133-13.5H2.25l-.134 13.5c-.12 12.249-.054 13.558.721 14.125 1.236.905 43.09.905 44.326 0z" fill="#fe8107"/></symbol><symbol id="note-icon" viewBox="0 0 40 40.479256"><path d="M.638 40.161c-.484-.195-.625-4.304-.625-18.175V4.062l1.111-.778c.912-.639 2.83-.778 10.705-.778 5.277 0 9.95.136 10.385.303 1.41.54.94 2.62-.833 3.7-1.438.877-2.531.992-9.497.993l-7.872.002v28.49h25.991V21.088l1.537-1.294c3.158-2.657 3.46-1.842 3.46 9.302 0 8.73-.07 9.468-.999 10.397-.96.96-1.638.998-16.869.96C8.404 40.431.982 40.3.638 40.161zm9.157-9.95c-.432-.433-.785-1.117-.785-1.52 0-.716 1.529-5.93 2.62-8.941.64-1.764 16.456-17.957 18.574-19.017.799-.4 2.736-.726 4.306-.726 2.417 0 3.055.201 4.171 1.317C39.781 2.424 40 3.091 40 5.348c0 1.488-.322 3.313-.716 4.055-.394.743-4.61 5.216-9.372 9.94l-8.655 8.591-4.69 1.53c-5.41 1.767-5.716 1.8-6.77.746zm16.959-14.578c4.673-4.511 8.694-8.623 8.936-9.138.63-1.34.028-2.49-1.304-2.49-1.734 0-18.167 16.665-18.627 18.89-.332 1.606-.306 1.636 1.079 1.292.882-.218 4.634-3.456 9.916-8.554z" fill="#fef3e9"/><path d="M.888 39.953c-.807-.47-.875-1.865-.875-17.901 0-16.294.059-17.445.926-18.23.813-.736 2.161-.821 11.114-.702 9.586.127 10.2.192 10.373 1.093.11.573-.289 1.322-.993 1.864-1.027.79-2.245.906-9.55.916l-8.371.011V36.51l13.37-.133 13.37-.133.25-7.695c.248-7.615.264-7.705 1.575-8.682.729-.543 1.572-.835 1.874-.648.369.228.55 3.462.55 9.807 0 8.8-.07 9.538-1 10.467-.957.957-1.655.999-16.369.984-9.506-.01-15.703-.21-16.244-.524zm9.222-10.057c-.844-.843-.773-1.468.744-6.6l1.344-4.546 8.517-8.642C25.4 5.354 29.89 1.137 30.694.736c.804-.401 2.534-.73 3.845-.73 1.996 0 2.635.251 3.922 1.539C39.721 2.803 40 3.488 40 5.318c0 1.23-.322 2.843-.716 3.585-.394.743-4.61 5.226-9.372 9.963l-8.655 8.614-4.468 1.508c-4.946 1.67-5.8 1.786-6.678.908zm7.201-5.418c1.402-.534 17.236-15.316 18.545-17.315.957-1.46.404-3.074-1.19-3.474-1.13-.283-2.225.636-9.973 8.371-6.422 6.412-8.831 9.148-9.192 10.439-.783 2.808-.676 2.924 1.81 1.979z" fill="#fee8d2"/><path d="M1.388 39.922L.013 39.41V22.057c0-12.83.156-17.508.6-17.952.428-.428 3.576-.6 10.996-.6 10.15 0 10.396.025 10.396 1.026 0 1.908-2.84 2.563-10.7 2.466-3.874-.048-7.328-.066-7.676-.04-.497.037-.604 3.21-.5 14.917l.133 14.87 13.62.133 13.62.133v-7.438c0-6.768.094-7.557 1.036-8.755 1.283-1.63 2.351-1.687 2.738-.145.162.644.223 4.91.135 9.48-.138 7.173-.282 8.43-1.052 9.2-.81.81-2.238.9-15.744.987-9.173.06-15.378-.1-16.227-.417zm8.622-11.228c0-.716.587-3.247 1.304-5.623l1.305-4.32 8.799-8.873c4.839-4.88 9.087-8.872 9.441-8.872.354 0 .643-.225.643-.5 0-.274 1.18-.494 2.624-.488C38.1.035 40 1.989 40 6.059c0 2.087-.15 2.27-9.622 11.738l-9.621 9.618-4.15 1.29c-5.448 1.695-6.596 1.693-6.596-.011zm7.048-3.778C18.84 24.305 35.194 8.88 36.392 6.68c1.112-2.042-.235-3.532-2.89-3.199-.413.052-4.575 3.901-9.25 8.554-6.588 6.556-8.64 8.907-9.122 10.453-1.03 3.304-.946 3.412 1.928 2.428z" fill="#fed6af"/><path d="M.613 39.393c-.443-.443-.6-5.058-.6-17.664V4.666l1.273-.58c1.584-.722 20.018-.81 20.458-.099.164.265-.16.94-.72 1.5-.944.943-1.634 1.017-9.461 1.017-7.239 0-8.487.113-8.747.791-.167.435-.304 7.054-.304 14.71 0 11.986.11 14.027.786 14.703.673.673 2.62.786 13.645.786 9.336 0 13.024-.165 13.46-.6.411-.412.6-2.893.6-7.92 0-6.606.094-7.405.967-8.196 1.787-1.617 2.031-.607 2.031 8.387 0 6.98-.147 8.816-.778 9.717-.776 1.107-.823 1.11-16.394 1.11-11.48 0-15.775-.158-16.216-.6zm9.913-10.127c-.484-.583-.3-1.716.916-5.63l1.522-4.899 9.448-9.365L31.86.007h2.304c1.97 0 2.559.255 4.07 1.766 1.448 1.448 1.765 2.135 1.765 3.82 0 2-.26 2.318-9.58 11.717l-9.581 9.66-4.54 1.513c-5.286 1.761-4.993 1.721-5.772.783zm6.543-4.034c1.717-.601 4.094-2.668 11.06-9.616C33.507 10.249 37 6.385 37 5.799c0-1.4-1.457-2.793-2.919-2.793-.969 0-3.287 2.01-9.91 8.594-7.669 7.623-8.728 8.876-9.376 11.088-.631 2.153-.656 3.31-.07 3.31.086 0 1.141-.345 2.344-.766z" fill="#fec58d"/><path d="M.888 39.297c-.803-.61-.875-2.046-.875-17.378 0-12.334.157-16.871.6-17.314.714-.714 20.893-.87 20.893-.161 0 1.438-1.875 1.817-10.197 2.06l-8.547.25v30.49h27.99l.25-7.85c.255-8.012.6-9.347 2.248-8.714.72.276.797 1.335.659 8.988-.117 6.43-.335 8.888-.844 9.5-.61.734-2.364.823-15.994.809-11.937-.013-15.501-.162-16.183-.68zm9.621-10.853c0-.579.56-2.89 1.246-5.135L13 19.227l9.654-9.61c9.152-9.11 9.753-9.61 11.56-9.61 1.546 0 2.27.365 3.845 1.94 1.572 1.572 1.94 2.3 1.94 3.836 0 1.796-.505 2.4-9.622 11.5l-9.621 9.605-4 1.304c-4.971 1.62-6.247 1.672-6.247.252zm6.69-3.051c1.63-.48 3.808-2.324 10.478-8.872 4.631-4.547 8.75-8.903 9.154-9.68.652-1.255.645-1.548-.06-2.624-.751-1.147-1.556-1.45-3.27-1.236-.412.052-4.687 4.014-9.499 8.804-6.799 6.768-8.888 9.154-9.371 10.703-1.159 3.712-.957 3.941 2.568 2.905z" fill="#febe81"/><path d="M1.138 39.383L.013 38.84V22.103C.013 6.748.085 5.31.888 4.7c.657-.499 3.33-.668 10.746-.68 5.43-.009 9.872.164 9.872.384 0 1.344-1.51 1.6-9.472 1.607-4.55.004-8.557.188-8.904.41-.492.311-.603 3.775-.5 15.611l.132 15.21h27.99l.25-7.547c.242-7.302.667-9.197 2.06-9.197.242 0 .44 4.014.44 8.92 0 8.006-.094 9.004-.915 9.746-.808.732-2.607.824-15.62.794-9.479-.022-15.104-.227-15.83-.576zm9.371-10.754c0-.477.602-2.834 1.337-5.238l1.337-4.37 9.587-9.507C31.871.489 32.455.007 34.275.007c1.6 0 2.233.338 3.82 2.04C39.583 3.643 40 4.49 40 5.923c0 1.722-.585 2.404-9.8 11.397l-9.802 9.566-4.1 1.306c-4.821 1.536-5.789 1.609-5.789.438zm7.581-3.58C20.63 23.94 37.5 7.23 37.5 5.825c0-1.035-2.168-3.318-3.151-3.318-1.307 0-4.589 2.85-11.86 10.3-5.648 5.788-7.4 7.901-7.872 9.5-1.184 4.004-.55 4.504 3.473 2.744z" fill="#feb46d"/><path d="M1.513 39.357l-1.25-.643-.131-16.771L0 5.17l1.28-.583c1.463-.666 19.726-.836 19.726-.183 0 1.346-1.507 1.6-9.497 1.6-5.787 0-8.478.181-8.897.6-.439.438-.6 4.512-.6 15.208 0 12.615.108 14.717.786 15.395.675.675 2.666.785 14.145.785 9.724 0 13.523-.163 13.96-.6.413-.413.6-2.951.6-8.185 0-5.737.163-7.722.67-8.143.369-.306.819-.409 1-.228.18.18.328 4.072.328 8.647 0 6.392-.164 8.543-.709 9.289-.67.916-1.514.977-15.37 1.099-11.185.098-14.956-.024-15.91-.515zm9.26-10.337c-.161-.262.319-2.567 1.067-5.123l1.36-4.647 8.776-8.753c4.827-4.814 9.285-9.144 9.907-9.622C33.805-.602 35.56-.23 37.896 2.15c3.512 3.579 3.513 3.577-7.477 14.66l-9.581 9.66-4.54 1.514c-5.081 1.692-5.115 1.698-5.524 1.036zm6.27-3.284c1.73-.596 4.206-2.697 11.338-9.622C38.15 6.627 38.727 5.732 36.5 3.505c-2.17-2.168-3.086-1.596-12.61 7.873-8.105 8.057-8.995 9.112-9.687 11.49-.717 2.459-.638 3.63.244 3.63.21 0 1.378-.343 2.595-.762z" fill="#fea651"/><path d="M1.138 38.883L.013 38.34V22.103C.013 7.224.086 5.809.888 5.2c1.084-.823 19.618-1.008 19.618-.196 0 .313-3.134.5-8.402.5-5.933 0-8.652.183-9.254.625-.778.569-.842 1.996-.72 16.119l.132 15.494h28.99l.138-7.82c.108-6.16.294-7.952.874-8.434.645-.536.738.477.738 8.096 0 6.107-.18 8.887-.6 9.308-.8.8-29.604.79-31.264-.01zm9.865-10.511c-.004-.344.592-2.587 1.324-4.985l1.33-4.36 9.623-9.51c7.372-7.285 9.917-9.51 10.882-9.51C35.737.007 40 4.12 40 5.642c0 .706-3.255 4.327-9.8 10.9l-9.8 9.843-4.1 1.306c-4.64 1.478-5.287 1.561-5.296.68zm7.087-2.823c1.512-.661 4.845-3.652 11.038-9.903C34.008 10.721 38 6.342 38 5.916c0-1.064-1.814-3.284-2.987-3.656-1.66-.527-3.527.942-11.867 9.334-8.201 8.251-9.638 10.296-9.638 13.717 0 1.502 1.515 1.58 4.582.238z" fill="#fe942d"/><path d="M.888 38.453c-.805-.468-.875-1.807-.875-16.69V5.585l1.535-.337c.845-.185 1.67-.203 1.833-.04.164.164-.053.298-.482.298s-.916.356-1.083.79c-.167.435-.303 7.588-.303 15.895 0 11.08.16 15.263.6 15.703.855.856 28.433.856 29.29 0 .413-.414.599-2.965.599-8.247 0-4.765.188-7.647.5-7.647.677 0 .661 14.758-.018 16.027-.494.924-1.192.966-15.62.952-9.324-.01-15.436-.21-15.976-.525zm10.621-10.509c0-.304.56-2.39 1.246-4.638l1.247-4.086 9.125-8.903C32.953.728 33.749.007 34.484.007c.418 0 1.658 1.177 4.78 4.54.404.435.735.975.735 1.2 0 .224-4.425 4.867-9.834 10.318l-9.835 9.909-3.787 1.261c-4.21 1.403-5.034 1.518-5.034.71zm6.378-1.849c1.544-.614 4.598-3.31 11.116-9.81 4.943-4.931 9.117-9.37 9.274-9.867.398-1.253-1.196-3.757-2.82-4.43-2.081-.862-3.323.063-12.561 9.356-8.597 8.648-9.887 10.504-9.887 14.217 0 1.24.187 1.432 1.374 1.409.756-.015 2.333-.409 3.504-.875z" fill="#fe8814"/></symbol><symbol id="rocket-icon" viewBox="0 0 40 40.093002"><path d="M.076 36.628c0-4.181.816-6.305 2.915-7.588 2.293-1.401 4.249-1.276 4.971.318.713 1.57.518 1.918-1.958 3.489-1.2.761-1.948 1.617-1.948 2.23 0 1.688 1.434 1.105 3.09-1.257 1.703-2.427 2.752-2.773 4.046-1.335 1.12 1.243 1.034 2.883-.245 4.69-1.438 2.029-3.719 2.895-7.621 2.895H.076zm14.555 2.817c-.27-.344-.634-1.244-.807-2-.174-.756-.463-1.994-.644-2.75-.465-1.955-5.045-7.095-6.597-7.405-.706-.14-2.459-.597-3.895-1.013-2.583-.75-2.612-.78-2.612-2.732 0-1.086.224-1.975.498-1.975.273 0 .497-.292.497-.648 0-.357.906-1.538 2.012-2.625C4.97 16.443 5.32 16.305 8.68 16.07l3.584-.25 2.355-4.467C19.397 2.286 23.348.07 34.739.07H40l-.263 7.125c-.145 3.919-.53 8.008-.857 9.088-.897 2.968-5.397 7.107-10.585 9.736l-4.34 2.199v6.546l-2.725 2.653c-2.205 2.147-3.049 2.653-4.417 2.653-.93 0-1.912-.281-2.182-.625zm4.35-9.817c0-3.97.377-4.46 5.472-7.087 5.078-2.62 8.132-4.775 9.098-6.423 1.4-2.39 2.333-6.044 2.338-9.173l.006-2.875-2.363.006c-2.497.005-6.017.911-8.444 2.172-2.277 1.184-4.685 4.196-7.053 8.822-3.123 6.104-2.991 6-7.63 6-4.415 0-4.894.603-1.546 1.941 2.238.895 7.563 6.473 8.614 9.022.941 2.285 1.507 1.381 1.507-2.405zm5.57-11.894c-2.207-1.093-3.26-3.246-2.947-6.028.764-6.816 9.518-7.337 11.73-.698.82 2.46-.716 5.818-3.124 6.83-2.23.936-3.61.91-5.659-.104zm4.16-4.712c.185-.301-.014-.9-.443-1.332-.628-.631-.925-.663-1.522-.165-.408.34-.62.94-.47 1.332.322.841 1.951.952 2.435.165z" fill="#fef3e8"/><path d="M.076 36.647c0-4.33.86-6.1 3.701-7.616 2.158-1.15 2.226-1.155 3.231-.24 1.481 1.347 1.281 2.106-.923 3.504-2.009 1.275-2.983 3.016-2.154 3.85.726.73 2.755-.42 3.72-2.11 1.016-1.78 2.124-2.297 3.127-1.46 1.794 1.497-.012 5.527-3.049 6.802-.908.381-3.002.693-4.652.693h-3zm15.031 2.798c-.282-.344-.853-1.941-1.27-3.55-1.02-3.94-4.765-8.38-7.592-9.002-1.067-.235-2.892-.76-4.055-1.166-3.034-1.061-2.93-2.678.404-6.345l2.518-2.77 3.55-.146 3.552-.146 2.667-4.75c1.467-2.612 3.269-5.389 4.005-6.17C22.3 1.78 27.441.07 34.924.07h4.95v5.226c0 6.145-.649 9.747-2.268 12.58-1.637 2.865-3.772 4.607-9.34 7.624l-4.808 2.605V34.764l-2.726 2.653c-2.751 2.678-4.557 3.33-5.625 2.028zm4.37-9.893c0-3.984-.055-3.92 6.652-7.508 2.7-1.445 5.639-3.36 6.53-4.254 2.062-2.073 3.23-5.439 3.59-10.345l.285-3.875h-2.113c-2.879 0-7.796 1.323-10.258 2.76-2.293 1.337-3.159 2.51-6.824 9.24l-2.587 4.75-3.98.25c-5.643.355-6.991 1.434-3.04 2.434 1.759.445 2.87 1.291 5.72 4.36 1.946 2.094 3.538 3.995 3.538 4.224 0 .23.241 1.05.535 1.825.516 1.357.56 1.373 1.244.437.446-.61.709-2.205.709-4.298zm4.734-12.566c-4.033-3.188-2.727-9.071 2.257-10.171 2.182-.482 4.99 1.079 6.118 3.398 1.158 2.382.797 3.982-1.397 6.187-2.052 2.062-4.818 2.294-6.978.586zm4.47-4.416c0-.916-.299-1.293-1.121-1.41-1.223-.174-1.917.898-1.422 2.195.18.471.749.721 1.422.625.822-.117 1.121-.493 1.121-1.41z" fill="#fee7d1"/><path d="M.112 36.695c.044-4.005.894-5.727 3.59-7.267 1.45-.828 2.083-.953 2.737-.539 1.53.969 1.252 2.071-.86 3.411-1.627 1.033-2.02 1.574-2.02 2.776 0 2.334 1.953 2.038 4.168-.63 1.486-1.792 1.903-2.039 2.653-1.572 1.306.813 1.313 1.786.026 3.721-1.561 2.35-3.979 3.474-7.47 3.474l-2.86.001zm15.007 2.25c-.3-.619-.814-2.25-1.142-3.625-.862-3.621-4.947-8.135-7.972-8.807C.468 25.283.076 25.101.076 23.76c0-.85.854-2.172 2.572-3.98 2.543-2.68 2.603-2.709 5.505-2.709 1.613 0 3.368-.234 3.9-.52.531-.286 1.871-2.328 2.976-4.538 2.244-4.484 5.253-8.07 7.909-9.426C25.95 1.047 30.807.07 35.438.07h4.437v4.96c0 5.298-.975 10.273-2.505 12.79-1.56 2.567-4.036 4.572-8.918 7.225-2.59 1.407-4.88 2.832-5.092 3.167-.211.334-.388 1.966-.392 3.625-.008 2.976-.044 3.053-2.635 5.625-2.843 2.822-4.354 3.252-5.214 1.483zm3.577-4.66c.557-.56.782-1.76.782-4.173 0-4.05-.013-4.035 6.49-7.568 2.587-1.405 5.544-3.371 6.572-4.369 2.458-2.386 3.78-6.04 3.958-10.95l.143-3.905-2.736.108c-3.51.139-6.606.961-9.583 2.546-2.598 1.384-4.48 3.877-7.514 9.952-.99 1.983-2.235 3.839-2.766 4.125-.531.285-2.339.52-4.016.52-3.014 0-4.975.592-4.975 1.503 0 .257 1.175.813 2.612 1.234 2.23.655 3.067 1.292 5.73 4.361 1.714 1.977 3.373 4.45 3.685 5.498.312 1.047.628 1.903.702 1.903.074 0 .486-.353.916-.785zm6.414-17.021c-1.583-.785-3.146-3.282-3.143-5.02.003-1.507 1.886-4.16 3.357-4.727.752-.29 2.127-.406 3.056-.257 5.093.816 6.06 7.755 1.39 9.982-2.127 1.014-2.652 1.017-4.66.022zm3.53-3.352c1.773-1.303-.214-4.212-2.073-3.036-1.187.751-1.332 1.909-.362 2.883.976.982 1.281 1.001 2.435.153z" fill="#fed6af"/><path d="M.112 36.945c.024-2.017.346-3.657.909-4.625.972-1.673 4.318-3.8 5.351-3.4 1.264.487.704 2.163-1.076 3.218-2.58 1.53-3.077 4.932-.72 4.932.935 0 2.381-1.23 4.373-3.72.52-.65.819-.702 1.369-.244.931.777.886 1.74-.168 3.574-1.104 1.918-4.415 3.39-7.628 3.39H.076zM15.02 38.07c-.284-1.1-.735-2.844-1-3.877-.322-1.247-1.448-2.832-3.359-4.725-2.323-2.303-3.35-2.951-5.361-3.385-3.644-.785-5.226-1.53-5.208-2.448.009-.448 1.108-2.052 2.442-3.565l2.426-2.75 3.901-.25 3.9-.25 2.36-4.478C19.899 3.28 24.144.698 35.057.217l4.882-.215-.21 5.41C39.292 16.72 37.316 20.02 27.996 25.02l-5.035 2.7v2.95c0 3.482-.684 4.992-3.41 7.524-2.69 2.498-3.861 2.466-4.53-.125zm4.18-4.111c.497-.712.775-2.211.775-4.173 0-3.678.066-3.75 6.491-7.243 2.586-1.406 5.415-3.242 6.286-4.08 2.43-2.34 3.737-5.933 4.03-11.088l.254-4.446-3.68.273c-8.241.61-11.827 3.016-15.633 10.49-3.287 6.454-3.199 6.378-7.439 6.378-3.15 0-3.702.145-4.721 1.235L4.409 22.54l1.191.451c.656.249 1.92.61 2.81.805 1.896.415 7.862 6.922 8.393 9.156.598 2.518 1.176 2.76 2.398 1.007zm5.928-16.885c-2.503-1.015-3.512-5.066-1.854-7.445.446-.64 1.566-1.481 2.487-1.868 3.228-1.356 6.651 1.196 6.651 4.959 0 3.645-3.651 5.828-7.284 4.354zm3.703-3.104c.882-.886.724-2.797-.274-3.323-.496-.261-1.352-.276-1.99-.034-1.921.73-1.211 3.957.87 3.957.438 0 1.065-.27 1.394-.6z" fill="#fec791"/><path d="M.076 37.11c0-1.848.311-3.504.83-4.412.989-1.732 3.884-3.752 5.053-3.525 1.388.268.937 1.758-.908 3.004-1.388.937-1.773 1.553-1.896 3.034-.147 1.774-.085 1.86 1.368 1.86 1.486 0 2.131-.483 3.958-2.96.937-1.268 2.54-1.193 2.54.12 0 .927-2.051 3.909-2.985 4.34-.41.189-1.247.604-1.859.922-.612.317-2.235.577-3.607.577H.076zm15.522 2.085c-.238-.481-.72-2.13-1.072-3.666-.511-2.232-1.2-3.414-3.44-5.909-2.3-2.56-3.202-3.206-5.04-3.607-7.098-1.548-7.258-1.843-3.238-5.932l2.693-2.739 3.732-.19 3.732-.189 2.297-4.47c1.263-2.457 2.983-5.254 3.822-6.215C22.33 2.562 27.82.502 35.306.192L39.94 0l-.212 5.16c-.447 10.92-2.545 14.69-10.55 18.958-6.845 3.65-6.715 3.508-6.715 7.378v3.358l-2.628 2.608c-2.821 2.8-3.56 3.103-4.237 1.733zM19.2 34.46c.514-.738.774-2.239.774-4.466 0-3.883-.124-3.75 6.904-7.468 7.236-3.828 9.49-7.103 10.227-14.863.454-4.772.088-5.255-3.656-4.821-3.856.447-7.256 1.487-9.846 3.013-2.355 1.387-4.256 4.01-7.268 10.028-.98 1.959-2.148 3.703-2.594 3.875-.447.172-2.288.313-4.09.313-2.353 0-3.536.234-4.189.828-1.473 1.34-1.065 2.035 1.564 2.669 2.07.499 2.974 1.133 5.532 3.882 2.732 2.935 3.512 4.167 4.591 7.246.414 1.182 1.12 1.101 2.05-.236zm6.44-17.36c-1.493-.633-3.178-2.95-3.178-4.371 0-4.831 6.54-7.021 8.976-3.006 1.35 2.226 1.227 4.052-.395 5.842-1.468 1.62-3.705 2.255-5.403 1.535zm3.29-3.029c.546-.55.994-1.263.994-1.585 0-.87-1.536-2.415-2.4-2.415-.968 0-2.575 1.453-2.575 2.328 0 .782 1.76 2.672 2.488 2.672.273 0 .945-.45 1.492-1z" fill="#febe81"/><path d="M.076 37.313c0-3.75 1.649-6.565 4.554-7.775 1.124-.468 1.609-.474 2.054-.026.445.447.081 1.024-1.544 2.447-1.52 1.33-2.156 2.289-2.227 3.361-.093 1.386.037 1.512 1.708 1.652 1.827.153 2.443-.316 4.237-3.223.536-.868.63-.874 1.434-.095.814.79.8.932-.27 2.673-1.353 2.2-4.548 3.743-7.749 3.743H.076zm15.545 1.382c-.272-.756-.853-2.614-1.291-4.128-.633-2.19-1.384-3.323-3.67-5.54-2.624-2.547-3.208-2.865-6.728-3.666-2.68-.609-3.856-1.102-3.856-1.616 0-.407 1.197-1.963 2.66-3.457C5.379 17.59 5.42 17.57 8.418 17.57c1.661 0 3.37-.135 3.8-.3.428-.166 1.845-2.334 3.149-4.818 1.303-2.485 3.2-5.378 4.215-6.429C23.061 2.419 28.723.387 35.397.346L39.626.32l-.047 4.75c-.056 5.626-.7 8.698-2.533 12.082-1.58 2.92-3.425 4.462-8.862 7.41-5.707 3.096-5.721 3.113-5.721 6.866 0 3.169-.027 3.23-2.56 5.922-1.408 1.496-2.836 2.72-3.173 2.72-.338 0-.837-.619-1.109-1.375zm3.445-3.952c.71-.647.91-1.568.91-4.215 0-2.382.226-3.615.765-4.156.422-.424 3.137-2.069 6.034-3.656 8.058-4.415 10.116-7.573 10.28-15.776l.084-4.12-3.057.045c-1.682.025-4.144.342-5.473.704-5.64 1.537-7.915 3.592-11.162 10.084-2.91 5.815-3.635 6.417-7.733 6.417-2.41 0-3.594.23-4.25.828-1.494 1.358-1.06 2.058 1.796 2.892 2.353.688 3.123 1.271 5.903 4.475 2.151 2.479 3.307 4.276 3.535 5.494.37 1.989.983 2.243 2.368.984zM24.6 16.319c-1.415-.997-2.304-3.747-1.713-5.302.665-1.748 2.198-2.95 4.17-3.272 1.446-.236 2.015-.033 3.41 1.22 3.399 3.052 1.562 8.105-2.947 8.105-1.019 0-2.332-.338-2.92-.751zm4.56-2.229c1.095-1.216.688-3.318-.73-3.77-2.565-.819-4.469 1.824-2.716 3.77.485.54 1.26.98 1.723.98.462 0 1.237-.44 1.723-.98z" fill="#feb56d"/><path d="M.076 37.664c0-3.059 1.55-6.34 3.465-7.335 3.14-1.632 4.191-.29 1.265 1.614-1.715 1.116-2.49 2.718-2.157 4.457.388 2.025 4.116 1.12 5.569-1.351.982-1.671 2.305-1.968 2.305-.517 0 2.53-4.848 5.538-8.924 5.538-1.488 0-1.523-.055-1.523-2.406zm15.41.281c-.302-1.169-.741-2.858-.976-3.753-.234-.896-1.674-3.057-3.198-4.802-2.73-3.124-2.835-3.187-6.79-4.046-2.21-.48-4.126-1.157-4.259-1.505-.133-.347 1.058-1.896 2.646-3.44l2.888-2.809 3.281-.01c3.866-.012 3.867-.012 6.968-5.947 2.728-5.22 5.716-8.064 10-9.519 1.693-.574 3.58-1.044 4.195-1.044.615 0 1.256-.225 1.425-.5.17-.275 1.95-.5 3.956-.5 2.868 0 3.713.17 3.95.791.499 1.305.341 8.126-.195 8.46-.273.17-.497.849-.497 1.51 0 .66-.477 2.504-1.06 4.095-1.41 3.85-4.45 6.748-10.303 9.82-5.112 2.684-5.545 3.266-5.562 7.482-.01 2.428-.17 2.758-2.523 5.217-1.382 1.444-2.711 2.625-2.955 2.625-.244 0-.69-.956-.992-2.125zm3.997-3.5c.704-1.16.987-2.517.988-4.744.002-3.064.034-3.139 1.886-4.314 1.036-.657 3.303-1.915 5.038-2.795 6.179-3.135 8.982-6.85 9.73-12.897.144-1.169.374-3.009.511-4.089.337-2.662-.555-3.517-3.348-3.209-4.343.48-8.892 1.821-11.052 3.26-2.406 1.6-3.3 2.845-6.76 9.393l-2.254 4.27-4.076.25c-3.313.203-4.278.453-5.152 1.334-1.433 1.442-.929 2.494 1.39 2.897 2.692.468 3.626 1.11 6.738 4.64 1.881 2.132 2.932 3.834 3.318 5.374.68 2.712 1.657 2.915 3.043.63zm5.008-18.67c-1.234-1.043-1.53-1.677-1.53-3.272 0-2.743 1.706-4.433 4.477-4.433 2.77 0 4.477 1.69 4.477 4.433 0 1.595-.296 2.229-1.53 3.273-.863.729-2.15 1.294-2.947 1.294-.798 0-2.085-.565-2.947-1.294zm4.837-1.305c.77-.773.77-3.026 0-3.8-.77-.773-3.011-.773-3.78 0-.896.9-.727 3.275.273 3.86 1.185.694 2.784.666 3.507-.06z" fill="#fea650"/><path d="M.698 39.734c-.965-.383-.683-3.67.527-6.138 1.181-2.412 4.019-4.532 4.891-3.655.335.337-.082.864-1.263 1.597-1.187.738-1.92 1.669-2.245 2.851-.688 2.504-.267 3.181 1.975 3.181 1.632 0 2.147-.292 3.5-1.985.874-1.092 1.78-1.866 2.014-1.72 1.466.91-1.873 4.418-4.921 5.168l-3.11.765c-.41.101-1.026.072-1.368-.064zm15.084-1.517c-.708-4.038-1.872-6.45-4.485-9.297-2.536-2.762-2.858-2.947-6.792-3.89-2.271-.546-4.198-1.061-4.282-1.145-.084-.085 1.075-1.427 2.575-2.984l2.728-2.83h3.417c4 0 3.97.023 7.01-5.75 1.157-2.2 2.928-4.874 3.934-5.94 2.107-2.234 6.74-4.527 10.15-5.025C31.332 1.167 32.52.8 32.68.54c.486-.79 5.683-.563 6.527.286.894.898.696 5.225-.458 10.018-1.693 7.03-3.725 9.495-11.117 13.483-2.432 1.312-4.702 2.734-5.044 3.16-.342.425-.622 2.115-.622 3.754 0 2.908-.065 3.051-2.61 5.78-1.435 1.539-2.752 2.864-2.925 2.945-.174.08-.465-.707-.648-1.75zm4.69-7.663c0-3.95-.026-3.918 6.22-7.288C35.155 18.7 37.304 15.452 37.52 6.903l.116-4.583-3.437.082c-8.777.21-13.145 3.045-17.209 11.169-2.827 5.651-3.254 6-7.369 6-3.095 0-3.51.126-4.78 1.459-.765.802-1.26 1.67-1.102 1.93.16.259 1.621.846 3.248 1.305 2.671.753 3.249 1.178 5.936 4.363 1.947 2.308 3.096 4.163 3.32 5.36.461 2.472 1.219 2.795 2.857 1.217 1.23-1.184 1.373-1.669 1.373-4.65zm4.391-14.503c-1.374-.806-2.09-3.703-1.315-5.327 1.762-3.692 7.254-3.11 8.122.862.35 1.606-.764 4.19-2.016 4.674-1.2.462-3.842.347-4.79-.209zm4.565-1.48c1.195-1.202 1.262-2.394.22-3.89-.967-1.387-2.88-1.438-4.2-.11-1.284 1.29-1.26 2.402.086 3.842 1.329 1.421 2.585 1.472 3.894.157z" fill="#fe942d"/><path d="M15.706 36.332c-.83-3.516-1.257-4.346-3.606-7-3.212-3.629-3.802-3.964-8.417-4.782-1.984-.352-3.607-.829-3.607-1.06 0-.23.313-.42.695-.42.381 0 1.584-1.06 2.672-2.355L5.42 18.36l3.67-.2c2.02-.11 3.97-.445 4.336-.743.365-.297 1.557-2.324 2.647-4.503 3.499-6.995 7.26-10.007 13.851-11.093 1.231-.203 2.843-.68 3.582-1.06 1.869-.961 5.373-.922 5.373.06 0 .412.224.75.497.75.654 0 .646 4.65-.009 5.308-.278.28-.756 1.956-1.06 3.725-.672 3.894-2.253 7.174-4.483 9.3-.914.87-3.788 2.734-6.387 4.14-2.6 1.407-5.006 2.931-5.348 3.388-.342.456-.622 2.193-.622 3.859 0 2.896-.096 3.128-2.164 5.28-1.19 1.237-2.274 2.587-2.41 3-.136.412-.67-1.046-1.188-3.24zm3.976-1.3c1.09-1.302 1.288-2.027 1.288-4.716 0-3.679-.078-3.596 6.903-7.29 7.201-3.812 9.506-7.457 10.319-16.32.45-4.902.051-5.36-4.271-4.922-9.236.936-13.226 3.67-17.569 12.036l-2.595 5-3.73.15c-3.242.13-3.907.321-5.099 1.468-2.192 2.111-1.83 3 1.613 3.961 2.662.744 3.296 1.196 5.9 4.206 2.022 2.339 3.092 4.077 3.491 5.669.7 2.794 1.851 3.026 3.75.758zm5.923-18.946c-2.36-.997-2.854-4.35-.926-6.289 3.44-3.457 8.97 1.46 5.868 5.216-1.009 1.221-3.375 1.735-4.942 1.073zm5.03-2.801c.99-3.961-4.773-5.69-6.22-1.867-.577 1.528.447 3.462 2.181 4.119 1.509.571 3.63-.611 4.04-2.252zM.077 38.135c0-.593.218-1.469.485-1.947.267-.477.809-1.697 1.205-2.71.447-1.144 1.316-2.152 2.297-2.661 2.19-1.139 2.415-.602.279.665-1.83 1.085-2.464 2.502-2.19 4.903.144 1.27.384 1.453 2.074 1.593 1.684.14 2.143-.086 3.856-1.896 2.1-2.22 2.417-2.222 1.115-.007-1.045 1.78-2.493 2.441-6.188 2.83-2.767.29-2.933.247-2.933-.77z" fill="#fe8918"/></symbol><symbol id="wrench-icon" viewBox="0 0 40 40.271946"><path d="M3.76 39.829c-.587-.237-1.651-1.196-2.364-2.13C.32 36.288.099 35.47.099 32.905v-3.092L7.322 22.4l7.223-7.414-.317-2.695c-.425-3.615.737-7.056 3.174-9.404C19.726.647 22.01.02 27.843.017c4.469-.004 4.603.03 4.603 1.138 0 .645-1.08 2.42-2.488 4.084-1.368 1.618-2.488 3.073-2.488 3.234 0 .16.957 1.23 2.126 2.378l2.127 2.087 3.163-2.759c1.89-1.648 3.454-2.646 3.886-2.48.397.152.816.277.93.277.45 0 .172 8.824-.336 10.699-.686 2.533-3.513 5.48-6.264 6.53-2.081.795-5.232.768-7.26-.063-.689-.282-2.355 1.171-7.679 6.697-3.739 3.882-7.419 7.379-8.176 7.77-1.516.785-4.562.892-6.227.22zm11.59-11.43c4.251-4.369 8.146-8.076 8.656-8.237.509-.162 1.598.053 2.419.478 3.136 1.621 7.35.437 8.72-2.452 1.378-2.903 1.024-3.558-.974-1.804-.968.85-2.13 1.544-2.581 1.544-1.228 0-9.097-8.066-9.097-9.324 0-.577.588-1.748 1.306-2.602.719-.853 1.183-1.676 1.031-1.827-.569-.57-3.307.428-4.528 1.649-1.656 1.656-2.075 4.112-1.274 7.454l.648 2.7-8.046 8.101c-4.426 4.455-8.047 8.409-8.047 8.786 0 .902 2.485 3.476 3.357 3.476.375 0 4.16-3.574 8.41-7.943z" fill="#fee7d0"/><path d="M5.413 39.915c-.821-.095-2.218-.976-3.36-2.117C.243 35.988.1 35.638.1 33.048V30.25l7.479-7.576 7.478-7.577-.324-2.751C14.102 6.99 16.774 2.432 21.498.8 24.505-.237 31.731-.277 32.122.743c.162.422-.602 1.813-1.813 3.3-3.91 4.802-3.823 4.181-.992 7.012l2.512 2.512 3.075-2.826c4.085-3.756 4.714-3.6 4.909 1.221.265 6.54-1.886 10.744-6.48 12.66-2.203.918-5.318.998-7.11.181-1.249-.568-1.571-.315-9.106 7.16-7.859 7.797-8.616 8.312-11.704 7.952zM15.765 28.88c4.385-4.378 8.12-8.09 8.3-8.248.18-.16 1.416.098 2.748.57 3.108 1.105 5.593.672 7.586-1.321 1.388-1.389 2.522-4.61 1.856-5.277-.16-.16-1.09.41-2.068 1.268-.976.857-2.16 1.56-2.629 1.56-1.135.004-8.567-7.793-8.567-8.985 0-.514.672-1.7 1.493-2.635 1.817-2.069 1.842-2.315.233-2.315-2.01 0-4.43 1.239-5.446 2.787-1.015 1.55-1.267 5.245-.55 8.048.411 1.602.285 1.763-7.609 9.752-4.415 4.467-8.027 8.51-8.027 8.984 0 1.134 2.663 3.77 3.809 3.77.498 0 4.46-3.555 8.871-7.958z" fill="#fed6b0"/><path d="M2.254 37.577C.364 35.605.099 35.053.099 33.085c0-2.22.082-2.328 7.636-10.13l7.635-7.888-.23-2.776c-.348-4.19.202-6.128 2.423-8.538C20.025 1.082 23.06.013 28.185.013c4.676 0 4.812.5 1.288 4.737-1.362 1.637-2.481 3.322-2.488 3.744-.014.836 3.942 4.956 4.759 4.956.277 0 1.76-1.12 3.295-2.489 1.536-1.368 3.26-2.488 3.832-2.488.96 0 1.04.278 1.033 3.608-.01 4.376-1.025 7.532-3.137 9.747-2.618 2.743-4.008 3.231-8.358 2.933l-3.838-.263-7.669 7.663-7.67 7.664H6.82c-2.21 0-2.592-.188-4.566-2.248zm13.527-8.728c8.573-8.608 7.844-8.185 12.186-7.073 3.669.94 7.462-1.218 8.46-4.815.967-3.478.16-4.026-2.239-1.52-.787.82-1.91 1.492-2.495 1.492-1.074 0-8.702-7.324-8.702-8.356 0-.279.784-1.445 1.742-2.592 2.092-2.504 2.158-2.986.406-2.986-2.024 0-5.299 1.79-6.264 3.425-.965 1.634-1.148 5.706-.35 7.804.486 1.281.152 1.702-7.465 9.411-5.748 5.817-7.975 8.396-7.975 9.24 0 1.466 2.334 3.96 3.707 3.96.672 0 3.814-2.793 8.989-7.99z" fill="#fec792"/><path d="M2.545 37.46C.415 35.39.114 34.844.107 33.043.1 31.062.38 30.697 7.8 23.03l7.7-7.959-.296-3.175c-.247-2.652-.113-3.566.816-5.541 1.248-2.655 3.4-4.705 5.392-5.135.732-.158 1.785-.506 2.34-.772 1.342-.643 7.816-.344 8.052.372.101.306-1.063 2.078-2.587 3.938-1.524 1.86-2.709 3.544-2.633 3.743.189.491 4.165 4.764 4.797 5.155.279.173 1.892-.923 3.586-2.434 1.693-1.511 3.498-2.748 4.011-2.748.82 0 .933.408.933 3.366 0 8.09-4.39 13.431-10.638 12.942-1.402-.11-2.949-.38-3.437-.6-.71-.32-2.502 1.196-9.005 7.622-7.588 7.498-8.24 8.022-9.987 8.022-1.556 0-2.274-.395-4.299-2.364zm13.507-8.377l8.306-8.254 2.438.866c4.16 1.477 7.86.05 9.395-3.624.73-1.745 1.003-4.621.44-4.621-.162 0-1.21.783-2.33 1.741-1.118.958-2.338 1.742-2.709 1.742-.867 0-8.07-7.488-8.09-8.408-.007-.383.77-1.652 1.728-2.821.958-1.17 1.742-2.256 1.742-2.415 0-.643-3.843-.232-5.439.582-2.602 1.327-3.682 3.134-3.706 6.201-.011 1.447.15 3.303.356 4.124.358 1.418-.027 1.914-7.61 9.815-4.392 4.577-7.985 8.686-7.985 9.132 0 1.09 3.16 4.194 4.271 4.194.488 0 4.625-3.715 9.193-8.254z" fill="#febe80"/><path d="M4.33 38.897C1.771 37.314.1 35.035.1 33.132c0-1.543.8-2.57 7.589-9.732l7.589-8.006.003-3.834c.002-3.154.22-4.212 1.225-5.973C18.489 2.115 22.916.033 28.34.021c2.82-.007 3.11.089 3.11 1.027 0 .569-1.12 2.322-2.488 3.895-1.369 1.574-2.488 3.188-2.488 3.588 0 .744 4.446 5.416 5.154 5.416.216 0 1.857-1.242 3.646-2.76 1.79-1.518 3.509-2.676 3.82-2.573.912.3.952 5.543.063 8.181-1.392 4.126-2.92 5.958-6.15 7.368-2.01.877-4.307.936-6.511.168l-1.619-.564-7.537 7.478c-9.294 9.22-9.9 9.577-13.012 7.652zm11.711-9.789l8.24-8.228 1.827.764c5.196 2.17 10.027-.6 11.032-6.328.282-1.608.199-1.866-.603-1.866-.512 0-1.474.58-2.138 1.29-2.521 2.695-2.715 2.65-6.991-1.601-2.156-2.143-3.92-4.201-3.92-4.575 0-.373.784-1.595 1.742-2.714 2.4-2.804 2.313-3.528-.373-3.095-4.253.685-6.78 3.087-7.204 6.847-.139 1.23.02 3.062.353 4.07l.605 1.833-8.012 8.142c-5.619 5.71-8.011 8.48-8.011 9.275 0 1.424 2.843 4.415 4.198 4.415.65 0 3.982-2.963 9.255-8.229z" fill="#feb56e"/><path d="M5.65 39.426c-.642-.1-2.153-1.21-3.359-2.468-3.702-3.864-3.575-4.17 5.703-13.69l7.895-8.1-.206-3.72c-.177-3.214-.048-3.99.946-5.697 1.243-2.132 3.79-4.113 5.835-4.538.7-.145 1.662-.475 2.138-.732.475-.257 2.21-.468 3.856-.468 3.746 0 3.892.708.872 4.239-3.926 4.59-3.848 3.938-.84 6.984 1.473 1.491 2.963 2.711 3.312 2.711.348 0 1.87-1.12 3.381-2.488 1.511-1.368 3.193-2.488 3.738-2.488 2.457 0 .363 9.928-2.725 12.921-2.268 2.199-5.648 3.075-9.173 2.378l-2.627-.52-7.794 7.728c-4.287 4.25-8.242 7.818-8.79 7.928-.546.111-1.52.12-2.162.02zm10.647-10.09l8.054-8.002 2.636.783c3.229.959 5.924.4 7.98-1.655 1.93-1.931 3.337-7.51 1.894-7.51-.309 0-1.43.784-2.49 1.742-1.06.958-2.351 1.742-2.869 1.742-.545 0-2.45-1.675-4.534-3.986-3.954-4.387-3.884-3.796-.879-7.353 2.006-2.375 1.812-2.785-1.155-2.434-6.009.712-8.316 4.215-7.198 10.927l.396 2.38-7.772 7.87c-8.63 8.74-8.97 9.39-6.318 12.042 2.678 2.677 3.309 2.34 12.255-6.547z" fill="#fea651"/><path d="M4.326 38.41c-2.874-1.752-5.407-6.438-3.853-7.128.205-.091 3.807-3.68 8.005-7.973L16.11 15.5l-.343-3.202c-.28-2.612-.164-3.606.628-5.396 1.203-2.72 3.503-4.71 6.245-5.4 1.151-.29 2.607-.745 3.236-1.009 1.221-.514 5.575-.67 5.575-.2 0 .685-1.316 2.644-3.313 4.936-1.189 1.364-2.161 2.827-2.161 3.252 0 .832 4.94 5.963 5.742 5.963.267 0 1.898-1.232 3.624-2.737 1.726-1.505 3.46-2.737 3.853-2.737 1.976 0-.446 9.75-3.12 12.556-2.6 2.73-6.131 3.426-10.557 2.081-1.071-.325-1.954.415-8.022 6.729C8.438 39.763 7.493 40.342 4.326 38.41zm11.944-8.806l8-8.23 1.832.765c4.034 1.685 8.236.433 10.18-3.035 1.218-2.172 1.725-6.174.824-6.494-.311-.11-1.612.705-2.892 1.812-1.28 1.108-2.498 2.014-2.71 2.014-.581 0-7.518-7.282-7.518-7.892 0-.294.64-1.27 1.42-2.168 1.963-2.26 2.693-3.734 2.047-4.134-.79-.488-4.482.263-6.619 1.346-3.257 1.651-4.742 6.971-3.069 10.998.29.698-1.342 2.619-7.653 9.005-9.037 9.145-9.226 9.522-6.264 12.485 3.016 3.016 3.388 2.822 12.422-6.472z" fill="#fe942c"/><path d="M2.526 36.325C1.19 34.948.099 33.492.099 33.09c0-.403 3.699-4.521 8.219-9.153l8.218-8.42-.293-3.397c-.253-2.934-.135-3.703.863-5.633 1.161-2.243 3.846-4.493 5.337-4.472.438.006-.15.44-1.308.966-3.576 1.624-5.313 6.02-4.124 10.438l.576 2.137-7.998 8.09c-4.398 4.45-7.997 8.484-7.997 8.966 0 2.522 3.964 6.074 6.102 5.467.613-.174 4.633-3.939 8.934-8.367 7.23-7.444 7.897-8.003 8.844-7.418 2.03 1.255 5.232 1.318 7.642.151 2.446-1.184 3.65-2.685 4.61-5.75.75-2.393.905-1.288.184 1.309-.644 2.316-3.832 5.234-6.206 5.68-.99.185-2.627.173-3.638-.028-3.911-.779-3.89-.792-11.833 7.415-7.09 7.326-7.614 7.758-9.394 7.758-1.61 0-2.239-.364-4.311-2.504zM27.808 12.51c-1.828-1.885-3.324-3.75-3.324-4.143 0-.394.581-1.258 1.291-1.922 2.587-2.416 3.128-4.939 1.06-4.939-1.029 0-1.03-.014-.082-.73 1.282-.97 4.2-1.004 4.2-.048 0 .393-1.231 2.127-2.737 3.853-1.505 1.726-2.737 3.484-2.737 3.906 0 1.161 5.089 5.958 6.32 5.958.586 0 2.29-1.12 3.787-2.488 1.498-1.369 3.083-2.488 3.524-2.488.96 0 1.071 1.848.224 3.707l-.577 1.266-.543-1.079c-.86-1.712-1.588-1.61-3.932.551-1.208 1.113-2.41 2.024-2.673 2.024-.263 0-1.973-1.543-3.801-3.428zM23.893 1.664c.36-.144.788-.126.954.04.165.165-.129.282-.653.26-.58-.023-.698-.141-.301-.3z" fill="#fe8917"/></symbol></svg>