<svg xmlns="http://www.w3.org/2000/svg" width="32" height="5.987" viewBox="0 0 32 5.9867125"><path d="M.618 5.572C.185 5.297.017 4.33.12 2.71L.275.264 2.653.11c1.645-.105 2.616.086 3.15.62.69.689.929.692 2.213.028C9.16.168 11.618.014 19.92.014c5.755 0 10.818.136 11.252.303.5.192.79.909.79 1.955 0 3.382.557 3.231-11.934 3.231-8.916 0-11.532-.149-12.283-.698-.834-.61-1.106-.578-2.158.25-1.244.978-3.818 1.246-4.968.517z" fill="#fef4ea"/><path d="M.835 5.36c-.661-.483-.839-1.192-.72-2.87L.276.265l2.17-.157C4.897-.068 6.517.97 6.504 2.71c-.01 1.326-.461 1.996-1.83 2.717-1.426.75-2.752.727-3.839-.068zm7.174-.855c-1.286-1.286-1.261-2.21.094-3.474C9.133.073 9.816.014 19.979.014c7.722 0 10.954.17 11.383.599.773.773.773 3.518 0 4.291-.43.43-3.682.599-11.477.599-10.213 0-10.94-.061-11.876-.998z" fill="#feecd9"/><path d="M.898 5.307C-.114 4.54-.29 1.527.624.613c1.004-1.004 3.915-.725 4.956.475 1.258 1.45 1.174 2.242-.388 3.69-1.46 1.354-2.964 1.539-4.294.53zm7.72-.58C7.139 3.688 7.197 1.831 8.74.82 9.772.144 11.596.017 20.092.03c7.625.012 10.337.18 10.995.679 1.21.918 1.152 3.612-.092 4.277-.574.308-5.073.517-11.116.517-8.38 0-10.345-.136-11.26-.777z" fill="#fee5cc"/><path d="M.85 5.09C-.111 4.025-.24 1.477.625.612c.909-.91 3.626-.722 4.563.314 1.138 1.257 1.034 2.847-.266 4.058-1.355 1.262-2.985 1.304-4.07.104zM8 3.986C7.262 2.611 7.766 1.283 9.289.59c1.728-.787 19.672-.784 21.4.004.981.447 1.272.948 1.272 2.192 0 1.01-.295 1.726-.79 1.916-.434.167-5.703.303-11.709.303C8.986 5.004 8.521 4.963 8 3.987z" fill="#fed9b3"/><path d="M1.148 5.166C-.152 4.26-.375 1.84.738.726c1.056-1.055 3.274-.87 4.343.362 1.258 1.45 1.174 2.242-.388 3.69-1.524 1.412-2.003 1.465-3.545.388zm7.46-.76c-.917-.918-.713-2.799.366-3.376 1.288-.69 20.734-.69 22.021 0 1.08.577 1.283 2.458.367 3.375-.849.848-21.906.848-22.754 0z" fill="#feca95"/><path d="M1.148 5.032C-1.007 3.235.056.014 2.804.014c2.577 0 3.595 3.128 1.618 4.97-1.334 1.244-1.833 1.25-3.274.048zm7.631-.699C7.341 3.281 8.094 1.22 10.061.826c2.676-.535 18.649-.35 20.328.235 1.843.642 2.186 2.581.606 3.426-1.528.818-21.072.683-22.216-.154z" fill="#fec58b"/><path d="M1.398 5.083C-.228 4.102-.446 2.092.938.84c1.27-1.15 2.88-1.03 3.8.283 1.072 1.531.973 2.524-.379 3.794-1.332 1.251-1.177 1.242-2.96.166zm7.333-1.106c-.712-.787-.805-1.225-.398-1.871.467-.741 1.805-.862 10.957-.986 5.734-.077 10.93-.017 11.548.135.725.177 1.123.65 1.123 1.333 0 2.163-1.104 2.383-12.024 2.4-9.75.015-10.324-.037-11.206-1.011z" fill="#feb569"/><path d="M1.148 4.667c-1.39-.969-1.436-2.344-.125-3.655C2.421-.386 3.657-.231 4.66 1.466c.945 1.6.717 2.81-.669 3.552-1.176.63-1.495.59-2.843-.35zm7.693-.495c-.636-.635-.329-2.556.456-2.857 1.377-.528 20.667-.338 21.698.214 1.165.623 1.272 2.253.176 2.673-1.078.414-21.915.386-22.33-.03z" fill="#feac56"/><path d="M.898 4.31c-1.15-.874-1.105-2.068.125-3.298S3.447-.263 4.32.887C6.331 3.537 3.547 6.32.898 4.31zm8.209-.404c-.875-.874-.734-1.789.366-2.377C10.71.866 28.95.84 30.681 1.499c1.612.613 1.709 2.276.157 2.691-2.225.597-21.098.35-21.731-.284z" fill="#fea141"/><path d="M1.148 4.395C-.102 3.792-.44 1.511.72 1.511c.382 0 .825-.337.982-.748.432-1.126 1.601-.902 2.507.481 1.005 1.533 1.008 1.99.022 2.976-.9.9-1.509.934-3.083.175zm8.123-.566c-.567-.414-.803-.995-.61-1.497.278-.727 1.546-.821 11.018-.821 5.887 0 11.058.136 11.492.303 1.207.463.94 1.66-.49 2.204-2.072.788-20.294.627-21.41-.19z" fill="#fe9b35"/><path d="M1.397 4.326c-1.711-.64-1.742-1.61-.099-3.132 1.575-1.46 1.75-1.452 2.887.11 1.556 2.136-.164 4-2.788 3.022zm8.608-.185c-1.121-.426-1.506-1.27-.908-1.99.4-.482 3.002-.638 10.575-.633 5.524.004 10.548.142 11.166.308 1.608.43 1.384 1.492-.449 2.131-1.613.563-18.978.72-20.384.184z" fill="#fe9629"/><path d="M.898 3.966C-.162 3.349-.259 2.01.756 2.01c.402 0 .971-.45 1.265-.998.294-.549.724-.998.955-.998.642 0 1.692 2.876 1.363 3.734-.33.86-2.14.975-3.44.218zm8.27-.759c-.169-.44.007-.997.39-1.24.79-.5 18.454-.622 20.843-.144 1.814.363 2.064 1.433.437 1.868-.618.166-5.677.304-11.243.308-8.823.006-10.16-.095-10.427-.792z" fill="#fe8d16"/><path d="M.898 3.672C-.313 3.342-.2 2.01 1.038 2.01c.558 0 1.145-.341 1.305-.759.242-.628.455-.57 1.244.34.524.603.874 1.338.777 1.632-.19.583-2.08.828-3.466.45zm8.641-.374c-.532-.642-.516-.827.095-1.061 1.08-.415 21.68-.045 22.12.397.905.908-1.015 1.132-10.972 1.282-9.116.137-10.688.05-11.243-.618z" fill="#fe8609"/><path d="M1.785 3.529c-.162-.263-.625-.35-1.027-.196-.403.154-.733.081-.733-.162 0-.672 2.803-1.588 3.514-1.148.343.212.485.745.317 1.184-.337.878-1.605 1.075-2.071.322zm7.842-.635c.267-.8 20.263-.933 20.462-.135.08.317-3.657.548-10.274.634-8.234.106-10.355.003-10.188-.5zm21.336.114a.5.5 0 0 1 .499-.499.5.5 0 0 1 .499.499.5.5 0 0 1-.5.499.5.5 0 0 1-.498-.499z" fill="#fe8201"/></svg>