<svg xmlns="http://www.w3.org/2000/svg" width="19" height="19.041" viewBox="0 0 19 19.040586"><path d="M14.895 18.15c-.753-.397-1.369-.908-1.369-1.137 0-.228-1.847-.313-4.105-.187-3.532.196-4.332.085-5.727-.797C1.03 14.345.094 12.294.093 8.128.089 1.845 1.87.065 8.153.068c2.721.002 4.03.245 5.222.972 3.027 1.845 4.331 5.234 3.575 9.283-.319 1.705-.268 2.57.183 3.139C18.344 14.991 19 16.489 19 17.725c0 1.045-.225 1.242-1.368 1.198-.753-.03-1.985-.377-2.737-.774zm-3.857-7.136c1.402-1.402 1.352-4.605-.094-5.952-1.406-1.31-3.883-1.303-5.561.017-1.698 1.335-1.807 4.099-.23 5.778 1.41 1.5 4.461 1.581 5.885.157z" fill="#fef3e8"/><path d="M14.68 17.413c-1.536-1.537-1.603-1.553-3.933-.967-3.023.762-5.808.289-7.706-1.308C.836 13.282.091 11.459.093 7.928.096 2.305 2.47.067 8.436.067c3.198 0 3.552.115 5.487 1.771 2.679 2.293 3.44 4.82 2.594 8.604-.593 2.646-.585 2.68.943 4.256.95.98 1.54 2.105 1.54 2.934 0 1.97-2.245 1.856-4.32-.218zm-3.37-6.128c1.354-1.354 1.66-4.386.583-5.788-1.782-2.322-4.818-2.54-6.864-.493-2.047 2.047-1.83 5.082.492 6.865 1.402 1.076 4.434.77 5.789-.584z" fill="#fee7d0"/><path d="M14.652 17.23c-1.781-1.524-2.205-1.681-3.356-1.243-3.583 1.362-7.408.16-9.904-3.112C.29 11.428.091 10.663.091 7.844c0-3.275.034-3.36 2.226-5.551C4.509.1 4.594.066 7.868.066c2.82 0 3.585.198 5.032 1.302 3.287 2.507 4.543 6.56 3.049 9.84-.5 1.098-.362 1.472 1.244 3.347 3.464 4.047 1.49 6.126-2.54 2.676zm-4.346-4.82c1.485-.677 2.723-2.753 2.723-4.568 0-1.641-2.143-4.11-3.851-4.437-1.566-.299-4.03.588-5.05 1.818-1.015 1.224-.872 4.614.249 5.86 1.68 1.868 3.732 2.328 5.929 1.327z" fill="#fed7b0"/><path d="M15.02 17.182c-1.606-1.604-1.899-1.712-3.733-1.371-4.914.913-7.92-.086-9.955-3.309C-3.333 5.112 5.18-3.33 12.584 1.344c2.58 1.628 4.2 4.98 3.686 7.624-.192.989-.45 2.357-.572 3.041-.165.926.229 1.713 1.54 3.077 3.4 3.536 1.251 5.565-2.219 2.096zm-3.581-5.416c1.76-1.48 2.232-3.423 1.348-5.539-1.242-2.974-4.231-3.975-7.233-2.423-1.807.934-2.478 2.146-2.478 4.479 0 4.125 5.083 6.242 8.363 3.483z" fill="#fec78f"/><path d="M15.149 16.88c-2.025-2.024-2.151-2.074-3.76-1.492-2.087.755-5.056.775-6.48.044-1.597-.821-3.823-3.013-3.823-3.765 0-.36-.224-.653-.498-.653-.273 0-.497-1.124-.497-2.498 0-4.533 3.706-8.45 7.997-8.45 2.052 0 3.392.56 5.361 2.24 2.477 2.112 3.227 5.563 1.967 9.048-.577 1.596-.523 1.733 1.493 3.787C18.059 16.313 19 17.655 19 18.124c0 1.476-1.672.936-3.851-1.243zm-4.06-4.514c3.441-2.313 2.98-7.519-.806-9.101-1.015-.424-2.31-.593-3.105-.406-1.754.413-3.933 2.44-4.332 4.03-.485 1.932.639 4.582 2.397 5.654 2.066 1.26 3.784 1.208 5.846-.177z" fill="#feb76d"/><path d="M15.167 16.899l-2.078-2.078-2.695.647c-3.99.957-6.261.068-8.955-3.506C-.045 9.993-.407 6.626.713 5.21c.802-1.015 3.506-3.719 4.52-4.52.934-.739 5.308-.842 5.308-.125 0 .274.293.498.652.498 1.085 0 3.732 2.933 4.358 4.83.46 1.396.448 2.365-.056 4.467l-.644 2.685 2.074 2.114C18.066 16.32 19 17.655 19 18.124c0 1.472-1.67.938-3.833-1.225zm-4.21-4.101c1.275-.66 2.088-1.813 2.768-3.927.419-1.303-.85-3.982-2.502-5.286-2.067-1.631-5.353-1.215-7.26.919-2.056 2.301-1.94 5.059.308 7.306 1.897 1.897 4.254 2.245 6.685.988z" fill="#fea951"/><path d="M15.183 16.568c-2.04-2.26-2.104-2.289-3.767-1.687-3.945 1.426-7.492.27-9.837-3.204C.076 9.45-.34 7.007.594 5.892c.276-.33.976-1.231 1.555-2.002C3.522 2.06 6.712.066 8.266.066c1.651 0 5.597 2.724 6.513 4.495.898 1.737.95 4.553.125 6.833-.602 1.665-.572 1.733 1.742 3.92 2.546 2.405 2.775 2.896 1.567 3.36-.95.364-.553.64-3.03-2.106zm-3.035-4.444c3.129-3.129 1.882-8.03-2.425-9.53-1.857-.648-2.192-.624-3.964.28A6.61 6.61 0 0 0 2.87 5.78c-.864 1.742-.887 2.102-.248 3.933 1.496 4.294 6.402 5.536 9.525 2.412z" fill="#fe972c"/><path d="M16.296 17.083c-2.486-2.874-3.194-3.158-5.865-2.354-3.751 1.129-7.489-.435-8.84-3.698C1.247 10.2.768 9.52.528 9.52S.091 8.85.091 8.028c0-.82.202-1.493.449-1.493.246 0 .869-.81 1.382-1.8C2.714 3.21 4.702 1.6 7.448.26c.849-.415 4.928 1.738 6.123 3.231 1.611 2.015 2.054 4.604 1.2 7.023-.41 1.165-.747 2.202-.747 2.304 0 .563 3.708 4.168 4.287 4.168.855 0 .876.386.067 1.177-.493.482-.926.257-2.082-1.079zm-4.76-4.012c3.431-2.53 3.742-6.376.757-9.361-1.341-1.341-2.043-1.653-3.718-1.653-2.977 0-4.923 1.19-6.028 3.688-.734 1.658-.836 2.484-.469 3.765 1.249 4.354 5.97 6.132 9.458 3.561z" fill="#fe8b14"/><path d="M17.872 17.919c.338-.34.74-.493.892-.34.154.153-.123.431-.613.618-.71.27-.767.213-.279-.278zm-2.154-2.053l-.948-1.12 1.12.948c1.052.89 1.346 1.291.948 1.291-.095 0-.598-.504-1.12-1.12zM3.278 12.88l-.948-1.12 1.12.948C4.502 13.6 4.796 14 4.398 14c-.095 0-.599-.504-1.12-1.12zm9.253-.124c.643-.685 1.242-1.244 1.33-1.244.09 0 .163.56.163 1.244 0 1.016-.243 1.244-1.33 1.244h-1.332zM.713 9.192c-.845-.341-.784-1.405.124-2.159.637-.528.747-.39.747.934 0 .855-.056 1.536-.125 1.515a21.157 21.157 0 0 1-.746-.29zm12.12-5.567l-.943-1.32 1.164 1.106c.64.609 1.064 1.203.942 1.32-.121.118-.645-.38-1.163-1.106zM7.383.792c.326-.85 1.244-.745 1.55.176.11.329-.256.591-.823.591-.716 0-.933-.23-.727-.767z" fill="#fe870a"/></svg>